<svg width="current" height="current" viewBox="0 0 24 24" fill="none" xmlns="http://www.w3.org/2000/svg">
<g clip-path="url(#clip0_730_5808)">
<path fill-rule="evenodd" clip-rule="evenodd" d="M16.87 14.0001C16.6405 12.8698 16.0273 11.8537 15.1343 11.1238C14.2413 10.3938 13.1234 9.99512 11.97 9.99512C10.8167 9.99512 9.69877 10.3938 8.80576 11.1238C7.91274 11.8537 7.29953 12.8698 7.07001 14.0001C6.93532 14.66 6.93532 15.3403 7.07001 16.0001C7.29953 17.1304 7.91274 18.1466 8.80576 18.8765C9.69877 19.6064 10.8167 20.0051 11.97 20.0051C13.1234 20.0051 14.2413 19.6064 15.1343 18.8765C16.0273 18.1466 16.6405 17.1304 16.87 16.0001C17.0033 15.3401 17.0033 14.6601 16.87 14.0001ZM12.47 17.0001H11.47V15.5001H9.97002V14.5001H11.47V13.0001H12.47V14.5001H13.97V15.5001H12.47V17.0001Z" fill="white"/>
<path d="M2 4V16H7.1C6.96531 15.3401 6.96531 14.6599 7.1 14H4V6H20V14H16.87C17.0033 14.66 17.0033 15.34 16.87 16H21.97V4H2Z" fill="white"/>
</g>
<defs>
<clipPath id="clip0_730_5808">
<rect width="20" height="16" fill="white" transform="translate(2 4)"/>
</clipPath>
</defs>
</svg>
