<svg width="24" height="24" viewBox="0 0 24 24" fill="none" xmlns="http://www.w3.org/2000/svg">
<path fill-rule="evenodd" clip-rule="evenodd" d="M13.7321 5C12.9623 3.66667 11.0378 3.66667 10.268 5L3.33978 17C2.56998 18.3333 3.53223 20 5.07183 20H18.9282C20.4678 20 21.4301 18.3333 20.6603 17L13.7321 5ZM13.1293 9.37988H10.8751L11.0823 14.2307H12.9221L13.1293 9.37988ZM11.4262 17.8412C11.603 17.9434 11.795 17.9945 12.0022 17.9945C12.1983 17.9945 12.3834 17.9434 12.5574 17.8412C12.7315 17.739 12.871 17.6009 12.976 17.4268C13.0809 17.2528 13.1348 17.0636 13.1376 16.8592C13.1348 16.6575 13.0809 16.471 12.976 16.2998C12.871 16.1257 12.7315 15.989 12.5574 15.8896C12.3834 15.7873 12.1983 15.7362 12.0022 15.7362C11.795 15.7362 11.603 15.7873 11.4262 15.8896C11.2522 15.989 11.1141 16.1257 11.0119 16.2998C10.9097 16.471 10.8599 16.6575 10.8627 16.8592C10.8599 17.0663 10.9097 17.257 11.0119 17.431C11.1141 17.6023 11.2522 17.739 11.4262 17.8412Z" fill="#FFB800"/>
</svg>
