<svg xmlns="http://www.w3.org/2000/svg" width="40" height="40" viewBox="0 0 40 40" fill="#00BCD4">
    <path d="M28.0998 12.0508H12.0498V14.0008H28.0998V12.0508Z" fill="#00BCD4"/>
    <path d="M28.0998 26H12.0498V27.95H28.0998V26Z" fill="#00BCD4"/>
    <path d="M21.6498 15.5H12.0498V17.45H21.6498V15.5Z" fill="#00BCD4"/>
    <path d="M28.0998 18.9512H12.0498V20.9012H28.0998V18.9512Z" fill="#00BCD4"/>
    <path d="M21.6498 22.5508H12.0498V24.5008H21.6498V22.5508Z" fill="#00BCD4"/>
    <path d="M4 1H36V-1H4V1ZM39 4V36H41V4H39ZM36 39H4V41H36V39ZM1 36V4H-1V36H1ZM4 39C2.34315 39 1 37.6569 1 36H-1C-1 38.7614 1.23858 41 4 41V39ZM39 36C39 37.6569 37.6569 39 36 39V41C38.7614 41 41 38.7614 41 36H39ZM36 1C37.6569 1 39 2.34315 39 4H41C41 1.23858 38.7614 -1 36 -1V1ZM4 -1C1.23858 -1 -1 1.23858 -1 4H1C1 2.34315 2.34315 1 4 1V-1Z" fill="#00BCD4"/>
</svg>