<svg xmlns="http://www.w3.org/2000/svg" width="40" height="40" viewBox="0 0 40 40" fill="current">
    <path d="M19.876 14.16H15.956V26H20.18C20.8307 26 21.4333 25.9307 21.988 25.792C22.5533 25.6533 23.0387 25.44 23.444 25.152C23.86 24.864 24.1853 24.5013 24.42 24.064C24.6547 23.6267 24.772 23.1093 24.772 22.512C24.772 21.712 24.5587 21.0827 24.132 20.624C23.716 20.1653 23.188 19.8613 22.548 19.712V19.632C22.804 19.5467 23.028 19.4187 23.22 19.248C23.4227 19.0667 23.5933 18.8587 23.732 18.624C23.8707 18.3893 23.9773 18.1387 24.052 17.872C24.1267 17.6053 24.164 17.3387 24.164 17.072C24.164 16.5173 24.052 16.0533 23.828 15.68C23.6147 15.3067 23.316 15.008 22.932 14.784C22.548 14.56 22.0947 14.4 21.572 14.304C21.0493 14.208 20.484 14.16 19.876 14.16ZM19.7 18.976H18.324V15.968H19.732C20.4467 15.968 20.98 16.08 21.332 16.304C21.684 16.528 21.86 16.9013 21.86 17.424C21.86 17.904 21.6893 18.2827 21.348 18.56C21.0173 18.8373 20.468 18.976 19.7 18.976ZM19.972 24.176H18.324V20.736H19.972C20.804 20.736 21.428 20.864 21.844 21.12C22.26 21.376 22.468 21.792 22.468 22.368C22.468 22.9867 22.2547 23.4453 21.828 23.744C21.4013 24.032 20.7827 24.176 19.972 24.176Z" fill="current"/>
    <path d="M4 1H36V-1H4V1ZM39 4V36H41V4H39ZM36 39H4V41H36V39ZM1 36V4H-1V36H1ZM4 39C2.34315 39 1 37.6569 1 36H-1C-1 38.7614 1.23858 41 4 41V39ZM39 36C39 37.6569 37.6569 39 36 39V41C38.7614 41 41 38.7614 41 36H39ZM36 1C37.6569 1 39 2.34315 39 4H41C41 1.23858 38.7614 -1 36 -1V1ZM4 -1C1.23858 -1 -1 1.23858 -1 4H1C1 2.34315 2.34315 1 4 1V-1Z" fill="current"/>
</svg>