<svg width="current" height="current" viewBox="0 0 41 40" fill="none" xmlns="http://www.w3.org/2000/svg">
<rect x="0.333008" width="40" height="40" rx="20" fill="#00BCD4"/>
<path fill-rule="evenodd" clip-rule="evenodd" d="M16.208 12H24.458L25.833 14.75H31.333V28.5H9.33301V14.75H14.833L16.208 12ZM20.333 25.75C22.6112 25.75 24.458 23.9032 24.458 21.625C24.458 19.3468 22.6112 17.5 20.333 17.5C18.0548 17.5 16.208 19.3468 16.208 21.625C16.208 23.9032 18.0548 25.75 20.333 25.75Z" fill="#F8F9FA"/>
<path d="M23.083 21.625C23.083 23.1438 21.8518 24.375 20.333 24.375C18.8142 24.375 17.583 23.1438 17.583 21.625C17.583 20.1062 18.8142 18.875 20.333 18.875C21.8518 18.875 23.083 20.1062 23.083 21.625Z" fill="#F8F9FA"/>
</svg>
