<svg width="24" height="24" viewBox="0 0 24 24" fill="none" xmlns="http://www.w3.org/2000/svg">
<path fill-rule="evenodd" clip-rule="evenodd" d="M20.9377 8.1072L10.4952 18.6891L4 12.1072L6.13535 10L10.4952 14.4181L18.8023 6L20.9377 8.1072Z" fill="white"/>
</svg>
<svg width="48" height="48" viewBox="0 0 48 48" fill="none" xmlns="http://www.w3.org/2000/svg">
<path d="M32 20C32 26.6274 26.6274 32 20 32C13.3726 32 8 26.6274 8 20C8 13.3726 13.3726 8 20 8C26.6274 8 32 13.3726 32 20Z" fill="#00BCD4"/>
<path fill-rule="evenodd" clip-rule="evenodd" d="M20 31C26.0751 31 31 26.0751 31 20C31 13.9249 26.0751 9 20 9C13.9249 9 9 13.9249 9 20C9 26.0751 13.9249 31 20 31ZM20 32C26.6274 32 32 26.6274 32 20C32 13.3726 26.6274 8 20 8C13.3726 8 8 13.3726 8 20C8 26.6274 13.3726 32 20 32Z" fill="#121417"/>
<path d="M40 28C40 34.6274 34.6274 40 28 40C21.3726 40 16 34.6274 16 28C16 21.3726 21.3726 16 28 16C34.6274 16 40 21.3726 40 28Z" fill="white"/>
<path fill-rule="evenodd" clip-rule="evenodd" d="M28 39C34.0751 39 39 34.0751 39 28C39 21.9249 34.0751 17 28 17C21.9249 17 17 21.9249 17 28C17 34.0751 21.9249 39 28 39ZM28 40C34.6274 40 40 34.6274 40 28C40 21.3726 34.6274 16 28 16C21.3726 16 16 21.3726 16 28C16 34.6274 21.3726 40 28 40Z" fill="#121417"/>
<path d="M31.1488 28.3316H32.1663V27.6417H31.2709L31.8407 24.6667H30.5994L30.1619 27.6417H29.2359C29.202 27.4863 29.1478 27.2623 29.0731 26.9696C29.0053 26.6709 28.9205 26.3065 28.8188 25.8764L28.6356 25.061H27.4553L27.262 25.8764C27.1602 26.3065 27.0721 26.6709 26.9974 26.9696C26.9296 27.2623 26.8787 27.4863 26.8448 27.6417H25.9291L25.461 24.6667H24.1281L24.7284 27.6417H23.833V28.3316H24.8709L25.4814 31.3334H26.9059L27.1297 30.3478C27.1975 30.061 27.2688 29.7414 27.3434 29.389C27.4248 29.0305 27.5028 28.6781 27.5774 28.3316H28.4118C28.4864 28.6781 28.5644 29.0305 28.6458 29.389C28.7272 29.7414 28.8018 30.061 28.8696 30.3478L29.0935 31.3334H30.5689L31.1488 28.3316ZM28.0048 26.4141L28.2591 27.6417H27.7199L28.0048 26.4141ZM26.3055 30.0431H26.2852C26.2716 29.9475 26.2547 29.8251 26.2343 29.6757C26.214 29.5204 26.1868 29.3382 26.1529 29.1291C26.0851 28.711 26.0444 28.4451 26.0308 28.3316H26.7024C26.6752 28.4392 26.6447 28.5616 26.6108 28.699C26.5769 28.8364 26.543 28.9917 26.509 29.165C26.4276 29.5114 26.3768 29.7354 26.3564 29.837C26.3428 29.8908 26.3327 29.9356 26.3259 29.9714C26.3191 30.0073 26.3123 30.0311 26.3055 30.0431ZM29.3784 28.3316H30.0398C29.9719 28.8155 29.9177 29.1978 29.877 29.4786C29.843 29.7593 29.8193 29.9475 29.8057 30.0431H29.765C29.7379 29.9236 29.7142 29.8191 29.6938 29.7295C29.6735 29.6339 29.6531 29.5443 29.6328 29.4607C29.6124 29.377 29.5921 29.2934 29.5717 29.2098C29.5581 29.1261 29.5412 29.0365 29.5208 28.9409C29.4937 28.8454 29.47 28.7468 29.4496 28.6452C29.4293 28.5437 29.4055 28.4392 29.3784 28.3316Z" fill="#00BCD4"/>
</svg>
