<svg width="178" height="241" viewBox="0 0 178 241" fill="none" xmlns="http://www.w3.org/2000/svg">
<g clip-path="url(#clip0_1150_6031)">
<path d="M111.824 106.251C112.311 103.733 112.797 101.216 113.284 98.6984C113.543 98.7743 113.801 98.8503 114.056 98.9318C113.569 101.449 113.084 103.967 112.597 106.484C112.341 106.404 112.084 106.327 111.824 106.251Z" fill="#FFDE4F"/>
<path d="M112.917 106.584C112.812 106.551 112.704 106.517 112.597 106.484C113.084 103.967 113.569 101.449 114.056 98.9318C114.164 98.9651 114.269 98.9985 114.377 99.0318C113.89 101.549 113.404 104.067 112.917 106.584Z" fill="#FFDE4F"/>
<path d="M111.824 106.251C106.408 104.674 100.547 104.081 94.9673 104.778C95.2433 103.353 95.5174 101.929 95.7935 100.504C95.8509 100.21 95.9268 99.8172 95.9824 99.5227C96.038 99.2282 96.1121 98.854 96.1676 98.5687L96.3436 97.6592C96.3695 97.5295 96.427 97.3591 96.427 97.2257C102.006 96.5274 107.867 97.122 113.284 98.6984C112.797 101.216 112.311 103.733 111.824 106.251Z" fill="#FFDE4F"/>
<path d="M93.356 105.017C93.8431 102.499 94.3285 99.9821 94.8156 97.4647C95.3491 97.372 95.8863 97.2924 96.4272 97.2257C95.94 99.7431 95.4547 102.261 94.9675 104.778C94.4266 104.845 93.8894 104.924 93.356 105.017Z" fill="#FFDE4F"/>
<path d="M93.3559 105.017C93.0706 105.067 92.7854 105.119 92.502 105.174C92.9891 102.657 93.4745 100.139 93.9616 97.6221C94.2451 97.5665 94.5285 97.5128 94.8156 97.4646C94.3284 99.982 93.8431 102.499 93.3559 105.017Z" fill="#FFDE4F"/>
<path d="M112.917 106.584C113.404 104.067 113.89 101.549 114.377 99.0317C120.673 101.042 126.282 104.381 130.016 108.555C132.034 110.807 133.301 113.077 133.829 115.244C133.342 117.761 132.856 120.279 132.369 122.796C131.841 120.629 130.574 118.36 128.557 116.107C124.822 111.936 119.213 108.594 112.917 106.584Z" fill="#FFDE4F"/>
<path d="M115.323 109.648L113.864 117.2L111.241 110.257L112.7 102.705L115.323 109.648Z" fill="#FDEA92"/>
<path d="M117.509 101.747L116.05 109.3L111.241 110.257L112.7 102.705L117.509 101.747Z" fill="#FAA300"/>
<path d="M120.131 108.69L118.673 116.242L116.05 109.3L117.509 101.747L120.131 108.69Z" fill="#FAA300"/>
<path d="M123.516 108.016L122.057 115.568L118.672 116.242L120.13 108.69L123.516 108.016Z" fill="#FAA300"/>
<path d="M126.303 111.128L124.843 118.68L122.057 115.568L123.517 108.016L126.303 111.128Z" fill="#FAA300"/>
<path d="M100.145 112.673L98.6855 120.225L96.0625 113.282L97.5222 105.73L100.145 112.673Z" fill="#FDEA92"/>
<path d="M102.329 104.772L100.869 112.325L96.0625 113.282L97.5222 105.73L102.329 104.772Z" fill="#FAA300"/>
<path d="M126.303 111.128L124.843 118.68L119.96 119.655L121.42 112.102L126.303 111.128Z" fill="#FDEA92"/>
<path d="M111.044 110.502L109.585 118.054L100.869 112.325L102.329 104.772L111.044 110.502Z" fill="#FAA300"/>
<path d="M115.323 109.648L113.864 117.2L109.584 118.054L111.044 110.502L115.323 109.648Z" fill="#FAA300"/>
<path d="M106.237 111.459L104.778 119.012L102.937 117.802L104.396 110.25L106.237 111.459Z" fill="#FDEA92"/>
<path d="M116.613 113.06L115.153 120.612L113.868 120.868L115.327 113.316L116.613 113.06Z" fill="#FDEA92"/>
<path d="M106.237 111.459L104.778 119.012L103.492 119.267L104.952 111.715L106.237 111.459Z" fill="#FAA300"/>
<path d="M104.952 111.715L103.492 119.267L102.937 117.802L104.396 110.25L104.952 111.715Z" fill="#FAA300"/>
<path d="M117.166 114.523L115.707 122.076L115.153 120.612L116.613 113.06L117.166 114.523Z" fill="#FDEA92"/>
<path d="M117.167 114.523L115.707 122.076L113.868 120.868L115.327 113.316L117.167 114.523Z" fill="#FAA300"/>
<path d="M92.4818 105.18C84.6146 106.747 79.8595 110.615 78.9556 115.292L80.4153 107.74C81.3192 103.063 86.0762 99.1947 93.9414 97.6276L93.9637 97.6239C93.4765 100.141 92.9912 102.659 92.504 105.176L92.4818 105.18Z" fill="#FFDE4F"/>
<path d="M95.8641 113.527L94.4044 121.079L85.687 115.35L87.1467 107.797L95.8641 113.527Z" fill="#FAA300"/>
<path d="M91.0569 114.484L89.5972 122.037L80.8799 116.309L82.3396 108.757L91.0569 114.484Z" fill="#FDEA92"/>
<path d="M87.1465 107.797L85.6868 115.35L80.8799 116.309L82.3396 108.757L87.1465 107.797Z" fill="#FAA300"/>
<path d="M110.52 114.273L109.06 121.826L104.781 122.679L106.241 115.127L110.52 114.273Z" fill="#FDEA92"/>
<path d="M100.145 112.673L98.6852 120.225L94.4043 121.079L95.864 113.527L100.145 112.673Z" fill="#FAA300"/>
<path d="M124.043 119.043L122.583 126.595L119.96 119.655L121.42 112.102L124.043 119.043Z" fill="#FAA300"/>
<path d="M101.434 116.085L99.9744 123.637L98.687 123.893L100.147 116.341L101.434 116.085Z" fill="#FDEA92"/>
<path d="M101.986 117.55L100.527 125.102L99.9746 123.637L101.434 116.085L101.986 117.55Z" fill="#FDEA92"/>
<path d="M101.986 117.55L100.526 125.102L98.687 123.893L100.147 116.341L101.986 117.55Z" fill="#FAA300"/>
<path d="M90.4586 118.273L88.9989 125.825L86.2129 122.711L87.6726 115.159L90.4586 118.273Z" fill="#FDEA92"/>
<path d="M91.0569 114.484L89.5972 122.037L86.2129 122.711L87.6726 115.159L91.0569 114.484Z" fill="#FAA300"/>
<path d="M108.864 122.07L107.404 129.62L104.781 122.679L106.241 115.127L108.864 122.07Z" fill="#FAA300"/>
<path d="M120.132 108.69L123.517 108.016L126.303 111.13L121.422 112.102L124.045 119.045L119.238 120.003L110.522 114.275L106.241 115.127L108.864 122.07L104.057 123.028L95.3399 117.3L90.4589 118.273L87.6729 115.159L91.0572 114.485L82.3398 108.757L87.1468 107.799L95.8642 113.527L100.145 112.675L97.5221 105.732L102.329 104.774L111.045 110.502L115.325 109.648L112.702 102.705L117.509 101.747L120.132 108.69ZM104.952 111.715L106.238 111.46L104.396 110.25L104.95 111.715H104.952ZM117.165 114.523L116.611 113.058L115.325 113.314L117.165 114.522V114.523ZM101.984 117.547L101.432 116.081L100.147 116.337L101.986 117.545" fill="url(#paint0_linear_1150_6031)"/>
<path d="M104.952 111.715L104.396 110.25L106.237 111.459L104.952 111.715Z" fill="#FAA300"/>
<path d="M117.167 114.523L115.327 113.316L116.613 113.06L117.167 114.523Z" fill="#FAA300"/>
<path d="M132.367 122.796C132.367 122.731 132.397 122.646 132.408 122.583C132.88 120.136 133.353 117.691 133.827 115.244C134.155 116.592 134.197 117.9 133.958 119.141L132.499 126.694C132.74 125.452 132.697 124.145 132.367 122.796Z" fill="#FFDE4F"/>
<path d="M124.043 119.043L122.583 126.595L117.776 127.555L119.236 120.003L124.043 119.043Z" fill="#FDEA92"/>
<path d="M119.236 120.003L117.776 127.555L109.061 121.826L110.52 114.273L119.236 120.003Z" fill="#FDEA92"/>
<path d="M101.986 117.55L100.147 116.341L101.434 116.085L101.986 117.55Z" fill="#FAA300"/>
<path d="M95.3398 117.298L93.8801 124.85L88.999 125.825L90.4587 118.273L95.3398 117.298Z" fill="#FDEA92"/>
<path d="M108.864 122.07L107.405 129.622L102.598 130.58L104.057 123.028L108.864 122.07Z" fill="#FDEA92"/>
<path d="M104.057 123.028L102.598 130.58L93.8804 124.85L95.3401 117.298L104.057 123.028Z" fill="#FDEA92"/>
<path d="M133.959 119.134L132.499 126.686C131.671 130.967 127.47 134.438 119.999 135.928C106.888 138.541 90.0977 133.775 82.4992 125.284C79.4594 121.888 78.3517 118.412 78.9537 115.292L80.4134 107.74C79.8113 110.857 80.9191 114.334 83.9589 117.732C91.5574 126.223 108.348 130.987 121.459 128.376C128.929 126.886 133.133 123.417 133.959 119.134Z" fill="#FAA300"/>
<path d="M142.511 120.962L141.051 128.514C140.005 133.929 134.677 138.377 125.352 140.87C124.624 141.064 123.88 141.239 123.126 141.389C106.762 144.651 85.0405 137.504 75.3543 126.681C71.255 122.1 69.7305 117.339 70.5511 113.091L72.0107 105.539C71.1901 109.787 72.7128 114.547 76.814 119.128C86.5002 129.952 108.221 137.098 124.585 133.836C125.339 133.686 126.084 133.514 126.812 133.318C136.137 130.824 141.464 126.377 142.511 120.962Z" fill="url(#paint1_linear_1150_6031)"/>
<path d="M90.1216 92.3206C106.43 89.5123 126.834 95.8197 137.113 107.11C147.318 118.321 143.354 128.894 126.812 133.318C126.084 133.512 125.339 133.686 124.585 133.836C108.221 137.098 86.5002 129.952 76.814 119.128C66.8926 108.042 72.0589 95.9068 89.0269 92.5243C89.3862 92.4521 89.7512 92.3854 90.1216 92.3206ZM121.457 128.376C134.568 125.762 137.613 117.044 130.013 108.553C122.414 100.064 107.051 95.0139 93.9394 97.6277C80.8282 100.241 76.3583 109.242 83.9569 117.732C91.5554 126.223 108.346 130.987 121.457 128.376Z" fill="url(#paint2_linear_1150_6031)"/>
<path d="M93.9414 97.6277C107.053 95.014 122.418 100.064 130.015 108.553C137.613 117.045 134.57 125.762 121.459 128.376C108.347 130.989 91.5573 126.223 83.9588 117.732C76.3603 109.242 80.8301 100.24 93.9414 97.6277ZM121.422 112.1L126.303 111.128L123.517 108.014L120.132 108.688L117.509 101.746L112.702 102.703L115.325 109.646L111.045 110.5L102.329 104.772L97.5221 105.73L100.145 112.673L95.8642 113.525L87.1468 107.797L82.3398 108.755L91.0572 114.483L87.6729 115.157L90.4589 118.271L95.3399 117.298L104.055 123.026L108.862 122.068L106.239 115.125L110.52 114.271L119.236 119.999L124.043 119.041L121.42 112.099" fill="#FAA300"/>
<path d="M114.794 93.9691C115.281 91.4517 115.766 88.9343 116.254 86.4169C116.513 86.4928 116.771 86.5688 117.026 86.6503C116.539 89.1677 116.054 91.6851 115.566 94.2025C115.311 94.1228 115.053 94.045 114.794 93.9691Z" fill="#FFDE4F"/>
<path d="M115.887 94.3025C115.781 94.2692 115.674 94.2358 115.566 94.2025C116.054 91.6851 116.539 89.1677 117.026 86.6503C117.134 86.6836 117.239 86.717 117.347 86.7503C116.859 89.2677 116.374 91.7851 115.887 94.3025Z" fill="#FFDE4F"/>
<path d="M114.794 93.9691C109.377 92.3927 103.516 91.8 97.937 92.4965C98.213 91.072 98.4872 89.6475 98.7632 88.223C98.8206 87.9285 98.8966 87.5357 98.9521 87.2412C99.0077 86.9541 99.0818 86.5725 99.1374 86.2872L99.3133 85.3777C99.3393 85.248 99.3967 85.0776 99.3967 84.9442C104.976 84.2459 110.837 84.8405 116.253 86.4169C115.766 88.9343 115.281 91.4517 114.794 93.9691Z" fill="#FFDE4F"/>
<path d="M96.3257 92.7354C96.8129 90.218 97.2982 87.7006 97.7854 85.1832C98.3188 85.0906 98.856 85.0109 99.3969 84.9442C98.9098 87.4616 98.4244 89.979 97.9373 92.4964C97.3964 92.5631 96.8592 92.6428 96.3257 92.7354Z" fill="#FFDE4F"/>
<path d="M96.3256 92.7354C96.0404 92.7855 95.7551 92.8373 95.4717 92.8929C95.9589 90.3755 96.4442 87.8581 96.9314 85.3407C97.2148 85.2851 97.4982 85.2314 97.7853 85.1832C97.2981 87.7006 96.8128 90.218 96.3256 92.7354Z" fill="#FFDE4F"/>
<path d="M115.887 94.3025C116.374 91.7851 116.859 89.2676 117.346 86.7502C123.643 88.7601 129.252 92.1 132.986 96.2734C135.003 98.5259 136.27 100.795 136.798 102.962C136.311 105.48 135.826 107.997 135.339 110.515C134.811 108.347 133.544 106.078 131.526 103.826C127.792 99.654 122.183 96.3123 115.887 94.3025Z" fill="#FFDE4F"/>
<path d="M118.293 97.3664L116.834 104.919L114.212 97.9758L115.67 90.4236L118.293 97.3664Z" fill="#FDEA92"/>
<path d="M120.479 89.4659L119.019 97.0182L114.212 97.9758L115.67 90.4236L120.479 89.4659Z" fill="#FAA300"/>
<path d="M123.102 96.4087L121.643 103.961L119.02 97.0182L120.479 89.4659L123.102 96.4087Z" fill="#FAA300"/>
<path d="M126.486 95.7344L125.026 103.287L121.642 103.961L123.102 96.4086L126.486 95.7344Z" fill="#FAA300"/>
<path d="M129.273 98.8482L127.813 106.399L125.027 103.287L126.487 95.7344L129.273 98.8482Z" fill="#FAA300"/>
<path d="M103.115 100.391L101.655 107.944L99.0322 101.001L100.492 93.4486L103.115 100.391Z" fill="#FDEA92"/>
<path d="M105.299 92.4908L103.839 100.043L99.0322 101.001L100.492 93.4485L105.299 92.4908Z" fill="#FAA300"/>
<path d="M129.272 98.8483L127.813 106.399L122.932 107.373L124.391 99.8208L129.272 98.8483Z" fill="#FDEA92"/>
<path d="M114.014 98.2203L112.554 105.773L103.839 100.043L105.299 92.4908L114.014 98.2203Z" fill="#FAA300"/>
<path d="M118.293 97.3663L116.833 104.919L112.554 105.773L114.014 98.2203L118.293 97.3663Z" fill="#FAA300"/>
<path d="M109.207 99.178L107.748 106.73L105.908 105.521L107.368 97.9684L109.207 99.178Z" fill="#FDEA92"/>
<path d="M119.583 100.778L118.123 108.331L116.837 108.586L118.297 101.034L119.583 100.778Z" fill="#FDEA92"/>
<path d="M109.207 99.1781L107.747 106.73L106.462 106.986L107.922 99.4337L109.207 99.1781Z" fill="#FAA300"/>
<path d="M107.922 99.4336L106.462 106.986L105.908 105.521L107.368 97.9684L107.922 99.4336Z" fill="#FAA300"/>
<path d="M120.136 102.244L118.676 109.796L118.123 108.331L119.582 100.778L120.136 102.244Z" fill="#FDEA92"/>
<path d="M120.137 102.244L118.677 109.796L116.837 108.586L118.297 101.034L120.137 102.244Z" fill="#FAA300"/>
<path d="M95.4515 92.8985C87.5844 94.4656 82.8293 98.3334 81.9253 103.011L83.385 95.4585C84.2889 90.7812 89.0459 86.9134 96.9112 85.3462L96.9334 85.3425C96.4462 87.8599 95.9609 90.3773 95.4737 92.8947L95.4515 92.8985Z" fill="#FFDE4F"/>
<path d="M98.8339 101.245L97.3742 108.798L88.6587 103.068L90.1184 95.5177L98.8339 101.245Z" fill="#FAA300"/>
<path d="M94.0267 102.203L92.567 109.755L83.8496 104.028L85.3093 96.4753L94.0267 102.203Z" fill="#FDEA92"/>
<path d="M90.1181 95.5177L88.6584 103.068L83.8496 104.028L85.3093 96.4754L90.1181 95.5177Z" fill="#FAA300"/>
<path d="M113.492 101.992L112.032 109.544L107.751 110.398L109.211 102.846L113.492 101.992Z" fill="#FDEA92"/>
<path d="M103.115 100.391L101.655 107.944L97.374 108.797L98.8337 101.245L103.115 100.391Z" fill="#FAA300"/>
<path d="M127.012 106.764L125.553 114.314L122.932 107.373L124.391 99.8208L127.012 106.764Z" fill="#FAA300"/>
<path d="M104.404 103.803L102.944 111.356L101.657 111.611L103.116 104.059L104.404 103.803Z" fill="#FDEA92"/>
<path d="M104.956 105.269L103.496 112.821L102.944 111.356L104.404 103.803L104.956 105.269Z" fill="#FDEA92"/>
<path d="M104.956 105.269L103.496 112.821L101.657 111.611L103.116 104.059L104.956 105.269Z" fill="#FAA300"/>
<path d="M93.4283 105.991L91.9686 113.543L89.1826 110.429L90.6423 102.877L93.4283 105.991Z" fill="#FDEA92"/>
<path d="M94.0266 102.203L92.5669 109.755L89.1826 110.429L90.6423 102.877L94.0266 102.203Z" fill="#FAA300"/>
<path d="M111.834 109.788L110.374 117.341L107.751 110.398L109.211 102.846L111.834 109.788Z" fill="#FAA300"/>
<path d="M123.102 96.4087L126.486 95.7345L129.272 98.8483L124.391 99.8208L127.014 106.764L122.207 107.721L113.492 101.994L109.211 102.846L111.834 109.789L107.027 110.746L98.3097 105.019L93.4286 105.991L90.6426 102.877L94.0269 102.203L85.3096 96.4754L90.1165 95.5177L98.8339 101.245L103.115 100.393L100.492 93.4504L105.299 92.4928L114.014 98.2204L118.295 97.3664L115.672 90.4236L120.479 89.4659L123.102 96.4087ZM107.922 99.4337L109.207 99.1781L107.366 97.9684L107.92 99.4337H107.922ZM120.135 102.242L119.581 100.777L118.295 101.032L120.135 102.24V102.242ZM104.954 105.265L104.402 103.8L103.117 104.055L104.956 105.263" fill="url(#paint3_linear_1150_6031)"/>
<path d="M107.922 99.4336L107.368 97.9684L109.207 99.178L107.922 99.4336Z" fill="#FAA300"/>
<path d="M120.136 102.244L118.297 101.034L119.582 100.778L120.136 102.244Z" fill="#FAA300"/>
<path d="M135.337 110.515C135.337 110.45 135.367 110.365 135.378 110.302C135.85 107.855 136.322 105.409 136.797 102.962C137.124 104.311 137.167 105.619 136.928 106.86L135.468 114.412C135.709 113.171 135.667 111.863 135.337 110.515Z" fill="#FFDE4F"/>
<path d="M127.014 106.764L125.554 114.316L120.746 115.273L122.205 107.721L127.014 106.764Z" fill="#FDEA92"/>
<path d="M122.206 107.721L120.746 115.273L112.032 109.544L113.492 101.992L122.206 107.721Z" fill="#FDEA92"/>
<path d="M104.956 105.269L103.117 104.059L104.404 103.803L104.956 105.269Z" fill="#FAA300"/>
<path d="M98.3095 105.019L96.8498 112.571L91.9688 113.543L93.4284 105.991L98.3095 105.019Z" fill="#FDEA92"/>
<path d="M111.834 109.789L110.374 117.341L105.567 118.298L107.027 110.746L111.834 109.789Z" fill="#FDEA92"/>
<path d="M107.027 110.746L105.567 118.298L96.8501 112.571L98.3098 105.019L107.027 110.746Z" fill="#FDEA92"/>
<path d="M136.928 106.852L135.469 114.405C134.641 118.686 130.439 122.157 122.969 123.646C109.858 126.26 93.0674 121.494 85.4689 113.002C82.4291 109.607 81.3214 106.13 81.9234 103.011L83.3831 95.4584C82.7811 98.576 83.8888 102.053 86.9286 105.45C94.5271 113.942 111.317 118.706 124.428 116.094C131.899 114.605 136.102 111.135 136.928 106.852Z" fill="#FAA300"/>
<path d="M145.481 108.681L144.021 116.233C142.975 121.648 137.647 126.095 128.322 128.589C127.594 128.783 126.849 128.957 126.095 129.107C109.731 132.369 88.0102 125.223 78.324 114.399C74.2247 109.818 72.7002 105.058 73.5208 100.81L74.9805 93.2578C74.1599 97.5054 75.6825 102.266 79.7837 106.847C89.4699 117.671 111.191 124.817 127.555 121.555C128.309 121.405 129.054 121.233 129.782 121.036C139.107 118.543 144.434 114.095 145.481 108.681Z" fill="url(#paint4_linear_1150_6031)"/>
<path d="M93.0914 80.0391C109.4 77.2308 129.804 83.5382 140.083 94.8286C150.288 106.039 146.324 116.613 129.782 121.036C129.054 121.231 128.309 121.405 127.555 121.555C111.191 124.817 89.4699 117.67 79.7838 106.847C69.8623 95.7603 75.0287 83.6253 91.9966 80.2428C92.356 80.1706 92.7209 80.1039 93.0914 80.0391ZM124.426 116.094C137.538 113.48 140.583 104.763 132.983 96.2716C125.384 87.7821 110.02 82.7325 96.9092 85.3462C83.7979 87.9599 79.3281 96.9607 86.9266 105.45C94.5251 113.942 111.315 118.706 124.426 116.094Z" fill="url(#paint5_linear_1150_6031)"/>
<path d="M96.9111 85.3462C110.022 82.7325 125.388 87.7821 132.985 96.2716C140.583 104.763 137.54 113.48 124.428 116.094C111.317 118.708 94.5271 113.942 86.9286 105.45C79.33 96.9607 83.7999 87.9581 96.9111 85.3462ZM124.391 99.819L129.272 98.8465L126.486 95.7326L123.102 96.4069L120.479 89.4641L115.672 90.4218L118.295 97.3645L114.014 98.2185L105.299 92.4909L100.492 93.4486L103.115 100.391L98.8339 101.243L90.1165 95.5159L85.3096 96.4735L94.0269 102.201L90.6426 102.875L93.4286 105.989L98.3097 105.017L107.025 110.744L111.832 109.787L109.209 102.844L113.49 101.99L122.206 107.718L127.013 106.76L124.39 99.8171" fill="url(#paint6_linear_1150_6031)"/>
<path d="M118.123 80.317C118.61 77.7996 119.095 75.2822 119.582 72.7648C119.842 72.8407 120.099 72.9167 120.355 72.9982C119.868 75.5156 119.382 78.033 118.895 80.5504C118.639 80.4707 118.382 80.3929 118.123 80.317Z" fill="#FFDE4F"/>
<path d="M119.215 80.6504C119.11 80.6171 119.002 80.5837 118.895 80.5504C119.382 78.033 119.868 75.5156 120.355 72.9982C120.462 73.0315 120.568 73.0649 120.675 73.0982C120.188 75.6156 119.703 78.133 119.215 80.6504Z" fill="#FFDE4F"/>
<path d="M118.122 80.317C112.706 78.7406 106.845 78.1479 101.266 78.8444C101.542 77.4199 101.816 75.9954 102.092 74.5709C102.149 74.2764 102.225 73.8837 102.281 73.5891C102.336 73.2946 102.41 72.9204 102.466 72.6351L102.642 71.7256C102.668 71.5959 102.725 71.4255 102.725 71.2922C108.305 70.5938 114.166 71.1884 119.582 72.7648C119.095 75.2822 118.61 77.7996 118.122 80.317Z" fill="#FFDE4F"/>
<path d="M99.6543 79.0833C100.141 76.5659 100.627 74.0485 101.114 71.5311C101.647 71.4385 102.185 71.3588 102.726 71.2921C102.238 73.8095 101.753 76.3269 101.266 78.8443C100.725 78.911 100.188 78.9907 99.6543 79.0833Z" fill="#FFDE4F"/>
<path d="M99.6543 79.0832C99.369 79.1332 99.0837 79.1851 98.8003 79.2407C99.2875 76.7233 99.7728 74.2059 100.26 71.6885C100.543 71.6329 100.827 71.5792 101.114 71.531C100.627 74.0484 100.141 76.5658 99.6543 79.0832Z" fill="#FFDE4F"/>
<path d="M119.215 80.6504C119.703 78.133 120.188 75.6155 120.675 73.0981C126.971 75.108 132.58 78.4479 136.315 82.6213C138.332 84.8738 139.599 87.143 140.127 89.3103C139.64 91.8277 139.155 94.3451 138.667 96.8625C138.139 94.6952 136.872 92.426 134.855 90.1735C131.121 86.0019 125.512 82.6602 119.215 80.6504Z" fill="#FFDE4F"/>
<path d="M121.622 83.7143L120.162 91.2665L117.539 84.3237L118.999 76.7715L121.622 83.7143Z" fill="#FDEA92"/>
<path d="M123.808 75.8138L122.348 83.3661L117.539 84.3237L118.999 76.7715L123.808 75.8138Z" fill="#FAA300"/>
<path d="M126.429 82.7566L124.971 90.3088L122.348 83.3661L123.808 75.8138L126.429 82.7566Z" fill="#FAA300"/>
<path d="M129.815 82.0823L128.356 89.6345L124.971 90.3088L126.429 82.7565L129.815 82.0823Z" fill="#FAA300"/>
<path d="M132.601 85.1943L131.141 92.7465L128.355 89.6345L129.815 82.0823L132.601 85.1943Z" fill="#FAA300"/>
<path d="M106.443 86.7392L104.983 94.2914L102.36 87.3486L103.82 79.7964L106.443 86.7392Z" fill="#FDEA92"/>
<path d="M108.627 78.8387L107.167 86.391L102.36 87.3486L103.82 79.7964L108.627 78.8387Z" fill="#FAA300"/>
<path d="M132.601 85.1943L131.141 92.7466L126.258 93.7209L127.718 86.1687L132.601 85.1943Z" fill="#FDEA92"/>
<path d="M117.343 84.5682L115.883 92.1204L107.167 86.391L108.627 78.8387L117.343 84.5682Z" fill="#FAA300"/>
<path d="M121.622 83.7142L120.162 91.2664L115.883 92.1204L117.343 84.5682L121.622 83.7142Z" fill="#FAA300"/>
<path d="M112.536 85.5259L111.076 93.0781L109.235 91.8685L110.695 84.3163L112.536 85.5259Z" fill="#FDEA92"/>
<path d="M122.911 87.1263L121.452 94.6786L120.166 94.9342L121.626 87.382L122.911 87.1263Z" fill="#FDEA92"/>
<path d="M112.536 85.5259L111.076 93.0781L109.791 93.3337L111.25 85.7815L112.536 85.5259Z" fill="#FAA300"/>
<path d="M111.25 85.7815L109.791 93.3337L109.235 91.8685L110.695 84.3163L111.25 85.7815Z" fill="#FAA300"/>
<path d="M123.465 88.5897L122.005 96.142L121.451 94.6786L122.911 87.1263L123.465 88.5897Z" fill="#FDEA92"/>
<path d="M123.465 88.5897L122.005 96.1419L120.166 94.9342L121.626 87.382L123.465 88.5897Z" fill="#FAA300"/>
<path d="M98.7801 79.2463C90.913 80.8135 86.1579 84.6813 85.2539 89.3586L86.7136 81.8064C87.6176 77.1291 92.3745 73.2613 100.24 71.6941L100.262 71.6904C99.7748 74.2078 99.2895 76.7252 98.8023 79.2426L98.7801 79.2463Z" fill="#FFDE4F"/>
<path d="M102.162 87.5932L100.703 95.1454L91.9854 89.416L93.445 81.8638L102.162 87.5932Z" fill="#FAA300"/>
<path d="M97.3553 88.5508L95.8956 96.1031L87.1782 90.3755L88.6379 82.8232L97.3553 88.5508Z" fill="#FDEA92"/>
<path d="M93.4449 81.8638L91.9852 89.416L87.1782 90.3755L88.6379 82.8233L93.4449 81.8638Z" fill="#FAA300"/>
<path d="M116.818 88.3397L115.359 95.8919L111.08 96.7459L112.539 89.1937L116.818 88.3397Z" fill="#FDEA92"/>
<path d="M106.443 86.7393L104.984 94.2915L100.703 95.1454L102.162 87.5932L106.443 86.7393Z" fill="#FAA300"/>
<path d="M130.341 93.1096L128.881 100.662L126.258 93.7209L127.718 86.1687L130.341 93.1096Z" fill="#FAA300"/>
<path d="M107.732 90.1514L106.273 97.7036L104.985 97.9592L106.445 90.407L107.732 90.1514Z" fill="#FDEA92"/>
<path d="M108.285 91.6166L106.825 99.1688L106.273 97.7036L107.733 90.1514L108.285 91.6166Z" fill="#FDEA92"/>
<path d="M108.284 91.6166L106.825 99.1688L104.985 97.9592L106.445 90.407L108.284 91.6166Z" fill="#FAA300"/>
<path d="M96.7569 92.339L95.2972 99.8912L92.5112 96.7773L93.9709 89.2251L96.7569 92.339Z" fill="#FDEA92"/>
<path d="M97.3552 88.5509L95.8956 96.1031L92.5112 96.7774L93.9709 89.2252L97.3552 88.5509Z" fill="#FAA300"/>
<path d="M115.162 96.1364L113.703 103.687L111.08 96.7458L112.539 89.1936L115.162 96.1364Z" fill="#FAA300"/>
<path d="M126.431 82.7566L129.815 82.0823L132.601 85.1962L127.72 86.1687L130.343 93.1115L125.536 94.0692L116.821 88.3416L112.54 89.1937L115.163 96.1365L110.356 97.0942L101.638 91.3666L96.7572 92.3391L93.9712 89.2252L97.3556 88.5509L88.6382 82.8233L93.4451 81.8656L102.163 87.5932L106.443 86.7411L103.82 79.7983L108.627 78.8407L117.343 84.5683L121.624 83.7143L119.001 76.7715L123.808 75.8138L126.431 82.7566ZM111.25 85.7816L112.536 85.526L110.695 84.3163L111.249 85.7816H111.25ZM123.463 88.5898L122.909 87.1246L121.624 87.3802L123.463 88.588V88.5898ZM108.283 91.6129L107.731 90.1477L106.445 90.4033L108.285 91.6111" fill="#E0F7FA"/>
<path d="M111.25 85.7815L110.694 84.3163L112.536 85.5259L111.25 85.7815Z" fill="#005F64"/>
<path d="M123.465 88.5897L121.625 87.382L122.911 87.1263L123.465 88.5897Z" fill="#005F64"/>
<path d="M138.666 96.8625C138.666 96.7977 138.695 96.7125 138.706 96.6495C139.179 94.2025 139.651 91.7573 140.125 89.3103C140.453 90.6588 140.496 91.9666 140.257 93.2077L138.797 100.76C139.038 99.5189 138.995 98.2111 138.666 96.8625Z" fill="#FFDE4F"/>
<path d="M130.341 93.1096L128.881 100.662L124.074 101.621L125.534 94.0692L130.341 93.1096Z" fill="#FDEA92"/>
<path d="M125.534 94.0692L124.074 101.621L115.359 95.8919L116.819 88.3397L125.534 94.0692Z" fill="#FDEA92"/>
<path d="M108.285 91.6166L106.445 90.407L107.733 90.1514L108.285 91.6166Z" fill="#005F64"/>
<path d="M101.638 91.3646L100.178 98.9168L95.2974 99.8912L96.7571 92.339L101.638 91.3646Z" fill="#FDEA92"/>
<path d="M115.163 96.1365L113.703 103.689L108.896 104.646L110.356 97.0942L115.163 96.1365Z" fill="#FDEA92"/>
<path d="M110.356 97.0941L108.896 104.646L100.179 98.9168L101.638 91.3646L110.356 97.0941Z" fill="#FDEA92"/>
<path d="M140.257 93.2004L138.797 100.753C137.969 105.033 133.768 108.505 126.297 109.994C113.186 112.608 96.396 107.842 88.7975 99.3503C85.7577 95.9549 84.65 92.4779 85.252 89.3585L86.7117 81.8063C86.1097 84.9239 87.2174 88.4008 90.2572 91.7981C97.8557 100.289 114.646 105.054 127.757 102.442C135.228 100.953 139.431 97.4831 140.257 93.2004Z" fill="#FAA300"/>
<path d="M148.809 95.0288L147.35 102.581C146.303 107.996 140.976 112.443 131.651 114.936C130.923 115.131 130.178 115.305 129.424 115.455C113.06 118.717 91.3388 111.571 81.6527 100.747C77.5533 96.1661 76.0288 91.4055 76.8494 87.1579L78.3091 79.6057C77.4885 83.8533 79.0111 88.6139 83.1123 93.1949C92.7985 104.018 114.52 111.165 130.884 107.903C131.638 107.753 132.382 107.581 133.11 107.384C142.435 104.891 147.763 100.443 148.809 95.0288Z" fill="url(#paint7_linear_1150_6031)"/>
<path d="M96.42 66.387C112.728 63.5787 133.133 69.8861 143.412 81.1765C153.616 92.3872 149.652 102.961 133.11 107.384C132.382 107.579 131.638 107.753 130.884 107.903C114.52 111.165 92.7986 104.018 83.1124 93.1948C73.1909 82.1082 78.3573 69.9732 95.3252 66.5907C95.6846 66.5185 96.0495 66.4518 96.42 66.387ZM127.755 102.442C140.866 99.8283 143.912 91.1109 136.311 82.6195C128.713 74.13 113.349 69.0804 100.238 71.6941C87.1265 74.3078 82.6567 83.3086 90.2552 91.7981C97.8537 100.29 114.644 105.054 127.755 102.442Z" fill="url(#paint8_linear_1150_6031)"/>
<path d="M100.24 71.6941C113.351 69.0804 128.717 74.13 136.313 82.6195C143.912 91.1109 140.868 99.8283 127.757 102.442C114.646 105.056 97.8557 100.29 90.2572 91.7981C82.6586 83.3086 87.1285 74.306 100.24 71.6941ZM127.72 86.1669L132.601 85.1944L129.815 82.0805L126.431 82.7548L123.808 75.812L119.001 76.7697L121.624 83.7124L117.343 84.5664L108.627 78.8388L103.82 79.7965L106.443 86.7393L102.163 87.5914L93.4451 81.8638L88.6382 82.8214L97.3555 88.549L93.9712 89.2233L96.7572 92.3372L101.638 91.3647L110.354 97.0923L115.161 96.1346L112.538 89.1918L116.819 88.3379L125.534 94.0655L130.341 93.1078L127.718 86.165" fill="url(#paint9_linear_1150_6031)"/>
<path d="M41.53 143.259C42.5025 146.218 43.9548 148.994 45.7794 151.497C44.7865 152.553 43.7955 153.609 42.8026 154.665C40.978 152.162 39.5257 149.387 38.5532 146.427C39.5461 145.371 40.5371 144.315 41.53 143.259Z" fill="#FFDE4F"/>
<path d="M45.779 151.497C51.2936 159.059 60.224 164.112 69.7046 164.112L66.7278 167.279C57.2472 167.279 48.3168 162.226 42.8022 154.665C43.2987 154.137 43.7951 153.609 44.2897 153.081L44.6787 152.666L45.0622 152.258L45.4308 151.866L45.779 151.495V151.497Z" fill="#FFDE4F"/>
<path d="M48.3652 144.219L51.342 141.051L55.9563 151.636L52.9795 154.804L48.3652 144.219Z" fill="#FAA300"/>
<path d="M49.7026 144.219L52.6794 141.051L57.2956 151.636L54.3188 154.804L49.7026 144.219Z" fill="#F68F00"/>
<path d="M52.9795 154.804L55.9563 151.636H57.2956L54.3188 154.804H52.9795Z" fill="#FAA300"/>
<path d="M54.3188 154.804L57.2956 151.636L57.3716 151.81L54.3948 154.978L54.3188 154.804Z" fill="#FAA300"/>
<path d="M44.312 144.043L47.2888 140.875L47.311 141.051L44.3342 144.219L44.312 144.043Z" fill="#FAA300"/>
<path d="M42.2632 138.756L45.24 135.589L45.8976 140.875L42.9208 144.043L42.2632 138.756Z" fill="#FAA300"/>
<path d="M43.6768 138.93L46.6536 135.763L47.2889 140.875L44.3121 144.043L43.6768 138.93Z" fill="#F68F00"/>
<path d="M42.9209 144.043L45.8977 140.875H47.2888L44.312 144.043H42.9209Z" fill="#FAA300"/>
<path d="M61.6933 144.219L64.6701 141.051L62.6584 151.81L59.6816 154.978L61.6933 144.219Z" fill="#FDEA92"/>
<path d="M54.3945 154.978L57.3713 151.81H62.6581L59.6813 154.978H54.3945Z" fill="#FAA300"/>
<path d="M44.3345 144.219L47.3113 141.051H51.3421L48.3653 144.219H44.3345Z" fill="#FAA300"/>
<path d="M48.3652 144.219L51.342 141.051H52.6794L49.7027 144.219H48.3652Z" fill="#F68F00"/>
<path d="M43.6768 138.93L46.6536 135.763H50.375L47.3982 138.93H43.6768Z" fill="#FDEA92"/>
<path d="M41.2944 127.996L44.2712 124.828L48.9615 135.589L45.9847 138.756L41.2944 127.996Z" fill="#FAA300"/>
<path d="M42.2632 138.756L45.24 135.589H48.9614L45.9846 138.756H42.2632Z" fill="#F68F00"/>
<path d="M54.9912 144.219L57.968 141.051L58.9572 143.321L55.9804 146.488L54.9912 144.219Z" fill="#FDEA92"/>
<path d="M54.9912 144.219L57.968 141.051H59.3814L56.4046 144.219H54.9912Z" fill="#F68F00"/>
<path d="M56.4047 144.219L59.3815 141.051L58.9573 143.321L55.9805 146.488L56.4047 144.219Z" fill="#F68F00"/>
<path d="M55.9804 146.488L54.9912 144.219H56.4046L55.9804 146.488Z" fill="#005F64"/>
<path d="M52.6108 138.756L55.5876 135.589L55.6636 135.763L52.6868 138.93L52.6108 138.756Z" fill="#FDEA92"/>
<path d="M69.6768 154.804L72.6536 151.636H73.9891L71.0123 154.804H69.6768Z" fill="#FAA300"/>
<path d="M71.0127 154.804L73.9895 151.636L74.0654 151.81L71.0886 154.978L71.0127 154.804Z" fill="#FAA300"/>
<path d="M42.708 128.172L45.6848 125.004L50.3751 135.763L47.3983 138.931L42.708 128.172Z" fill="#F68F00"/>
<path d="M52.687 138.93L55.6638 135.763H60.3707L57.3939 138.93H52.687Z" fill="#FDEA92"/>
<path d="M57.9902 127.996L60.967 124.828L58.9553 135.589L55.9785 138.756L57.9902 127.996Z" fill="#FAA300"/>
<path d="M52.6108 138.756L55.5876 135.589H58.9553L55.9785 138.756H52.6108Z" fill="#F68F00"/>
<path d="M42.708 128.172L45.6848 125.004H49.6341L46.6573 128.172H42.708Z" fill="#FDEA92"/>
<path d="M69.7048 164.112C76.0122 164.112 81.2175 161.876 84.9297 158.155C84.3684 158.751 83.8071 159.349 83.2458 159.946C82.9921 160.216 82.7364 160.487 82.4827 160.757L82.3011 160.952C82.1974 161.063 82.0103 161.18 81.9529 161.322C78.2407 165.044 73.0336 167.279 66.728 167.279C67.6209 166.329 68.812 165.062 69.7048 164.112Z" fill="#FFDE4F"/>
<path d="M46.5811 127.996L49.5579 124.828L49.6338 125.004L46.657 128.172L46.5811 127.996Z" fill="#F68F00"/>
<path d="M41.2944 127.996L44.2712 124.828H49.558L46.5812 127.996H41.2944Z" fill="#F68F00"/>
<path d="M71.0884 154.978L74.0652 151.81H79.3538L76.377 154.978H71.0884Z" fill="#FAA300"/>
<path d="M65.0625 144.219L68.0393 141.051L72.6536 151.636L69.6768 154.804L65.0625 144.219Z" fill="#FAA300"/>
<path d="M61.6934 144.219L64.6701 141.051H68.0396L65.0628 144.219H61.6934Z" fill="#FAA300"/>
<path d="M47.9966 128.172L50.9734 125.004L55.5877 135.589L52.6109 138.756L47.9966 128.172Z" fill="#FDEA92"/>
<path d="M46.6572 128.172L49.634 125.004H50.9733L47.9965 128.172H46.6572Z" fill="#FDEA92"/>
<path d="M65.0625 144.219L68.0393 141.051H69.3767L66.3999 144.219H65.0625Z" fill="#F68F00"/>
<path d="M66.3999 144.219L69.3767 141.051L73.9892 151.636L71.0124 154.804L66.3999 144.219Z" fill="#F68F00"/>
<path d="M40.3459 138C40.5701 139.801 40.9721 141.561 41.5296 143.259C40.5367 144.315 39.5457 145.371 38.5528 146.427C37.9934 144.728 37.5933 142.969 37.3691 141.168C36.4337 133.66 38.7603 126.894 43.2394 122.129L46.2162 118.962C41.7371 123.724 39.4105 130.493 40.3459 138Z" fill="#FFDE4F"/>
<path d="M62.6807 138.93L65.6575 135.763H67.0727L64.0959 138.93H62.6807Z" fill="#FDEA92"/>
<path d="M63.1049 136.659L66.0817 133.492L65.6575 135.763L62.6807 138.93L63.1049 136.659Z" fill="#FDEA92"/>
<path d="M63.1045 136.659L66.0813 133.492L67.0723 135.763L64.0955 138.93L63.1045 136.659Z" fill="#F68F00"/>
<path d="M71.687 144.219L74.6638 141.051L75.653 143.321L72.6762 146.488L71.687 144.219Z" fill="#FDEA92"/>
<path d="M71.687 144.219L74.6638 141.051H76.0772L73.1004 144.219H71.687Z" fill="#F68F00"/>
<path d="M73.1 144.219L76.0768 141.051L75.6526 143.321L72.6758 146.488L73.1 144.219Z" fill="#F68F00"/>
<path d="M72.6762 146.488L71.687 144.219H73.1004L72.6762 146.488Z" fill="#005F64"/>
<path d="M69.3066 138.756L72.2834 135.589L72.3575 135.763L69.3807 138.93L69.3066 138.756Z" fill="#FDEA92"/>
<path d="M59.4053 128.172L62.3821 125.004L60.3704 135.763L57.3936 138.931L59.4053 128.172Z" fill="#F68F00"/>
<path d="M78.3887 144.219L81.3655 141.051L79.3537 151.81L76.377 154.978L78.3887 144.219Z" fill="#FDEA92"/>
<path d="M69.3804 138.93L72.3572 135.763H77.0659L74.0891 138.93H69.3804Z" fill="#FDEA92"/>
<path d="M74.686 127.996L77.6628 124.828L75.6511 135.589L72.6743 138.756L74.686 127.996Z" fill="#FAA300"/>
<path d="M69.3066 138.756L72.2834 135.589H75.6511L72.6743 138.756H69.3066Z" fill="#F68F00"/>
<path d="M59.4053 128.172L62.3821 125.004H66.3314L63.3546 128.172H59.4053Z" fill="#FDEA92"/>
<path d="M57.9902 127.996L60.967 124.828H66.2556L63.2788 127.996H57.9902Z" fill="#F68F00"/>
<path d="M63.2788 127.996L66.2556 124.828L66.3316 125.004L63.3548 128.172L63.2788 127.996Z" fill="#F68F00"/>
<path d="M63.2788 127.996L63.3547 128.172H59.4054L57.3937 138.93H52.6868L52.6108 138.756H55.9785L57.9902 127.996H63.2788Z" fill="url(#paint10_linear_1150_6031)"/>
<path d="M64.6924 128.172L67.6692 125.004L72.2835 135.589L69.3067 138.756L64.6924 128.172Z" fill="#FDEA92"/>
<path d="M63.3545 128.172L66.3313 125.004H67.6687L64.6919 128.172H63.3545Z" fill="#FDEA92"/>
<path d="M78.3887 144.219L81.3655 141.051H86.7337L83.7569 144.219H78.3887Z" fill="#FAA300"/>
<path d="M79.4093 138.756L82.3862 135.589L82.3528 135.763L79.376 138.93L79.4093 138.756Z" fill="#FDEA92"/>
<path d="M79.376 138.93L82.3528 135.763H84.6831L81.7063 138.93H79.376Z" fill="#FDEA92"/>
<path d="M79.4093 138.756H81.6841L81.7063 138.93H79.376L79.4093 138.756Z" fill="#005F64"/>
<path d="M79.4097 138.756L82.3865 135.589H84.6612L81.6844 138.756H79.4097Z" fill="#F68F00"/>
<path d="M81.6841 138.756L84.6609 135.589L84.6831 135.763L81.7063 138.93L81.6841 138.756Z" fill="#F68F00"/>
<path d="M83.0996 138.93L86.0764 135.763L86.734 141.051L83.7572 144.219L83.0996 138.93Z" fill="#FDEA92"/>
<path d="M81.7065 138.93L84.6833 135.763H86.0763L83.0995 138.93H81.7065Z" fill="#FDEA92"/>
<path d="M76.1011 128.172L79.0779 125.004L77.0662 135.763L74.0894 138.931L76.1011 128.172Z" fill="#F68F00"/>
<path d="M76.1011 128.172L79.0779 125.004H82.9179L79.9411 128.172H76.1011Z" fill="#FDEA92"/>
<path d="M74.686 127.996L77.6628 124.828H82.9496L79.9728 127.996H74.686Z" fill="#F68F00"/>
<path d="M79.9724 127.996L82.9492 124.828L82.9177 125.004L79.9409 128.172L79.9724 127.996Z" fill="#F68F00"/>
<path d="M81.388 128.172L84.3648 125.004L82.3865 135.589L79.4097 138.756L81.388 128.172Z" fill="#FDEA92"/>
<path d="M79.9409 128.172L82.9177 125.004H84.3644L81.3876 128.172H79.9409Z" fill="#FDEA92"/>
<path d="M85.3372 157.732L82.3604 160.9C86.8598 156.113 89.0031 149.048 88.0213 141.168C86.2263 126.747 74.647 115.057 60.2261 115.057L63.2029 111.889C77.6238 111.889 89.2031 123.58 90.9981 138.001C91.9799 145.881 89.8366 152.946 85.3372 157.732Z" fill="#FAA300"/>
<path d="M60.2278 115.057C74.6487 115.057 86.2281 126.747 88.023 141.168C89.818 155.589 81.1506 167.28 66.7297 167.28C52.3089 167.28 39.1643 155.589 37.3693 141.168C35.5743 126.747 45.8088 115.057 60.2278 115.057ZM78.3887 144.217H83.757L83.0994 138.93H81.7064L81.6841 138.756H79.4094L81.3877 128.17H79.941L79.9744 127.994H74.6876L72.6759 138.754H69.3064L64.694 128.168H63.3565L63.2806 127.992H57.9939L55.9822 138.753H52.6127L47.9983 128.166H46.6609L46.585 127.99H41.2982L45.9885 138.751H42.267L42.9246 144.036H44.3158L44.338 144.212H48.3688L52.9831 154.798H54.3224L54.3984 154.972H59.6851L61.6968 144.213H65.0663L69.6806 154.8H71.018L71.094 154.974H76.3807L78.3924 144.215L78.3887 144.217Z" fill="url(#paint11_linear_1150_6031)"/>
<path d="M85.2871 157.788C85.0185 158.075 84.7481 158.362 84.4795 158.647C84.0905 159.062 83.6996 159.477 83.3106 159.892C83.1143 160.101 82.9179 160.311 82.7216 160.52L82.4437 160.815C82.4048 160.857 82.3122 160.898 82.3122 160.955C82.1955 161.08 82.0769 161.202 81.9565 161.322C82.9494 160.266 83.9405 159.21 84.9333 158.155C85.0537 158.034 85.1723 157.912 85.289 157.788H85.2871Z" fill="#FFDE4F"/>
<path d="M85.2868 157.788C85.3035 157.771 85.3183 157.753 85.335 157.736L82.3582 160.904C82.3415 160.92 82.3267 160.939 82.3101 160.955C83.3029 159.9 84.294 158.844 85.2868 157.788Z" fill="#FFDE4F"/>
<path d="M43.2339 122.137L46.2107 118.969C50.336 114.579 56.2896 111.891 63.2045 111.891L60.2277 115.059C53.3128 115.059 47.3592 117.748 43.2339 122.137Z" fill="#FAA300"/>
<path d="M91.446 163.006L88.6026 166.031C88.9731 165.631 89.3306 165.218 89.6751 164.795C89.7455 164.71 89.8141 164.625 89.8808 164.54C89.9493 164.455 90.016 164.367 90.0827 164.282C90.8181 163.332 91.4868 162.33 92.0907 161.278C92.1407 161.191 92.1907 161.102 92.2407 161.013C92.4389 160.657 92.6316 160.294 92.8149 159.927C92.865 159.827 92.915 159.727 92.9631 159.625C92.9835 159.583 93.0057 159.538 93.0261 159.496C93.0706 159.401 93.115 159.307 93.1595 159.212C93.1891 159.147 93.2206 159.081 93.2503 159.014C93.2984 158.912 93.3447 158.808 93.3892 158.705C93.4485 158.568 93.5077 158.431 93.567 158.292C93.6115 158.188 93.6541 158.084 93.6967 157.979C93.7689 157.803 93.8375 157.625 93.9079 157.445C93.9486 157.338 93.9894 157.232 94.0283 157.125C94.069 157.017 94.1079 156.91 94.145 156.802C94.2598 156.478 94.371 156.152 94.4747 155.821C94.5043 155.733 94.5303 155.646 94.5581 155.557C94.5729 155.507 94.5877 155.457 94.6025 155.407C94.6359 155.298 94.6692 155.187 94.7007 155.076C94.7248 154.991 94.7489 154.905 94.7729 154.818C94.8044 154.707 94.8359 154.594 94.8656 154.481C94.9248 154.255 94.9841 154.027 95.0397 153.798C95.123 153.455 95.2008 153.109 95.2712 152.759C95.3731 152.262 95.4639 151.758 95.5454 151.249C95.562 151.147 95.5769 151.043 95.5917 150.941C95.5972 150.91 95.6009 150.88 95.6047 150.851C95.6343 150.654 95.6602 150.458 95.6843 150.262C95.6973 150.16 95.7102 150.058 95.7214 149.956C95.814 149.163 95.8807 148.355 95.9196 147.533C95.9288 147.346 95.9362 147.159 95.9436 146.968C96.0103 144.845 95.8973 142.637 95.5954 140.357C93.0409 121.131 77.4012 106.182 59.7534 105.543C59.3533 105.528 58.9569 105.521 58.5623 105.521C58.1196 105.521 57.6806 105.53 57.2453 105.548C57.0137 105.558 56.784 105.569 56.5543 105.584C55.6078 105.643 54.6779 105.745 53.7665 105.886C53.6572 105.902 53.5497 105.919 53.4405 105.937C53.2015 105.976 52.9644 106.019 52.7273 106.063C52.7125 106.067 52.6958 106.071 52.681 106.073C52.555 106.097 52.4309 106.123 52.3068 106.149C52.0752 106.195 51.8437 106.245 51.614 106.299C51.5973 106.302 51.5788 106.306 51.5603 106.312C51.438 106.339 51.3139 106.369 51.1916 106.401C51.0694 106.43 50.9471 106.46 50.8249 106.493C50.4803 106.582 50.1413 106.677 49.8042 106.778C49.782 106.784 49.7597 106.791 49.7375 106.799C49.4022 106.899 49.0725 107.004 48.7446 107.117C48.7187 107.125 48.6946 107.134 48.6705 107.143C48.2 107.304 47.7388 107.477 47.2812 107.662C47.0534 107.753 46.8256 107.849 46.6014 107.947C46.3754 108.044 46.1531 108.144 45.9308 108.247C45.7086 108.349 45.49 108.457 45.2714 108.566C45.164 108.618 45.0565 108.672 44.9509 108.727C44.8398 108.783 44.7305 108.84 44.6231 108.898C44.5156 108.953 44.4082 109.011 44.3026 109.07C44.1933 109.129 44.0822 109.19 43.9747 109.251C43.7654 109.368 43.5598 109.487 43.356 109.611C43.2523 109.672 43.1486 109.735 43.0467 109.798C42.9429 109.861 42.8411 109.924 42.7392 109.989C42.5354 110.118 42.3335 110.248 42.1334 110.383C42.0204 110.457 41.9093 110.533 41.7982 110.611C41.7111 110.67 41.624 110.73 41.5388 110.793C41.4406 110.859 41.3425 110.93 41.2461 111.002C41.148 111.07 41.0516 111.143 40.9553 111.215C40.859 111.285 40.7627 111.358 40.6682 111.432C40.5737 111.504 40.4774 111.578 40.3829 111.652C40.2885 111.726 40.194 111.8 40.1014 111.876C40.0087 111.95 39.9161 112.026 39.8235 112.104C39.6383 112.256 39.4567 112.41 39.2752 112.569C39.1844 112.647 39.0955 112.725 39.0066 112.806C38.9177 112.884 38.8288 112.965 38.7399 113.047C38.6509 113.127 38.5639 113.208 38.4768 113.291C38.386 113.375 38.2953 113.46 38.2064 113.547C38.123 113.627 38.0396 113.708 37.9581 113.79C37.8729 113.873 37.7877 113.958 37.7044 114.043C37.621 114.127 37.5376 114.212 37.4561 114.297C37.4154 114.34 37.3728 114.384 37.332 114.427L40.1829 111.391C45.4307 105.808 52.8718 102.355 61.5391 102.353C61.9337 102.353 62.3301 102.36 62.7302 102.375C80.378 103.014 96.0177 117.963 98.5722 137.187C99.9726 147.74 97.307 156.767 91.446 163.006Z" fill="#005F64"/>
<path d="M47.2812 107.662C47.7388 107.477 48.2 107.304 48.6705 107.143C48.2 107.304 47.7369 107.479 47.2812 107.662Z" fill="#FFDE4F"/>
<path d="M48.7446 107.117C49.0725 107.004 49.4022 106.899 49.7375 106.799C49.4022 106.899 49.0725 107.006 48.7446 107.117Z" fill="#FFDE4F"/>
<path d="M49.8042 106.778C50.1413 106.677 50.4803 106.582 50.8249 106.493C50.4822 106.582 50.1413 106.678 49.8042 106.778Z" fill="#FFDE4F"/>
<path d="M95.5957 140.357C93.0412 121.131 77.4014 106.182 59.7537 105.543C59.3535 105.528 58.9571 105.521 58.5626 105.521C58.1198 105.521 57.6808 105.53 57.2455 105.548C57.014 105.558 56.7843 105.569 56.5546 105.584C55.608 105.643 54.6781 105.745 53.7667 105.886C53.6574 105.902 53.5481 105.919 53.4407 105.937C53.2017 105.976 52.9646 106.019 52.7275 106.063C52.7127 106.067 52.696 106.071 52.6812 106.073C52.5571 106.099 52.4311 106.123 52.307 106.149C52.0755 106.195 51.8439 106.245 51.6142 106.299C51.5976 106.302 51.579 106.306 51.5605 106.312C51.4383 106.341 51.3141 106.371 51.1919 106.401C51.0696 106.43 50.9474 106.462 50.8251 106.493C50.4806 106.582 50.1416 106.677 49.8044 106.778C49.7822 106.784 49.76 106.791 49.7378 106.799C49.4025 106.899 49.0728 107.004 48.7449 107.117C48.7189 107.125 48.6949 107.134 48.6708 107.143C48.2003 107.304 47.739 107.477 47.2815 107.662C47.0536 107.755 46.8258 107.849 46.6017 107.947C46.3775 108.045 46.1534 108.145 45.9311 108.247C45.7107 108.351 45.4902 108.457 45.2716 108.566C45.1642 108.618 45.0586 108.672 44.9512 108.727C44.84 108.783 44.7307 108.84 44.6233 108.898C44.5159 108.955 44.4084 109.012 44.3028 109.07C44.1935 109.129 44.0824 109.19 43.975 109.251C43.7675 109.368 43.56 109.488 43.3563 109.611C43.2525 109.672 43.1488 109.735 43.0469 109.798C42.9432 109.861 42.8413 109.926 42.7394 109.989C42.5357 110.118 42.3337 110.25 42.1337 110.383C42.0207 110.457 41.9095 110.533 41.7984 110.611C41.7113 110.67 41.6243 110.731 41.5391 110.793C41.4409 110.861 41.3427 110.931 41.2464 111.002C41.1482 111.07 41.0519 111.143 40.9556 111.215C40.8592 111.287 40.7629 111.359 40.6684 111.432C40.5721 111.504 40.4776 111.578 40.3832 111.652C40.2887 111.726 40.1961 111.8 40.1016 111.876C40.009 111.95 39.9164 112.026 39.8237 112.104C39.6385 112.256 39.457 112.41 39.2754 112.569C39.1847 112.647 39.0958 112.726 39.0068 112.806C38.9161 112.886 38.8272 112.965 38.7401 113.047C38.6512 113.127 38.5641 113.208 38.4771 113.291C38.3863 113.375 38.2955 113.46 38.2066 113.547C38.1232 113.627 38.0417 113.708 37.9584 113.79C37.8732 113.873 37.788 113.958 37.7046 114.043C37.6212 114.127 37.5379 114.212 37.4564 114.297C37.4156 114.34 37.373 114.384 37.3323 114.427C31.199 120.871 28.011 130.204 29.2744 140.357C31.5621 158.736 47.9298 175.278 65.9258 175.278C66.7539 175.278 67.5874 175.243 68.421 175.171C76.8883 174.445 83.7274 171.223 88.4695 166.174L88.6029 166.031C88.9733 165.631 89.3308 165.218 89.6754 164.795C89.7458 164.71 89.8143 164.625 89.881 164.54C89.9496 164.455 90.0162 164.369 90.0829 164.282C90.8183 163.332 91.487 162.33 92.0909 161.278C92.1428 161.191 92.1928 161.102 92.241 161.013C92.4392 160.657 92.6318 160.294 92.8152 159.927C92.8652 159.827 92.9152 159.725 92.9634 159.625C92.9838 159.583 93.006 159.538 93.0264 159.496C93.0727 159.401 93.1171 159.307 93.1598 159.212C93.1894 159.147 93.2209 159.081 93.2505 159.014C93.2987 158.912 93.3431 158.809 93.3895 158.705C93.4487 158.568 93.508 158.431 93.5673 158.292C93.6117 158.188 93.6543 158.084 93.697 157.979C93.7692 157.803 93.8377 157.625 93.9081 157.445C93.9489 157.34 93.9878 157.232 94.0285 157.125C94.0674 157.017 94.1063 156.91 94.1452 156.802C94.2601 156.478 94.3712 156.152 94.475 155.821C94.5027 155.734 94.5305 155.646 94.5583 155.558C94.5731 155.508 94.588 155.458 94.6028 155.408C94.6361 155.298 94.6695 155.187 94.7009 155.076C94.725 154.991 94.7491 154.906 94.7732 154.818C94.8047 154.707 94.8362 154.594 94.8658 154.481C94.9251 154.255 94.9844 154.027 95.0399 153.798C95.1233 153.455 95.2011 153.109 95.2715 152.759C95.3734 152.262 95.4641 151.758 95.5456 151.249C95.5623 151.147 95.5771 151.043 95.5919 150.941C95.5975 150.91 95.6012 150.88 95.6049 150.851C95.6346 150.654 95.6605 150.458 95.6846 150.262C95.6975 150.16 95.7105 150.058 95.7216 149.956C95.8142 149.163 95.8809 148.355 95.9198 147.533C95.9291 147.346 95.9365 147.159 95.9439 146.968C96.0106 144.845 95.8976 142.637 95.5957 140.357ZM82.4492 160.807L82.4344 160.824C82.4344 160.824 82.4288 160.828 82.4288 160.829L82.4196 160.839C82.4066 160.852 82.3955 160.867 82.3825 160.878C82.3751 160.887 82.3677 160.896 82.3584 160.904C82.3436 160.92 82.327 160.937 82.3103 160.954C82.2158 161.055 82.1195 161.155 82.0213 161.252C82.012 161.265 82.0009 161.274 81.9898 161.285C81.9787 161.296 81.9676 161.307 81.9565 161.317C81.9065 161.37 81.8546 161.422 81.8009 161.472C81.7583 161.517 81.7138 161.559 81.6693 161.602C81.5786 161.689 81.4878 161.774 81.3952 161.859C81.3674 161.885 81.3396 161.911 81.3118 161.937C81.2303 162.011 81.147 162.087 81.0636 162.158C80.8395 162.36 80.6116 162.552 80.3764 162.739C80.2875 162.813 80.1967 162.884 80.1059 162.954C79.8503 163.154 79.5891 163.345 79.3242 163.532C79.0464 163.727 78.7629 163.914 78.4758 164.092C78.335 164.182 78.1924 164.268 78.0479 164.353C77.9275 164.423 77.8071 164.494 77.6848 164.56C77.6571 164.579 77.6293 164.594 77.5996 164.61C77.457 164.69 77.3125 164.766 77.168 164.842C77.0643 164.897 76.9587 164.951 76.8531 165.003C76.7938 165.034 76.7346 165.062 76.6753 165.092C76.579 165.14 76.4808 165.186 76.3826 165.231C76.3307 165.257 76.2789 165.281 76.227 165.303C76.0825 165.372 75.938 165.436 75.7898 165.498C75.675 165.548 75.5583 165.598 75.4416 165.642C75.3712 165.673 75.299 165.703 75.2267 165.731C75.1563 165.759 75.0859 165.786 75.0155 165.812C74.9137 165.853 74.8099 165.892 74.7062 165.929C74.658 165.948 74.608 165.964 74.5599 165.981C74.4394 166.025 74.3172 166.068 74.1949 166.107C74.1227 166.133 74.0504 166.157 73.9782 166.177C73.906 166.203 73.8319 166.227 73.7578 166.248C73.654 166.283 73.5503 166.314 73.4447 166.344C73.3762 166.364 73.3095 166.385 73.2409 166.403C73.1261 166.437 73.0131 166.468 72.8964 166.498C72.8353 166.514 72.7741 166.531 72.713 166.546C72.6259 166.57 72.5389 166.59 72.4518 166.611C72.3296 166.642 72.2073 166.672 72.0832 166.698C72.0184 166.715 71.9517 166.729 71.8831 166.742C71.809 166.759 71.735 166.776 71.659 166.789C71.5497 166.815 71.4386 166.835 71.3274 166.855C71.2255 166.876 71.1218 166.896 71.0181 166.913C70.9514 166.926 70.8847 166.937 70.818 166.948C70.6846 166.97 70.5513 166.992 70.416 167.009C70.3586 167.02 70.2993 167.029 70.2401 167.035C70.1697 167.048 70.0974 167.057 70.0252 167.065C69.8881 167.085 69.751 167.102 69.6121 167.117C69.3731 167.144 69.1323 167.168 68.8878 167.187C68.7507 167.202 68.6137 167.211 68.4747 167.22C68.2858 167.233 68.0968 167.244 67.9061 167.254C67.5189 167.27 67.1262 167.28 66.7298 167.28C66.5927 167.28 66.4575 167.278 66.3223 167.276C66.1555 167.276 65.9888 167.27 65.8221 167.265C65.6813 167.259 65.5405 167.254 65.3998 167.246C65.2831 167.241 65.1645 167.233 65.046 167.226C65.0052 167.224 64.9626 167.22 64.92 167.217C64.8181 167.211 64.7162 167.204 64.6125 167.196C64.544 167.191 64.4754 167.185 64.4069 167.178C63.8586 167.131 63.314 167.066 62.7712 166.987C62.4822 166.944 62.1933 166.896 61.9061 166.844H61.9024C61.7579 166.818 61.6172 166.79 61.4745 166.763C61.3764 166.744 61.28 166.724 61.1837 166.703C61.1467 166.696 61.1115 166.689 61.0763 166.681C60.9799 166.661 60.8836 166.64 60.7891 166.62C60.7058 166.602 60.6206 166.581 60.5372 166.563C60.4409 166.54 60.3446 166.516 60.2482 166.492C59.9315 166.416 59.6147 166.333 59.3017 166.244C59.1998 166.216 59.0979 166.187 58.996 166.157C58.7237 166.079 58.4533 165.996 58.1847 165.907C58.1032 165.881 58.0217 165.853 57.9402 165.827C57.8512 165.798 57.7642 165.768 57.6753 165.736C57.5808 165.705 57.4882 165.672 57.3937 165.636C57.24 165.583 57.0844 165.527 56.9306 165.468C56.8269 165.429 56.7231 165.39 56.6213 165.349C56.5175 165.31 56.4138 165.27 56.3119 165.227C56.2082 165.186 56.1063 165.144 56.0044 165.101C55.9025 165.06 55.8006 165.016 55.6988 164.973L55.3931 164.84C55.2968 164.797 55.1986 164.755 55.1023 164.71C54.8967 164.618 54.6911 164.521 54.4873 164.423C54.4039 164.382 54.3187 164.342 54.2354 164.299C54.1761 164.271 54.115 164.24 54.0557 164.21C53.9445 164.155 53.8334 164.099 53.7241 164.042L53.5963 163.975C53.3018 163.821 53.0109 163.664 52.7201 163.499C52.3978 163.317 52.0792 163.13 51.7643 162.936C51.7013 162.897 51.6383 162.86 51.5772 162.821C51.5253 162.787 51.4735 162.756 51.4216 162.723C51.3512 162.678 51.2827 162.636 51.2141 162.591C51.1234 162.532 51.0326 162.474 50.9437 162.415C50.8492 162.352 50.7547 162.289 50.6603 162.226C50.5936 162.182 50.5287 162.137 50.462 162.093L50.3565 162.021C50.3009 161.982 50.2453 161.943 50.1879 161.904C50.1416 161.871 50.0953 161.837 50.049 161.806C49.9137 161.709 49.7804 161.613 49.647 161.515C49.6007 161.482 49.5525 161.446 49.5062 161.411C49.4154 161.344 49.3265 161.278 49.2358 161.209C49.195 161.18 49.1543 161.148 49.1135 161.117C49.0746 161.087 49.0339 161.055 48.995 161.026C48.9375 160.98 48.8801 160.935 48.8227 160.891C48.7282 160.818 48.6356 160.744 48.5448 160.67C48.4392 160.587 48.3355 160.502 48.2318 160.416C48.178 160.372 48.1262 160.327 48.0725 160.285C48.0039 160.229 47.9372 160.172 47.8687 160.113C47.6779 159.95 47.4871 159.785 47.2982 159.616C47.2685 159.59 47.237 159.564 47.2074 159.536C47.1296 159.468 47.0518 159.398 46.9758 159.325C46.9444 159.298 46.9129 159.27 46.8832 159.24L46.8221 159.185C46.8054 159.17 46.7887 159.155 46.7739 159.138C46.4646 158.851 46.1608 158.557 45.8626 158.256C45.7829 158.175 45.7051 158.095 45.6291 158.018C45.5513 157.938 45.4754 157.858 45.3995 157.779C45.3976 157.779 45.3995 157.777 45.3995 157.777C45.3643 157.742 45.3309 157.706 45.2994 157.671C45.2235 157.591 45.1475 157.51 45.0753 157.43C44.9549 157.301 44.8363 157.171 44.7215 157.039C44.6474 156.958 44.5733 156.875 44.501 156.791C44.4269 156.708 44.3547 156.623 44.2825 156.539C44.2102 156.454 44.138 156.369 44.0676 156.286C43.9953 156.198 43.9249 156.113 43.8564 156.028C43.8546 156.026 43.8564 156.026 43.8564 156.026C43.7842 155.939 43.7138 155.852 43.6452 155.767C43.5748 155.68 43.5063 155.593 43.4396 155.508C43.4378 155.506 43.4396 155.506 43.4396 155.506C43.3692 155.419 43.3025 155.33 43.234 155.243C43.1655 155.154 43.0988 155.065 43.0339 154.978C43.0321 154.976 43.0339 154.976 43.0339 154.976C42.9543 154.872 42.8783 154.768 42.8042 154.665C42.7913 154.65 42.7802 154.635 42.7728 154.62C42.7264 154.559 42.682 154.498 42.6394 154.437C42.5746 154.346 42.5097 154.257 42.4467 154.166C42.3819 154.072 42.3189 153.981 42.2578 153.89C42.2152 153.831 42.1763 153.774 42.1374 153.714C42.1226 153.692 42.1077 153.672 42.0948 153.651C42.0855 153.638 42.0781 153.626 42.0707 153.614C41.9966 153.505 41.9262 153.398 41.8558 153.288C41.8317 153.253 41.8095 153.22 41.7891 153.185C41.7613 153.142 41.7336 153.099 41.7058 153.057C41.6446 152.96 41.5872 152.868 41.5279 152.773C41.5279 152.772 41.5261 152.772 41.5261 152.77C41.5057 152.738 41.4872 152.709 41.4687 152.677C41.4298 152.614 41.3909 152.553 41.3538 152.49C41.2945 152.392 41.2371 152.297 41.1816 152.201C41.1241 152.105 41.0686 152.008 41.013 151.914C40.9833 151.86 40.9519 151.808 40.9222 151.756C40.9204 151.751 40.9167 151.745 40.913 151.74C40.8926 151.703 40.8722 151.666 40.8518 151.63C40.7963 151.53 40.7407 151.43 40.687 151.33C40.6518 151.271 40.6203 151.21 40.5869 151.149C40.574 151.125 40.561 151.099 40.548 151.075C40.5406 151.062 40.5332 151.049 40.5277 151.038C40.511 151.008 40.4943 150.977 40.4795 150.947C40.4424 150.878 40.4072 150.812 40.3721 150.743L40.2998 150.602C40.2628 150.53 40.2257 150.456 40.1887 150.384C40.1183 150.243 40.0479 150.102 39.9812 149.96C39.9608 149.919 39.9404 149.878 39.9219 149.837C39.8775 149.743 39.833 149.65 39.7904 149.558C39.7404 149.45 39.6922 149.345 39.6459 149.237C39.607 149.154 39.5681 149.069 39.5329 148.982C39.4792 148.865 39.4273 148.746 39.3792 148.626C39.3792 148.626 39.3736 148.618 39.3718 148.613C39.3588 148.583 39.3458 148.554 39.3347 148.522C39.3254 148.502 39.3162 148.481 39.3088 148.461C39.2643 148.354 39.2199 148.246 39.1773 148.139C39.168 148.116 39.1587 148.096 39.1513 148.074C39.1421 148.052 39.1347 148.031 39.1254 148.009C39.0846 147.903 39.0439 147.8 39.005 147.696C38.9735 147.618 38.9439 147.539 38.9161 147.459C38.8661 147.329 38.8179 147.198 38.7716 147.066C38.7345 146.962 38.6975 146.857 38.6623 146.751C38.6252 146.646 38.59 146.538 38.5549 146.433C38.5363 146.379 38.5197 146.327 38.5048 146.277C38.4622 146.149 38.4215 146.021 38.3844 145.892C38.3307 145.721 38.2788 145.551 38.2307 145.379C38.1862 145.223 38.1418 145.067 38.101 144.91C38.0566 144.747 38.014 144.582 37.9732 144.415C37.9324 144.251 37.8917 144.084 37.8546 143.917C37.6472 143.015 37.4842 142.1 37.3693 141.172C37.2063 139.86 37.1415 138.569 37.173 137.31C37.1767 137.163 37.1804 137.017 37.1878 136.871C37.1952 136.643 37.2082 136.415 37.2248 136.191C37.2322 136.081 37.2397 135.972 37.2508 135.865C37.2489 135.855 37.2508 135.848 37.2526 135.841C37.2582 135.746 37.2674 135.652 37.2767 135.557C37.2934 135.376 37.3119 135.194 37.3341 135.013C37.336 134.992 37.3378 134.97 37.3415 134.95C37.3508 134.872 37.3601 134.794 37.373 134.718C37.373 134.701 37.3749 134.683 37.3786 134.666C37.386 134.596 37.3953 134.525 37.4064 134.455C37.4267 134.309 37.4471 134.162 37.4731 134.016C37.4749 133.99 37.4805 133.964 37.4842 133.938C37.5045 133.809 37.5268 133.681 37.5509 133.553C37.5509 133.547 37.5527 133.542 37.5546 133.536C37.5657 133.466 37.5786 133.395 37.5935 133.327C37.5935 133.321 37.5953 133.314 37.5972 133.308C37.6009 133.282 37.6046 133.258 37.6101 133.232C37.6175 133.195 37.625 133.157 37.6342 133.119C37.6361 133.107 37.6379 133.094 37.6416 133.081C37.6639 132.962 37.6879 132.845 37.7139 132.73C37.725 132.673 37.7379 132.617 37.7528 132.562C37.7806 132.432 37.8102 132.303 37.8435 132.173C37.8546 132.121 37.8676 132.067 37.8824 132.015C37.9065 131.908 37.9343 131.801 37.9639 131.695C37.9658 131.686 37.9676 131.678 37.9713 131.669C37.9936 131.576 38.0195 131.482 38.0473 131.389C38.051 131.373 38.0547 131.358 38.0603 131.341C38.0732 131.293 38.088 131.243 38.1029 131.195C38.1066 131.178 38.1121 131.161 38.1177 131.145C38.1381 131.069 38.1603 130.993 38.1844 130.917C38.1881 130.906 38.1899 130.895 38.1955 130.884C38.2214 130.793 38.2492 130.702 38.2788 130.611C38.2788 130.608 38.2788 130.606 38.2826 130.602C38.3085 130.521 38.3344 130.441 38.3604 130.359C38.3881 130.278 38.4141 130.198 38.4437 130.117C38.4808 130.006 38.5197 129.894 38.5604 129.785C38.5771 129.733 38.5956 129.681 38.6178 129.63C38.653 129.531 38.6901 129.433 38.7271 129.335C38.7827 129.192 38.8383 129.05 38.8975 128.907C38.9513 128.776 39.005 128.644 39.0624 128.514C39.0939 128.438 39.1272 128.363 39.1624 128.287C39.1847 128.235 39.2069 128.183 39.2328 128.131C39.2791 128.025 39.3273 127.92 39.3773 127.814C39.3829 127.803 39.3866 127.794 39.3921 127.785C39.4199 127.725 39.4477 127.666 39.4773 127.609C39.5181 127.52 39.5607 127.433 39.6052 127.346C39.6552 127.246 39.707 127.144 39.7608 127.045C39.783 126.997 39.8089 126.949 39.833 126.903C39.9182 126.742 40.0071 126.581 40.096 126.421C40.185 126.262 40.2757 126.104 40.3702 125.947C40.5573 125.634 40.7499 125.325 40.9519 125.021C40.9556 125.013 40.9611 125.008 40.9648 125C41.0611 124.856 41.1593 124.711 41.2594 124.569C41.3649 124.421 41.4705 124.272 41.578 124.128C41.678 123.993 41.778 123.857 41.8818 123.724C41.9077 123.691 41.9336 123.657 41.9614 123.624C42.1652 123.361 42.3782 123.104 42.5949 122.852C42.7135 122.715 42.832 122.577 42.9543 122.444C43.071 122.314 43.1895 122.187 43.31 122.061C43.3137 122.055 43.3192 122.05 43.3248 122.044C43.4304 121.933 43.5341 121.825 43.6415 121.718C43.7267 121.631 43.8138 121.546 43.9009 121.462C43.9583 121.405 44.0176 121.347 44.0768 121.292C44.1972 121.175 44.3214 121.06 44.4473 120.946C44.5085 120.89 44.5714 120.834 44.6344 120.781C44.69 120.729 44.7437 120.681 44.7993 120.636C44.8326 120.603 44.866 120.573 44.9012 120.545C45.8737 119.708 46.924 118.952 48.0447 118.289C48.1354 118.235 48.2281 118.182 48.3225 118.13C48.3948 118.085 48.4689 118.043 48.5448 118.002C48.6022 117.971 48.6597 117.937 48.7171 117.908C48.8394 117.839 48.9653 117.772 49.0913 117.708C49.158 117.672 49.2246 117.637 49.2932 117.604C49.3803 117.559 49.4655 117.515 49.5544 117.472C49.6211 117.439 49.6896 117.406 49.76 117.374C49.8674 117.32 49.9786 117.269 50.0879 117.219C50.1657 117.181 50.2435 117.146 50.3231 117.113C50.4009 117.076 50.4787 117.043 50.5584 117.009C50.7066 116.944 50.8566 116.881 51.0067 116.82C51.1511 116.761 51.2956 116.704 51.442 116.648C51.5049 116.624 51.5679 116.6 51.6328 116.576C51.7735 116.522 51.9143 116.472 52.0551 116.422C52.0588 116.42 52.0625 116.418 52.0662 116.418C52.207 116.368 52.3478 116.32 52.4886 116.276C52.5571 116.252 52.6256 116.229 52.6942 116.209C52.8461 116.159 52.9998 116.111 53.1554 116.066C53.1647 116.063 53.174 116.059 53.1851 116.057C53.3592 116.005 53.5333 115.955 53.7093 115.909C53.889 115.859 54.0687 115.813 54.2502 115.77C54.2817 115.761 54.315 115.753 54.3465 115.746C54.5095 115.707 54.6744 115.668 54.8393 115.633C55.0282 115.592 55.2171 115.551 55.4061 115.516C55.4098 115.516 55.4135 115.516 55.4172 115.516C55.5913 115.481 55.7655 115.449 55.9414 115.42C55.9711 115.414 56.0007 115.411 56.0322 115.405C56.1693 115.383 56.3064 115.361 56.4453 115.34C56.5009 115.331 56.5564 115.324 56.6139 115.316C56.7991 115.288 56.988 115.264 57.1751 115.242C57.3437 115.222 57.5104 115.203 57.6808 115.186C57.7197 115.183 57.7605 115.179 57.8012 115.175C57.9698 115.159 58.1384 115.146 58.3088 115.133C58.3477 115.129 58.3884 115.127 58.4273 115.123C58.5978 115.112 58.77 115.101 58.9423 115.094C58.9571 115.092 58.9738 115.092 58.9905 115.092C59.1868 115.083 59.3832 115.075 59.5814 115.07H59.6055C59.8129 115.064 60.0204 115.062 60.2279 115.062C68.4636 115.062 75.7732 118.876 80.8617 124.834C80.9136 124.891 80.9617 124.95 81.0099 125.008C81.2915 125.341 81.5638 125.68 81.8305 126.027C81.849 126.051 81.8694 126.077 81.8879 126.103C82.1065 126.386 82.3177 126.675 82.5252 126.968C82.9271 127.533 83.3087 128.112 83.6736 128.707C85.941 132.412 87.4618 136.659 88.0231 141.174C88.2657 143.122 88.3176 145.021 88.1861 146.848C88.1787 146.979 88.1694 147.109 88.1583 147.238C88.1101 147.811 88.0453 148.374 87.9601 148.93C87.9341 149.104 87.9064 149.278 87.8767 149.452C87.8415 149.671 87.8008 149.886 87.7563 150.1C87.723 150.273 87.6878 150.443 87.6507 150.614C87.5229 151.195 87.3766 151.766 87.208 152.325C87.1191 152.627 87.0246 152.925 86.9227 153.222C86.8431 153.461 86.7579 153.698 86.6653 153.931C86.6245 154.048 86.5782 154.165 86.5319 154.279C86.467 154.446 86.3985 154.611 86.3281 154.776C86.2392 154.987 86.1466 155.198 86.0484 155.404C85.9965 155.521 85.9428 155.635 85.8873 155.748C85.7428 156.05 85.5909 156.347 85.4316 156.639C85.3704 156.75 85.3093 156.86 85.2463 156.971C85.0518 157.317 84.8481 157.656 84.635 157.988C84.5739 158.082 84.5128 158.177 84.4479 158.269C84.322 158.464 84.1905 158.655 84.0552 158.842C83.983 158.944 83.9089 159.044 83.8329 159.144C83.8126 159.172 83.7922 159.201 83.77 159.229C83.77 159.231 83.7681 159.231 83.7681 159.231C83.6607 159.377 83.5477 159.522 83.4347 159.662C83.3272 159.798 83.2198 159.931 83.1087 160.063C83.0012 160.192 82.8919 160.318 82.7808 160.446C82.7734 160.453 82.766 160.461 82.7586 160.47L82.74 160.489C82.74 160.489 82.7382 160.492 82.7345 160.496C82.6456 160.596 82.5566 160.694 82.4659 160.792C82.4603 160.798 82.4566 160.804 82.4529 160.807L82.4492 160.811V160.807Z" fill="url(#paint12_linear_1150_6031)"/>
<path d="M48.3652 144.219H49.7027L54.3188 154.804H52.9795L48.3652 144.219Z" fill="url(#paint13_linear_1150_6031)"/>
<path d="M46.6571 128.172H42.7078L47.3981 138.93H43.6766L44.312 144.043H42.9208L42.2632 138.756H45.9847L41.2944 127.996H46.5812L46.6571 128.172Z" fill="url(#paint14_linear_1150_6031)"/>
<path d="M65.0625 144.219H66.3999L71.0124 154.804H69.6768L65.0625 144.219Z" fill="url(#paint15_linear_1150_6031)"/>
<path d="M81.7066 138.93H83.0996L83.7572 144.217H78.3889L76.3772 154.976H71.0905L71.0146 154.802L66.4021 144.215H61.6952L59.6835 154.974H54.3967L54.3208 154.8L49.7065 144.213H44.3382L44.316 144.037L43.6788 138.925H47.4002L42.71 128.166H47.9967L52.611 138.753L52.687 138.927H57.3939L59.4056 128.168H64.6923L69.3048 138.754L69.3807 138.929H74.0877L76.0994 128.17H81.3861L79.4078 138.756L79.3744 138.93H81.7047H81.7066ZM62.6825 138.93H64.0977L63.1067 136.659L62.6825 138.93ZM55.9805 146.488L56.4066 144.219H54.9913L55.9805 146.488ZM72.678 146.488L73.1022 144.219H71.687L72.678 146.488Z" fill="#E0F7FA"/>
<path d="M62.6807 138.93L63.1049 136.659L64.0959 138.93H62.6807Z" fill="#005F64"/>
<path d="M79.9727 127.996L79.9412 128.172H76.1012L74.0895 138.93H69.3807L69.3066 138.756H72.6743L74.686 127.996H79.9727Z" fill="url(#paint16_linear_1150_6031)"/>
<path d="M95.04 153.798C95.1215 153.455 95.1993 153.109 95.2716 152.759C95.2012 153.109 95.1234 153.455 95.04 153.798Z" fill="#FFDE4F"/>
</g>
<defs>
<linearGradient id="paint0_linear_1150_6031" x1="82.3398" y1="112.388" x2="126.303" y2="112.388" gradientUnits="userSpaceOnUse">
<stop stop-color="#FDEA92"/>
<stop offset="1" stop-color="#FFDE4F"/>
</linearGradient>
<linearGradient id="paint1_linear_1150_6031" x1="70.338" y1="123.859" x2="142.511" y2="123.859" gradientUnits="userSpaceOnUse">
<stop stop-color="#005F64"/>
<stop offset="0.11" stop-color="#006F77"/>
<stop offset="0.28" stop-color="#00808C"/>
<stop offset="0.46" stop-color="#008C9B"/>
<stop offset="0.67" stop-color="#0093A4"/>
<stop offset="1" stop-color="#0096A7"/>
</linearGradient>
<linearGradient id="paint2_linear_1150_6031" x1="71.7978" y1="113.143" x2="142.702" y2="113.143" gradientUnits="userSpaceOnUse">
<stop stop-color="#00BCD4"/>
<stop offset="0.04" stop-color="#0CBFD6"/>
<stop offset="0.17" stop-color="#30C8DC"/>
<stop offset="0.3" stop-color="#4DD0E1"/>
<stop offset="0.44" stop-color="#63D6E5"/>
<stop offset="0.59" stop-color="#73DAE7"/>
<stop offset="0.76" stop-color="#7DDDE9"/>
<stop offset="1" stop-color="#80DEEA"/>
</linearGradient>
<linearGradient id="paint3_linear_1150_6031" x1="85.3096" y1="100.106" x2="129.272" y2="100.106" gradientUnits="userSpaceOnUse">
<stop stop-color="#FDEA92"/>
<stop offset="1" stop-color="#FFDE4F"/>
</linearGradient>
<linearGradient id="paint4_linear_1150_6031" x1="73.3078" y1="111.578" x2="145.481" y2="111.578" gradientUnits="userSpaceOnUse">
<stop stop-color="#005F64"/>
<stop offset="0.11" stop-color="#006F77"/>
<stop offset="0.28" stop-color="#00808C"/>
<stop offset="0.46" stop-color="#008C9B"/>
<stop offset="0.67" stop-color="#0093A4"/>
<stop offset="1" stop-color="#0096A7"/>
</linearGradient>
<linearGradient id="paint5_linear_1150_6031" x1="74.7675" y1="100.862" x2="145.672" y2="100.862" gradientUnits="userSpaceOnUse">
<stop stop-color="#00BCD4"/>
<stop offset="0.04" stop-color="#0CBFD6"/>
<stop offset="0.17" stop-color="#30C8DC"/>
<stop offset="0.3" stop-color="#4DD0E1"/>
<stop offset="0.44" stop-color="#63D6E5"/>
<stop offset="0.59" stop-color="#73DAE7"/>
<stop offset="0.76" stop-color="#7DDDE9"/>
<stop offset="1" stop-color="#80DEEA"/>
</linearGradient>
<linearGradient id="paint6_linear_1150_6031" x1="83.2256" y1="100.732" x2="137.08" y2="100.732" gradientUnits="userSpaceOnUse">
<stop stop-color="#0096A7"/>
<stop offset="0.49" stop-color="#00AABF"/>
<stop offset="1" stop-color="#00BCD4"/>
</linearGradient>
<linearGradient id="paint7_linear_1150_6031" x1="76.6364" y1="97.9259" x2="148.809" y2="97.9259" gradientUnits="userSpaceOnUse">
<stop stop-color="#005F64"/>
<stop offset="0.11" stop-color="#006F77"/>
<stop offset="0.28" stop-color="#00808C"/>
<stop offset="0.46" stop-color="#008C9B"/>
<stop offset="0.67" stop-color="#0093A4"/>
<stop offset="1" stop-color="#0096A7"/>
</linearGradient>
<linearGradient id="paint8_linear_1150_6031" x1="78.0961" y1="87.2097" x2="149" y2="87.2097" gradientUnits="userSpaceOnUse">
<stop stop-color="#00BCD4"/>
<stop offset="0.04" stop-color="#0CBFD6"/>
<stop offset="0.17" stop-color="#30C8DC"/>
<stop offset="0.3" stop-color="#4DD0E1"/>
<stop offset="0.44" stop-color="#63D6E5"/>
<stop offset="0.59" stop-color="#73DAE7"/>
<stop offset="0.76" stop-color="#7DDDE9"/>
<stop offset="1" stop-color="#80DEEA"/>
</linearGradient>
<linearGradient id="paint9_linear_1150_6031" x1="86.5542" y1="87.0801" x2="140.409" y2="87.0801" gradientUnits="userSpaceOnUse">
<stop stop-color="#0096A7"/>
<stop offset="0.49" stop-color="#00AABF"/>
<stop offset="1" stop-color="#00BCD4"/>
</linearGradient>
<linearGradient id="paint10_linear_1150_6031" x1="52.6108" y1="133.464" x2="63.3547" y2="133.464" gradientUnits="userSpaceOnUse">
<stop stop-color="#005F64"/>
<stop offset="0.11" stop-color="#006F77"/>
<stop offset="0.28" stop-color="#00808C"/>
<stop offset="0.46" stop-color="#008C9B"/>
<stop offset="0.67" stop-color="#0093A4"/>
<stop offset="1" stop-color="#0096A7"/>
</linearGradient>
<linearGradient id="paint11_linear_1150_6031" x1="37.1637" y1="141.168" x2="88.2564" y2="141.168" gradientUnits="userSpaceOnUse">
<stop stop-color="#0096A7"/>
<stop offset="0.49" stop-color="#00AABF"/>
<stop offset="1" stop-color="#00BCD4"/>
</linearGradient>
<linearGradient id="paint12_linear_1150_6031" x1="32.5475" y1="118.543" x2="94.5602" y2="163.686" gradientUnits="userSpaceOnUse">
<stop stop-color="#00BCD4"/>
<stop offset="0.04" stop-color="#0CBFD6"/>
<stop offset="0.17" stop-color="#30C8DC"/>
<stop offset="0.3" stop-color="#4DD0E1"/>
<stop offset="0.44" stop-color="#63D6E5"/>
<stop offset="0.59" stop-color="#73DAE7"/>
<stop offset="0.76" stop-color="#7DDDE9"/>
<stop offset="1" stop-color="#80DEEA"/>
</linearGradient>
<linearGradient id="paint13_linear_1150_6031" x1="48.3652" y1="149.511" x2="54.3188" y2="149.511" gradientUnits="userSpaceOnUse">
<stop stop-color="#005F64"/>
<stop offset="0.11" stop-color="#006F77"/>
<stop offset="0.28" stop-color="#00808C"/>
<stop offset="0.46" stop-color="#008C9B"/>
<stop offset="0.67" stop-color="#0093A4"/>
<stop offset="1" stop-color="#0096A7"/>
</linearGradient>
<linearGradient id="paint14_linear_1150_6031" x1="41.2944" y1="136.02" x2="47.3981" y2="136.02" gradientUnits="userSpaceOnUse">
<stop stop-color="#005F64"/>
<stop offset="0.11" stop-color="#006F77"/>
<stop offset="0.28" stop-color="#00808C"/>
<stop offset="0.46" stop-color="#008C9B"/>
<stop offset="0.67" stop-color="#0093A4"/>
<stop offset="1" stop-color="#0096A7"/>
</linearGradient>
<linearGradient id="paint15_linear_1150_6031" x1="65.0625" y1="149.511" x2="71.0124" y2="149.511" gradientUnits="userSpaceOnUse">
<stop stop-color="#005F64"/>
<stop offset="0.11" stop-color="#006F77"/>
<stop offset="0.28" stop-color="#00808C"/>
<stop offset="0.46" stop-color="#008C9B"/>
<stop offset="0.67" stop-color="#0093A4"/>
<stop offset="1" stop-color="#0096A7"/>
</linearGradient>
<linearGradient id="paint16_linear_1150_6031" x1="69.3066" y1="133.464" x2="79.9727" y2="133.464" gradientUnits="userSpaceOnUse">
<stop stop-color="#005F64"/>
<stop offset="0.11" stop-color="#006F77"/>
<stop offset="0.28" stop-color="#00808C"/>
<stop offset="0.46" stop-color="#008C9B"/>
<stop offset="0.67" stop-color="#0093A4"/>
<stop offset="1" stop-color="#0096A7"/>
</linearGradient>
<clipPath id="clip0_1150_6031">
<rect width="120" height="109.556" fill="white" transform="translate(29 65.7219)"/>
</clipPath>
</defs>
</svg>
