<svg width="80" height="81" viewBox="0 0 80 81" fill="none" xmlns="http://www.w3.org/2000/svg">
<path d="M10 34.0714L27.1429 27.6429V68.3571H10V34.0714Z" fill="#B2EBF2"/>
<path d="M52.8571 34.0714H70V68.3571H52.8571V34.0714Z" fill="#B2EBF2"/>
<path d="M27.1429 16.9286H52.8571V68.3571H27.1429V16.9286Z" fill="#B2EBF2"/>
<path d="M32.2857 12.6429H47.7143L48.5714 16.9286H31.4286L32.2857 12.6429Z" fill="#B2EBF2"/>
<path d="M30.1429 20.3571H34.4286V24.6429H30.1429V20.3571Z" fill="#00BCD4"/>
<path d="M37.8571 20.3571H42.1429V24.6429H37.8571V20.3571Z" fill="#00BCD4"/>
<path d="M45.5714 20.3571H49.8571V24.6429H45.5714V20.3571Z" fill="#00BCD4"/>
<path d="M30.1429 28.0714H34.4286V32.3571H30.1429V28.0714Z" fill="#00BCD4"/>
<path d="M37.8571 28.0714H42.1429V32.3571H37.8571V28.0714Z" fill="#00BCD4"/>
<path d="M45.5714 28.0714H49.8571V32.3571H45.5714V28.0714Z" fill="#00BCD4"/>
<path d="M30.1429 35.7857H34.4286V40.0714H30.1429V35.7857Z" fill="#00BCD4"/>
<path d="M37.8571 35.7857H42.1429V40.0714H37.8571V35.7857Z" fill="#00BCD4"/>
<path d="M45.5714 35.7857H49.8571V40.0714H45.5714V35.7857Z" fill="#00BCD4"/>
<path d="M30.1429 43.5H34.4286V47.7857H30.1429V43.5Z" fill="#00BCD4"/>
<path d="M37.8571 43.5H42.1429V47.7857H37.8571V43.5Z" fill="#00BCD4"/>
<path d="M45.5714 43.5H49.8571V47.7857H45.5714V43.5Z" fill="#00BCD4"/>
<path d="M55.4286 37.5H59.7143V41.7857H55.4286V37.5Z" fill="#00BCD4"/>
<path d="M63.1429 37.5H67.4286V41.7857H63.1429V37.5Z" fill="#00BCD4"/>
<path d="M55.4286 45.2143H59.7143V49.5H55.4286V45.2143Z" fill="#00BCD4"/>
<path d="M63.1429 45.2143H67.4286V49.5H63.1429V45.2143Z" fill="#00BCD4"/>
<path d="M12.5714 37.5H16.8571V41.7857H12.5714V37.5Z" fill="#00BCD4"/>
<path d="M20.2857 37.5H24.5714V41.7857H20.2857V37.5Z" fill="#00BCD4"/>
<path d="M12.5714 45.2143H16.8571V49.5H12.5714V45.2143Z" fill="#00BCD4"/>
<path d="M20.2857 45.2143H24.5714V49.5H20.2857V45.2143Z" fill="#00BCD4"/>
<path d="M35.7143 55.5H44.2857V68.3571H35.7143V55.5Z" fill="#00BCD4"/>
</svg>
