<svg width="180" height="174" viewBox="0 0 180 174" fill="none" xmlns="http://www.w3.org/2000/svg">
<g clip-path="url(#clip0_1285_8100)">
<path d="M90 11.0283L0 65.0283L90 119.928L180 65.0283L90 11.0283Z" fill="url(#paint0_linear_1285_8100)"/>
<path d="M162 0.228271H18V162.228H162V0.228271Z" fill="url(#paint1_linear_1285_8100)"/>
<g filter="url(#filter0_d_1285_8100)">
<path d="M180 65.0283V173.028H0V65.0283L90 119.928L180 65.0283Z" fill="#E0F7FA"/>
</g>
<g filter="url(#filter1_d_1285_8100)">
<path d="M87.057 120.792L0 173.028H180L92.943 120.792C91.134 119.703 88.866 119.703 87.057 120.792Z" fill="#E0F7FA"/>
</g>
<path fill-rule="evenodd" clip-rule="evenodd" d="M104.727 58.8743L86.5681 77.2762L75.2729 65.8303L78.9863 62.1658L86.5681 69.8488L101.014 55.2098L104.727 58.8743Z" fill="url(#paint2_linear_1285_8100)"/>
<path fill-rule="evenodd" clip-rule="evenodd" d="M90 87.1192C102.2 87.1192 112.091 77.2288 112.091 65.0283C112.091 52.8278 102.2 42.9374 90 42.9374C77.7995 42.9374 67.9091 52.8278 67.9091 65.0283C67.9091 77.2288 77.7995 87.1192 90 87.1192ZM90 92.0283C104.912 92.0283 117 79.94 117 65.0283C117 50.1166 104.912 38.0283 90 38.0283C75.0883 38.0283 63 50.1166 63 65.0283C63 79.94 75.0883 92.0283 90 92.0283Z" fill="url(#paint3_linear_1285_8100)"/>
</g>
<defs>
<filter id="filter0_d_1285_8100" x="-12" y="57.0283" width="204" height="132" filterUnits="userSpaceOnUse" color-interpolation-filters="sRGB">
<feFlood flood-opacity="0" result="BackgroundImageFix"/>
<feColorMatrix in="SourceAlpha" type="matrix" values="0 0 0 0 0 0 0 0 0 0 0 0 0 0 0 0 0 0 127 0" result="hardAlpha"/>
<feOffset dy="4"/>
<feGaussianBlur stdDeviation="6"/>
<feColorMatrix type="matrix" values="0 0 0 0 0.698039 0 0 0 0 0.921569 0 0 0 0 0.94902 0 0 0 1 0"/>
<feBlend mode="normal" in2="BackgroundImageFix" result="effect1_dropShadow_1285_8100"/>
<feBlend mode="normal" in="SourceGraphic" in2="effect1_dropShadow_1285_8100" result="shape"/>
</filter>
<filter id="filter1_d_1285_8100" x="-20" y="104.976" width="220" height="93.0527" filterUnits="userSpaceOnUse" color-interpolation-filters="sRGB">
<feFlood flood-opacity="0" result="BackgroundImageFix"/>
<feColorMatrix in="SourceAlpha" type="matrix" values="0 0 0 0 0 0 0 0 0 0 0 0 0 0 0 0 0 0 127 0" result="hardAlpha"/>
<feOffset dy="5"/>
<feGaussianBlur stdDeviation="10"/>
<feColorMatrix type="matrix" values="0 0 0 0 0 0 0 0 0 0.737255 0 0 0 0 0.831373 0 0 0 0.7 0"/>
<feBlend mode="normal" in2="BackgroundImageFix" result="effect1_dropShadow_1285_8100"/>
<feBlend mode="normal" in="SourceGraphic" in2="effect1_dropShadow_1285_8100" result="shape"/>
</filter>
<linearGradient id="paint0_linear_1285_8100" x1="90" y1="11.0283" x2="90" y2="119.928" gradientUnits="userSpaceOnUse">
<stop stop-color="#B2EBF2"/>
<stop offset="1" stop-color="#00BCD4"/>
</linearGradient>
<linearGradient id="paint1_linear_1285_8100" x1="63.4542" y1="15.1801" x2="96.7014" y2="160.697" gradientUnits="userSpaceOnUse">
<stop stop-color="white"/>
<stop offset="0.989583" stop-color="#F1F3F5"/>
</linearGradient>
<linearGradient id="paint2_linear_1285_8100" x1="90.0002" y1="55.2098" x2="90.0002" y2="77.2762" gradientUnits="userSpaceOnUse">
<stop stop-color="#B2EBF2"/>
<stop offset="1" stop-color="#00BCD4"/>
</linearGradient>
<linearGradient id="paint3_linear_1285_8100" x1="90" y1="38.0283" x2="90" y2="92.0283" gradientUnits="userSpaceOnUse">
<stop stop-color="#B2EBF2"/>
<stop offset="1" stop-color="#00BCD4"/>
</linearGradient>
<clipPath id="clip0_1285_8100">
<rect width="180" height="172.8" fill="white" transform="translate(0 0.228271)"/>
</clipPath>
</defs>
</svg>
