<svg width="178" height="241" viewBox="0 0 178 241" fill="none" xmlns="http://www.w3.org/2000/svg">
<g clip-path="url(#clip0_1150_5961)">
<path d="M31.313 212.213L29 210.955L29.3069 45.2844L31.6198 46.5423L31.313 212.213Z" fill="#005F64"/>
<path d="M31.6196 46.5424L29.3066 45.2845L146.687 28.7869L149 30.0448L31.6196 46.5424Z" fill="url(#paint0_linear_1150_5961)"/>
<path d="M149 30.0448L148.691 195.718L31.313 212.213L31.6199 46.5424L149 30.0448Z" fill="url(#paint1_linear_1150_5961)"/>
<path d="M39.8699 202.819L38.7134 202.19L38.9822 57.4731L40.1387 58.1021L39.8699 202.819Z" fill="#BFBFBF"/>
<path d="M40.1389 58.1022L38.9824 57.4732L140.159 43.2531L141.316 43.882L40.1389 58.1022Z" fill="#BFBFBF"/>
<path d="M39.8701 202.819L40.1389 58.1021L141.316 43.882L141.047 188.602L39.8701 202.819Z" fill="white"/>
<path d="M51.7187 189.393L49.4058 188.135L49.4666 155.244L51.7796 156.502L51.7187 189.393Z" fill="#005F64"/>
<path d="M51.7798 156.502L49.4668 155.244L126.667 144.394L128.98 145.652L51.7798 156.502Z" fill="url(#paint2_linear_1150_5961)"/>
<path d="M128.98 145.652L128.916 178.543L51.7188 189.393L51.7796 156.502L128.98 145.652Z" fill="url(#paint3_linear_1150_5961)"/>
<path d="M51.9113 86.55C51.9214 86.3877 51.9316 86.2279 51.9468 86.0656C51.9569 85.9693 51.9696 85.8729 51.9798 85.774C51.995 85.6294 52.0102 85.4874 52.0305 85.3428C52.0457 85.2388 52.0635 85.1349 52.0812 85.0309C52.1015 84.8965 52.1218 84.762 52.1472 84.6302C52.1674 84.5237 52.1903 84.4171 52.2131 84.3106C52.2385 84.1813 52.2638 84.0519 52.2943 83.9251C52.3196 83.8186 52.3475 83.7121 52.3754 83.603C52.4058 83.4762 52.4363 83.352 52.4718 83.2251C52.5022 83.1186 52.5352 83.0121 52.5656 82.9056C52.6011 82.7813 52.6366 82.6596 52.6772 82.5379C52.7127 82.4313 52.7508 82.3248 52.7863 82.2183C52.8268 82.0966 52.8674 81.9774 52.9131 81.8556C52.9359 81.7922 52.9638 81.7288 52.9866 81.6654C53.0424 81.5183 53.1007 81.3738 53.1591 81.2292C53.192 81.1531 53.225 81.077 53.258 80.9984C53.3138 80.8665 53.3721 80.7372 53.433 80.6079C53.4685 80.5292 53.5065 80.4506 53.5446 80.372C53.6054 80.2452 53.6688 80.1158 53.7348 79.9916C53.7728 79.918 53.8109 79.8445 53.8489 79.7709C53.8895 79.6948 53.9301 79.6238 53.9706 79.5477C54.0898 79.3322 54.2141 79.1166 54.3409 78.9061C54.379 78.8427 54.417 78.7793 54.4576 78.7159C54.6174 78.4597 54.7822 78.2061 54.9547 77.9601C54.9902 77.9119 55.0257 77.8637 55.0612 77.813C55.1956 77.6253 55.3351 77.4377 55.4771 77.2551C55.5304 77.1866 55.5836 77.1181 55.6394 77.0496C55.7865 76.867 55.9336 76.687 56.0883 76.512C56.1264 76.4689 56.1619 76.4232 56.1999 76.3801C56.3901 76.1645 56.5854 75.9566 56.7858 75.7537C56.8365 75.703 56.8872 75.6548 56.9379 75.604C57.0952 75.4468 57.2549 75.2946 57.4198 75.145C57.4807 75.0892 57.5415 75.0334 57.6024 74.9802C57.8281 74.7798 58.0589 74.582 58.2948 74.3968C58.315 74.3816 58.3353 74.3664 58.3556 74.3512C58.5763 74.1787 58.7995 74.0139 59.0277 73.8541C59.1114 73.7958 59.1951 73.7374 59.2813 73.6791C59.3599 73.6259 59.436 73.5751 59.5146 73.5244C59.6237 73.4534 59.7328 73.3849 59.8418 73.319C59.9204 73.2708 59.999 73.2226 60.0777 73.177C60.1918 73.1085 60.3085 73.0451 60.4251 72.9791C60.5012 72.9386 60.5747 72.8954 60.6534 72.8549C60.7827 72.7864 60.9121 72.723 61.0439 72.657C61.1099 72.6241 61.1758 72.5911 61.2418 72.5581C61.4269 72.4719 61.612 72.3882 61.7997 72.3096C61.8454 72.2893 61.8935 72.2716 61.9392 72.2538C62.0863 72.1929 62.2359 72.1346 62.3856 72.0788C62.4439 72.0585 62.4997 72.0357 62.558 72.0154C62.7254 71.9545 62.8953 71.8987 63.0678 71.8455C63.0957 71.8379 63.121 71.8277 63.1464 71.8201C63.3417 71.7618 63.5395 71.706 63.7373 71.6553C63.7931 71.6426 63.8464 71.6299 63.9022 71.6147C64.0543 71.5792 64.2065 71.5437 64.3587 71.5133C64.417 71.5006 64.4753 71.4879 64.5337 71.4777C64.7366 71.4397 64.9394 71.4042 65.1449 71.3763C65.33 71.3509 65.5126 71.3306 65.6952 71.3129C65.7535 71.3078 65.8093 71.3027 65.8677 71.2977C65.9945 71.2875 66.1213 71.2774 66.2481 71.2723C66.3115 71.2698 66.3749 71.2672 66.4383 71.2647C66.5626 71.2596 66.6843 71.2571 66.806 71.2571C66.8644 71.2571 66.9227 71.2571 66.981 71.2571C67.1332 71.2571 67.2828 71.2622 67.4325 71.2698C67.4578 71.2698 67.4857 71.2698 67.5111 71.2723C67.6861 71.2825 67.8611 71.2951 68.0335 71.3129C68.0843 71.318 68.1324 71.3256 68.1832 71.3306C68.3074 71.3459 68.4292 71.3611 68.5509 71.3788C68.6118 71.3864 68.6701 71.3966 68.731 71.4067C68.8451 71.4245 68.9592 71.4448 69.0708 71.4676C69.1291 71.4777 69.1849 71.4904 69.2433 71.5006C69.3726 71.5285 69.4994 71.5564 69.6262 71.5893C69.6643 71.5995 69.7023 71.6071 69.7378 71.6172C69.9027 71.6603 70.0675 71.706 70.2298 71.7567C70.2729 71.7694 70.3135 71.7846 70.3566 71.7973C70.4784 71.8353 70.5976 71.8759 70.7168 71.919C70.77 71.9393 70.8258 71.9596 70.8791 71.9799C70.9881 72.023 71.0997 72.0661 71.2062 72.1118C71.257 72.1321 71.3077 72.1524 71.3559 72.1752C71.4928 72.2361 71.6298 72.2969 71.7642 72.3629C71.7819 72.3705 71.7997 72.3781 71.8175 72.3882C71.9519 72.4542 72.0838 72.5226 72.2131 72.5936L69.9001 71.3357C69.7708 71.2647 69.6389 71.1962 69.5045 71.1303L69.4969 71.1252C69.4817 71.1176 69.4665 71.1125 69.4512 71.1049C69.3168 71.039 69.1824 70.9781 69.0429 70.9173C68.9922 70.8944 68.9415 70.8741 68.8933 70.8539C68.7842 70.8082 68.6752 70.7651 68.5661 70.722C68.5129 70.7017 68.4571 70.6814 68.4038 70.6611C68.2846 70.618 68.1654 70.5774 68.0437 70.5394C68.0006 70.5267 67.96 70.5115 67.9169 70.4988C67.7546 70.4481 67.5897 70.4024 67.4249 70.3593C67.4173 70.3593 67.4122 70.3542 67.4046 70.3542C67.3741 70.3466 67.3437 70.3416 67.3133 70.3339C67.1865 70.3035 67.0597 70.2731 66.9303 70.2452C66.872 70.2325 66.8162 70.2224 66.7579 70.2122C66.6463 70.1894 66.5321 70.1691 66.418 70.1513C66.3571 70.1412 66.2988 70.1311 66.2379 70.1234C66.1162 70.1057 65.9919 70.0905 65.8702 70.0753C65.8195 70.0702 65.7713 70.0626 65.7206 70.0575C65.5481 70.0398 65.3731 70.0271 65.1981 70.0169C65.1728 70.0169 65.1449 70.0169 65.1195 70.0144C64.9699 70.0068 64.8202 70.0017 64.6681 70.0017C64.6097 70.0017 64.5514 70.0017 64.4931 70.0017C64.3713 70.0017 64.2471 70.0042 64.1253 70.0093C64.0619 70.0093 63.9985 70.0144 63.9351 70.0169C63.8083 70.0245 63.6815 70.0321 63.5547 70.0423C63.4964 70.0474 63.4406 70.0499 63.3848 70.0575C63.2022 70.0753 63.0196 70.0955 62.8345 70.1209C62.629 70.1488 62.4261 70.1843 62.2232 70.2224C62.1649 70.2325 62.1066 70.2452 62.0482 70.2579C61.8961 70.2883 61.7439 70.3238 61.5917 70.3593C61.5359 70.372 61.4827 70.3847 61.4269 70.3999C61.2291 70.4506 61.0313 70.5039 60.836 70.5647C60.8081 70.5723 60.7827 70.5825 60.7548 70.5901C60.5849 70.6434 60.415 70.6991 60.2476 70.76C60.1893 70.7803 60.1309 70.8006 60.0751 70.8234C59.9255 70.8792 59.7759 70.9375 59.6288 70.9984C59.5831 71.0162 59.5349 71.0365 59.4893 71.0542C59.3143 71.1278 59.1393 71.2038 58.9694 71.285C58.9567 71.2901 58.9465 71.2977 58.9339 71.3028C58.8679 71.3332 58.802 71.3687 58.736 71.4017C58.6042 71.4651 58.4748 71.531 58.3455 71.5995C58.2694 71.6401 58.1933 71.6832 58.1172 71.7238C58.0006 71.7872 57.8839 71.8531 57.7698 71.9216C57.6912 71.9672 57.6125 72.0154 57.5339 72.0636C57.4249 72.1321 57.3133 72.2005 57.2068 72.269C57.1281 72.3197 57.0495 72.3705 56.9734 72.4237C56.9227 72.4592 56.8695 72.4922 56.8187 72.5252C56.7858 72.548 56.7528 72.5734 56.7198 72.5987C56.4916 72.7585 56.2684 72.9233 56.0477 73.0958C56.0275 73.111 56.0072 73.1262 55.9869 73.1415C55.751 73.3291 55.5202 73.5244 55.2945 73.7248C55.2691 73.7476 55.2412 73.7679 55.2159 73.7907C55.1804 73.8237 55.1474 73.8566 55.1119 73.8896C54.9496 74.0392 54.7898 74.1914 54.63 74.3487C54.5793 74.3994 54.5286 74.4476 54.4779 74.4983C54.2775 74.7012 54.0822 74.9117 53.892 75.1247C53.8844 75.1349 53.8743 75.145 53.8641 75.1526C53.8337 75.1856 53.8083 75.2211 53.7804 75.2541C53.6283 75.4291 53.4786 75.6091 53.3315 75.7917C53.2783 75.8602 53.2225 75.9287 53.1692 75.9971C53.0272 76.1797 52.8877 76.3674 52.7533 76.5551C52.7279 76.5931 52.6975 76.6286 52.6721 76.6642C52.6645 76.6768 52.6569 76.687 52.6493 76.6997C52.4769 76.9457 52.312 77.1993 52.1522 77.4554C52.1142 77.5188 52.0761 77.5822 52.0356 77.6456C51.9088 77.8561 51.7845 78.0692 51.6653 78.2873C51.6425 78.3304 51.6171 78.371 51.5943 78.4116C51.5765 78.4445 51.5613 78.4775 51.5436 78.5079C51.5055 78.5815 51.4675 78.655 51.4294 78.7286C51.366 78.8554 51.3026 78.9822 51.2392 79.109C51.2012 79.1876 51.1657 79.2662 51.1276 79.3449C51.0668 79.4742 51.011 79.6035 50.9526 79.7354C50.9197 79.8115 50.8867 79.8876 50.8537 79.9662C50.7929 80.1108 50.7371 80.2553 50.6813 80.4024C50.6559 80.4658 50.6305 80.5292 50.6077 80.5926C50.6026 80.6079 50.595 80.6231 50.59 80.6383C50.5519 80.7423 50.5164 80.8488 50.4809 80.9553C50.4454 81.0618 50.4048 81.1683 50.3719 81.2749C50.3313 81.3966 50.2983 81.5209 50.2603 81.6426C50.2273 81.7491 50.1943 81.8556 50.1639 81.9621C50.1284 82.0864 50.1005 82.2132 50.0675 82.34C50.0396 82.4466 50.0117 82.5531 49.9864 82.6621C49.9559 82.7915 49.9331 82.9208 49.9052 83.0502C49.8824 83.1567 49.8596 83.2632 49.8393 83.3697C49.8139 83.5041 49.7962 83.6385 49.7733 83.773C49.7556 83.8769 49.7378 83.9809 49.7226 84.0849C49.7023 84.2269 49.6871 84.3715 49.6719 84.516C49.6617 84.6124 49.6465 84.7088 49.6389 84.8052C49.6237 84.9649 49.6136 85.1272 49.6034 85.2896C49.5983 85.3707 49.5907 85.4519 49.5857 85.533C49.573 85.7765 49.5679 86.02 49.5679 86.266C49.5578 91.3459 52.0077 95.462 55.7079 97.4732L58.0209 98.7311C54.3232 96.72 51.8733 92.6038 51.8809 87.5239C51.8809 87.2804 51.8885 87.0344 51.8986 86.791C51.9037 86.7098 51.9113 86.6286 51.9164 86.5475L51.9113 86.55Z" fill="url(#paint4_linear_1150_5961)"/>
<path d="M76.2738 91.7443C80.1986 84.5308 78.3823 75.9637 72.217 72.6093C66.0517 69.2548 57.8721 72.3833 53.9473 79.5968C50.0225 86.8103 51.8388 95.3774 58.0041 98.7318C64.1693 102.086 72.349 98.9579 76.2738 91.7443Z" fill="#4DCFE1"/>
<path d="M87.9653 96.7047L85.6523 95.4468L85.665 88.868L87.978 90.126L87.9653 96.7047Z" fill="#005F64"/>
<path d="M87.978 90.126L85.665 88.868L115.216 84.7139L117.529 85.9718L87.978 90.126Z" fill="url(#paint5_linear_1150_5961)"/>
<path d="M117.529 85.9718L117.516 92.5505L87.9653 96.7047L87.978 90.126L117.529 85.9718Z" fill="#4DCFE1"/>
<path d="M87.9853 85.741L85.6724 84.483L85.685 77.9043L87.998 79.1622L87.9853 85.741Z" fill="#005F64"/>
<path d="M87.998 79.1622L85.6851 77.9042L126.317 72.1929L128.63 73.4508L87.998 79.1622Z" fill="url(#paint6_linear_1150_5961)"/>
<path d="M128.63 73.4508L128.617 80.0296L87.9854 85.7409L87.998 79.1622L128.63 73.4508Z" fill="#4DCFE1"/>
<path d="M88.0058 74.7772L85.6929 73.5193L85.7056 66.9406L88.0185 68.1985L88.0058 74.7772Z" fill="#005F64"/>
<path d="M88.0185 68.1984L85.7056 66.9405L126.337 61.2291L128.65 62.4871L88.0185 68.1984Z" fill="url(#paint7_linear_1150_5961)"/>
<path d="M128.65 62.4871L128.637 69.0658L88.0059 74.7772L88.0185 68.1984L128.65 62.4871Z" fill="#4DCFE1"/>
<path d="M51.7748 141.249L49.4644 139.992L49.4745 133.413L51.7875 134.671L51.7748 141.249Z" fill="#005F64"/>
<path d="M51.7871 134.671L49.4741 133.413L79.0252 129.259L81.3382 130.516L51.7871 134.671Z" fill="url(#paint8_linear_1150_5961)"/>
<path d="M81.3382 130.516L81.3255 137.095L51.7744 141.249L51.7871 134.671L81.3382 130.516Z" fill="url(#paint9_linear_1150_5961)"/>
<path d="M51.7948 130.286L49.4844 129.028L49.4945 122.449L51.8075 123.707L51.7948 130.286Z" fill="#005F64"/>
<path d="M51.8076 123.707L49.4946 122.449L90.1261 116.738L92.4391 117.996L51.8076 123.707Z" fill="url(#paint10_linear_1150_5961)"/>
<path d="M92.4391 117.996L92.4264 124.574L51.7949 130.286L51.8076 123.707L92.4391 117.996Z" fill="url(#paint11_linear_1150_5961)"/>
<path d="M51.8153 119.322L49.5049 118.064L49.515 111.485L51.828 112.743L51.8153 119.322Z" fill="#005F64"/>
<path d="M51.8276 112.743L49.5146 111.485L90.1462 105.774L92.4591 107.032L51.8276 112.743Z" fill="url(#paint12_linear_1150_5961)"/>
<path d="M92.4591 107.032L92.4464 113.611L51.8149 119.322L51.8276 112.743L92.4591 107.032Z" fill="url(#paint13_linear_1150_5961)"/>
<path d="M102.583 142.878L100.273 141.62L100.326 113.114L102.637 114.371L102.583 142.878Z" fill="#005F64"/>
<path d="M102.637 114.371L100.326 113.114L126.735 109.401L129.048 110.659L102.637 114.371Z" fill="url(#paint14_linear_1150_5961)"/>
<path d="M129.048 110.659L128.995 139.165L102.583 142.878L102.637 114.371L129.048 110.659Z" fill="#4DCFE1"/>
<path d="M68.5839 61.3788L66.2734 60.1208L66.2988 46.5854L68.6092 47.8434L68.5839 61.3788Z" fill="#005F64"/>
<path d="M68.6092 47.8434L66.2988 46.5854L111.442 40.2426L113.755 41.5005L68.6092 47.8434Z" fill="url(#paint15_linear_1150_5961)"/>
<path d="M113.755 41.5005L113.73 53.7653L68.584 61.3787L68.6093 47.8434L113.755 41.5005Z" fill="url(#paint16_linear_1150_5961)"/>
</g>
<defs>
<linearGradient id="paint0_linear_1150_5961" x1="29.3066" y1="37.6634" x2="149" y2="37.6634" gradientUnits="userSpaceOnUse">
<stop stop-color="#005F64"/>
<stop offset="0.11" stop-color="#006F77"/>
<stop offset="0.28" stop-color="#00808C"/>
<stop offset="0.46" stop-color="#008C9B"/>
<stop offset="0.67" stop-color="#0093A4"/>
<stop offset="1" stop-color="#0096A7"/>
</linearGradient>
<linearGradient id="paint1_linear_1150_5961" x1="48.6906" y1="189.041" x2="164.184" y2="-0.11496" gradientUnits="userSpaceOnUse">
<stop stop-color="#0096A7"/>
<stop offset="0.49" stop-color="#00AABF"/>
<stop offset="1" stop-color="#00BCD4"/>
</linearGradient>
<linearGradient id="paint2_linear_1150_5961" x1="49.4668" y1="150.448" x2="128.98" y2="150.448" gradientUnits="userSpaceOnUse">
<stop stop-color="#005F64"/>
<stop offset="0.11" stop-color="#006F77"/>
<stop offset="0.28" stop-color="#00808C"/>
<stop offset="0.46" stop-color="#008C9B"/>
<stop offset="0.67" stop-color="#0093A4"/>
<stop offset="1" stop-color="#0096A7"/>
</linearGradient>
<linearGradient id="paint3_linear_1150_5961" x1="51.7188" y1="167.524" x2="128.98" y2="167.524" gradientUnits="userSpaceOnUse">
<stop stop-color="#00BCD4"/>
<stop offset="0.04" stop-color="#0CBFD6"/>
<stop offset="0.17" stop-color="#30C8DC"/>
<stop offset="0.3" stop-color="#4DD0E1"/>
<stop offset="0.44" stop-color="#63D6E5"/>
<stop offset="0.59" stop-color="#73DAE7"/>
<stop offset="0.76" stop-color="#7DDDE9"/>
<stop offset="1" stop-color="#80DEEA"/>
</linearGradient>
<linearGradient id="paint4_linear_1150_5961" x1="49.5628" y1="84.3715" x2="72.2055" y2="84.3715" gradientUnits="userSpaceOnUse">
<stop stop-color="#005F64"/>
<stop offset="0.11" stop-color="#006F77"/>
<stop offset="0.28" stop-color="#00808C"/>
<stop offset="0.46" stop-color="#008C9B"/>
<stop offset="0.67" stop-color="#0093A4"/>
<stop offset="1" stop-color="#0096A7"/>
</linearGradient>
<linearGradient id="paint5_linear_1150_5961" x1="85.665" y1="87.4199" x2="117.529" y2="87.4199" gradientUnits="userSpaceOnUse">
<stop stop-color="#005F64"/>
<stop offset="0.11" stop-color="#006F77"/>
<stop offset="0.28" stop-color="#00808C"/>
<stop offset="0.46" stop-color="#008C9B"/>
<stop offset="0.67" stop-color="#0093A4"/>
<stop offset="1" stop-color="#0096A7"/>
</linearGradient>
<linearGradient id="paint6_linear_1150_5961" x1="85.6851" y1="75.6775" x2="128.63" y2="75.6775" gradientUnits="userSpaceOnUse">
<stop stop-color="#005F64"/>
<stop offset="0.11" stop-color="#006F77"/>
<stop offset="0.28" stop-color="#00808C"/>
<stop offset="0.46" stop-color="#008C9B"/>
<stop offset="0.67" stop-color="#0093A4"/>
<stop offset="1" stop-color="#0096A7"/>
</linearGradient>
<linearGradient id="paint7_linear_1150_5961" x1="85.7056" y1="64.7138" x2="128.65" y2="64.7138" gradientUnits="userSpaceOnUse">
<stop stop-color="#005F64"/>
<stop offset="0.11" stop-color="#006F77"/>
<stop offset="0.28" stop-color="#00808C"/>
<stop offset="0.46" stop-color="#008C9B"/>
<stop offset="0.67" stop-color="#0093A4"/>
<stop offset="1" stop-color="#0096A7"/>
</linearGradient>
<linearGradient id="paint8_linear_1150_5961" x1="49.4741" y1="131.965" x2="81.3382" y2="131.965" gradientUnits="userSpaceOnUse">
<stop stop-color="#005F64"/>
<stop offset="0.11" stop-color="#006F77"/>
<stop offset="0.28" stop-color="#00808C"/>
<stop offset="0.46" stop-color="#008C9B"/>
<stop offset="0.67" stop-color="#0093A4"/>
<stop offset="1" stop-color="#0096A7"/>
</linearGradient>
<linearGradient id="paint9_linear_1150_5961" x1="51.7744" y1="135.883" x2="81.3382" y2="135.883" gradientUnits="userSpaceOnUse">
<stop stop-color="#00BCD4"/>
<stop offset="0.04" stop-color="#0CBFD6"/>
<stop offset="0.17" stop-color="#30C8DC"/>
<stop offset="0.3" stop-color="#4DD0E1"/>
<stop offset="0.44" stop-color="#63D6E5"/>
<stop offset="0.59" stop-color="#73DAE7"/>
<stop offset="0.76" stop-color="#7DDDE9"/>
<stop offset="1" stop-color="#80DEEA"/>
</linearGradient>
<linearGradient id="paint10_linear_1150_5961" x1="49.4946" y1="120.222" x2="92.4391" y2="120.222" gradientUnits="userSpaceOnUse">
<stop stop-color="#005F64"/>
<stop offset="0.11" stop-color="#006F77"/>
<stop offset="0.28" stop-color="#00808C"/>
<stop offset="0.46" stop-color="#008C9B"/>
<stop offset="0.67" stop-color="#0093A4"/>
<stop offset="1" stop-color="#0096A7"/>
</linearGradient>
<linearGradient id="paint11_linear_1150_5961" x1="51.7949" y1="124.141" x2="92.4391" y2="124.141" gradientUnits="userSpaceOnUse">
<stop stop-color="#00BCD4"/>
<stop offset="0.04" stop-color="#0CBFD6"/>
<stop offset="0.17" stop-color="#30C8DC"/>
<stop offset="0.3" stop-color="#4DD0E1"/>
<stop offset="0.44" stop-color="#63D6E5"/>
<stop offset="0.59" stop-color="#73DAE7"/>
<stop offset="0.76" stop-color="#7DDDE9"/>
<stop offset="1" stop-color="#80DEEA"/>
</linearGradient>
<linearGradient id="paint12_linear_1150_5961" x1="49.5146" y1="109.259" x2="92.4591" y2="109.259" gradientUnits="userSpaceOnUse">
<stop stop-color="#005F64"/>
<stop offset="0.11" stop-color="#006F77"/>
<stop offset="0.28" stop-color="#00808C"/>
<stop offset="0.46" stop-color="#008C9B"/>
<stop offset="0.67" stop-color="#0093A4"/>
<stop offset="1" stop-color="#0096A7"/>
</linearGradient>
<linearGradient id="paint13_linear_1150_5961" x1="51.8149" y1="113.177" x2="92.4591" y2="113.177" gradientUnits="userSpaceOnUse">
<stop stop-color="#00BCD4"/>
<stop offset="0.04" stop-color="#0CBFD6"/>
<stop offset="0.17" stop-color="#30C8DC"/>
<stop offset="0.3" stop-color="#4DD0E1"/>
<stop offset="0.44" stop-color="#63D6E5"/>
<stop offset="0.59" stop-color="#73DAE7"/>
<stop offset="0.76" stop-color="#7DDDE9"/>
<stop offset="1" stop-color="#80DEEA"/>
</linearGradient>
<linearGradient id="paint14_linear_1150_5961" x1="100.326" y1="111.886" x2="129.048" y2="111.886" gradientUnits="userSpaceOnUse">
<stop stop-color="#005F64"/>
<stop offset="0.11" stop-color="#006F77"/>
<stop offset="0.28" stop-color="#00808C"/>
<stop offset="0.46" stop-color="#008C9B"/>
<stop offset="0.67" stop-color="#0093A4"/>
<stop offset="1" stop-color="#0096A7"/>
</linearGradient>
<linearGradient id="paint15_linear_1150_5961" x1="66.2988" y1="44.0442" x2="113.755" y2="44.0442" gradientUnits="userSpaceOnUse">
<stop stop-color="#005F64"/>
<stop offset="0.11" stop-color="#006F77"/>
<stop offset="0.28" stop-color="#00808C"/>
<stop offset="0.46" stop-color="#008C9B"/>
<stop offset="0.67" stop-color="#0093A4"/>
<stop offset="1" stop-color="#0096A7"/>
</linearGradient>
<linearGradient id="paint16_linear_1150_5961" x1="63.3139" y1="71.0338" x2="115.754" y2="32.9511" gradientUnits="userSpaceOnUse">
<stop stop-color="#00BCD4"/>
<stop offset="0.04" stop-color="#0CBFD6"/>
<stop offset="0.17" stop-color="#30C8DC"/>
<stop offset="0.3" stop-color="#4DD0E1"/>
<stop offset="0.44" stop-color="#63D6E5"/>
<stop offset="0.59" stop-color="#73DAE7"/>
<stop offset="0.76" stop-color="#7DDDE9"/>
<stop offset="1" stop-color="#80DEEA"/>
</linearGradient>
<clipPath id="clip0_1150_5961">
<rect width="120" height="183.426" fill="white" transform="translate(29 28.7869)"/>
</clipPath>
</defs>
</svg>
