<svg width="48" height="48" viewBox="0 0 48 48" fill="none" xmlns="http://www.w3.org/2000/svg">
<path d="M23.6936 23.6709H41.124C40.9972 28.2281 39.1389 32.5737 35.9167 35.8166C32.6945 39.0594 28.3609 40.9454 23.8045 41.1013L23.6936 23.6709Z" fill="#00BCD4" stroke="#121417"/>
<path d="M21.0145 23.1704V39.369C18.1649 38.9674 15.4692 37.8161 13.2054 36.0285C10.7957 34.1258 8.97386 31.5798 7.9505 28.685C6.92714 25.7902 6.74409 22.6649 7.4225 19.6704C8.10092 16.676 9.6131 13.9347 11.7842 11.7637C13.9552 9.59259 16.6965 8.08041 19.6909 7.402C22.6854 6.72358 25.8107 6.90663 28.7055 7.92999C31.6003 8.95335 34.1463 10.7752 36.049 13.1849C37.8366 15.4487 38.9879 18.1444 39.3895 20.994H21.5145H21.0145V21.494V23.1704Z" fill="white" stroke="#121417"/>
</svg>