<svg width="178" height="241" viewBox="0 0 178 241" fill="none" xmlns="http://www.w3.org/2000/svg">
<g clip-path="url(#clip0_1150_6006)">
<path d="M32.3474 130.885C32.3069 130.994 32.2819 131.107 32.2788 131.222C32.2788 131.278 32.2788 131.334 32.2913 131.39C32.2975 131.437 32.3131 131.484 32.3318 131.524C32.3505 131.565 32.3723 131.602 32.4004 131.637C32.4284 131.668 32.4596 131.696 32.4939 131.721L94.7973 173.25C94.7661 173.228 94.7411 173.203 94.7193 173.172C94.6975 173.138 94.6788 173.104 94.6695 173.063C94.6539 173.019 94.6476 172.973 94.6445 172.926C94.6383 172.87 94.6383 172.814 94.6445 172.758C94.6632 172.63 94.6975 172.505 94.7474 172.387C94.8004 172.259 94.8658 172.134 94.9437 172.019C95.0217 171.904 95.1121 171.794 95.2087 171.695C95.2991 171.604 95.4019 171.526 95.5141 171.461L143.181 144.952C143.255 144.908 143.324 144.861 143.393 144.808C143.474 144.746 143.548 144.678 143.62 144.606C143.698 144.528 143.779 144.438 143.863 144.338C143.947 144.238 144.035 144.123 144.128 143.998C144.265 143.808 144.409 143.59 144.558 143.347C144.705 143.1 144.854 142.839 145.004 142.543C145.154 142.246 145.306 141.938 145.453 141.604C145.602 141.274 145.749 140.928 145.892 140.557C146.036 140.186 146.176 139.812 146.307 139.419C146.438 139.027 146.569 138.625 146.687 138.213C146.809 137.802 146.921 137.381 147.027 136.954C147.133 136.527 147.229 136.097 147.314 135.664C147.429 135.084 147.519 134.532 147.585 134.008C147.65 133.485 147.697 132.992 147.719 132.531C147.741 132.067 147.741 131.646 147.719 131.263C147.703 130.92 147.663 130.577 147.597 130.237C147.569 130.1 147.535 129.963 147.494 129.829C147.457 129.713 147.416 129.601 147.363 129.489C147.32 129.399 147.27 129.308 147.211 129.227C147.164 129.159 147.105 129.093 147.039 129.04L147.008 129.015L146.977 128.99L146.946 128.968L146.915 128.95L83.8165 95.4869L83.8539 95.5088L83.8944 95.5337L83.9318 95.5586L83.9723 95.5867C84.0471 95.6459 84.1188 95.7114 84.1811 95.783C84.2528 95.8672 84.3214 95.9576 84.3775 96.0511C84.4461 96.1602 84.5084 96.2724 84.5645 96.3908C84.6269 96.5217 84.6861 96.6589 84.736 96.796C84.8482 97.1202 84.9354 97.4537 84.9978 97.7934C85.0726 98.1955 85.1256 98.6038 85.1536 99.0121C85.1879 99.4485 85.2004 99.916 85.1941 100.415C85.1941 100.907 85.1536 101.431 85.1006 101.973C85.0601 102.378 85.0071 102.78 84.9479 103.179C84.8856 103.575 84.8139 103.968 84.7328 104.348C84.6518 104.732 84.5614 105.106 84.4648 105.464C84.365 105.826 84.2591 106.175 84.1469 106.511C84.0347 106.845 83.9162 107.166 83.7947 107.468C83.6731 107.771 83.5453 108.054 83.4144 108.313C83.2835 108.575 83.1526 108.821 83.0217 109.036C82.9032 109.236 82.7723 109.429 82.6321 109.616C82.5479 109.728 82.4637 109.828 82.3827 109.915C82.3079 109.996 82.23 110.074 82.1458 110.146C82.0741 110.208 81.9993 110.264 81.9214 110.314C81.8528 110.358 81.7812 110.395 81.7063 110.426L33.0736 130.103C32.9645 130.15 32.8648 130.212 32.7744 130.287C32.6809 130.368 32.5967 130.461 32.525 130.561C32.4534 130.661 32.3973 130.773 32.3536 130.888H32.3474V130.885Z" fill="url(#paint0_linear_1150_6006)"/>
<path d="M98.5317 160.34C98.5971 159.832 98.647 159.324 98.675 158.844C98.7031 158.364 98.7218 157.903 98.7187 157.46C98.7155 157.017 98.6968 156.597 98.6626 156.198C98.6252 155.802 98.5784 155.421 98.513 155.069C98.4662 154.814 98.4101 154.571 98.3415 154.343C98.2823 154.125 98.2106 153.91 98.1265 153.701C98.0517 153.511 97.9613 153.324 97.8615 153.146C97.7711 152.984 97.6652 152.831 97.5436 152.688L145.06 128.202C145.126 128.167 145.195 128.139 145.266 128.121C145.332 128.105 145.397 128.096 145.463 128.099C145.528 128.105 145.593 128.118 145.653 128.142C145.718 128.174 145.78 128.211 145.837 128.258C145.902 128.314 145.958 128.376 146.008 128.445C146.064 128.529 146.117 128.616 146.161 128.71C146.211 128.819 146.257 128.931 146.295 129.046C146.338 129.184 146.373 129.321 146.401 129.458C146.469 129.798 146.513 130.14 146.532 130.486C146.553 130.873 146.553 131.297 146.532 131.761C146.51 132.226 146.469 132.718 146.401 133.245C146.335 133.772 146.248 134.326 146.133 134.906C146.049 135.339 145.952 135.773 145.849 136.2C145.746 136.627 145.634 137.044 145.509 137.462C145.385 137.88 145.263 138.279 145.129 138.671C144.995 139.064 144.858 139.447 144.715 139.812C144.571 140.18 144.425 140.529 144.275 140.863C144.125 141.196 143.976 141.511 143.826 141.804C143.677 142.097 143.524 142.365 143.377 142.611C143.231 142.857 143.088 143.075 142.947 143.266C142.854 143.393 142.766 143.509 142.679 143.605C142.595 143.702 142.508 143.795 142.433 143.877C142.361 143.948 142.283 144.017 142.205 144.079C142.137 144.132 142.068 144.179 141.993 144.222L95.3867 169.949C95.474 169.803 95.5581 169.653 95.6454 169.497C95.7327 169.345 95.8168 169.189 95.8917 169.033C95.9696 168.877 96.0506 168.715 96.1317 168.553C96.2127 168.391 96.2875 168.226 96.3623 168.06C96.621 167.49 96.861 166.892 97.0823 166.274C97.3067 165.657 97.5093 165.018 97.6932 164.367C97.8771 163.715 98.033 163.045 98.1794 162.369C98.3228 161.693 98.4319 161.016 98.5192 160.321L98.5254 160.334L98.5317 160.34Z" fill="#3F973E"/>
<path d="M98.5317 160.34C98.5971 159.832 98.647 159.324 98.675 158.844C98.7031 158.364 98.7218 157.903 98.7187 157.46C98.7155 157.017 98.6968 156.597 98.6626 156.198C98.6252 155.802 98.5784 155.421 98.513 155.069C98.4662 154.814 98.4101 154.571 98.3415 154.343C98.2823 154.125 98.2106 153.91 98.1265 153.701C98.0517 153.511 97.9613 153.324 97.8615 153.146C97.7711 152.984 97.6652 152.831 97.5436 152.688L145.06 128.202C145.126 128.167 145.195 128.139 145.266 128.121C145.332 128.105 145.397 128.096 145.463 128.099C145.528 128.105 145.593 128.118 145.653 128.142C145.718 128.174 145.78 128.211 145.837 128.258C145.902 128.314 145.958 128.376 146.008 128.445C146.064 128.529 146.117 128.616 146.161 128.71C146.211 128.819 146.257 128.931 146.295 129.046C146.338 129.184 146.373 129.321 146.401 129.458C146.469 129.798 146.513 130.14 146.532 130.486C146.553 130.873 146.553 131.297 146.532 131.761C146.51 132.226 146.469 132.718 146.401 133.245C146.335 133.772 146.248 134.326 146.133 134.906C146.049 135.339 145.952 135.773 145.849 136.2C145.746 136.627 145.634 137.044 145.509 137.462C145.385 137.88 145.263 138.279 145.129 138.671C144.995 139.064 144.858 139.447 144.715 139.812C144.571 140.18 144.425 140.529 144.275 140.863C144.125 141.196 143.976 141.511 143.826 141.804C143.677 142.097 143.524 142.365 143.377 142.611C143.231 142.857 143.088 143.075 142.947 143.266C142.854 143.393 142.766 143.509 142.679 143.605C142.595 143.702 142.508 143.795 142.433 143.877C142.361 143.948 142.283 144.017 142.205 144.079C142.137 144.132 142.068 144.179 141.993 144.222L95.3867 169.949C95.474 169.803 95.5581 169.653 95.6454 169.497C95.7327 169.345 95.8168 169.189 95.8917 169.033C95.9696 168.877 96.0506 168.715 96.1317 168.553C96.2127 168.391 96.2875 168.226 96.3623 168.06C96.621 167.49 96.861 166.892 97.0823 166.274C97.3067 165.657 97.5093 165.018 97.6932 164.367C97.8771 163.715 98.033 163.045 98.1794 162.369C98.3228 161.693 98.4319 161.016 98.5192 160.321L98.5254 160.334L98.5317 160.34Z" fill="#E2E3E4"/>
<path d="M84.6521 96.1166L36.144 114.313L97.5529 152.688L145.07 128.202C145.126 128.174 145.182 128.152 145.241 128.133C145.297 128.118 145.353 128.105 145.413 128.102C145.466 128.102 145.519 128.102 145.572 128.115C145.625 128.127 145.678 128.146 145.727 128.171L85.3627 96.1633C85.3098 96.1353 85.2505 96.1104 85.1913 96.0916C85.1352 96.0761 85.0791 96.0667 85.0199 96.0636C84.9638 96.0636 84.9046 96.0636 84.8484 96.0761C84.7861 96.0885 84.7269 96.1041 84.6708 96.1259L84.6521 96.1166Z" fill="#3F973E"/>
<path d="M35.9163 130.153C35.8415 130.29 35.7667 130.424 35.6919 130.555L95.3958 169.971C95.4831 169.821 95.5672 169.672 95.6545 169.519C95.7418 169.366 95.8259 169.211 95.9007 169.052C95.9787 168.893 96.0597 168.737 96.1407 168.572C96.2187 168.409 96.2966 168.244 96.3714 168.076C96.6301 167.506 96.8701 166.91 97.0914 166.293C97.3158 165.676 97.5184 165.037 97.7023 164.382C97.8862 163.731 98.042 163.061 98.1885 162.388C98.335 161.714 98.441 161.035 98.5283 160.34C98.5937 159.832 98.6436 159.324 98.6748 158.847C98.7059 158.367 98.7215 157.902 98.7184 157.463C98.7153 157.02 98.6966 156.6 98.6654 156.201C98.6342 155.824 98.5844 155.446 98.5158 155.072C98.469 154.82 98.4129 154.577 98.3444 154.349C98.2758 154.122 98.2072 153.907 98.1293 153.704C98.0545 153.514 97.9641 153.327 97.8644 153.149C97.774 152.987 97.668 152.831 97.5464 152.688L36.1376 114.319C36.2779 114.466 36.4088 114.625 36.5241 114.79C36.6488 114.967 36.761 115.154 36.8638 115.348C36.9698 115.547 37.0696 115.759 37.1599 115.987C37.2535 116.211 37.3314 116.448 37.4155 116.694C37.5277 117.053 37.6212 117.417 37.6961 117.785C37.7771 118.168 37.8394 118.571 37.8893 118.994C37.9392 119.418 37.9735 119.855 37.989 120.31C38.0077 120.762 38.0077 121.229 37.989 121.719C37.9672 122.364 37.9205 123.003 37.8457 123.635C37.7709 124.265 37.6742 124.882 37.5433 125.487C37.4093 126.092 37.2659 126.671 37.0976 127.239C36.9262 127.806 36.7298 128.345 36.5179 128.862C36.4555 129.015 36.3932 129.162 36.3246 129.308C36.2592 129.455 36.1906 129.598 36.1189 129.738C36.0503 129.882 35.9786 130.019 35.9038 130.153H35.9132H35.9163Z" fill="white"/>
<path d="M32.7712 113.016C32.7307 113.132 32.7058 113.253 32.7026 113.375C32.7026 113.434 32.7026 113.496 32.7151 113.556C32.7245 113.609 32.7432 113.662 32.765 113.708C32.7837 113.752 32.8117 113.792 32.8429 113.83C32.8741 113.864 32.9084 113.895 32.9489 113.92L97.2065 154.256C97.1722 154.234 97.1411 154.206 97.1161 154.172C97.0881 154.134 97.0694 154.094 97.0538 154.05C97.0382 154 97.0289 153.947 97.0257 153.894C97.0195 153.832 97.0195 153.766 97.0257 153.704C97.0444 153.57 97.0787 153.439 97.1317 153.314C97.1847 153.18 97.2533 153.053 97.3343 152.931C97.4154 152.813 97.5057 152.704 97.6086 152.604C97.7021 152.513 97.8081 152.436 97.9234 152.373L146.618 127.267C146.734 127.207 146.855 127.158 146.98 127.117C147.092 127.086 147.204 127.064 147.32 127.058C147.42 127.052 147.522 127.058 147.619 127.08C147.712 127.098 147.8 127.133 147.884 127.176L84.6517 93.8942C84.5551 93.8413 84.4522 93.8007 84.3463 93.7727C84.2341 93.7415 84.1218 93.7228 84.0065 93.7197C83.8881 93.7135 83.7665 93.7197 83.6481 93.7415C83.5172 93.7633 83.3894 93.7976 83.2678 93.8444L33.5068 112.218C33.3946 112.262 33.2917 112.321 33.2013 112.399C33.1047 112.48 33.0174 112.574 32.9458 112.68C32.8741 112.786 32.818 112.898 32.7743 113.019H32.7712V113.016Z" fill="url(#paint1_linear_1150_6006)"/>
<path d="M146.625 127.267C146.765 127.192 146.912 127.136 147.068 127.098C147.195 127.067 147.329 127.052 147.463 127.058C147.582 127.067 147.697 127.092 147.803 127.139C147.909 127.186 148.009 127.248 148.096 127.326C148.24 127.454 148.361 127.606 148.452 127.775C148.561 127.974 148.648 128.183 148.713 128.401C148.788 128.66 148.844 128.922 148.885 129.187C148.932 129.495 148.963 129.804 148.978 130.112C148.994 130.452 148.997 130.789 148.978 131.172C148.96 131.556 148.944 131.939 148.907 132.357C148.869 132.774 148.816 133.201 148.751 133.641C148.685 134.08 148.607 134.545 148.511 135.018C148.386 135.651 148.24 136.281 148.077 136.898C147.915 137.518 147.738 138.126 147.541 138.721C147.348 139.317 147.139 139.893 146.918 140.454C146.697 141.015 146.469 141.551 146.226 142.066C146.108 142.321 145.983 142.574 145.858 142.814C145.734 143.054 145.606 143.294 145.472 143.521C145.341 143.749 145.207 143.973 145.073 144.185C144.936 144.397 144.799 144.603 144.658 144.802C144.518 144.999 144.375 145.186 144.225 145.36C144.075 145.535 143.929 145.7 143.776 145.853C143.633 145.999 143.477 146.136 143.318 146.264C143.175 146.379 143.019 146.485 142.857 146.576L95.2837 173.21C95.1964 173.263 95.0998 173.294 94.9969 173.306C94.919 173.316 94.8411 173.297 94.7756 173.256C94.7133 173.21 94.6666 173.144 94.6479 173.069C94.6198 172.97 94.6136 172.867 94.6323 172.764C94.6479 172.636 94.6821 172.508 94.7351 172.39C94.7881 172.262 94.8536 172.137 94.9315 172.022C95.0094 171.907 95.0967 171.798 95.1964 171.701C95.2868 171.611 95.3897 171.533 95.5019 171.467L143.168 144.958C143.243 144.914 143.315 144.868 143.38 144.815C143.458 144.752 143.536 144.684 143.608 144.612C143.686 144.531 143.767 144.444 143.854 144.341C143.938 144.238 144.026 144.126 144.119 144.001C144.256 143.811 144.4 143.593 144.546 143.35C144.693 143.107 144.842 142.842 144.992 142.546C145.141 142.246 145.294 141.941 145.444 141.607C145.593 141.277 145.74 140.931 145.883 140.56C146.023 140.189 146.167 139.815 146.301 139.423C146.435 139.033 146.563 138.625 146.681 138.216C146.803 137.805 146.915 137.384 147.021 136.957C147.127 136.53 147.22 136.1 147.304 135.67C147.42 135.09 147.51 134.535 147.576 134.015C147.641 133.491 147.688 132.999 147.71 132.537C147.732 132.073 147.735 131.652 147.71 131.269C147.694 130.923 147.654 130.58 147.588 130.243C147.557 130.094 147.523 129.96 147.485 129.835C147.451 129.72 147.407 129.607 147.354 129.498C147.314 129.408 147.264 129.318 147.205 129.237C147.155 129.168 147.099 129.106 147.033 129.05C146.98 129.003 146.918 128.965 146.853 128.937C146.793 128.912 146.728 128.897 146.662 128.894C146.597 128.891 146.532 128.897 146.466 128.916C146.394 128.934 146.326 128.962 146.26 128.997L97.6681 154.24C97.5777 154.29 97.478 154.318 97.372 154.324C97.291 154.327 97.2131 154.303 97.1476 154.256C97.0821 154.203 97.0385 154.131 97.0167 154.05C96.9886 153.944 96.9824 153.832 97.0011 153.723C97.0198 153.589 97.0541 153.455 97.1071 153.33C97.1632 153.196 97.2318 153.068 97.3128 152.947C97.3907 152.828 97.4842 152.719 97.5871 152.619C97.6806 152.529 97.7866 152.451 97.9019 152.389L146.6 127.282L146.619 127.27L146.625 127.267Z" fill="#005F64"/>
<path d="M145.649 104.869C145.605 104.753 145.549 104.641 145.478 104.541C145.406 104.439 145.322 104.348 145.228 104.267C145.138 104.189 145.038 104.127 144.929 104.08L96.3026 84.4064C96.2278 84.3752 96.1561 84.3378 96.0875 84.2942C96.0065 84.2443 95.9317 84.1882 95.8631 84.1259C95.779 84.0542 95.701 83.9763 95.6262 83.8952C95.5452 83.8079 95.4548 83.7082 95.3769 83.5929C95.2366 83.409 95.1057 83.2157 94.9873 83.0131C94.8564 82.7981 94.7255 82.5518 94.5946 82.29C94.4636 82.0282 94.3358 81.7414 94.2143 81.4453C94.0927 81.1492 93.9712 80.822 93.8621 80.4885C93.7499 80.155 93.6439 79.8121 93.5442 79.4412C93.4444 79.0703 93.354 78.7087 93.2761 78.3253C93.1951 77.942 93.1203 77.5524 93.061 77.1565C92.9987 76.7576 92.9457 76.3555 92.9083 75.9503C92.8553 75.4079 92.8242 74.8874 92.8179 74.3918C92.8117 73.8963 92.8179 73.4256 92.8553 72.9892C92.8865 72.5809 92.9395 72.1757 93.0112 71.7737C93.0735 71.437 93.1639 71.1035 93.2761 70.7763C93.326 70.6391 93.3821 70.5051 93.4475 70.3711C93.5005 70.2557 93.5629 70.1404 93.6314 70.0313C93.6907 69.9378 93.7592 69.8474 93.8309 69.7633C93.8932 69.6916 93.9649 69.623 94.0397 69.5669L94.0771 69.5389C94.0771 69.5389 94.1021 69.5202 94.1177 69.5139L94.1551 69.489L94.1956 69.4672L31.0694 102.927C31.0694 102.927 31.0475 102.939 31.0382 102.946L31.007 102.967L30.9758 102.992L30.9447 103.017C30.8792 103.073 30.8231 103.136 30.7733 103.204C30.7171 103.288 30.6642 103.376 30.6236 103.469C30.5738 103.578 30.5301 103.691 30.4927 103.806C30.4522 103.931 30.4179 104.068 30.3899 104.217C30.3244 104.557 30.2839 104.897 30.2683 105.243C30.2465 105.626 30.2465 106.05 30.2683 106.511C30.2901 106.973 30.3338 107.465 30.4023 107.989C30.4678 108.512 30.5613 109.067 30.6735 109.644C30.7577 110.077 30.8543 110.507 30.9603 110.934C31.0662 111.361 31.1784 111.779 31.3 112.193C31.4216 112.605 31.5494 113.007 31.6834 113.4C31.8174 113.792 31.9546 114.17 32.0979 114.537C32.2413 114.905 32.3878 115.251 32.5374 115.581C32.687 115.912 32.8366 116.227 32.9894 116.52C33.1421 116.81 33.2886 117.081 33.4351 117.324C33.5816 117.567 33.7249 117.788 33.8621 117.975C33.9556 118.103 34.0429 118.218 34.127 118.312C34.2112 118.408 34.2984 118.505 34.3733 118.583C34.4449 118.655 34.5197 118.723 34.6008 118.786C34.6694 118.839 34.7379 118.885 34.8127 118.929L82.4792 145.438C82.5914 145.504 82.6943 145.581 82.7847 145.672C82.8844 145.768 82.9748 145.878 83.0496 145.996C83.1275 146.111 83.193 146.236 83.246 146.364C83.2958 146.482 83.3332 146.607 83.3488 146.735C83.3551 146.791 83.3551 146.847 83.3488 146.903C83.3488 146.95 83.3395 146.997 83.3239 147.043C83.3114 147.081 83.2927 147.118 83.2709 147.152C83.2491 147.184 83.2242 147.208 83.193 147.227C103.961 133.385 124.729 119.543 145.496 105.698C145.531 105.676 145.562 105.648 145.587 105.614C145.615 105.579 145.637 105.545 145.655 105.505C145.674 105.461 145.69 105.414 145.699 105.367C145.708 105.314 145.711 105.261 145.711 105.208C145.705 105.093 145.683 104.978 145.643 104.872H145.646L145.649 104.869Z" fill="url(#paint2_linear_1150_6006)"/>
<path d="M79.4687 134.323C79.5559 135.009 79.6744 135.695 79.8084 136.371C79.9455 137.047 80.1107 137.714 80.2946 138.366C80.4785 139.017 80.6811 139.656 80.9055 140.277C81.13 140.897 81.37 141.492 81.6287 142.062C81.7035 142.231 81.7814 142.402 81.8593 142.555C81.9372 142.711 82.0183 142.876 82.0993 143.035C82.1804 143.194 82.2707 143.347 82.3455 143.499C82.4203 143.652 82.517 143.802 82.6042 143.951L35.9944 118.225C35.9196 118.181 35.8479 118.134 35.7793 118.081C35.6983 118.019 35.6235 117.95 35.5518 117.875C35.4739 117.798 35.3928 117.707 35.3055 117.607C35.2214 117.505 35.1341 117.392 35.0375 117.271C34.9003 117.081 34.7539 116.862 34.6074 116.616C34.4609 116.37 34.3113 116.102 34.1585 115.809C34.0058 115.516 33.8562 115.204 33.7066 114.871C33.557 114.537 33.4105 114.194 33.2671 113.82C33.1268 113.446 32.9835 113.072 32.8526 112.68C32.7185 112.287 32.5907 111.882 32.4723 111.47C32.3507 111.059 32.2385 110.635 32.1326 110.208C32.0266 109.781 31.9331 109.348 31.8489 108.911C31.7336 108.332 31.6463 107.774 31.5809 107.25C31.5154 106.723 31.4749 106.234 31.45 105.766C31.4281 105.342 31.4281 104.919 31.45 104.492C31.4655 104.146 31.5092 103.803 31.5777 103.463C31.6058 103.323 31.6401 103.186 31.6837 103.052C31.7211 102.936 31.7648 102.824 31.8146 102.715C31.8583 102.621 31.9081 102.534 31.9674 102.45C32.0172 102.381 32.0733 102.316 32.1388 102.26C32.1949 102.213 32.2572 102.176 32.3227 102.148C32.3819 102.123 32.4474 102.107 32.5128 102.104C32.5783 102.101 32.6468 102.107 32.7092 102.126C32.7809 102.145 32.8494 102.173 32.9149 102.204L80.4318 126.69C80.3133 126.833 80.2074 126.989 80.1139 127.151C80.0141 127.329 79.9237 127.516 79.8489 127.706C79.7648 127.915 79.6931 128.13 79.6339 128.348C79.5715 128.576 79.5154 128.819 79.4624 129.074C79.397 129.427 79.3471 129.801 79.3128 130.203C79.2785 130.605 79.2598 131.022 79.2598 131.465C79.2598 131.908 79.2723 132.369 79.3035 132.849C79.3346 133.329 79.3814 133.828 79.4468 134.342L79.4593 134.333L79.4687 134.323Z" fill="#3F973E"/>
<path d="M79.4687 134.323C79.5559 135.009 79.6744 135.695 79.8084 136.371C79.9455 137.047 80.1107 137.714 80.2946 138.366C80.4785 139.017 80.6811 139.656 80.9055 140.277C81.13 140.897 81.37 141.492 81.6287 142.062C81.7035 142.231 81.7814 142.402 81.8593 142.555C81.9372 142.711 82.0183 142.876 82.0993 143.035C82.1804 143.194 82.2707 143.347 82.3455 143.499C82.4203 143.652 82.517 143.802 82.6042 143.951L35.9944 118.225C35.9196 118.181 35.8479 118.134 35.7793 118.081C35.6983 118.019 35.6235 117.95 35.5518 117.875C35.4739 117.798 35.3928 117.707 35.3055 117.607C35.2214 117.505 35.1341 117.392 35.0375 117.271C34.9003 117.081 34.7539 116.862 34.6074 116.616C34.4609 116.37 34.3113 116.102 34.1585 115.809C34.0058 115.516 33.8562 115.204 33.7066 114.871C33.557 114.537 33.4105 114.194 33.2671 113.82C33.1268 113.446 32.9835 113.072 32.8526 112.68C32.7185 112.287 32.5907 111.882 32.4723 111.47C32.3507 111.059 32.2385 110.635 32.1326 110.208C32.0266 109.781 31.9331 109.348 31.8489 108.911C31.7336 108.332 31.6463 107.774 31.5809 107.25C31.5154 106.723 31.4749 106.234 31.45 105.766C31.4281 105.342 31.4281 104.919 31.45 104.492C31.4655 104.146 31.5092 103.803 31.5777 103.463C31.6058 103.323 31.6401 103.186 31.6837 103.052C31.7211 102.936 31.7648 102.824 31.8146 102.715C31.8583 102.621 31.9081 102.534 31.9674 102.45C32.0172 102.381 32.0733 102.316 32.1388 102.26C32.1949 102.213 32.2572 102.176 32.3227 102.148C32.3819 102.123 32.4474 102.107 32.5128 102.104C32.5783 102.101 32.6468 102.107 32.7092 102.126C32.7809 102.145 32.8494 102.173 32.9149 102.204L80.4318 126.69C80.3133 126.833 80.2074 126.989 80.1139 127.151C80.0141 127.329 79.9237 127.516 79.8489 127.706C79.7648 127.915 79.6931 128.13 79.6339 128.348C79.5715 128.576 79.5154 128.819 79.4624 129.074C79.397 129.427 79.3471 129.801 79.3128 130.203C79.2785 130.605 79.2598 131.022 79.2598 131.465C79.2598 131.908 79.2723 132.369 79.3035 132.849C79.3346 133.329 79.3814 133.828 79.4468 134.342L79.4593 134.333L79.4687 134.323Z" fill="white"/>
<path d="M93.3447 70.0999C93.2886 70.0781 93.2325 70.0625 93.1733 70.05C93.1172 70.0407 93.0611 70.0344 93.0019 70.0376C92.9427 70.0376 92.8866 70.05 92.8305 70.0656C92.7712 70.0843 92.7151 70.1061 92.659 70.1373L32.3037 102.157C32.3536 102.132 32.4035 102.113 32.4564 102.101C32.5094 102.088 32.5624 102.085 32.6154 102.088C32.6746 102.092 32.7307 102.101 32.7868 102.12C32.846 102.138 32.9022 102.16 32.9583 102.188L80.4751 126.674L141.884 88.2994L93.3759 70.0999H93.3447Z" fill="#3F973E"/>
<path d="M142.081 104.13C142.006 103.993 141.934 103.856 141.866 103.715C141.797 103.572 141.728 103.429 141.663 103.285C141.598 103.139 141.532 102.989 141.47 102.84C141.255 102.332 141.061 101.78 140.89 101.216C140.719 100.652 140.569 100.066 140.441 99.4609C140.316 98.8594 140.214 98.2391 140.139 97.6095C140.064 96.9799 140.014 96.3378 139.992 95.6926C139.977 95.2064 139.98 94.7358 139.992 94.2838C140.005 93.8319 140.045 93.3893 140.095 92.9685C140.145 92.5477 140.211 92.1425 140.288 91.7591C140.366 91.3758 140.46 91.0111 140.569 90.6651C140.647 90.4189 140.74 90.182 140.821 89.9576C140.909 89.7394 141.008 89.5274 141.121 89.3186C141.224 89.1254 141.336 88.9384 141.46 88.7607C141.576 88.5924 141.707 88.4365 141.847 88.29L80.4381 126.665C80.3196 126.808 80.2136 126.961 80.1201 127.126C80.0204 127.304 79.9331 127.491 79.8552 127.681C79.771 127.893 79.6994 128.108 79.6401 128.326C79.5778 128.554 79.5217 128.797 79.4687 129.05C79.4033 129.402 79.3534 129.779 79.3191 130.178C79.2848 130.577 79.2661 130.998 79.2661 131.44C79.2661 131.883 79.2786 132.344 79.3097 132.824C79.3409 133.304 79.3908 133.803 79.4531 134.32C79.5404 135.006 79.6588 135.692 79.7929 136.368C79.93 137.044 80.0952 137.711 80.2791 138.363C80.463 139.014 80.6656 139.653 80.89 140.27C81.1144 140.887 81.3544 141.486 81.6131 142.056C81.6879 142.225 81.7658 142.396 81.8438 142.549C81.9217 142.705 82.0027 142.873 82.0838 143.029C82.1648 143.185 82.2552 143.34 82.33 143.496C82.4079 143.649 82.5014 143.799 82.5887 143.945L142.293 104.529C142.215 104.398 142.14 104.264 142.065 104.127H142.074L142.081 104.13Z" fill="#E2E3E4"/>
<path d="M145.226 86.9997C145.185 86.8812 145.126 86.7659 145.054 86.663C144.983 86.5602 144.898 86.4667 144.802 86.3825C144.708 86.3046 144.605 86.2454 144.493 86.2017L94.7352 67.8246C94.6106 67.7778 94.4859 67.7436 94.355 67.7217C94.2365 67.703 94.115 67.6937 93.9965 67.6999C93.8843 67.7062 93.7721 67.7217 93.663 67.7529C93.5571 67.781 93.4542 67.8215 93.3576 67.8745L30.1191 101.16C30.2033 101.116 30.2937 101.082 30.3872 101.063C30.4869 101.041 30.5867 101.035 30.6864 101.041C30.8017 101.047 30.9171 101.066 31.0262 101.1C31.1508 101.141 31.2724 101.188 31.3877 101.25L80.0765 126.357C80.1919 126.419 80.2978 126.497 80.3914 126.587C80.4942 126.687 80.5846 126.796 80.6625 126.914C80.7436 127.033 80.8121 127.161 80.8682 127.295C80.9212 127.419 80.9555 127.553 80.9742 127.687C80.9804 127.75 80.9804 127.815 80.9742 127.878C80.9711 127.931 80.9617 127.984 80.9462 128.033C80.9306 128.077 80.9119 128.118 80.8838 128.155C80.8589 128.189 80.8277 128.217 80.7934 128.239L145.054 87.9067C145.095 87.8817 145.129 87.8506 145.16 87.8163C145.191 87.7789 145.219 87.7384 145.238 87.6916C145.26 87.6417 145.276 87.5919 145.285 87.5389C145.294 87.4797 145.3 87.4204 145.297 87.3581C145.294 87.2365 145.269 87.1119 145.229 86.9965L145.226 86.9997Z" fill="url(#paint3_linear_1150_6006)"/>
<path d="M31.3751 101.25L80.0795 126.357C80.1948 126.419 80.3008 126.497 80.3943 126.587C80.4971 126.687 80.5875 126.796 80.6654 126.914C80.7465 127.033 80.8151 127.164 80.8712 127.298C80.9242 127.422 80.9584 127.553 80.9771 127.687C80.9958 127.797 80.9896 127.909 80.9616 128.018C80.9429 128.099 80.8961 128.171 80.8306 128.224C80.7683 128.273 80.6873 128.295 80.6062 128.292C80.5034 128.286 80.4036 128.258 80.3132 128.208L31.721 102.961C31.6556 102.927 31.587 102.899 31.5153 102.88C31.4499 102.865 31.3844 102.855 31.3189 102.858C31.2535 102.858 31.188 102.877 31.1288 102.902C31.0634 102.93 31.001 102.967 30.9449 103.014C30.8795 103.07 30.8234 103.133 30.7735 103.201C30.7143 103.282 30.6644 103.373 30.6208 103.463C30.5709 103.572 30.5273 103.684 30.4899 103.8C30.4493 103.934 30.4151 104.071 30.387 104.208C30.3215 104.545 30.281 104.887 30.2654 105.233C30.2436 105.617 30.2436 106.041 30.2654 106.502C30.2873 106.963 30.3309 107.456 30.3995 107.982C30.468 108.509 30.5553 109.058 30.6706 109.638C30.7548 110.071 30.8545 110.501 30.9574 110.928C31.0602 111.355 31.1756 111.773 31.2971 112.187C31.4187 112.599 31.5465 113.004 31.6774 113.393C31.8083 113.783 31.9486 114.166 32.0919 114.531C32.2353 114.896 32.3818 115.245 32.5314 115.578C32.681 115.909 32.8306 116.224 32.9802 116.517C33.1299 116.809 33.2795 117.078 33.426 117.321C33.5725 117.567 33.7158 117.782 33.8561 117.972C33.9496 118.1 34.0369 118.215 34.121 118.312C34.2052 118.408 34.2925 118.502 34.3641 118.58C34.4358 118.652 34.5106 118.72 34.5917 118.782C34.6571 118.835 34.7288 118.882 34.8036 118.926L82.4701 145.435C82.5823 145.5 82.6852 145.578 82.7756 145.669C82.8753 145.768 82.9626 145.874 83.0405 145.99C83.1184 146.105 83.1839 146.23 83.2369 146.358C83.2867 146.476 83.321 146.601 83.3397 146.728C83.3553 146.831 83.3491 146.934 83.3242 147.034C83.3023 147.109 83.2587 147.174 83.1932 147.221C83.1278 147.261 83.053 147.28 82.9751 147.271C82.8722 147.258 82.7756 147.224 82.6883 147.174L35.1309 120.547C34.9688 120.456 34.8161 120.35 34.6696 120.235C34.5106 120.107 34.3548 119.97 34.2114 119.824C34.0618 119.671 33.9122 119.506 33.7626 119.331C33.613 119.157 33.4727 118.966 33.3325 118.77C33.1922 118.574 33.0519 118.368 32.9179 118.156C32.7839 117.944 32.6467 117.72 32.519 117.492C32.388 117.265 32.2602 117.028 32.1325 116.785C32.0078 116.541 31.8831 116.292 31.7615 116.033C31.5215 115.525 31.2909 114.983 31.0696 114.425C30.8483 113.867 30.6426 113.287 30.4493 112.692C30.2561 112.1 30.0753 111.489 29.9132 110.869C29.7512 110.248 29.6015 109.622 29.4769 108.989C29.3834 108.512 29.3023 108.054 29.2369 107.612C29.1714 107.166 29.1184 106.736 29.081 106.327C29.0436 105.919 29.0187 105.523 29.0062 105.143C28.9938 104.763 29.0062 104.417 29.0156 104.083C29.0312 103.772 29.0623 103.463 29.1091 103.154C29.1465 102.889 29.2026 102.628 29.2805 102.369C29.3428 102.151 29.4301 101.942 29.5423 101.742C29.6358 101.574 29.7543 101.425 29.8977 101.294C29.9849 101.216 30.0847 101.153 30.1938 101.107C30.3028 101.06 30.4182 101.032 30.5335 101.026C30.6675 101.019 30.7984 101.032 30.9293 101.066C31.0821 101.104 31.2317 101.163 31.3719 101.234V101.247L31.3751 101.25Z" fill="url(#paint4_linear_1150_6006)"/>
</g>
<defs>
<linearGradient id="paint0_linear_1150_6006" x1="32.2788" y1="134.37" x2="147.741" y2="134.37" gradientUnits="userSpaceOnUse">
<stop stop-color="#005F64"/>
<stop offset="0.11" stop-color="#006F77"/>
<stop offset="0.28" stop-color="#00808C"/>
<stop offset="0.46" stop-color="#008C9B"/>
<stop offset="0.67" stop-color="#0093A4"/>
<stop offset="1" stop-color="#0096A7"/>
</linearGradient>
<linearGradient id="paint1_linear_1150_6006" x1="32.6995" y1="123.988" x2="147.887" y2="123.988" gradientUnits="userSpaceOnUse">
<stop stop-color="#0096A7"/>
<stop offset="0.49" stop-color="#00AABF"/>
<stop offset="1" stop-color="#00BCD4"/>
</linearGradient>
<linearGradient id="paint2_linear_1150_6006" x1="30.2496" y1="108.347" x2="145.715" y2="108.347" gradientUnits="userSpaceOnUse">
<stop stop-color="#005F64"/>
<stop offset="0.11" stop-color="#006F77"/>
<stop offset="0.28" stop-color="#00808C"/>
<stop offset="0.46" stop-color="#008C9B"/>
<stop offset="0.67" stop-color="#0093A4"/>
<stop offset="1" stop-color="#0096A7"/>
</linearGradient>
<linearGradient id="paint3_linear_1150_6006" x1="30.1191" y1="97.9711" x2="145.3" y2="97.9711" gradientUnits="userSpaceOnUse">
<stop stop-color="#00BCD4"/>
<stop offset="0.04" stop-color="#0CBFD6"/>
<stop offset="0.17" stop-color="#30C8DC"/>
<stop offset="0.3" stop-color="#4DD0E1"/>
<stop offset="0.44" stop-color="#63D6E5"/>
<stop offset="0.59" stop-color="#73DAE7"/>
<stop offset="0.76" stop-color="#7DDDE9"/>
<stop offset="1" stop-color="#80DEEA"/>
</linearGradient>
<linearGradient id="paint4_linear_1150_6006" x1="29.0062" y1="124.153" x2="83.3647" y2="124.153" gradientUnits="userSpaceOnUse">
<stop stop-color="#005F64"/>
<stop offset="0.11" stop-color="#006F77"/>
<stop offset="0.28" stop-color="#00808C"/>
<stop offset="0.46" stop-color="#008C9B"/>
<stop offset="0.67" stop-color="#0093A4"/>
<stop offset="1" stop-color="#0096A7"/>
</linearGradient>
<clipPath id="clip0_1150_6006">
<rect width="120" height="105.6" fill="white" transform="translate(29 67.7)"/>
</clipPath>
</defs>
</svg>
