<svg width="48" height="48" viewBox="0 0 48 48" fill="none" xmlns="http://www.w3.org/2000/svg">
<rect x="9.12695" y="8" width="26" height="32" fill="white" stroke="#121417"/>
<line x1="16.127" y1="20" x2="28.127" y2="20" stroke="#00BCD4"/>
<line x1="16.127" y1="24.5" x2="28.127" y2="24.5" stroke="#00BCD4"/>
<line x1="16.127" y1="29" x2="24.127" y2="29" stroke="#00BCD4"/>
<path d="M36.3721 20.3115L36.0186 19.9579L35.665 20.3115L27.165 28.8115L27.0186 28.9579V29.165V31.965V32.465H27.5186H30.3186H30.5257L30.6721 32.3186L39.1721 23.8186L39.5257 23.465L39.1721 23.1115L36.3721 20.3115Z" fill="#00BCD4" stroke="#121417"/>
<path d="M41.3177 15.3935L40.9641 15.0399L40.6106 15.3935L37.7822 18.2219L37.4286 18.5754L37.7822 18.929L40.6106 21.7574L40.9641 22.1109L41.3177 21.7574L44.1461 18.929L44.4996 18.5754L44.1461 18.2219L41.3177 15.3935Z" fill="#00BCD4" stroke="#121417"/>
</svg>
