<svg width="100" height="119" viewBox="0 0 100 119" fill="none" xmlns="http://www.w3.org/2000/svg">
<g opacity="0.3" clip-path="url(#clip0_1290_9635)">
<path d="M88.9219 20.8117V94.9H10.7969V0.5H68.75L88.9219 20.8117Z" fill="#E0F7FA"/>
<path d="M47.6094 39.1332H51.8438C51.6719 37.7015 51.6953 36.5529 51.9219 35.6955C52.1484 34.8144 52.4844 34.0828 52.9375 33.5085C53.4141 32.9264 53.9375 32.4229 54.5156 31.9981C55.1172 31.5419 55.6797 31.0384 56.2031 30.4877C56.7266 29.9371 57.1641 29.2448 57.5156 28.4109C57.8906 27.5771 58.0781 26.4836 58.0781 25.1227C58.0781 23.9899 57.875 22.9829 57.4766 22.1019C57.0781 21.2208 56.5234 20.4813 55.8281 19.8756C55.125 19.2463 54.2891 18.7664 53.3125 18.4439C52.3594 18.0899 51.3359 17.8932 50.2344 17.8381C49.3125 17.7909 48.3594 17.9011 47.3828 18.1764C46.4063 18.4281 45.5078 18.8923 44.6797 19.5767C43.8828 20.2532 43.1953 21.1657 42.6172 22.2985C42.0703 23.4313 41.7422 24.8316 41.6406 26.4915H46.3281C46.4297 24.9811 46.8125 23.864 47.4922 23.1324C48.1641 22.4008 49.0312 22.0389 50.0781 22.0389C51.125 22.0389 51.8906 22.3772 52.3672 23.0616C52.8437 23.7145 53.0781 24.5327 53.0781 25.516C53.0781 26.3184 52.9141 27.0028 52.5937 27.5535C52.2656 28.0805 51.8672 28.584 51.3906 29.0639C50.9141 29.5201 50.4063 29.9921 49.8516 30.4956C49.3281 30.9755 48.8672 31.5891 48.4609 32.3443C48.0625 33.0759 47.7578 33.9805 47.5625 35.0661C47.3906 36.1517 47.3984 37.5048 47.6016 39.1411L47.6094 39.1332ZM46.9687 47.5899H52.4453V42.2248H46.9687V47.5899Z" fill="url(#paint0_linear_1290_9635)"/>
<path d="M50 55.5667L42.1875 46.1267H0V55.5667V118.5H100V55.5667H50Z" fill="url(#paint1_linear_1290_9635)"/>
<path d="M89.0625 20.9533H68.75V0.5L89.0625 20.9533Z" fill="url(#paint2_linear_1290_9635)"/>
</g>
<defs>
<linearGradient id="paint0_linear_1290_9635" x1="49.8594" y1="17.8275" x2="49.8594" y2="47.5899" gradientUnits="userSpaceOnUse">
<stop stop-color="#B2EBF2"/>
<stop offset="1" stop-color="#00BCD4"/>
</linearGradient>
<linearGradient id="paint1_linear_1290_9635" x1="50" y1="46.1267" x2="50" y2="118.5" gradientUnits="userSpaceOnUse">
<stop stop-color="#B2EBF2"/>
<stop offset="1" stop-color="#00BCD4"/>
</linearGradient>
<linearGradient id="paint2_linear_1290_9635" x1="78.9062" y1="0.5" x2="78.9062" y2="20.9533" gradientUnits="userSpaceOnUse">
<stop stop-color="#B2EBF2"/>
<stop offset="1" stop-color="#00BCD4"/>
</linearGradient>
<clipPath id="clip0_1290_9635">
<rect width="100" height="118" fill="white" transform="translate(0 0.5)"/>
</clipPath>
</defs>
</svg>
