<svg width="current" height="current" viewBox="0 0 132 60" fill="none" xmlns="http://www.w3.org/2000/svg">
<path d="M20.4293 14.4455C22.0884 15.3281 23.3596 16.5122 24.243 17.9546V13.5413H33.7881V44.6069C33.7881 47.4702 33.2279 50.0536 32.0859 52.3787C30.944 54.7038 29.2203 56.5553 26.8932 57.9331C24.5662 59.3109 21.679 59.9998 18.21 59.9998C13.599 59.9998 9.84994 58.9234 6.98426 56.7275C4.11857 54.5316 2.48104 51.6037 2.07165 47.8793H11.5306C11.8322 49.0633 12.5433 50.0106 13.6421 50.6995C14.7625 51.3884 16.1415 51.7329 17.7791 51.7329C19.7398 51.7329 21.3127 51.1731 22.4977 50.0321C23.6613 48.8911 24.2646 47.0827 24.2646 44.5854V40.1721C23.3381 41.6145 22.0453 42.7985 20.4077 43.7243C18.7702 44.6285 16.8526 45.0806 14.6548 45.0806C12.0908 45.0806 9.76376 44.4132 7.67374 43.0999C5.58373 41.7867 3.9462 39.9137 2.73959 37.4595C1.53299 35.0267 0.929688 32.2065 0.929688 29.0203C0.929688 25.834 1.53299 23.0138 2.73959 20.6026C3.9462 18.1914 5.58373 16.3184 7.67374 15.0267C9.76376 13.735 12.0908 13.0676 14.6548 13.0676C16.8526 13.0676 18.7702 13.5197 20.4293 14.4024V14.4455ZM22.2607 23.4874C20.9464 22.1096 19.3304 21.4207 17.4343 21.4207C15.5382 21.4207 13.9222 22.1096 12.6079 23.4659C11.2936 24.8222 10.6256 26.6952 10.6256 29.0633C10.6256 31.4315 11.2936 33.326 12.6079 34.7253C13.9222 36.1247 15.5382 36.8136 17.4343 36.8136C19.3304 36.8136 20.9464 36.1247 22.2607 34.7469C23.5751 33.369 24.243 31.4961 24.243 29.1064C24.243 26.7167 23.5751 24.8437 22.2607 23.4659V23.4874Z" fill="current"/>
<path d="M47.4709 3.40149V44.6717H37.9258V3.40149H47.4709Z" fill="current"/>
<path d="M52.2966 8.84823C51.2408 7.85792 50.7021 6.65232 50.7021 5.18838C50.7021 3.72444 51.2408 2.47578 52.2966 1.48547C53.3524 0.495156 54.7313 0 56.3904 0C58.0495 0 59.3638 0.495156 60.4412 1.48547C61.5185 2.47578 62.0356 3.70291 62.0356 5.18838C62.0356 6.67385 61.4969 7.85792 60.4412 8.84823C59.3854 9.83854 58.028 10.3337 56.3904 10.3337C54.7529 10.3337 53.3524 9.83854 52.2966 8.84823ZM61.1522 13.563V44.6717H51.6071V13.5414H61.1522V13.563Z" fill="current"/>
<path d="M92.9763 16.7492C95.1525 19.1174 96.2514 22.3467 96.2514 26.4801V44.6502H86.7709V27.7503C86.7709 25.662 86.2323 24.0474 85.1549 22.9064C84.0776 21.7654 82.6124 21.1841 80.8025 21.1841C78.9926 21.1841 77.5275 21.7654 76.4501 22.9064C75.3728 24.0689 74.8342 25.6836 74.8342 27.7503V44.6502H65.2891V13.5415H74.8342V17.675C75.8038 16.2971 77.0965 15.2207 78.7341 14.4026C80.3716 13.6061 82.2031 13.197 84.25 13.197C87.8913 13.197 90.8001 14.3811 92.9763 16.7492Z" fill="current"/>
<path d="M117.712 14.4455C119.371 15.3281 120.642 16.5122 121.525 17.9546V13.5413H131.07V44.6069C131.07 47.4702 130.51 50.0536 129.368 52.3787C128.226 54.7038 126.503 56.5553 124.176 57.9331C121.848 59.3109 118.961 59.9998 115.492 59.9998C110.881 59.9998 107.132 58.9234 104.267 56.7275C101.401 54.5316 99.7633 51.6037 99.3539 47.8793H108.791C109.093 49.0633 109.804 50.0106 110.903 50.6995C112.023 51.3884 113.402 51.7329 115.04 51.7329C117.001 51.7329 118.573 51.1731 119.758 50.0321C120.922 48.8911 121.525 47.0827 121.525 44.5854V40.1721C120.599 41.6145 119.306 42.7985 117.668 43.7243C116.031 44.6285 114.113 45.0806 111.916 45.0806C109.352 45.0806 107.024 44.4132 104.934 43.0999C102.844 41.7867 101.207 39.9137 100 37.4595C98.7937 35.0267 98.1904 32.2065 98.1904 29.0203C98.1904 25.834 98.7937 23.0138 100 20.6026C101.207 18.1914 102.844 16.3184 104.934 15.0267C107.024 13.735 109.352 13.0676 111.916 13.0676C114.113 13.0676 116.031 13.5197 117.69 14.4024L117.712 14.4455ZM119.543 23.4874C118.229 22.1096 116.613 21.4207 114.717 21.4207C112.821 21.4207 111.205 22.1096 109.89 23.4659C108.576 24.8222 107.908 26.6952 107.908 29.0633C107.908 31.4315 108.576 33.326 109.89 34.7253C111.205 36.1247 112.821 36.8136 114.717 36.8136C116.613 36.8136 118.229 36.1247 119.543 34.7469C120.857 33.369 121.525 31.4961 121.525 29.1064C121.525 26.7167 120.857 24.8437 119.543 23.4659V23.4874Z" fill="current"/>
</svg>
