<svg width="52" height="24" viewBox="0 0 52 24" fill="none" xmlns="http://www.w3.org/2000/svg">
<g clip-path="url(#clip0_748_5742)">
<path d="M7.42364 15.2226C7.82226 15.2318 8.2178 15.1507 8.58065 14.9855C8.94351 14.8202 9.26428 14.575 9.51895 14.2682C10.0834 13.6135 10.3661 12.7295 10.367 11.6162C10.367 8.82156 9.38589 7.42469 7.42364 7.42562C5.4614 7.42654 4.48027 8.7525 4.48027 11.4035C4.48027 12.5711 4.75422 13.4993 5.3021 14.188C5.55089 14.5136 5.8722 14.7767 6.2405 14.9563C6.6088 15.1358 7.01391 15.227 7.42364 15.2226V15.2226ZM10.2607 16.0706C9.99096 16.6789 9.51081 17.1693 8.90845 17.4519C8.21323 17.7825 7.45021 17.9457 6.68055 17.9284C5.60136 17.9284 4.69114 17.7442 3.94989 17.3759C3.25217 17.0109 2.64483 16.4947 2.17226 15.8648C1.7161 15.2153 1.38365 14.4872 1.1916 13.7171C0.99728 12.9026 0.89946 12.0682 0.900161 11.2309C0.887734 10.2908 1.04013 9.35587 1.35044 8.46843C1.61622 7.68124 2.0302 6.9522 2.57005 6.32064C3.06329 5.73406 3.679 5.26261 4.37392 4.93943C5.06808 4.60296 5.83043 4.43092 6.60182 4.43666C8.22705 4.43666 9.44666 5.09044 10.2607 6.39799V4.77368H13.7137V17.956C13.7335 18.8481 13.5616 19.7341 13.2096 20.5541C12.8994 21.2791 12.4269 21.9232 11.8283 22.4367C11.2238 22.9619 10.519 23.359 9.75652 23.6038C8.93675 23.872 8.07898 24.0059 7.21646 24.0002C6.36048 24.0075 5.5092 23.8731 4.69712 23.6024C3.95793 23.3775 3.27098 23.0075 2.67641 22.514C2.12472 22.0496 1.68114 21.4702 1.37668 20.8165C1.04974 20.1014 0.886923 19.3223 0.900161 18.5361H4.10873C4.10873 19.3317 4.36517 19.9417 4.87806 20.3662C5.40845 20.8082 6.10642 21.0292 6.97199 21.0292C7.81618 21.0542 8.64235 20.7819 9.30624 20.2599C9.94344 19.7654 10.2616 19.0849 10.2607 18.2184V16.0706Z" fill="#2F2F2F"/>
<path d="M15.2275 17.8177V0H18.6806V17.8177H15.2275Z" fill="#2F2F2F"/>
<path d="M20.1992 3.20857V0H23.6523V3.20857H20.1992Z" fill="#B63DFF"/>
<path d="M20.1992 17.8176V4.77344H23.6523V17.8176H20.1992Z" fill="#2F2F2F"/>
<path d="M33.571 17.8175V9.91838C33.571 8.91009 33.403 8.22961 33.0669 7.87694C32.7308 7.52427 32.1562 7.34747 31.3431 7.34655C29.5567 7.34655 28.664 8.34517 28.6649 10.3424V17.8175H25.2119V4.77335H28.5006V6.68357C28.8666 5.98165 29.4284 5.40106 30.118 5.0123C30.7893 4.6228 31.6553 4.42851 32.716 4.42943C33.3033 4.4238 33.887 4.52248 34.4398 4.72086C34.9493 4.88456 35.4131 5.16613 35.7934 5.54269C36.1924 5.93055 36.5 6.40236 36.6939 6.9239C36.9355 7.51234 37.0531 8.1443 37.0392 8.78026V17.8175H33.571Z" fill="#2F2F2F"/>
<path d="M44.8172 15.2226C45.2159 15.232 45.6115 15.151 45.9744 14.9857C46.3372 14.8204 46.658 14.5751 46.9125 14.2681C47.4788 13.6134 47.762 12.7295 47.762 11.6162C47.762 8.82156 46.7804 7.42469 44.8172 7.42561C42.854 7.42653 41.8729 8.75249 41.8738 11.4035C41.8738 12.5711 42.1501 13.4993 42.7026 14.188C42.9509 14.5124 43.2711 14.7747 43.6381 14.9543C44.0051 15.1338 44.4087 15.2256 44.8172 15.2226V15.2226ZM47.6556 16.0706C47.3859 16.6789 46.9058 17.1693 46.3034 17.4518C45.6081 17.7824 44.8451 17.9456 44.0755 17.9284C42.9963 17.9284 42.0856 17.7442 41.3435 17.3759C40.6462 17.0109 40.0393 16.4946 39.5672 15.8648C39.1113 15.215 38.7784 14.487 38.5852 13.717C38.3915 12.9025 38.2937 12.0681 38.2937 11.2309C38.2817 10.2907 38.4346 9.35578 38.7454 8.46842C39.0107 7.68104 39.4248 6.95192 39.965 6.32064C40.4578 5.73421 41.0731 5.26278 41.7675 4.93942C42.4617 4.60309 43.224 4.43106 43.9954 4.43666C45.6225 4.43666 46.8425 5.09043 47.6556 6.39798V4.77367H51.1087V17.956C51.1279 18.8481 50.956 19.7339 50.6045 20.5541C50.2944 21.2791 49.8218 21.9232 49.2233 22.4367C48.6186 22.9616 47.9138 23.3586 47.1515 23.6038C46.33 23.8731 45.4703 24.0074 44.6059 24.0016C43.7499 24.0089 42.8986 23.8745 42.0865 23.6038C41.3491 23.3781 40.664 23.0076 40.0714 22.514C39.5192 22.05 39.0756 21.4705 38.7716 20.8165C38.4437 20.1022 38.2804 19.3234 38.2937 18.5375H41.5023C41.5023 19.3331 41.7587 19.9431 42.2716 20.3676C42.802 20.8096 43.5005 21.0306 44.3669 21.0306C45.2111 21.0556 46.0373 20.7833 46.7012 20.2612C47.3366 19.7668 47.6547 19.0863 47.6556 18.2198V16.0706Z" fill="#2F2F2F"/>
</g>
<defs>
<clipPath id="clip0_748_5742">
<rect width="50.203" height="24" fill="white" transform="translate(0.898438)"/>
</clipPath>
</defs>
</svg>
