<?xml version="1.0" encoding="UTF-8"?><svg xmlns="http://www.w3.org/2000/svg" xmlns:xlink="http://www.w3.org/1999/xlink" viewBox="0 0 48 48"><defs><style>.h{fill:#fff;}.i{fill:#4285f4;}.j{fill:#fbbc05;}.k{clip-path:url(#e);}.l{clip-path:url(#d);}.m{fill:none;}.n{fill:#34a853;}.o{clip-path:url(#f);}.p{fill:#ea4335;}.q{clip-path:url(#g);}</style><clipPath id="d"><path class="m" d="M44.5,20H24v8.5h11.8c-1.1,5.4-5.7,8.5-11.8,8.5-7.2,0-13-5.8-13-13s5.8-13,13-13c3.1,0,5.9,1.1,8.1,2.9l6.4-6.4c-3.9-3.4-8.9-5.5-14.5-5.5C11.8,2,2,11.8,2,24s9.8,22,22,22c11,0,21-8,21-22,0-1.3-.2-2.7-.5-4Z"/></clipPath><clipPath id="e"><path class="m" d="M44.5,20H24v8.5h11.8c-1.1,5.4-5.7,8.5-11.8,8.5-7.2,0-13-5.8-13-13s5.8-13,13-13c3.1,0,5.9,1.1,8.1,2.9l6.4-6.4c-3.9-3.4-8.9-5.5-14.5-5.5C11.8,2,2,11.8,2,24s9.8,22,22,22c11,0,21-8,21-22,0-1.3-.2-2.7-.5-4Z"/></clipPath><clipPath id="f"><path class="m" d="M44.5,20H24v8.5h11.8c-1.1,5.4-5.7,8.5-11.8,8.5-7.2,0-13-5.8-13-13s5.8-13,13-13c3.1,0,5.9,1.1,8.1,2.9l6.4-6.4c-3.9-3.4-8.9-5.5-14.5-5.5C11.8,2,2,11.8,2,24s9.8,22,22,22c11,0,21-8,21-22,0-1.3-.2-2.7-.5-4Z"/></clipPath><clipPath id="g"><path class="m" d="M44.5,20H24v8.5h11.8c-1.1,5.4-5.7,8.5-11.8,8.5-7.2,0-13-5.8-13-13s5.8-13,13-13c3.1,0,5.9,1.1,8.1,2.9l6.4-6.4c-3.9-3.4-8.9-5.5-14.5-5.5C11.8,2,2,11.8,2,24s9.8,22,22,22c11,0,21-8,21-22,0-1.3-.2-2.7-.5-4Z"/></clipPath></defs><g id="a"/><g id="b"><g id="c"><g><rect class="h" width="48" height="48"/><g class="l"><path class="j" d="M0,37V11l17,13L0,37Z"/></g><g class="k"><path class="p" d="M0,11l17,13,7-6.1,24-3.9V0H0V11Z"/></g><g class="o"><path class="n" d="M0,37L30,14l7.9,1L48,0V48H0v-11Z"/></g><g class="q"><path class="i" d="M48,48L17,24l-4-3L48,11V48Z"/></g></g></g></g></svg>