<svg width="69" height="92" viewBox="0 0 69 92" fill="none" xmlns="http://www.w3.org/2000/svg">
<g clip-path="url(#clip0_412_731)">
<path d="M58.3779 89.5648C59.493 88.2147 60.033 86.3983 59.8788 84.5402L59.8647 64.901C60.9798 67.1001 62.0458 69.7516 62.9014 72.9042C65.5033 82.5498 66.1486 87.6788 66.3028 89.5648H58.3779Z" fill="white"/>
<path d="M13.0305 60.6071V60.6767L13.1357 60.6419C13.1357 60.6419 13.0656 60.6279 13.0305 60.6071ZM16.1724 59.6536L16.1865 59.6676L16.2005 59.6536H16.1654H16.1724ZM17.8626 59.083V59.0969L18.3185 58.9577C18.3185 58.9577 18.3325 58.9438 18.3325 58.9229C18.1782 58.9925 18.0169 59.0273 17.8626 59.076V59.083Z" fill="white"/>
<path d="M12.7009 83.0509C11.3894 84.053 10.0288 84.8185 8.82958 85.0064C6.47314 85.3892 4.39724 84.5054 3.07174 83.705C2.28626 83.2179 1.81638 82.4593 1.85144 81.6451C1.9356 78.9449 2.68601 76.2586 3.99748 73.8854L9.54493 63.8571C9.94468 64.0659 10.3655 64.2537 10.8003 64.3929L10.66 65.4647C10.0499 65.416 9.57999 65.5691 9.20829 65.757C6.86588 67.0236 6.57133 71.9716 6.53626 72.598C6.55029 73.0642 6.69055 77.1006 8.54204 78.7778C8.6823 78.8962 8.82257 79.0005 8.96283 79.091V79.1606C8.71737 81.0675 10.0779 82.8003 11.9995 83.023C12.1398 83.0369 12.2801 83.0578 12.4344 83.0578C12.5185 83.0578 12.6097 83.0578 12.6939 83.0439L12.7009 83.0509Z" fill="white"/>
<path d="M17.8697 59.083V59.0969L18.3256 58.9577C18.3256 58.9577 18.3396 58.9438 18.3396 58.9229C18.1853 58.9925 18.024 59.0273 17.8697 59.076V59.083ZM13.0376 60.6071V60.6767L13.1428 60.6419C13.1428 60.6419 13.0727 60.6279 13.0376 60.6071ZM20.2121 72.1943C20.3664 71.7768 20.4365 71.3662 20.4365 70.9625L20.2121 72.1943Z" fill="#121417"/>
<path d="M14.7978 82.1392C14.7978 82.2575 14.7978 82.3619 14.7838 82.4872C14.7698 82.9186 14.7347 83.3362 14.6786 83.719C12.9323 85.1943 10.9406 86.4401 9.11014 86.7323C8.61922 86.8019 8.14933 86.8367 7.69347 86.8367C5.40717 86.8367 3.45049 85.9877 2.14603 85.1943C0.813523 84.3731 0.0490835 83.0369 0.0981759 81.5964C0.203374 78.6178 1.02392 75.674 2.46864 73.0573L8.05115 62.9802C8.29661 63.1542 8.52103 63.3073 8.78753 63.4326C9.03299 63.6065 9.27846 63.7457 9.53794 63.864L3.9905 73.8924C2.67903 76.2655 1.92862 78.9518 1.84446 81.652C1.8094 82.4663 2.27928 83.2248 3.06476 83.712C4.39025 84.5054 6.46616 85.3892 8.8226 85.0134C10.0289 84.8255 11.3894 84.06 12.6939 83.0578C12.6939 83.0578 12.7056 83.0532 12.729 83.0439C13.3952 83.0091 14.0404 82.7655 14.5594 82.348C14.6436 82.2784 14.7137 82.2297 14.7838 82.1392H14.7978Z" fill="#121417"/>
<path d="M20.205 72.1943C20.3592 71.7768 20.4294 71.3662 20.4294 70.9625L20.205 72.1943ZM20.205 72.1943C20.3592 71.7768 20.4294 71.3662 20.4294 70.9625L20.205 72.1943ZM20.205 72.1943C20.3592 71.7768 20.4294 71.3662 20.4294 70.9625L20.205 72.1943ZM20.205 72.1943C20.3592 71.7768 20.4294 71.3662 20.4294 70.9625L20.205 72.1943ZM20.205 72.1943C20.3592 71.7768 20.4294 71.3662 20.4294 70.9625L20.205 72.1943ZM20.205 72.1943C20.3592 71.7768 20.4294 71.3662 20.4294 70.9625L20.205 72.1943ZM20.205 72.1943C20.3592 71.7768 20.4294 71.3662 20.4294 70.9625L20.205 72.1943ZM20.205 72.1943C20.3592 71.7768 20.4294 71.3662 20.4294 70.9625L20.205 72.1943ZM20.205 72.1943C20.3592 71.7768 20.4294 71.3662 20.4294 70.9625L20.205 72.1943ZM20.205 72.1943C20.3592 71.7768 20.4294 71.3662 20.4294 70.9625L20.205 72.1943ZM20.205 72.1943C20.3592 71.7768 20.4294 71.3662 20.4294 70.9625L20.205 72.1943ZM20.205 72.1943C20.3592 71.7768 20.4294 71.3662 20.4294 70.9625L20.205 72.1943ZM17.8625 59.083V59.0969L18.3184 58.9577C18.3184 58.9577 18.3324 58.9438 18.3324 58.9229C18.1781 58.9925 18.0168 59.0273 17.8625 59.076V59.083ZM20.205 72.1943C20.3592 71.7768 20.4294 71.3662 20.4294 70.9625L20.205 72.1943ZM20.205 72.1943C20.3592 71.7768 20.4294 71.3662 20.4294 70.9625L20.205 72.1943ZM20.205 72.1943C20.3592 71.7768 20.4294 71.3662 20.4294 70.9625L20.205 72.1943ZM41.7776 50.7736V50.9127C41.8126 50.864 41.8477 50.8292 41.8968 50.7944C41.8617 50.7944 41.8126 50.7805 41.7776 50.7805V50.7736ZM20.205 72.1943C20.3592 71.7768 20.4294 71.3662 20.4294 70.9625L20.205 72.1943ZM20.205 72.1943C20.3592 71.7768 20.4294 71.3662 20.4294 70.9625L20.205 72.1943ZM20.205 72.1943C20.3592 71.7768 20.4294 71.3662 20.4294 70.9625L20.205 72.1943ZM20.205 72.1943C20.3592 71.7768 20.4294 71.3662 20.4294 70.9625L20.205 72.1943ZM20.205 72.1943C20.3592 71.7768 20.4294 71.3662 20.4294 70.9625L20.205 72.1943ZM20.205 72.1943C20.3592 71.7768 20.4294 71.3662 20.4294 70.9625L20.205 72.1943ZM20.205 72.1943C20.3592 71.7768 20.4294 71.3662 20.4294 70.9625L20.205 72.1943ZM20.205 72.1943C20.3592 71.7768 20.4294 71.3662 20.4294 70.9625L20.205 72.1943ZM20.205 72.1943C20.3592 71.7768 20.4294 71.3662 20.4294 70.9625L20.205 72.1943ZM20.205 72.1943C20.3592 71.7768 20.4294 71.3662 20.4294 70.9625L20.205 72.1943ZM20.205 72.1943C20.3592 71.7768 20.4294 71.3662 20.4294 70.9625L20.205 72.1943ZM20.205 72.1943C20.3592 71.7768 20.4294 71.3662 20.4294 70.9625L20.205 72.1943ZM20.205 72.1943C20.3592 71.7768 20.4294 71.3662 20.4294 70.9625L20.205 72.1943ZM20.205 72.1943C20.3592 71.7768 20.4294 71.3662 20.4294 70.9625L20.205 72.1943ZM20.205 72.1943C20.3592 71.7768 20.4294 71.3662 20.4294 70.9625L20.205 72.1943Z" fill="white"/>
<path d="M32.1765 48.7275V49.8549L32.0012 49.6462L31.356 48.8806C31.6505 48.811 31.931 48.7762 32.1765 48.7275Z" fill="#121417"/>
<path d="M58.1323 61.8528V84.6097C58.2726 86.1686 57.8027 87.644 56.8559 88.6461C56.4912 89.0289 56.0844 89.3421 55.6146 89.5648C55.0184 89.8571 54.3592 90.0171 53.6438 90.0171H21.341C19.9103 90.0171 18.5498 89.3908 17.589 88.3399C16.6492 87.2821 16.1933 85.8624 16.3476 84.4427C16.4318 83.6981 16.5019 82.8838 16.558 82C16.5931 81.5685 16.6071 81.137 16.6422 80.6638C16.6422 80.2463 16.6562 79.8009 16.6773 79.3485C16.6913 78.583 16.7123 77.7896 16.7474 76.9754V76.9615L18.9846 74.1221V74.1081L19.6859 73.2243C19.9103 72.8972 20.1067 72.5492 20.2119 72.2013C20.3662 71.7837 20.4363 71.3731 20.4363 70.9695V70.9556C20.4363 70.3153 20.282 69.7098 19.9103 69.1879C19.8963 69.1392 19.8613 69.1044 19.8262 69.0487L19.3914 68.4781C19.1669 68.1997 18.3604 67.3367 17.4557 67.4898L17.7363 65.2698C18.8023 65.1306 19.8332 64.887 20.808 64.5043C21.1026 64.3999 21.4182 64.2816 21.6987 64.1424C22.0283 64.0032 22.3439 63.8501 22.6595 63.6552C25.2404 62.2495 27.3514 60.0364 28.6137 57.3014C29.6587 58.8742 32.0362 59.8137 35.648 60.0573C35.6971 60.0712 35.7532 60.0712 35.8233 60.0712C36.4334 60.0712 37.0085 59.8276 37.4293 59.4309C37.8501 59.8485 38.4042 60.0712 39.0213 60.0712C39.0915 60.0712 39.1405 60.0712 39.1967 60.0573C43.1731 59.7789 45.5506 58.7559 46.4764 56.9047C47.2127 55.4641 46.9322 53.6477 45.7049 51.6226C48.4471 52.402 50.5931 53.4251 52.2693 54.5177C52.655 54.7752 53.0056 55.0187 53.3353 55.2832C57.1434 58.1783 58.0131 61.31 58.1323 61.811C58.1463 61.8249 58.1463 61.8458 58.1463 61.8597L58.1323 61.8528Z" fill="#00BCD4"/>
<path d="M17.8694 59.083V59.0969L18.3252 58.9577C18.3252 58.9577 18.3393 58.9438 18.3393 58.9229C18.185 58.9925 18.0237 59.0273 17.8694 59.076V59.083ZM17.8694 59.083V59.0969L18.3252 58.9577C18.3252 58.9577 18.3393 58.9438 18.3393 58.9229C18.185 58.9925 18.0237 59.0273 17.8694 59.076V59.083ZM17.8694 59.083V59.0969L18.3252 58.9577C18.3252 58.9577 18.3393 58.9438 18.3393 58.9229C18.185 58.9925 18.0237 59.0273 17.8694 59.076V59.083ZM17.8694 59.083V59.0969L18.3252 58.9577C18.3252 58.9577 18.3393 58.9438 18.3393 58.9229C18.185 58.9925 18.0237 59.0273 17.8694 59.076V59.083ZM17.8694 59.083V59.0969L18.3252 58.9577C18.3252 58.9577 18.3393 58.9438 18.3393 58.9229C18.185 58.9925 18.0237 59.0273 17.8694 59.076V59.083ZM17.8694 59.083V59.0969L18.3252 58.9577C18.3252 58.9577 18.3393 58.9438 18.3393 58.9229C18.185 58.9925 18.0237 59.0273 17.8694 59.076V59.083ZM17.8694 59.083V59.0969L18.3252 58.9577C18.3252 58.9577 18.3393 58.9438 18.3393 58.9229C18.185 58.9925 18.0237 59.0273 17.8694 59.076V59.083ZM17.8694 59.083V59.0969L18.3252 58.9577C18.3252 58.9577 18.3393 58.9438 18.3393 58.9229C18.185 58.9925 18.0237 59.0273 17.8694 59.076V59.083ZM17.8694 59.083V59.0969L18.3252 58.9577C18.3252 58.9577 18.3393 58.9438 18.3393 58.9229C18.185 58.9925 18.0237 59.0273 17.8694 59.076V59.083ZM17.8694 59.083V59.0969L18.3252 58.9577C18.3252 58.9577 18.3393 58.9438 18.3393 58.9229C18.185 58.9925 18.0237 59.0273 17.8694 59.076V59.083ZM17.8694 59.083V59.0969L18.3252 58.9577C18.3252 58.9577 18.3393 58.9438 18.3393 58.9229C18.185 58.9925 18.0237 59.0273 17.8694 59.076V59.083ZM17.8694 59.083V59.0969L18.3252 58.9577C18.3252 58.9577 18.3393 58.9438 18.3393 58.9229C18.185 58.9925 18.0237 59.0273 17.8694 59.076V59.083ZM17.8694 59.083V59.0969L18.3252 58.9577C18.3252 58.9577 18.3393 58.9438 18.3393 58.9229C18.185 58.9925 18.0237 59.0273 17.8694 59.076V59.083ZM17.8694 59.083V59.0969L18.3252 58.9577C18.3252 58.9577 18.3393 58.9438 18.3393 58.9229C18.185 58.9925 18.0237 59.0273 17.8694 59.076V59.083ZM17.8694 59.083V59.0969L18.3252 58.9577C18.3252 58.9577 18.3393 58.9438 18.3393 58.9229C18.185 58.9925 18.0237 59.0273 17.8694 59.076V59.083ZM17.8694 59.083V59.0969L18.3252 58.9577C18.3252 58.9577 18.3393 58.9438 18.3393 58.9229C18.185 58.9925 18.0237 59.0273 17.8694 59.076V59.083ZM17.8694 59.083V59.0969L18.3252 58.9577C18.3252 58.9577 18.3393 58.9438 18.3393 58.9229C18.185 58.9925 18.0237 59.0273 17.8694 59.076V59.083Z" fill="#121417"/>
<path d="M31.3628 48.8806L30.6825 49.5766C30.6825 49.5766 30.5282 49.7297 30.3529 49.9593C30.2126 50.1124 30.0373 50.3212 29.8479 50.5857C29.8479 50.4117 29.8339 50.2377 29.8129 50.0846C29.7778 49.7923 29.7427 49.5139 29.6726 49.2216C30.2828 49.0824 30.8578 48.9781 31.3628 48.8945V48.8806Z" fill="#121417"/>
<path d="M41.7776 50.7736V50.9128C41.8127 50.864 41.8477 50.8292 41.8968 50.7944C41.8617 50.7944 41.8127 50.7805 41.7776 50.7805V50.7736Z" fill="#121417"/>
<path d="M33.9229 46.5075V51.9079L33.0532 50.8849L32.6535 50.3978L32.1836 49.841V46.1526C32.4641 46.2361 32.7587 46.2918 33.0532 46.3614C33.3338 46.4101 33.6283 46.4657 33.9229 46.5005V46.5075Z" fill="#121417"/>
<path d="M40.908 46.2709V51.9149L37.9765 55.3806L37.4154 56.0417L36.8403 55.3806L33.9229 51.9149V46.5144C34.8276 46.6536 35.7743 46.7232 36.7351 46.7232C38.1658 46.7232 39.5615 46.5701 40.908 46.2709Z" fill="white"/>
<path d="M45.6909 51.6226C45.6208 51.5182 45.5366 51.3999 45.4665 51.2746C45.2421 50.9267 44.9405 50.6483 44.5758 50.4813C44.2813 50.3073 43.9446 50.2238 43.601 50.2029H43.4116C43.1521 50.2029 42.8856 50.2516 42.6612 50.356C42.3807 50.4256 42.1352 50.5787 41.9108 50.7875C41.8617 50.8223 41.8266 50.8571 41.7916 50.9058C41.7425 50.9406 41.6864 50.9893 41.6513 51.045L40.9149 51.9079L37.9834 55.3737L37.4224 56.0348L36.8473 55.3737L33.9298 51.9079L33.0601 50.8849L32.6604 50.3977L32.1905 49.841L32.0152 49.6322L31.37 48.8667L30.6897 49.5626C30.6897 49.5626 30.5354 49.7157 30.3601 49.9454C30.2198 50.0985 30.0445 50.3073 29.8551 50.5717C29.8691 50.69 29.8691 50.8153 29.8691 50.9545C29.8832 51.3373 29.8832 51.6991 29.8691 52.0958V52.1097C29.8551 52.4925 29.8341 52.8544 29.785 53.2163C29.6447 54.2741 29.3992 55.2762 29.0346 56.2505C28.9294 56.6124 28.7751 56.9604 28.6138 57.2875C29.6587 58.8603 32.0362 59.7998 35.648 60.0434C35.6971 60.0573 35.7532 60.0573 35.8233 60.0573C36.4335 60.0573 37.0086 59.8137 37.4294 59.417C37.8502 59.8346 38.4042 60.0573 39.0214 60.0573C39.0915 60.0573 39.1406 60.0573 39.1967 60.0434C43.1732 59.765 45.5507 58.742 46.4764 56.8908C47.2128 55.4502 46.9323 53.6338 45.7049 51.6087L45.6909 51.6226ZM36.3213 58.0112C36.2722 58.1156 36.0969 58.394 35.7602 58.3383C32.4079 58.0948 30.3671 57.2805 29.8411 55.9652C29.3151 54.5803 30.4162 52.6734 31.3068 51.5112L32.1765 52.5482L33.1864 53.7591L34.9677 55.8539L35.9776 57.0648L36.2371 57.3779C36.4615 57.6354 36.3563 57.8999 36.3073 58.0043L36.3213 58.0112ZM44.9054 56.1253C44.2953 57.3571 42.2685 58.1156 39.0564 58.3453C38.6917 58.3592 38.5515 58.1226 38.4954 58.0182C38.4393 57.9138 38.3411 57.6563 38.5655 57.3919L38.825 57.0787L39.8349 55.8817L41.6303 53.7521L42.6402 52.5551L42.9698 52.1585C43.1241 51.9706 43.3205 51.9358 43.4397 51.9358H43.4747C43.6851 51.9358 43.8745 52.0541 43.9797 52.228C44.5898 53.1467 45.5156 54.8795 44.8844 56.1253H44.9054Z" fill="#121417"/>
<path d="M36.3143 58.0112C36.2652 58.1156 36.0899 58.394 35.7532 58.3383C32.4009 58.0948 30.3601 57.2805 29.8341 55.9652C29.3081 54.5803 30.4092 52.6735 31.2999 51.5112L32.1695 52.5482L33.1794 53.7591L34.9608 55.8539L35.9707 57.0648L36.2301 57.3779C36.4546 57.6354 36.3494 57.8999 36.3003 58.0043L36.3143 58.0112Z" fill="white"/>
<path d="M44.9055 56.1253C44.2954 57.3571 42.2685 58.1156 39.0565 58.3453C38.6918 58.3592 38.5515 58.1226 38.4954 58.0182C38.4393 57.9138 38.3411 57.6563 38.5656 57.3919L38.8251 57.0787L39.835 55.8817L41.6303 53.7521L42.6402 52.5551L42.9699 52.1585C43.1241 51.9706 43.3205 51.9358 43.4397 51.9358H43.4748C43.6852 51.9358 43.8746 52.0541 43.9798 52.2281C44.5899 53.1467 45.5156 54.8795 44.8845 56.1253H44.9055Z" fill="white"/>
<path d="M28.8803 28.9839C28.4595 28.9839 28.1159 28.8656 27.8494 28.6708C27.3234 28.2741 27.113 27.5642 27.2182 26.924C27.3374 26.1793 27.8844 25.5182 28.8733 25.5182C31.1245 25.5182 31.1245 28.9839 28.8733 28.9839H28.8803Z" fill="#121417"/>
<path d="M59.4228 30.2645C59.4228 33.4309 56.9612 36.0476 53.8403 36.2912C54.8713 34.3009 55.5516 32.1017 55.811 29.7773C55.8461 29.485 55.8812 29.1858 55.8952 28.8796C56.0004 28.81 56.1056 28.7056 56.2108 28.6012C56.6667 28.1836 57.0454 27.6826 57.382 27.1119C57.5573 26.8196 57.6976 26.5204 57.8379 26.2141C58.8337 27.272 59.4228 28.7056 59.4228 30.2645Z" fill="white"/>
<path d="M46.2442 26.9379V26.9512L46.231 26.9379H46.2442Z" fill="#121417"/>
<path d="M19.6299 36.2912C16.509 36.0477 14.0474 33.431 14.0474 30.2645C14.0474 28.3089 14.9871 26.5551 16.4529 25.4695C16.8036 25.1911 17.1682 24.9684 17.568 24.7736C17.554 25.1563 17.5329 25.553 17.5329 25.9358V27.6686C17.5329 28.0166 17.547 28.3646 17.547 28.7056C17.7012 31.4267 18.4376 33.9877 19.6229 36.2912H19.6299Z" fill="white"/>
<path d="M20.6467 38.038C20.4924 38.0519 20.3171 38.0519 20.1558 38.0519C15.8287 38.0519 12.301 34.5514 12.301 30.2575C12.301 27.4529 13.7878 25.0102 16.018 23.6392C16.544 23.3121 17.0981 23.0476 17.6942 22.8597C17.7082 22.9085 17.7292 22.978 17.7643 23.0476C17.7152 23.3051 17.6802 23.5487 17.6591 23.7923C17.624 24.1194 17.589 24.4534 17.575 24.7596C17.1752 24.9475 16.8035 25.1772 16.4599 25.4556C14.9941 26.5482 14.0543 28.295 14.0543 30.2505C14.0543 33.417 16.516 36.0337 19.6368 36.2773C19.7771 36.5905 19.9524 36.8828 20.1278 37.1751C20.282 37.4673 20.4574 37.7457 20.6537 38.0241L20.6467 38.038Z" fill="#121417"/>
<path d="M46.231 26.9379L46.2442 26.9512V26.9379H46.231Z" fill="#121417"/>
<path d="M61.1692 30.2645C61.1692 34.5584 57.6416 38.0589 53.3144 38.0589C53.1601 38.0589 52.9848 38.0589 52.8235 38.045C52.9988 37.7666 53.1882 37.4882 53.3495 37.1959C53.5248 36.9036 53.7001 36.6044 53.8404 36.2982C56.9613 36.0546 59.4229 33.4379 59.4229 30.2714C59.4229 28.7125 58.8268 27.2719 57.8379 26.2211C57.9922 25.9288 58.1184 25.6296 58.2236 25.3373C58.3429 25.045 58.4481 24.7457 58.5392 24.4534C60.1593 25.8731 61.1762 27.954 61.1762 30.2714L61.1692 30.2645Z" fill="#121417"/>
<path d="M46.2307 26.9379L46.2439 26.9512V26.9379H46.2307Z" fill="white"/>
<path d="M55.902 28.8796C55.888 29.1927 55.8529 29.485 55.8178 29.7773C55.5583 32.0948 54.878 34.3009 53.8471 36.2912C53.7068 36.6044 53.5315 36.8967 53.3562 37.189C53.2019 37.4813 53.0055 37.7596 52.8302 38.038C50.4387 41.6569 46.862 44.4267 42.654 45.7768C42.3595 45.8812 42.079 45.9647 41.7844 46.0343C41.5039 46.1178 41.2093 46.1874 40.9148 46.257C39.5682 46.5493 38.1726 46.7093 36.7419 46.7093C35.7811 46.7093 34.8413 46.6397 33.9296 46.5005C33.6351 46.4657 33.3335 46.417 33.06 46.3614C32.7654 46.2918 32.4638 46.243 32.1903 46.1526C30.7386 45.8046 29.343 45.2896 28.0385 44.6285C27.7229 44.0578 27.3582 43.522 26.9585 43.0209H26.9445C25.8434 41.5803 24.4478 40.3694 22.8277 39.4856C22.8277 39.4856 22.8277 39.4716 22.8137 39.4716C22.2737 39.1585 21.6986 38.8801 21.1025 38.6574C20.9482 38.4695 20.8079 38.2398 20.6676 38.0311C20.4783 37.7527 20.303 37.4743 20.1417 37.182C19.9663 36.8897 19.791 36.5905 19.6507 36.2843C18.4655 33.9807 17.7291 31.4197 17.5748 28.6986C17.5748 28.3506 17.5608 28.0027 17.5608 27.6617V25.9288C17.5608 25.546 17.5748 25.1494 17.5959 24.7666C17.6099 24.4534 17.6449 24.1263 17.68 23.7993C17.694 23.5557 17.7291 23.3121 17.7852 23.0546C17.8553 23.2286 17.9605 23.4374 18.1008 23.6462C18.22 23.8201 18.3603 23.9941 18.5216 24.1681C18.5707 24.2377 18.6408 24.3073 18.711 24.3908C18.9003 24.5787 19.0967 24.7736 19.3211 24.9615C19.3211 25.2746 19.3071 25.6017 19.3071 25.9288V27.6617C19.3071 30.1183 19.812 32.4427 20.7588 34.5514C20.9832 35.1081 21.2638 35.644 21.5583 36.159C21.6986 36.4165 21.8529 36.6809 22.0282 36.9245C22.1825 37.182 22.3578 37.4465 22.5542 37.6901C24.8545 40.9122 28.2419 43.3201 32.2044 44.378C32.4849 44.4615 32.7794 44.5311 33.074 44.6006C33.3545 44.6494 33.6491 44.705 33.9436 44.7538C34.8483 44.9069 35.7951 44.9765 36.7559 44.9765C38.1866 44.9765 39.5823 44.8025 40.9288 44.4754C41.2233 44.4058 41.5039 44.3223 41.7984 44.2318C42.093 44.1483 42.3735 44.0578 42.6681 43.9395C45.5996 42.9026 48.1664 41.1001 50.1371 38.7757C50.1511 38.7409 50.1862 38.7061 50.2213 38.6713C50.4808 38.3581 50.7262 38.0311 50.9577 37.6831C51.147 37.4395 51.3224 37.182 51.4837 36.9176C51.659 36.674 51.8133 36.4165 51.9535 36.152C53.0196 34.28 53.7489 32.1852 54.0505 29.9513C54.3801 29.8469 54.6957 29.7077 54.9903 29.5337C55.3199 29.3458 55.6214 29.1162 55.916 28.8587L55.902 28.8796Z" fill="#121417"/>
<path d="M52.164 7.4379C47.6405 4.30621 41.9738 3.35279 38.916 7.02034C38.6916 7.26392 38.4953 7.52141 38.3199 7.81371C38.1797 8.0364 38.0394 8.30086 37.8991 8.55835C37.829 8.30086 37.7589 8.0364 37.6537 7.76499C37.5695 7.48662 37.4643 7.20825 37.3241 6.90204C37.2399 6.65846 37.1347 6.41488 37.0085 6.15739C36.5386 5.15525 35.7882 4.18094 34.7923 3.93737C25.7312 1.68255 15.3868 13.4647 17.6731 22.818C17.6731 22.8319 17.6731 22.8528 17.6871 22.8667C17.091 23.0546 16.5369 23.3191 16.0109 23.6462C14.98 18.364 15.7865 12.9427 19.763 8.69754C23.2906 5.39186 27.6178 1.09101 32.506 3.13705C38.2288 -1.95717 46.5043 1.83565 52.157 7.43094L52.164 7.4379Z" fill="#121417"/>
<path d="M49.7024 29.8121C48.8819 29.4154 48.1665 28.9283 47.5213 28.3367C47.2759 28.1279 47.0514 27.9052 46.8411 27.6617C46.6166 27.439 46.4203 27.1954 46.2449 26.9518C46.3501 27.5921 46.1397 28.2671 45.6137 28.6638C45.3543 28.8517 45.0036 28.977 44.5828 28.977C42.3316 28.977 42.3316 25.5112 44.5828 25.5112C44.8633 25.5112 45.1088 25.56 45.3332 25.6643C41.6302 19.6515 41.7565 10.5626 38.2499 11.3421C38.0745 11.4952 37.8992 11.53 37.7239 11.4952C36.5737 13.7987 35.1921 12.8801 33.551 13.1724C31.8749 13.4647 30.5985 14.9192 30.1637 16.7564C29.4273 19.8394 27.9825 22.8389 25.7453 24.8084C25.5349 24.9823 25.3105 25.1702 25.0791 25.3442C24.8336 25.5182 24.5741 25.6922 24.3076 25.8453C24.2375 25.8801 24.1674 25.9288 24.0972 25.9636C22.4561 26.8961 20.5906 26.0471 19.2792 24.9406C19.2792 25.2537 19.2651 25.5808 19.2651 25.9079V27.6408C19.2651 30.0974 19.7701 32.4218 20.7169 34.5305C20.9413 35.0873 21.2218 35.6231 21.5164 36.1381C21.6566 36.3956 21.8109 36.6601 21.9863 36.9036C22.1405 37.1611 22.3159 37.4256 22.5122 37.6692C24.8126 40.8913 28.2 43.2993 32.1624 44.3571C32.4429 44.4406 32.7375 44.5102 33.0321 44.5798C33.3126 44.6285 33.6071 44.6842 33.9017 44.7329C34.8064 44.886 35.7532 44.9556 36.714 44.9556C38.1447 44.9556 39.5403 44.7816 40.8868 44.4545C41.1814 44.3849 41.4619 44.3014 41.7565 44.2109C42.051 44.1274 42.3316 44.0369 42.6261 43.9186C45.5576 42.8817 48.1245 41.0792 50.0952 38.7548C50.1092 38.72 50.1443 38.6852 50.1793 38.6504C50.4388 38.3373 50.6843 38.0102 50.9157 37.6622C51.1051 37.4186 51.2804 37.1611 51.4417 36.8967C51.617 36.6531 51.7713 36.3956 51.9116 36.1312C52.9776 34.2591 53.707 32.1644 54.0085 29.9304C52.6269 30.4663 51.077 30.4524 49.6814 29.7773L49.7024 29.8121ZM28.8802 28.9839C28.4594 28.9839 28.1158 28.8656 27.8493 28.6708C27.3233 28.2741 27.1129 27.5642 27.2181 26.924C27.3373 26.1793 27.8844 25.5182 28.8732 25.5182C31.1245 25.5182 31.1245 28.9839 28.8732 28.9839H28.8802ZM40.992 34.4192L40.8518 34.8367L40.5222 35.8597L40.2416 36.6531C39.8559 37.7457 38.7899 38.4695 37.5696 38.4695H36.4896C35.3394 38.4695 34.3435 37.7944 33.9929 36.7714L33.9788 36.7018L33.523 35.4352L33.2424 34.621C33.2074 34.5514 33.2074 34.4818 33.2074 34.3983C33.1934 34.3496 33.1934 34.2939 33.1934 34.2452V34.1408C33.1934 33.6536 33.5791 33.2778 34.063 33.2778H40.1715C40.452 33.2778 40.7115 33.417 40.8868 33.6397C40.9219 33.6745 40.9359 33.7232 40.957 33.7789C41.0622 33.9877 41.0762 34.2104 40.992 34.4192Z" fill="white"/>
<path d="M46.2439 26.9379V26.9512L46.2307 26.9379H46.2439Z" fill="#121417"/>
<path d="M57.2767 23.5418C57.2417 23.8549 57.2066 24.1681 57.1575 24.4743C57.1084 24.8014 57.0523 25.1354 57.0032 25.4416C56.7928 26.5343 56.5333 27.5921 56.2177 28.5942C56.1125 28.6986 56.0073 28.803 55.9021 28.8726C55.6076 29.1301 55.306 29.3597 54.9764 29.5476C54.6819 29.7216 54.3663 29.8608 54.0366 29.9652C52.655 30.5011 51.1051 30.4871 49.7095 29.8121C48.8889 29.4154 48.1736 28.9283 47.5284 28.3367C47.2829 28.1279 47.0585 27.9052 46.8481 27.6617C46.6237 27.439 46.4273 27.1954 46.252 26.9518V26.917C46.1819 26.3951 45.8663 25.9149 45.3613 25.6713H45.3473C41.6443 19.6585 41.7705 10.5696 38.2639 11.349C38.0886 11.5021 37.9133 11.5369 37.738 11.5021C36.5878 13.8057 35.2062 12.887 33.5651 13.1793C31.889 13.4716 30.6125 14.9261 30.1777 16.7634C29.4413 19.8464 27.9966 22.8458 25.7594 24.8153C25.549 24.9893 25.3246 25.1772 25.0932 25.3512C24.8477 25.5252 24.5882 25.6991 24.3217 25.8522C24.2516 25.887 24.1814 25.9358 24.1113 25.9706C22.4702 26.9031 20.6047 26.0541 19.2932 24.9475C19.0688 24.7596 18.8724 24.5648 18.6831 24.3769C18.613 24.2934 18.5428 24.2238 18.4937 24.1542C18.3394 23.9802 18.1992 23.8062 18.0729 23.6322C17.9327 23.4234 17.8275 23.2147 17.7573 23.0407C17.7223 22.9711 17.7083 22.9015 17.6872 22.8528C17.6732 22.8389 17.6732 22.818 17.6732 22.8041C15.3869 13.4507 25.7384 1.67559 34.7924 3.92345C35.7883 4.16702 36.5387 5.13437 37.0086 6.14347C37.1278 6.40096 37.233 6.64454 37.3242 6.88811C37.4644 7.20128 37.5696 7.47966 37.6538 7.75107C37.759 8.02944 37.8291 8.28694 37.8993 8.54443C38.0395 8.28694 38.1798 8.02248 38.3201 7.79978C38.4954 7.50749 38.6847 7.24304 38.9162 7.00642C41.9739 3.3319 47.6406 4.28533 52.1641 7.42398C52.1641 7.42398 52.1688 7.42862 52.1781 7.4379C54.1699 9.39347 55.825 11.5787 56.9401 13.6734C57.5503 17.1392 57.6414 20.4449 57.2697 23.5278L57.2767 23.5418Z" fill="#121417"/>
<path d="M45.6207 28.6708C45.3612 28.8587 45.0106 28.9839 44.5898 28.9839C42.3386 28.9839 42.3386 25.5182 44.5898 25.5182C44.8703 25.5182 45.1158 25.5669 45.3402 25.6713H45.3542C45.8592 25.9149 46.1748 26.402 46.2449 26.917V26.9309H46.2309L46.2449 26.9449C46.3501 27.5851 46.1397 28.2602 45.6137 28.6569L45.6207 28.6708Z" fill="#121417"/>
<path d="M46.2442 26.9379V26.9512L46.231 26.9379H46.2442Z" fill="#121417"/>
<path d="M58.5321 24.4465C58.448 24.7388 58.3428 25.038 58.2165 25.3303C58.1113 25.6226 57.9921 25.9218 57.8308 26.2141C57.6905 26.5273 57.5503 26.8196 57.3749 27.1119C57.0453 27.6825 56.6596 28.1836 56.2037 28.6012C56.5193 27.599 56.7788 26.5412 56.9892 25.4486C57.0383 25.1354 57.0944 24.8083 57.1435 24.4813C57.1926 24.1681 57.2277 23.8549 57.2627 23.5487C57.6274 20.4657 57.5433 17.1601 56.9331 13.6943C55.818 11.5996 54.1559 9.41434 52.1711 7.45877C55.2289 9.58832 57.7537 12.7061 58.5952 16.0674C59.4999 18.6146 59.3947 21.7114 58.5251 24.4465H58.5321Z" fill="#121417"/>
<path d="M40.957 33.7789C40.943 33.7302 40.9219 33.6745 40.8868 33.6397C40.7115 33.417 40.452 33.2778 40.1715 33.2778H34.063C33.5721 33.2778 33.1934 33.6606 33.1934 34.1408V34.2452C33.1934 34.2939 33.1934 34.3496 33.2074 34.3983C33.2074 34.4818 33.2074 34.5514 33.2425 34.621L33.523 35.4352L33.9788 36.7018L33.9929 36.7714C34.3435 37.7944 35.3394 38.4695 36.4896 38.4695H37.5696C38.7899 38.4695 39.8559 37.7388 40.2416 36.6531L40.5222 35.8597L40.8518 34.8367L40.992 34.4192C41.0762 34.2104 41.0622 33.9877 40.957 33.7789ZM38.5865 36.0824C38.4463 36.4791 38.0465 36.7436 37.5766 36.7436H36.4966C36.0968 36.7436 35.7462 36.5209 35.641 36.2077L35.2202 35.0107H38.9582L38.5935 36.0824H38.5865Z" fill="#121417"/>
<path d="M38.9512 35.0107L38.5866 36.0824C38.4463 36.4791 38.0465 36.7436 37.5766 36.7436H36.4966C36.0969 36.7436 35.7462 36.5209 35.641 36.2077L35.2202 35.0107H38.9583H38.9512Z" fill="white"/>
<path d="M13.0305 60.6071V60.6767L13.1357 60.6419C13.1357 60.6419 13.0656 60.6279 13.0305 60.6071ZM13.0165 58.7698C12.9674 58.8185 12.9113 58.8742 12.8762 58.9229L13.1708 58.8185L13.0165 58.7698ZM16.1724 59.6536L16.1865 59.6676L16.2005 59.6536H16.1654H16.1724Z" fill="white"/>
<path d="M15.948 65.3881L15.0574 72.4518V72.5353L14.1527 79.8078C14.1036 80.2741 13.8721 80.6708 13.5075 80.97C13.1428 81.2484 12.6729 81.3667 12.217 81.318C11.3123 81.1997 10.6671 80.4342 10.6811 79.5712C11.7612 79.5364 12.743 78.9101 13.262 78.3951L13.4864 78.1724L14.2368 72.1108L14.2018 71.9716C13.5706 69.2157 13.1217 67.7612 12.8061 66.9679C12.6308 66.5364 12.4765 66.3067 12.3503 66.1745L12.4905 64.9636C13.0516 65.1167 13.6056 65.2211 14.2018 65.2907C14.6015 65.3394 14.9872 65.3603 15.3519 65.3742C15.5413 65.3881 15.7377 65.3881 15.927 65.3881H15.941H15.948Z" fill="white"/>
<path d="M16.1724 59.6536L16.1865 59.6676L16.2005 59.6536H16.1654H16.1724ZM13.0165 58.7698C12.9674 58.8185 12.9113 58.8742 12.8762 58.9229L13.1708 58.8185L13.0165 58.7698ZM16.1724 59.6536L16.1865 59.6676L16.2005 59.6536H16.1654H16.1724Z" fill="#121417"/>
<path d="M12.4904 64.9566L12.3501 66.1676C12.2449 66.0493 12.1607 65.9936 12.0906 65.9588C11.8802 65.8405 11.6909 65.75 11.5155 65.7013C11.1999 65.5621 10.9194 65.4925 10.6599 65.4786L10.8002 64.4069C11.0807 64.546 11.3402 64.6296 11.6347 64.7339C11.9153 64.8175 12.1958 64.8871 12.4904 64.9566Z" fill="#121417"/>
<path d="M12.4764 72.1943L11.8312 77.3373C11.6208 77.4904 11.2702 77.72 10.8914 77.7896C10.632 77.8731 10.3164 77.8592 10.0218 77.7061C9.93765 77.6574 9.83245 77.6017 9.74128 77.5182C9.56595 77.3442 9.39062 77.1354 9.25036 76.8779V76.864C8.60514 75.7018 8.32462 73.7671 8.28955 72.6536C8.37371 70.7677 8.99087 67.8726 10.0499 67.3019C10.12 67.2671 10.2252 67.1975 10.4146 67.1975H10.4496C10.6039 67.1975 10.8143 67.2671 11.0948 67.4063C11.1439 67.4898 11.2 67.629 11.2491 67.803C11.4245 68.2693 11.6489 69.0139 11.8803 69.849C12.0697 70.6146 12.3011 71.4218 12.4764 72.2013V72.1943Z" fill="white"/>
<path d="M16.1724 59.6536L16.1865 59.6675L16.2005 59.6536H16.1654H16.1724ZM13.0305 60.6071V60.6766L13.1357 60.6418C13.1357 60.6418 13.0656 60.6279 13.0305 60.6071ZM16.1724 59.6536L16.1865 59.6675L16.2005 59.6536H16.1654H16.1724ZM13.0305 60.6071V60.6766L13.1357 60.6418C13.1357 60.6418 13.0656 60.6279 13.0305 60.6071ZM16.1724 59.6536L16.1865 59.6675L16.2005 59.6536H16.1654H16.1724ZM13.0305 60.6071V60.6766L13.1357 60.6418C13.1357 60.6418 13.0656 60.6279 13.0305 60.6071ZM16.1724 59.6536L16.1865 59.6675L16.2005 59.6536H16.1654H16.1724ZM13.0305 60.6071V60.6766L13.1357 60.6418C13.1357 60.6418 13.0656 60.6279 13.0305 60.6071ZM16.1724 59.6536L16.1865 59.6675L16.2005 59.6536H16.1654H16.1724ZM13.0305 60.6071V60.6766L13.1357 60.6418C13.1357 60.6418 13.0656 60.6279 13.0305 60.6071ZM16.1724 59.6536L16.1865 59.6675L16.2005 59.6536H16.1654H16.1724ZM13.0305 60.6071V60.6766L13.1357 60.6418C13.1357 60.6418 13.0656 60.6279 13.0305 60.6071ZM16.1724 59.6536L16.1865 59.6675L16.2005 59.6536H16.1654H16.1724ZM13.0305 60.6071V60.6766L13.1357 60.6418C13.1357 60.6418 13.0656 60.6279 13.0305 60.6071ZM16.1724 59.6536L16.1865 59.6675L16.2005 59.6536H16.1654H16.1724ZM13.0305 60.6071V60.6766L13.1357 60.6418C13.1357 60.6418 13.0656 60.6279 13.0305 60.6071ZM17.8626 59.083V59.0969L18.3185 58.9577C18.3185 58.9577 18.3325 58.9438 18.3325 58.9229C18.1782 58.9925 18.0169 59.0273 17.8626 59.076V59.083ZM16.8667 43.7933C16.5511 43.7585 16.2215 43.7446 15.8919 43.7446C14.1667 43.7446 12.4695 44.3153 11.0738 45.387C9.43275 46.6675 8.36674 48.5048 8.12128 50.5856C7.94595 51.9357 8.12128 53.2719 8.64727 54.4968L20.5837 45.2687C19.5177 44.4754 18.2413 43.9673 16.8667 43.7933ZM16.1654 59.6606L16.1794 59.6745L16.1935 59.6606H16.1584H16.1654ZM13.0095 58.7768C12.9604 58.8255 12.9043 58.8811 12.8692 58.9299L13.1638 58.8255L13.0095 58.7768ZM13.0235 60.614V60.6836L13.1287 60.6488C13.1287 60.6488 13.0586 60.6349 13.0235 60.614ZM17.8556 59.0899V59.1038L18.3115 58.9647C18.3115 58.9647 18.3255 58.9507 18.3255 58.9299C18.1712 58.9995 18.0099 59.0342 17.8556 59.083V59.0899ZM16.8597 43.8003C16.5441 43.7655 16.2145 43.7516 15.8849 43.7516C14.1596 43.7516 12.4625 44.3223 11.0668 45.394C9.42573 46.6745 8.35973 48.5118 8.11427 50.5926C7.93894 51.9427 8.11427 53.2789 8.64026 54.5037L20.5767 45.2757C19.5107 44.4823 18.2343 43.9743 16.8597 43.8003ZM16.1584 59.6675L16.1724 59.6815L16.1865 59.6675H16.1514H16.1584ZM13.0025 58.7837C12.9534 58.8324 12.8973 58.8881 12.8622 58.9368L13.1568 58.8324L13.0025 58.7837ZM13.0165 60.621V60.6906L13.1217 60.6558C13.1217 60.6558 13.0516 60.6418 13.0165 60.621ZM17.8486 59.0969V59.1108L18.3044 58.9716C18.3044 58.9716 18.3185 58.9577 18.3185 58.9368C18.1642 59.0064 18.0029 59.0412 17.8486 59.0899V59.0969ZM16.8527 43.8073C16.5371 43.7725 16.2075 43.7585 15.8779 43.7585C14.1526 43.7585 12.4554 44.3292 11.0598 45.4009C9.41872 46.6815 8.35271 48.5187 8.10725 50.5996C7.93192 51.9497 8.10725 53.2859 8.63324 54.5107L20.5697 45.2826C19.5037 44.4893 18.2273 43.9812 16.8527 43.8073ZM16.1514 59.6745L16.1654 59.6884L16.1794 59.6745H16.1444H16.1514ZM12.9955 58.7907C12.9464 58.8394 12.8903 58.8951 12.8552 58.9438L13.1497 58.8394L12.9955 58.7907ZM13.0095 60.6279V60.6975L13.1147 60.6627C13.1147 60.6627 13.0445 60.6488 13.0095 60.6279ZM13.0095 60.6279V60.6975L13.1147 60.6627C13.1147 60.6627 13.0445 60.6488 13.0095 60.6279ZM16.1514 59.6745L16.1654 59.6884L16.1794 59.6745H16.1444H16.1514ZM13.0095 60.6279V60.6975L13.1147 60.6627C13.1147 60.6627 13.0445 60.6488 13.0095 60.6279ZM16.1514 59.6745L16.1654 59.6884L16.1794 59.6745H16.1444H16.1514ZM13.0095 60.6279V60.6975L13.1147 60.6627C13.1147 60.6627 13.0445 60.6488 13.0095 60.6279ZM16.1514 59.6745L16.1654 59.6884L16.1794 59.6745H16.1444H16.1514ZM13.0095 60.6279V60.6975L13.1147 60.6627C13.1147 60.6627 13.0445 60.6488 13.0095 60.6279ZM16.1514 59.6745L16.1654 59.6884L16.1794 59.6745H16.1444H16.1514ZM13.0095 60.6279V60.6975L13.1147 60.6627C13.1147 60.6627 13.0445 60.6488 13.0095 60.6279ZM16.1514 59.6745L16.1654 59.6884L16.1794 59.6745H16.1444H16.1514ZM13.0095 60.6279V60.6975L13.1147 60.6627C13.1147 60.6627 13.0445 60.6488 13.0095 60.6279ZM16.1514 59.6745L16.1654 59.6884L16.1794 59.6745H16.1444H16.1514ZM13.0095 60.6279V60.6975L13.1147 60.6627C13.1147 60.6627 13.0445 60.6488 13.0095 60.6279ZM16.1514 59.6745L16.1654 59.6884L16.1794 59.6745H16.1444H16.1514ZM13.0095 60.6279V60.6975L13.1147 60.6627C13.1147 60.6627 13.0445 60.6488 13.0095 60.6279ZM16.1514 59.6745L16.1654 59.6884L16.1794 59.6745H16.1444H16.1514ZM13.0095 60.6279V60.6975L13.1147 60.6627C13.1147 60.6627 13.0445 60.6488 13.0095 60.6279ZM16.1514 59.6745L16.1654 59.6884L16.1794 59.6745H16.1444H16.1514Z" fill="#E0F7FA"/>
<path d="M29.8411 50.5787C29.8411 50.4047 29.8271 50.2307 29.8061 50.0776C29.771 49.7853 29.7359 49.507 29.6658 49.2147C29.4063 47.5862 28.8453 46.0482 28.0247 44.6424C27.7091 44.0717 27.3444 43.5359 26.9447 43.0348H26.9307C25.8296 41.5942 24.434 40.3833 22.8139 39.4995C22.8139 39.4995 22.8139 39.4855 22.7999 39.4855C22.2599 39.1724 21.6848 38.894 21.0887 38.6713C20.0086 38.2398 18.8515 37.9406 17.6312 37.7875C17.0561 37.7179 16.481 37.6831 15.9059 37.6831C8.95583 37.6831 2.9385 42.8121 2.06185 49.841C1.39559 55.1579 3.87827 60.1617 8.06515 62.9872C8.31061 63.1611 8.53503 63.3142 8.80153 63.4395C9.047 63.6135 9.29246 63.7527 9.55195 63.871C9.9517 64.0798 10.3725 64.2677 10.8073 64.4069C11.0878 64.546 11.3473 64.6296 11.6419 64.7339C11.9224 64.8175 12.2029 64.887 12.4975 64.9566C13.0585 65.1097 13.6126 65.2141 14.2087 65.2837C14.6085 65.3324 14.9942 65.3533 15.3589 65.3672C15.5482 65.3812 15.7446 65.3812 15.934 65.3812H15.948C16.0321 65.3812 16.1373 65.3812 16.2285 65.3672H16.2425C16.4529 65.3812 16.6423 65.3672 16.8387 65.3533C16.9228 65.3533 17.028 65.3533 17.1192 65.3394C17.3296 65.3255 17.54 65.3046 17.7293 65.2698C18.7953 65.1306 19.8263 64.887 20.8011 64.5043C21.0957 64.3999 21.4113 64.2816 21.6918 64.1424C22.0214 64.0032 22.337 63.8501 22.6526 63.6552C25.2335 62.2495 27.3444 60.0364 28.6068 57.3014C28.7611 56.9743 28.9224 56.6263 29.0276 56.2644C29.3923 55.2971 29.6378 54.288 29.778 53.2302C29.8271 52.8683 29.8482 52.4995 29.8622 52.1237V52.1097C29.8762 51.7131 29.8762 51.3442 29.8622 50.9684C29.8622 50.8292 29.8622 50.7109 29.8482 50.5856L29.8411 50.5787ZM28.0458 53.0005C28.0107 53.3485 27.9406 53.6756 27.8704 54.0236C27.5548 55.5337 26.9657 56.9186 26.1452 58.1643C25.2194 59.5492 24.0342 60.7463 22.6386 61.644C22.1827 61.9572 21.6988 62.2355 21.1868 62.4582C20.1769 62.9454 19.0899 63.3073 17.9397 63.4813C17.7293 63.53 17.5049 63.5509 17.2735 63.5648C17.2034 63.5787 17.1332 63.5996 17.0631 63.5996C16.8527 63.6135 16.6283 63.6344 16.3968 63.6344C16.3267 63.6483 16.2425 63.6483 16.1514 63.6344C16.0812 63.6483 15.9971 63.6483 15.9269 63.6483C15.7867 63.6483 15.6464 63.6483 15.5062 63.6344C15.1415 63.6344 14.7698 63.5996 14.4051 63.5509C13.83 63.4813 13.2549 63.3769 12.7149 63.2029C12.4203 63.1542 12.1398 63.0637 11.8593 62.9593C11.5647 62.8758 11.2842 62.7505 11.0037 62.6322C10.7933 62.5487 10.5829 62.4582 10.3935 62.3191C10.134 62.2147 9.86754 62.0755 9.62909 61.9224C9.3696 61.7832 9.13817 61.6301 8.89271 61.47C7.91787 60.7741 7.02719 59.9459 6.27678 58.9786C4.27101 56.4315 3.39436 53.265 3.80112 50.0428C4.55153 43.9813 9.75533 39.409 15.8989 39.409C16.4038 39.409 16.9088 39.4229 17.4137 39.4925C20.6609 39.8892 23.5433 41.5177 25.5491 44.0648C26.8395 45.728 27.6811 47.6349 27.9897 49.6392C28.0247 49.9315 28.0598 50.2098 28.0949 50.5021C28.1089 50.7944 28.1299 51.1076 28.1299 51.3999C28.1439 51.9358 28.1159 52.4577 28.0458 52.9936V53.0005Z" fill="#121417"/>
<path d="M28.095 50.5091C28.0599 50.2168 28.0248 49.9384 27.9898 49.6461C27.6742 47.6349 26.8396 45.735 25.5492 44.0717C23.5434 41.5246 20.661 39.8961 17.4139 39.4995C16.9089 39.4299 16.404 39.416 15.899 39.416C9.75545 39.416 4.55165 43.9882 3.80124 50.0498C3.40149 53.2719 4.27113 56.4384 6.2769 58.9855C7.02732 59.9529 7.91799 60.788 8.89283 61.477C9.13829 61.6301 9.36271 61.7902 9.62921 61.9293C9.87468 62.0824 10.1342 62.2216 10.3937 62.326C10.583 62.4652 10.7934 62.5487 11.0038 62.6392C11.2843 62.7575 11.5649 62.8828 11.8594 62.9663C12.1399 63.0707 12.4205 63.1542 12.715 63.2099C13.255 63.3838 13.8301 63.4882 14.4052 63.5578C14.7699 63.6065 15.1416 63.6413 15.5063 63.6413C15.6465 63.6552 15.7868 63.6552 15.9271 63.6552C15.9972 63.6552 16.0814 63.6552 16.1515 63.6413C16.2356 63.6552 16.3268 63.6552 16.397 63.6413C16.6214 63.6413 16.8528 63.6274 17.0632 63.6065C17.1333 63.6065 17.2035 63.5926 17.2736 63.5717C17.498 63.5578 17.7295 63.5369 17.9399 63.4882C19.09 63.3142 20.1771 62.9524 21.187 62.4652C21.6919 62.2425 22.1828 61.9641 22.6387 61.651C24.0343 60.7532 25.2196 59.5562 26.1453 58.1713C26.9658 56.9256 27.562 55.5407 27.8705 54.0305C27.9407 53.6825 28.0108 53.3555 28.0459 53.0075C28.116 52.4716 28.1511 51.9497 28.13 51.4138C28.13 51.1215 28.116 50.8084 28.095 50.5161V50.5091ZM25.479 52.3812C25.465 52.4855 25.465 52.5899 25.444 52.6943C25.3388 53.5086 25.1494 54.288 24.8338 55.0118C24.7146 55.3945 24.5393 55.7425 24.3429 56.0835C24.1325 56.4802 23.873 56.8769 23.5785 57.2457C23.0875 57.9069 22.5125 58.5123 21.8322 59.0273C20.7521 59.8555 19.5459 60.447 18.2695 60.7602C18.0801 60.8089 17.8838 60.8437 17.6944 60.8785C17.5892 60.9133 17.484 60.9272 17.3788 60.9272C17.1684 60.962 16.958 60.9968 16.7687 61.0107C16.6635 61.0107 16.5793 61.0246 16.4881 61.0246C16.2988 61.0385 16.1234 61.0385 15.9271 61.0385H15.8569C15.4922 61.0385 15.1205 61.0037 14.7418 60.969C14.1808 60.8994 13.6618 60.795 13.1358 60.621L13.0306 60.6558V60.5862C12.7361 60.5166 12.4555 60.4122 12.196 60.2939C12.0768 60.2452 11.9716 60.2104 11.8664 60.1408C11.7121 60.0712 11.5508 60.0016 11.3965 59.9181C11.1861 59.8137 10.9968 59.7093 10.8215 59.591C9.88169 58.9995 9.06114 58.2548 8.35982 57.371C6.77484 55.3597 6.07352 52.8683 6.38911 50.3421C6.70471 47.8298 7.99514 45.561 10.022 44.0021C12.0488 42.4433 14.5595 41.7473 17.1053 42.0605C19.6371 42.3737 21.9023 43.6542 23.4943 45.6445C24.6094 47.0642 25.2757 48.7275 25.465 50.4743C25.5001 50.7875 25.5141 51.0798 25.5141 51.3929C25.5141 51.7061 25.5141 52.0332 25.479 52.3603V52.3812Z" fill="white"/>
<path d="M17.8694 59.083V59.0969L18.3253 58.9577C18.3253 58.9577 18.3393 58.9438 18.3393 58.9229C18.185 58.9925 18.0237 59.0273 17.8694 59.076V59.083ZM16.1793 59.6536L16.1933 59.6676L16.2073 59.6536H16.1722H16.1793ZM13.0233 58.7698C12.9742 58.8185 12.9181 58.8742 12.8831 58.9229L13.1776 58.8185L13.0233 58.7698ZM16.1793 59.6536L16.1933 59.6676L16.2073 59.6536H16.1722H16.1793Z" fill="#121417"/>
<path d="M23.7816 51.5182C23.7816 51.7409 23.7676 52.0053 23.7466 52.2489C23.7325 52.3324 23.7325 52.402 23.7115 52.4925C23.6764 52.8057 23.6273 53.098 23.5362 53.3902C23.3258 54.2393 22.9751 55.0535 22.5052 55.7773C22.2107 56.2296 21.86 56.6402 21.4743 57.023C21.2499 57.2457 21.0044 57.4754 20.7379 57.6633C20.0015 58.2339 19.188 58.6654 18.3324 58.9299C18.1781 58.9995 18.0168 59.0343 17.8625 59.083C17.6731 59.1317 17.4768 59.1665 17.2664 59.2013C17.1612 59.2152 17.056 59.2361 16.9367 59.25C16.7264 59.2848 16.516 59.2987 16.3056 59.2987C16.1513 59.2987 15.99 59.3126 15.8146 59.3126C15.5341 59.3126 15.2396 59.2778 14.945 59.243C14.8749 59.243 14.8047 59.2291 14.7346 59.2082C14.5102 59.1943 14.2998 59.1386 14.0894 59.0899C13.7738 59.0203 13.4582 58.9368 13.1636 58.8116L13.0094 58.7628C12.7288 58.6585 12.4483 58.5193 12.1748 58.3801H12.1608C11.221 57.8581 10.4004 57.1692 9.72016 56.3201C9.65003 56.2366 9.5799 56.1322 9.50977 56.0278L21.8811 46.4518C21.9512 46.5353 22.0353 46.6258 22.1055 46.7302C22.1756 46.8137 22.2457 46.9181 22.3159 47.0225L15.1624 52.5482L16.2424 53.9192L23.1715 48.5535C23.5362 49.4026 23.7466 50.3212 23.7676 51.2537C23.7816 51.3373 23.7816 51.4277 23.7816 51.5112V51.5182Z" fill="#E0F7FA"/>
<path d="M25.458 50.4952C25.2686 48.7484 24.6024 47.0851 23.4873 45.6654C21.9023 43.6751 19.63 42.3945 17.0982 42.0814C14.5524 41.7682 12.0347 42.4641 10.0149 44.023C7.98809 45.5819 6.69766 47.8506 6.38207 50.3629C6.06647 52.8892 6.76779 55.3876 8.35278 57.3919C9.0541 58.2757 9.87464 59.0203 10.8144 59.6119C10.9897 59.7302 11.1791 59.8346 11.3895 59.939C11.5438 60.0225 11.7051 60.0921 11.8594 60.1617C11.9646 60.2313 12.0698 60.266 12.189 60.3148C12.4485 60.4331 12.729 60.5375 13.0236 60.6071C13.0586 60.621 13.0937 60.6419 13.1288 60.6419C13.6548 60.8158 14.1737 60.9202 14.7348 60.9898C15.1205 61.0246 15.4852 61.0594 15.8499 61.0594H15.92C16.1094 61.0594 16.2847 61.0594 16.4811 61.0455C16.5652 61.0455 16.6564 61.0316 16.7616 61.0316C16.951 61.0177 17.1614 60.9829 17.3718 60.9481C17.477 60.9481 17.5821 60.9341 17.6873 60.8993C17.8767 60.8646 18.0731 60.8298 18.2624 60.781C19.5388 60.4679 20.7381 59.8833 21.8251 59.0482C22.5054 58.5262 23.0805 57.9208 23.5714 57.2666C23.866 56.9047 24.1325 56.5011 24.3359 56.1044C24.5252 55.7564 24.7005 55.4085 24.8268 55.0326C25.1424 54.3019 25.3317 53.5225 25.4369 52.7152C25.451 52.6108 25.451 52.5064 25.472 52.402C25.5071 52.0749 25.5071 51.7409 25.5071 51.4347C25.5071 51.1285 25.493 50.8292 25.458 50.5161V50.4952ZM8.64733 54.4968C8.12134 53.265 7.94601 51.9358 8.12134 50.5856C8.3668 48.5048 9.43281 46.6745 11.0739 45.387C12.4695 44.3153 14.1597 43.7446 15.892 43.7446C16.2216 43.7446 16.5582 43.7586 16.8668 43.7934C18.2484 43.9673 19.5178 44.4684 20.5838 45.2687L8.64733 54.4968ZM16.1865 59.6745L16.1725 59.6606H16.2076L16.1935 59.6745H16.1865ZM23.7468 52.242C23.7327 52.3255 23.7327 52.3951 23.7117 52.4855C23.6766 52.7987 23.6275 53.091 23.5364 53.3833C23.326 54.2323 22.9753 55.0466 22.5054 55.7703C22.2109 56.2227 21.8602 56.6333 21.4745 57.0161C21.2501 57.2387 21.0046 57.4684 20.7381 57.6563C20.0017 58.227 19.1882 58.6584 18.3326 58.9229C18.3326 58.9229 18.3279 58.9345 18.3185 58.9577L17.8627 59.0969V59.083C17.6733 59.1317 17.477 59.1665 17.2666 59.2013C17.1614 59.2152 17.0562 59.2361 16.9369 59.25C16.7265 59.2848 16.5161 59.2987 16.3057 59.2987C16.1515 59.2987 15.9902 59.3126 15.8148 59.3126C15.5343 59.3126 15.2397 59.2778 14.9452 59.243C14.8751 59.243 14.8049 59.2291 14.7348 59.2082C14.5104 59.1943 14.3 59.1386 14.0896 59.0899C13.774 59.0203 13.4584 58.9368 13.1638 58.8116L12.8693 58.9159C12.9043 58.8672 12.9534 58.8116 13.0095 58.7628C12.729 58.6584 12.4485 58.5193 12.175 58.3801H12.1609C11.2212 57.8581 10.4006 57.1692 9.72035 56.3201C9.65022 56.2366 9.58009 56.1322 9.50996 56.0278L21.8812 46.4518C21.9514 46.5353 22.0355 46.6258 22.1057 46.7302C22.1758 46.8137 22.2459 46.9181 22.3161 47.0225L15.1626 52.5482L16.2426 53.9192L23.1717 48.5535C23.5364 49.4026 23.7468 50.3212 23.7678 51.2537C23.7818 51.3373 23.7818 51.4277 23.7818 51.5112C23.7818 51.7339 23.7678 51.9984 23.7468 52.242Z" fill="#121417"/>
<path d="M14.2018 71.9716C13.5706 69.2157 13.1218 67.7612 12.8062 66.9679C12.6308 66.5364 12.4766 66.3067 12.3503 66.1745C12.2451 66.0562 12.161 66.0005 12.0908 65.9657C11.8804 65.8474 11.6911 65.757 11.5157 65.7082C11.2002 65.5691 10.9196 65.4995 10.6601 65.4855C10.05 65.4368 9.58011 65.5899 9.20841 65.7778C6.866 67.0444 6.57144 71.9925 6.53638 72.6188C6.5504 73.0851 6.69067 77.1215 8.54215 78.7987C8.68242 78.917 8.82268 79.0214 8.96294 79.1119C9.24347 79.2998 9.524 79.425 9.79752 79.4738C10.043 79.5573 10.2884 79.5921 10.5339 79.5921C10.583 79.5921 10.6181 79.5921 10.6742 79.5781C11.7542 79.5434 12.736 78.917 13.255 78.402L13.4794 78.1793L14.2299 72.1178L14.1948 71.9786L14.2018 71.9716ZM11.8313 77.3373C11.6209 77.4904 11.2703 77.72 10.8916 77.7896C10.6321 77.8731 10.3165 77.8592 10.0219 77.7061C9.93778 77.6574 9.83258 77.6017 9.74141 77.5182C9.56608 77.3442 9.39075 77.1354 9.25049 76.8779V76.864C8.60527 75.7018 8.32474 73.7671 8.28968 72.6536C8.37384 70.7677 8.991 67.8726 10.05 67.3019C10.1201 67.2671 10.2253 67.1975 10.4147 67.1975H10.4497C10.604 67.1975 10.8144 67.2671 11.095 67.4063C11.1441 67.4898 11.2002 67.629 11.2492 67.803C11.4246 68.2693 11.649 69.0139 11.8804 69.849C12.0698 70.6146 12.3012 71.4218 12.4766 72.2013L11.8313 77.3442V77.3373Z" fill="#121417"/>
<path d="M20.2051 72.1943C20.3594 71.7768 20.4295 71.3662 20.4295 70.9625L20.2051 72.1943Z" fill="#121417"/>
<path d="M17.7294 65.2698L17.4489 67.4898L17.3297 68.4781L16.8037 72.6328V72.7024L16.5933 74.296L16.3829 76.008V76.022L16.1935 77.6852V77.6991L15.899 80.0166C15.899 80.0653 15.8849 80.1349 15.8639 80.1906L15.8499 80.2045C15.8499 80.3437 15.8148 80.462 15.7657 80.5873C15.7657 80.5873 15.7657 80.5989 15.7657 80.6221C15.5904 81.1927 15.2608 81.7286 14.8049 82.1114V82.1253C14.7348 82.2088 14.6646 82.2645 14.5805 82.3341C14.0545 82.7516 13.4093 82.9952 12.75 83.03C12.75 83.03 12.7383 83.0346 12.715 83.0439C12.6308 83.0578 12.5396 83.0578 12.4555 83.0578C12.3012 83.0578 12.1609 83.0439 12.0207 83.023C10.099 82.8003 8.73848 81.0675 8.98394 79.1606V79.091C9.26447 79.2789 9.545 79.4042 9.81852 79.4529C10.064 79.5364 10.3094 79.5712 10.5549 79.5712C10.604 79.5712 10.6391 79.5712 10.6952 79.5573C10.6811 80.4202 11.3264 81.1858 12.2311 81.3041C12.6869 81.3528 13.1568 81.2345 13.5215 80.9561C13.8862 80.6638 14.1176 80.2602 14.1667 79.7939L15.0714 72.5214V72.4379L15.9621 65.3742C16.0462 65.3742 16.1514 65.3742 16.2426 65.3603H16.2566C16.467 65.3742 16.6564 65.3603 16.8528 65.3464C16.9369 65.3464 17.0421 65.3464 17.1333 65.3324C17.3437 65.3185 17.5541 65.2976 17.7434 65.2628L17.7294 65.2698Z" fill="#121417"/>
<path d="M19.9104 69.1809C19.8964 69.1322 19.8613 69.0974 19.8262 69.0418L19.3914 68.4711C19.167 68.1927 18.3605 67.3298 17.4558 67.4829L17.3366 68.4711L16.8106 72.6258V72.6954C16.7965 73.4748 16.7965 74.2543 16.7755 75.0337V75.5348C16.7615 76.0219 16.7615 76.4882 16.7615 76.9545L18.9987 74.1151V74.1012L19.7 73.2173C19.9244 72.8903 20.1208 72.5423 20.226 72.1943L20.4504 70.9625V70.9486C20.4504 70.3084 20.2961 69.7029 19.9244 69.1809H19.9104ZM18.2904 72.1943L17.554 73.113C17.6381 72.0412 17.7644 70.4963 17.9046 69.4245C17.9537 69.4593 17.9888 69.508 18.0098 69.5289L18.4306 70.0857C18.8514 70.6424 18.7813 71.5054 18.2904 72.2013V72.1943Z" fill="#121417"/>
<path d="M64.5707 72.4518C63.2943 67.7404 61.5129 63.9823 59.7176 61.1429C59.3879 60.0364 58.371 57.4893 55.6148 54.9631C53.069 52.6247 49.0154 50.2864 42.6474 49.159V45.7837C42.3529 45.8881 42.0723 45.9716 41.7778 46.0412C41.4973 46.1247 41.2027 46.1943 40.9081 46.2639V51.9079L41.6445 51.045C41.6796 50.9962 41.7287 50.9406 41.7848 50.9058V50.7666C41.7848 50.7666 41.869 50.7805 41.904 50.7805C42.1284 50.5717 42.3739 50.4186 42.6544 50.349C42.8789 50.2446 43.1454 50.1959 43.4048 50.1959H43.5942C43.9449 50.2098 44.2745 50.3003 44.569 50.4743C44.9337 50.6483 45.2353 50.9267 45.4597 51.2677C45.5298 51.386 45.614 51.5112 45.6841 51.6156C48.4263 52.3951 50.5723 53.4181 52.2485 54.5107C52.6342 54.7682 52.9849 55.0118 53.3145 55.2762C57.1227 58.1713 57.9923 61.303 58.1115 61.8041C58.1256 61.818 58.1256 61.8389 58.1256 61.8528V84.6097C58.2658 86.1686 57.7959 87.644 56.8492 88.6462C56.4845 89.0289 56.0777 89.3421 55.6078 89.5648C55.0117 89.8571 54.3525 90.0171 53.6371 90.0171H21.3413C19.9106 90.0171 18.5501 89.3908 17.5893 88.3399C16.6495 87.2821 16.1936 85.8624 16.3479 84.4427C16.4321 83.6981 16.5022 82.8838 16.5583 82C16.5934 81.5685 16.6074 81.1371 16.6425 80.6638C16.6425 80.2463 16.6565 79.8009 16.6775 79.3485C16.6916 78.583 16.7126 77.7896 16.7477 76.9754V76.9615C16.7477 76.4952 16.7477 76.0289 16.7617 75.5418V75.0407C16.7757 74.2612 16.7757 73.4818 16.7968 72.7024L16.5864 74.296L16.376 76.008V76.022L16.1866 77.6852V77.6991L15.8921 80.0166C15.8921 80.0653 15.878 80.1349 15.857 80.1906L15.843 80.2045C15.843 80.3437 15.8079 80.462 15.7588 80.5873C15.7588 80.5873 15.7588 80.5989 15.7588 80.6221C15.5835 81.1927 15.2539 81.7286 14.798 82.1114V82.1253C14.798 82.2436 14.798 82.348 14.784 82.4732C14.7699 82.9047 14.7349 83.3223 14.6788 83.705C14.6647 83.8929 14.6437 84.0669 14.6297 84.2409C14.4053 86.1269 15.0154 88.0546 16.2848 89.4743C17.5752 90.9149 19.4267 91.743 21.3483 91.743H53.6511C54.4717 91.743 55.2712 91.5899 55.9935 91.2907H68.1053V90.4277C68.1053 90.219 68.0703 85.3196 64.5777 72.4518H64.5707ZM58.378 89.5648C59.4931 88.2147 60.0331 86.3983 59.8789 84.5402L59.8648 64.901C60.9799 67.1001 62.0459 69.7516 62.9016 72.9042C65.5035 82.5498 66.1487 87.6788 66.303 89.5648H58.378Z" fill="#121417"/>
<path d="M18.2903 72.1943L17.554 73.113C17.6381 72.0412 17.7644 70.4962 17.9046 69.4245C17.9537 69.4593 17.9888 69.508 18.0098 69.5289L18.4306 70.0856C18.8514 70.6424 18.7813 71.5053 18.2903 72.2013V72.1943Z" fill="white"/>
</g>
<defs>
<clipPath id="clip0_412_731">
<rect width="68" height="91" fill="white" transform="translate(0.0981445 0.75)"/>
</clipPath>
</defs>
</svg>
