<svg xmlns="http://www.w3.org/2000/svg" width="current" height="current" viewBox="0 0 24 24" fill="current">
<path fill-rule="evenodd" clip-rule="evenodd" d="M12 22C17.5228 22 22 17.5228 22 12C22 6.47715 17.5228 2 12 2C6.47715 2 2 6.47715 2 12C2 17.5228 6.47715 22 12 22ZM12.726 14.1585H11.1781C11.105 13.6088 11.1005 13.1521 11.1644 12.7884C11.2374 12.4248 11.347 12.1203 11.4932 11.8751C11.6393 11.6214 11.8082 11.4142 12 11.2535C12.2009 11.0844 12.3881 10.9237 12.5616 10.7715C12.7352 10.6108 12.8813 10.4416 13 10.2641C13.1187 10.078 13.1781 9.84966 13.1781 9.57904C13.1781 9.24922 13.0913 8.97437 12.9178 8.75449C12.7443 8.52615 12.4658 8.41198 12.0822 8.41198C11.6986 8.41198 11.3836 8.53461 11.137 8.77986C10.8904 9.02511 10.7489 9.40144 10.7123 9.90886H9C9.03653 9.3507 9.15525 8.88134 9.35616 8.50078C9.56621 8.12022 9.81735 7.81577 10.1096 7.58743C10.411 7.35909 10.7397 7.20264 11.0959 7.11807C11.4521 7.02505 11.7991 6.98699 12.137 7.0039C12.5388 7.02082 12.9132 7.08847 13.2603 7.20687C13.6164 7.31681 13.9224 7.47749 14.1781 7.68892C14.4338 7.89188 14.6347 8.14136 14.7808 8.43735C14.9269 8.73335 15 9.07162 15 9.45219C15 9.90886 14.9315 10.2767 14.7945 10.5558C14.6667 10.8349 14.5068 11.0675 14.3151 11.2535C14.1233 11.4396 13.9178 11.6087 13.6986 11.7609C13.4886 11.9047 13.2968 12.0738 13.1233 12.2683C12.9589 12.4629 12.8356 12.7081 12.7534 13.0041C12.6712 13.2916 12.6621 13.6764 12.726 14.1585ZM12.9452 17H10.9452V15.1987H12.9452V17Z"/>
</svg>