<svg width="121" height="120" viewBox="0 0 121 120" fill="none" xmlns="http://www.w3.org/2000/svg">
<rect x="7.62695" y="35.5" width="39" height="49" fill="#F8F9FA" stroke="#868E96"></rect>
<rect x="47.627" y="35.5" width="39" height="49" fill="#F8F9FA" stroke="#868E96"></rect>
<path d="M55.383 53.292V49.708H55.067V51.168H54.559V49.788H54.251V53.112H54.559V51.44H55.067V53.292H55.383ZM52.843 52.08V50.144H52.515V52.364H52.743C52.9376 52.364 53.139 52.3573 53.347 52.344C53.5576 52.328 53.7843 52.2973 54.027 52.252L53.995 51.968C53.779 52.0107 53.5763 52.04 53.387 52.056C53.2003 52.0693 53.019 52.0773 52.843 52.08ZM59.1826 51.748V51.484H58.3826V50.976C58.5213 50.92 58.628 50.8467 58.7026 50.756C58.78 50.6653 58.8186 50.56 58.8186 50.44C58.8186 50.336 58.7893 50.2427 58.7306 50.16C58.672 50.0773 58.588 50.008 58.4786 49.952C58.372 49.8933 58.24 49.8493 58.0826 49.82C57.928 49.788 57.7533 49.772 57.5586 49.772C57.364 49.772 57.1893 49.788 57.0346 49.82C56.88 49.8493 56.748 49.8933 56.6386 49.952C56.5293 50.008 56.4453 50.0773 56.3866 50.16C56.328 50.2427 56.2986 50.336 56.2986 50.44C56.2986 50.6827 56.4453 50.8627 56.7386 50.98V51.484H55.9346V51.748H59.1826ZM56.6346 50.44C56.6346 50.3093 56.716 50.208 56.8786 50.136C57.0413 50.064 57.268 50.028 57.5586 50.028C57.8493 50.028 58.076 50.064 58.2386 50.136C58.4013 50.208 58.4826 50.3093 58.4826 50.44C58.4826 50.568 58.4013 50.6693 58.2386 50.744C58.076 50.816 57.8493 50.852 57.5586 50.852C57.268 50.852 57.0413 50.816 56.8786 50.744C56.716 50.6693 56.6346 50.568 56.6346 50.44ZM58.0586 51.484H57.0626V51.064C57.1373 51.0773 57.216 51.088 57.2986 51.096C57.3813 51.1013 57.468 51.104 57.5586 51.104C57.6546 51.104 57.744 51.1013 57.8266 51.096C57.912 51.088 57.9893 51.0773 58.0586 51.064V51.484ZM57.5586 52.016C57.1746 52.016 56.8733 52.072 56.6546 52.184C56.4386 52.2933 56.3306 52.4507 56.3306 52.656C56.3306 52.8613 56.4386 53.0187 56.6546 53.128C56.8733 53.2373 57.1746 53.292 57.5586 53.292C57.9453 53.292 58.2466 53.2373 58.4626 53.128C58.6786 53.0187 58.7866 52.8613 58.7866 52.656C58.7866 52.4507 58.6786 52.2933 58.4626 52.184C58.2466 52.072 57.9453 52.016 57.5586 52.016ZM57.5586 53.04C57.276 53.04 57.056 53.0067 56.8986 52.94C56.7413 52.8733 56.6626 52.7787 56.6626 52.656C56.6626 52.5333 56.7413 52.4387 56.8986 52.372C57.056 52.3053 57.276 52.272 57.5586 52.272C57.8413 52.272 58.0613 52.3053 58.2186 52.372C58.376 52.4387 58.4546 52.5333 58.4546 52.656C58.4546 52.7787 58.376 52.8733 58.2186 52.94C58.0613 53.0067 57.8413 53.04 57.5586 53.04ZM62.4823 51.636V49.712H62.1543V51.636H62.4823ZM60.5543 49.88C60.4183 49.88 60.293 49.9 60.1783 49.94C60.0663 49.98 59.969 50.036 59.8863 50.108C59.8037 50.18 59.7383 50.2667 59.6903 50.368C59.645 50.4693 59.6223 50.5813 59.6223 50.704C59.6223 50.8267 59.645 50.94 59.6903 51.044C59.7383 51.1453 59.8037 51.232 59.8863 51.304C59.969 51.376 60.0663 51.432 60.1783 51.472C60.293 51.512 60.4183 51.532 60.5543 51.532C60.6903 51.532 60.8157 51.512 60.9303 51.472C61.045 51.432 61.1437 51.376 61.2263 51.304C61.3117 51.232 61.377 51.1453 61.4223 51.044C61.4703 50.94 61.4943 50.8267 61.4943 50.704C61.4943 50.5813 61.4703 50.4693 61.4223 50.368C61.377 50.2667 61.3117 50.18 61.2263 50.108C61.1437 50.036 61.045 49.98 60.9303 49.94C60.8157 49.9 60.6903 49.88 60.5543 49.88ZM60.5543 50.152C60.645 50.152 60.7277 50.1653 60.8023 50.192C60.8797 50.2187 60.945 50.2573 60.9983 50.308C61.0543 50.356 61.097 50.4147 61.1263 50.484C61.1583 50.5507 61.1743 50.624 61.1743 50.704C61.1743 50.872 61.117 51.0067 61.0023 51.108C60.8877 51.2093 60.7383 51.26 60.5543 51.26C60.4663 51.26 60.3837 51.2467 60.3063 51.22C60.2317 51.1933 60.1677 51.156 60.1143 51.108C60.061 51.0573 60.0183 50.9987 59.9863 50.932C59.957 50.8627 59.9423 50.7867 59.9423 50.704C59.9423 50.624 59.957 50.5507 59.9863 50.484C60.0183 50.4147 60.061 50.356 60.1143 50.308C60.1677 50.2573 60.2317 50.2187 60.3063 50.192C60.3837 50.1653 60.4663 50.152 60.5543 50.152ZM60.4943 52.252V51.812H60.1703V53.248H62.4823V51.812H62.1583V52.252H60.4943ZM62.1583 52.984H60.4943V52.508H62.1583V52.984ZM66.078 53.292V49.708H65.75V53.292H66.078ZM63.69 52.088V50.056H63.362V52.368H63.658C63.946 52.368 64.2327 52.356 64.518 52.332C64.8033 52.308 65.1033 52.264 65.418 52.2L65.382 51.92C65.0833 51.9813 64.7953 52.0253 64.518 52.052C64.2407 52.076 63.9647 52.088 63.69 52.088ZM69.4977 51.396H70.0897V51.124H69.4977V49.708H69.1697V53.304H69.4977V51.396ZM67.2177 52.128V50.324H68.5577V50.052H66.8897V52.408H67.1737C67.3417 52.408 67.499 52.4067 67.6457 52.404C67.7924 52.4013 67.9337 52.396 68.0697 52.388C68.2057 52.3773 68.339 52.364 68.4697 52.348C68.6004 52.3293 68.7337 52.3067 68.8697 52.28L68.8337 52.008C68.7057 52.032 68.579 52.052 68.4537 52.068C68.3284 52.084 68.2004 52.096 68.0697 52.104C67.9417 52.112 67.807 52.1187 67.6657 52.124C67.527 52.1267 67.3777 52.128 67.2177 52.128ZM70.6574 52.68H70.2934V53.056H70.6574V52.68ZM74.2233 53.292V49.708H73.9073V51.168H73.3993V49.788H73.0913V53.112H73.3993V51.44H73.9073V53.292H74.2233ZM71.6833 52.08V50.144H71.3553V52.364H71.5833C71.7779 52.364 71.9793 52.3573 72.1873 52.344C72.3979 52.328 72.6246 52.2973 72.8673 52.252L72.8353 51.968C72.6193 52.0107 72.4166 52.04 72.2273 52.056C72.0406 52.0693 71.8593 52.0773 71.6833 52.08ZM78.023 51.748V51.484H77.223V50.976C77.3616 50.92 77.4683 50.8467 77.543 50.756C77.6203 50.6653 77.659 50.56 77.659 50.44C77.659 50.336 77.6296 50.2427 77.571 50.16C77.5123 50.0773 77.4283 50.008 77.319 49.952C77.2123 49.8933 77.0803 49.8493 76.923 49.82C76.7683 49.788 76.5936 49.772 76.399 49.772C76.2043 49.772 76.0296 49.788 75.875 49.82C75.7203 49.8493 75.5883 49.8933 75.479 49.952C75.3696 50.008 75.2856 50.0773 75.227 50.16C75.1683 50.2427 75.139 50.336 75.139 50.44C75.139 50.6827 75.2856 50.8627 75.579 50.98V51.484H74.775V51.748H78.023ZM75.475 50.44C75.475 50.3093 75.5563 50.208 75.719 50.136C75.8816 50.064 76.1083 50.028 76.399 50.028C76.6896 50.028 76.9163 50.064 77.079 50.136C77.2416 50.208 77.323 50.3093 77.323 50.44C77.323 50.568 77.2416 50.6693 77.079 50.744C76.9163 50.816 76.6896 50.852 76.399 50.852C76.1083 50.852 75.8816 50.816 75.719 50.744C75.5563 50.6693 75.475 50.568 75.475 50.44ZM76.899 51.484H75.903V51.064C75.9776 51.0773 76.0563 51.088 76.139 51.096C76.2216 51.1013 76.3083 51.104 76.399 51.104C76.495 51.104 76.5843 51.1013 76.667 51.096C76.7523 51.088 76.8296 51.0773 76.899 51.064V51.484ZM76.399 52.016C76.015 52.016 75.7136 52.072 75.495 52.184C75.279 52.2933 75.171 52.4507 75.171 52.656C75.171 52.8613 75.279 53.0187 75.495 53.128C75.7136 53.2373 76.015 53.292 76.399 53.292C76.7856 53.292 77.087 53.2373 77.303 53.128C77.519 53.0187 77.627 52.8613 77.627 52.656C77.627 52.4507 77.519 52.2933 77.303 52.184C77.087 52.072 76.7856 52.016 76.399 52.016ZM76.399 53.04C76.1163 53.04 75.8963 53.0067 75.739 52.94C75.5816 52.8733 75.503 52.7787 75.503 52.656C75.503 52.5333 75.5816 52.4387 75.739 52.372C75.8963 52.3053 76.1163 52.272 76.399 52.272C76.6816 52.272 76.9016 52.3053 77.059 52.372C77.2163 52.4387 77.295 52.5333 77.295 52.656C77.295 52.7787 77.2163 52.8733 77.059 52.94C76.9016 53.0067 76.6816 53.04 76.399 53.04ZM81.3226 51.636V49.712H80.9946V51.636H81.3226ZM79.3946 49.88C79.2586 49.88 79.1333 49.9 79.0186 49.94C78.9066 49.98 78.8093 50.036 78.7266 50.108C78.644 50.18 78.5786 50.2667 78.5306 50.368C78.4853 50.4693 78.4626 50.5813 78.4626 50.704C78.4626 50.8267 78.4853 50.94 78.5306 51.044C78.5786 51.1453 78.644 51.232 78.7266 51.304C78.8093 51.376 78.9066 51.432 79.0186 51.472C79.1333 51.512 79.2586 51.532 79.3946 51.532C79.5306 51.532 79.656 51.512 79.7706 51.472C79.8853 51.432 79.984 51.376 80.0666 51.304C80.152 51.232 80.2173 51.1453 80.2626 51.044C80.3106 50.94 80.3346 50.8267 80.3346 50.704C80.3346 50.5813 80.3106 50.4693 80.2626 50.368C80.2173 50.2667 80.152 50.18 80.0666 50.108C79.984 50.036 79.8853 49.98 79.7706 49.94C79.656 49.9 79.5306 49.88 79.3946 49.88ZM79.3946 50.152C79.4853 50.152 79.568 50.1653 79.6426 50.192C79.72 50.2187 79.7853 50.2573 79.8386 50.308C79.8946 50.356 79.9373 50.4147 79.9666 50.484C79.9986 50.5507 80.0146 50.624 80.0146 50.704C80.0146 50.872 79.9573 51.0067 79.8426 51.108C79.728 51.2093 79.5786 51.26 79.3946 51.26C79.3066 51.26 79.224 51.2467 79.1466 51.22C79.072 51.1933 79.008 51.156 78.9546 51.108C78.9013 51.0573 78.8586 50.9987 78.8266 50.932C78.7973 50.8627 78.7826 50.7867 78.7826 50.704C78.7826 50.624 78.7973 50.5507 78.8266 50.484C78.8586 50.4147 78.9013 50.356 78.9546 50.308C79.008 50.2573 79.072 50.2187 79.1466 50.192C79.224 50.1653 79.3066 50.152 79.3946 50.152ZM79.3346 52.252V51.812H79.0106V53.248H81.3226V51.812H80.9986V52.252H79.3346ZM80.9986 52.984H79.3346V52.508H80.9986V52.984ZM55.279 59.292V55.708H54.951V59.292H55.279ZM52.891 58.088V56.056H52.563V58.368H52.859C53.147 58.368 53.4336 58.356 53.719 58.332C54.0043 58.308 54.3043 58.264 54.619 58.2L54.583 57.92C54.2843 57.9813 53.9963 58.0253 53.719 58.052C53.4416 58.076 53.1656 58.088 52.891 58.088ZM58.6986 57.396H59.2906V57.124H58.6986V55.708H58.3706V59.304H58.6986V57.396ZM56.4186 58.128V56.324H57.7586V56.052H56.0906V58.408H56.3746C56.5426 58.408 56.7 58.4067 56.8466 58.404C56.9933 58.4013 57.1346 58.396 57.2706 58.388C57.4066 58.3773 57.54 58.364 57.6706 58.348C57.8013 58.3293 57.9346 58.3067 58.0706 58.28L58.0346 58.008C57.9066 58.032 57.78 58.052 57.6546 58.068C57.5293 58.084 57.4013 58.096 57.2706 58.104C57.1426 58.112 57.008 58.1187 56.8666 58.124C56.728 58.1267 56.5786 58.128 56.4186 58.128ZM59.8583 58.68H59.4943V59.056H59.8583V58.68ZM63.4242 59.292V55.708H63.1082V57.168H62.6002V55.788H62.2922V59.112H62.6002V57.44H63.1082V59.292H63.4242ZM60.8842 58.08V56.144H60.5562V58.364H60.7842C60.9789 58.364 61.1802 58.3573 61.3882 58.344C61.5989 58.328 61.8255 58.2973 62.0682 58.252L62.0362 57.968C61.8202 58.0107 61.6175 58.04 61.4282 58.056C61.2415 58.0693 61.0602 58.0773 60.8842 58.08ZM67.2239 57.748V57.484H66.4239V56.976C66.5626 56.92 66.6692 56.8467 66.7439 56.756C66.8212 56.6653 66.8599 56.56 66.8599 56.44C66.8599 56.336 66.8306 56.2427 66.7719 56.16C66.7132 56.0773 66.6292 56.008 66.5199 55.952C66.4132 55.8933 66.2812 55.8493 66.1239 55.82C65.9692 55.788 65.7946 55.772 65.5999 55.772C65.4052 55.772 65.2306 55.788 65.0759 55.82C64.9212 55.8493 64.7892 55.8933 64.6799 55.952C64.5706 56.008 64.4866 56.0773 64.4279 56.16C64.3692 56.2427 64.3399 56.336 64.3399 56.44C64.3399 56.6827 64.4866 56.8627 64.7799 56.98V57.484H63.9759V57.748H67.2239ZM64.6759 56.44C64.6759 56.3093 64.7572 56.208 64.9199 56.136C65.0826 56.064 65.3092 56.028 65.5999 56.028C65.8906 56.028 66.1172 56.064 66.2799 56.136C66.4426 56.208 66.5239 56.3093 66.5239 56.44C66.5239 56.568 66.4426 56.6693 66.2799 56.744C66.1172 56.816 65.8906 56.852 65.5999 56.852C65.3092 56.852 65.0826 56.816 64.9199 56.744C64.7572 56.6693 64.6759 56.568 64.6759 56.44ZM66.0999 57.484H65.1039V57.064C65.1786 57.0773 65.2572 57.088 65.3399 57.096C65.4226 57.1013 65.5092 57.104 65.5999 57.104C65.6959 57.104 65.7852 57.1013 65.8679 57.096C65.9532 57.088 66.0306 57.0773 66.0999 57.064V57.484ZM65.5999 58.016C65.2159 58.016 64.9146 58.072 64.6959 58.184C64.4799 58.2933 64.3719 58.4507 64.3719 58.656C64.3719 58.8613 64.4799 59.0187 64.6959 59.128C64.9146 59.2373 65.2159 59.292 65.5999 59.292C65.9866 59.292 66.2879 59.2373 66.5039 59.128C66.7199 59.0187 66.8279 58.8613 66.8279 58.656C66.8279 58.4507 66.7199 58.2933 66.5039 58.184C66.2879 58.072 65.9866 58.016 65.5999 58.016ZM65.5999 59.04C65.3172 59.04 65.0972 59.0067 64.9399 58.94C64.7826 58.8733 64.7039 58.7787 64.7039 58.656C64.7039 58.5333 64.7826 58.4387 64.9399 58.372C65.0972 58.3053 65.3172 58.272 65.5999 58.272C65.8826 58.272 66.1026 58.3053 66.2599 58.372C66.4172 58.4387 66.4959 58.5333 66.4959 58.656C66.4959 58.7787 66.4172 58.8733 66.2599 58.94C66.1026 59.0067 65.8826 59.04 65.5999 59.04ZM70.5236 57.636V55.712H70.1956V57.636H70.5236ZM68.5956 55.88C68.4596 55.88 68.3342 55.9 68.2196 55.94C68.1076 55.98 68.0102 56.036 67.9276 56.108C67.8449 56.18 67.7796 56.2667 67.7316 56.368C67.6862 56.4693 67.6636 56.5813 67.6636 56.704C67.6636 56.8267 67.6862 56.94 67.7316 57.044C67.7796 57.1453 67.8449 57.232 67.9276 57.304C68.0102 57.376 68.1076 57.432 68.2196 57.472C68.3342 57.512 68.4596 57.532 68.5956 57.532C68.7316 57.532 68.8569 57.512 68.9716 57.472C69.0862 57.432 69.1849 57.376 69.2676 57.304C69.3529 57.232 69.4182 57.1453 69.4636 57.044C69.5116 56.94 69.5356 56.8267 69.5356 56.704C69.5356 56.5813 69.5116 56.4693 69.4636 56.368C69.4182 56.2667 69.3529 56.18 69.2676 56.108C69.1849 56.036 69.0862 55.98 68.9716 55.94C68.8569 55.9 68.7316 55.88 68.5956 55.88ZM68.5956 56.152C68.6862 56.152 68.7689 56.1653 68.8436 56.192C68.9209 56.2187 68.9862 56.2573 69.0396 56.308C69.0956 56.356 69.1382 56.4147 69.1676 56.484C69.1996 56.5507 69.2156 56.624 69.2156 56.704C69.2156 56.872 69.1582 57.0067 69.0436 57.108C68.9289 57.2093 68.7796 57.26 68.5956 57.26C68.5076 57.26 68.4249 57.2467 68.3476 57.22C68.2729 57.1933 68.2089 57.156 68.1556 57.108C68.1022 57.0573 68.0596 56.9987 68.0276 56.932C67.9982 56.8627 67.9836 56.7867 67.9836 56.704C67.9836 56.624 67.9982 56.5507 68.0276 56.484C68.0596 56.4147 68.1022 56.356 68.1556 56.308C68.2089 56.2573 68.2729 56.2187 68.3476 56.192C68.4249 56.1653 68.5076 56.152 68.5956 56.152ZM68.5356 58.252V57.812H68.2116V59.248H70.5236V57.812H70.1996V58.252H68.5356ZM70.1996 58.984H68.5356V58.508H70.1996V58.984ZM74.1193 59.292V55.708H73.7913V59.292H74.1193ZM71.7313 58.088V56.056H71.4033V58.368H71.6993C71.9873 58.368 72.2739 58.356 72.5593 58.332C72.8446 58.308 73.1446 58.264 73.4593 58.2L73.4233 57.92C73.1246 57.9813 72.8366 58.0253 72.5593 58.052C72.2819 58.076 72.0059 58.088 71.7313 58.088ZM77.539 57.396H78.131V57.124H77.539V55.708H77.211V59.304H77.539V57.396ZM75.259 58.128V56.324H76.599V56.052H74.931V58.408H75.215C75.383 58.408 75.5403 58.4067 75.687 58.404C75.8336 58.4013 75.975 58.396 76.111 58.388C76.247 58.3773 76.3803 58.364 76.511 58.348C76.6416 58.3293 76.775 58.3067 76.911 58.28L76.875 58.008C76.747 58.032 76.6203 58.052 76.495 58.068C76.3696 58.084 76.2416 58.096 76.111 58.104C75.983 58.112 75.8483 58.1187 75.707 58.124C75.5683 58.1267 75.419 58.128 75.259 58.128ZM78.6986 58.68H78.3346V59.056H78.6986V58.68ZM55.383 65.292V61.708H55.067V63.168H54.559V61.788H54.251V65.112H54.559V63.44H55.067V65.292H55.383ZM52.843 64.08V62.144H52.515V64.364H52.743C52.9376 64.364 53.139 64.3573 53.347 64.344C53.5576 64.328 53.7843 64.2973 54.027 64.252L53.995 63.968C53.779 64.0107 53.5763 64.04 53.387 64.056C53.2003 64.0693 53.019 64.0773 52.843 64.08ZM59.1826 63.748V63.484H58.3826V62.976C58.5213 62.92 58.628 62.8467 58.7026 62.756C58.78 62.6653 58.8186 62.56 58.8186 62.44C58.8186 62.336 58.7893 62.2427 58.7306 62.16C58.672 62.0773 58.588 62.008 58.4786 61.952C58.372 61.8933 58.24 61.8493 58.0826 61.82C57.928 61.788 57.7533 61.772 57.5586 61.772C57.364 61.772 57.1893 61.788 57.0346 61.82C56.88 61.8493 56.748 61.8933 56.6386 61.952C56.5293 62.008 56.4453 62.0773 56.3866 62.16C56.328 62.2427 56.2986 62.336 56.2986 62.44C56.2986 62.6827 56.4453 62.8627 56.7386 62.98V63.484H55.9346V63.748H59.1826ZM56.6346 62.44C56.6346 62.3093 56.716 62.208 56.8786 62.136C57.0413 62.064 57.268 62.028 57.5586 62.028C57.8493 62.028 58.076 62.064 58.2386 62.136C58.4013 62.208 58.4826 62.3093 58.4826 62.44C58.4826 62.568 58.4013 62.6693 58.2386 62.744C58.076 62.816 57.8493 62.852 57.5586 62.852C57.268 62.852 57.0413 62.816 56.8786 62.744C56.716 62.6693 56.6346 62.568 56.6346 62.44ZM58.0586 63.484H57.0626V63.064C57.1373 63.0773 57.216 63.088 57.2986 63.096C57.3813 63.1013 57.468 63.104 57.5586 63.104C57.6546 63.104 57.744 63.1013 57.8266 63.096C57.912 63.088 57.9893 63.0773 58.0586 63.064V63.484ZM57.5586 64.016C57.1746 64.016 56.8733 64.072 56.6546 64.184C56.4386 64.2933 56.3306 64.4507 56.3306 64.656C56.3306 64.8613 56.4386 65.0187 56.6546 65.128C56.8733 65.2373 57.1746 65.292 57.5586 65.292C57.9453 65.292 58.2466 65.2373 58.4626 65.128C58.6786 65.0187 58.7866 64.8613 58.7866 64.656C58.7866 64.4507 58.6786 64.2933 58.4626 64.184C58.2466 64.072 57.9453 64.016 57.5586 64.016ZM57.5586 65.04C57.276 65.04 57.056 65.0067 56.8986 64.94C56.7413 64.8733 56.6626 64.7787 56.6626 64.656C56.6626 64.5333 56.7413 64.4387 56.8986 64.372C57.056 64.3053 57.276 64.272 57.5586 64.272C57.8413 64.272 58.0613 64.3053 58.2186 64.372C58.376 64.4387 58.4546 64.5333 58.4546 64.656C58.4546 64.7787 58.376 64.8733 58.2186 64.94C58.0613 65.0067 57.8413 65.04 57.5586 65.04ZM62.4823 63.636V61.712H62.1543V63.636H62.4823ZM60.5543 61.88C60.4183 61.88 60.293 61.9 60.1783 61.94C60.0663 61.98 59.969 62.036 59.8863 62.108C59.8037 62.18 59.7383 62.2667 59.6903 62.368C59.645 62.4693 59.6223 62.5813 59.6223 62.704C59.6223 62.8267 59.645 62.94 59.6903 63.044C59.7383 63.1453 59.8037 63.232 59.8863 63.304C59.969 63.376 60.0663 63.432 60.1783 63.472C60.293 63.512 60.4183 63.532 60.5543 63.532C60.6903 63.532 60.8157 63.512 60.9303 63.472C61.045 63.432 61.1437 63.376 61.2263 63.304C61.3117 63.232 61.377 63.1453 61.4223 63.044C61.4703 62.94 61.4943 62.8267 61.4943 62.704C61.4943 62.5813 61.4703 62.4693 61.4223 62.368C61.377 62.2667 61.3117 62.18 61.2263 62.108C61.1437 62.036 61.045 61.98 60.9303 61.94C60.8157 61.9 60.6903 61.88 60.5543 61.88ZM60.5543 62.152C60.645 62.152 60.7277 62.1653 60.8023 62.192C60.8797 62.2187 60.945 62.2573 60.9983 62.308C61.0543 62.356 61.097 62.4147 61.1263 62.484C61.1583 62.5507 61.1743 62.624 61.1743 62.704C61.1743 62.872 61.117 63.0067 61.0023 63.108C60.8877 63.2093 60.7383 63.26 60.5543 63.26C60.4663 63.26 60.3837 63.2467 60.3063 63.22C60.2317 63.1933 60.1677 63.156 60.1143 63.108C60.061 63.0573 60.0183 62.9987 59.9863 62.932C59.957 62.8627 59.9423 62.7867 59.9423 62.704C59.9423 62.624 59.957 62.5507 59.9863 62.484C60.0183 62.4147 60.061 62.356 60.1143 62.308C60.1677 62.2573 60.2317 62.2187 60.3063 62.192C60.3837 62.1653 60.4663 62.152 60.5543 62.152ZM60.4943 64.252V63.812H60.1703V65.248H62.4823V63.812H62.1583V64.252H60.4943ZM62.1583 64.984H60.4943V64.508H62.1583V64.984ZM66.078 65.292V61.708H65.75V65.292H66.078ZM63.69 64.088V62.056H63.362V64.368H63.658C63.946 64.368 64.2327 64.356 64.518 64.332C64.8033 64.308 65.1033 64.264 65.418 64.2L65.382 63.92C65.0833 63.9813 64.7953 64.0253 64.518 64.052C64.2407 64.076 63.9647 64.088 63.69 64.088ZM69.4977 63.396H70.0897V63.124H69.4977V61.708H69.1697V65.304H69.4977V63.396ZM67.2177 64.128V62.324H68.5577V62.052H66.8897V64.408H67.1737C67.3417 64.408 67.499 64.4067 67.6457 64.404C67.7924 64.4013 67.9337 64.396 68.0697 64.388C68.2057 64.3773 68.339 64.364 68.4697 64.348C68.6004 64.3293 68.7337 64.3067 68.8697 64.28L68.8337 64.008C68.7057 64.032 68.579 64.052 68.4537 64.068C68.3284 64.084 68.2004 64.096 68.0697 64.104C67.9417 64.112 67.807 64.1187 67.6657 64.124C67.527 64.1267 67.3777 64.128 67.2177 64.128ZM70.6574 64.68H70.2934V65.056H70.6574V64.68ZM74.2233 65.292V61.708H73.9073V63.168H73.3993V61.788H73.0913V65.112H73.3993V63.44H73.9073V65.292H74.2233ZM71.6833 64.08V62.144H71.3553V64.364H71.5833C71.7779 64.364 71.9793 64.3573 72.1873 64.344C72.3979 64.328 72.6246 64.2973 72.8673 64.252L72.8353 63.968C72.6193 64.0107 72.4166 64.04 72.2273 64.056C72.0406 64.0693 71.8593 64.0773 71.6833 64.08ZM78.023 63.748V63.484H77.223V62.976C77.3616 62.92 77.4683 62.8467 77.543 62.756C77.6203 62.6653 77.659 62.56 77.659 62.44C77.659 62.336 77.6296 62.2427 77.571 62.16C77.5123 62.0773 77.4283 62.008 77.319 61.952C77.2123 61.8933 77.0803 61.8493 76.923 61.82C76.7683 61.788 76.5936 61.772 76.399 61.772C76.2043 61.772 76.0296 61.788 75.875 61.82C75.7203 61.8493 75.5883 61.8933 75.479 61.952C75.3696 62.008 75.2856 62.0773 75.227 62.16C75.1683 62.2427 75.139 62.336 75.139 62.44C75.139 62.6827 75.2856 62.8627 75.579 62.98V63.484H74.775V63.748H78.023ZM75.475 62.44C75.475 62.3093 75.5563 62.208 75.719 62.136C75.8816 62.064 76.1083 62.028 76.399 62.028C76.6896 62.028 76.9163 62.064 77.079 62.136C77.2416 62.208 77.323 62.3093 77.323 62.44C77.323 62.568 77.2416 62.6693 77.079 62.744C76.9163 62.816 76.6896 62.852 76.399 62.852C76.1083 62.852 75.8816 62.816 75.719 62.744C75.5563 62.6693 75.475 62.568 75.475 62.44ZM76.899 63.484H75.903V63.064C75.9776 63.0773 76.0563 63.088 76.139 63.096C76.2216 63.1013 76.3083 63.104 76.399 63.104C76.495 63.104 76.5843 63.1013 76.667 63.096C76.7523 63.088 76.8296 63.0773 76.899 63.064V63.484ZM76.399 64.016C76.015 64.016 75.7136 64.072 75.495 64.184C75.279 64.2933 75.171 64.4507 75.171 64.656C75.171 64.8613 75.279 65.0187 75.495 65.128C75.7136 65.2373 76.015 65.292 76.399 65.292C76.7856 65.292 77.087 65.2373 77.303 65.128C77.519 65.0187 77.627 64.8613 77.627 64.656C77.627 64.4507 77.519 64.2933 77.303 64.184C77.087 64.072 76.7856 64.016 76.399 64.016ZM76.399 65.04C76.1163 65.04 75.8963 65.0067 75.739 64.94C75.5816 64.8733 75.503 64.7787 75.503 64.656C75.503 64.5333 75.5816 64.4387 75.739 64.372C75.8963 64.3053 76.1163 64.272 76.399 64.272C76.6816 64.272 76.9016 64.3053 77.059 64.372C77.2163 64.4387 77.295 64.5333 77.295 64.656C77.295 64.7787 77.2163 64.8733 77.059 64.94C76.9016 65.0067 76.6816 65.04 76.399 65.04ZM81.3226 63.636V61.712H80.9946V63.636H81.3226ZM79.3946 61.88C79.2586 61.88 79.1333 61.9 79.0186 61.94C78.9066 61.98 78.8093 62.036 78.7266 62.108C78.644 62.18 78.5786 62.2667 78.5306 62.368C78.4853 62.4693 78.4626 62.5813 78.4626 62.704C78.4626 62.8267 78.4853 62.94 78.5306 63.044C78.5786 63.1453 78.644 63.232 78.7266 63.304C78.8093 63.376 78.9066 63.432 79.0186 63.472C79.1333 63.512 79.2586 63.532 79.3946 63.532C79.5306 63.532 79.656 63.512 79.7706 63.472C79.8853 63.432 79.984 63.376 80.0666 63.304C80.152 63.232 80.2173 63.1453 80.2626 63.044C80.3106 62.94 80.3346 62.8267 80.3346 62.704C80.3346 62.5813 80.3106 62.4693 80.2626 62.368C80.2173 62.2667 80.152 62.18 80.0666 62.108C79.984 62.036 79.8853 61.98 79.7706 61.94C79.656 61.9 79.5306 61.88 79.3946 61.88ZM79.3946 62.152C79.4853 62.152 79.568 62.1653 79.6426 62.192C79.72 62.2187 79.7853 62.2573 79.8386 62.308C79.8946 62.356 79.9373 62.4147 79.9666 62.484C79.9986 62.5507 80.0146 62.624 80.0146 62.704C80.0146 62.872 79.9573 63.0067 79.8426 63.108C79.728 63.2093 79.5786 63.26 79.3946 63.26C79.3066 63.26 79.224 63.2467 79.1466 63.22C79.072 63.1933 79.008 63.156 78.9546 63.108C78.9013 63.0573 78.8586 62.9987 78.8266 62.932C78.7973 62.8627 78.7826 62.7867 78.7826 62.704C78.7826 62.624 78.7973 62.5507 78.8266 62.484C78.8586 62.4147 78.9013 62.356 78.9546 62.308C79.008 62.2573 79.072 62.2187 79.1466 62.192C79.224 62.1653 79.3066 62.152 79.3946 62.152ZM79.3346 64.252V63.812H79.0106V65.248H81.3226V63.812H80.9986V64.252H79.3346ZM80.9986 64.984H79.3346V64.508H80.9986V64.984ZM55.279 71.292V67.708H54.951V71.292H55.279ZM52.891 70.088V68.056H52.563V70.368H52.859C53.147 70.368 53.4336 70.356 53.719 70.332C54.0043 70.308 54.3043 70.264 54.619 70.2L54.583 69.92C54.2843 69.9813 53.9963 70.0253 53.719 70.052C53.4416 70.076 53.1656 70.088 52.891 70.088ZM58.6986 69.396H59.2906V69.124H58.6986V67.708H58.3706V71.304H58.6986V69.396ZM56.4186 70.128V68.324H57.7586V68.052H56.0906V70.408H56.3746C56.5426 70.408 56.7 70.4067 56.8466 70.404C56.9933 70.4013 57.1346 70.396 57.2706 70.388C57.4066 70.3773 57.54 70.364 57.6706 70.348C57.8013 70.3293 57.9346 70.3067 58.0706 70.28L58.0346 70.008C57.9066 70.032 57.78 70.052 57.6546 70.068C57.5293 70.084 57.4013 70.096 57.2706 70.104C57.1426 70.112 57.008 70.1187 56.8666 70.124C56.728 70.1267 56.5786 70.128 56.4186 70.128ZM59.8583 70.68H59.4943V71.056H59.8583V70.68ZM63.4242 71.292V67.708H63.1082V69.168H62.6002V67.788H62.2922V71.112H62.6002V69.44H63.1082V71.292H63.4242ZM60.8842 70.08V68.144H60.5562V70.364H60.7842C60.9789 70.364 61.1802 70.3573 61.3882 70.344C61.5989 70.328 61.8255 70.2973 62.0682 70.252L62.0362 69.968C61.8202 70.0107 61.6175 70.04 61.4282 70.056C61.2415 70.0693 61.0602 70.0773 60.8842 70.08ZM67.2239 69.748V69.484H66.4239V68.976C66.5626 68.92 66.6692 68.8467 66.7439 68.756C66.8212 68.6653 66.8599 68.56 66.8599 68.44C66.8599 68.336 66.8306 68.2427 66.7719 68.16C66.7132 68.0773 66.6292 68.008 66.5199 67.952C66.4132 67.8933 66.2812 67.8493 66.1239 67.82C65.9692 67.788 65.7946 67.772 65.5999 67.772C65.4052 67.772 65.2306 67.788 65.0759 67.82C64.9212 67.8493 64.7892 67.8933 64.6799 67.952C64.5706 68.008 64.4866 68.0773 64.4279 68.16C64.3692 68.2427 64.3399 68.336 64.3399 68.44C64.3399 68.6827 64.4866 68.8627 64.7799 68.98V69.484H63.9759V69.748H67.2239ZM64.6759 68.44C64.6759 68.3093 64.7572 68.208 64.9199 68.136C65.0826 68.064 65.3092 68.028 65.5999 68.028C65.8906 68.028 66.1172 68.064 66.2799 68.136C66.4426 68.208 66.5239 68.3093 66.5239 68.44C66.5239 68.568 66.4426 68.6693 66.2799 68.744C66.1172 68.816 65.8906 68.852 65.5999 68.852C65.3092 68.852 65.0826 68.816 64.9199 68.744C64.7572 68.6693 64.6759 68.568 64.6759 68.44ZM66.0999 69.484H65.1039V69.064C65.1786 69.0773 65.2572 69.088 65.3399 69.096C65.4226 69.1013 65.5092 69.104 65.5999 69.104C65.6959 69.104 65.7852 69.1013 65.8679 69.096C65.9532 69.088 66.0306 69.0773 66.0999 69.064V69.484ZM65.5999 70.016C65.2159 70.016 64.9146 70.072 64.6959 70.184C64.4799 70.2933 64.3719 70.4507 64.3719 70.656C64.3719 70.8613 64.4799 71.0187 64.6959 71.128C64.9146 71.2373 65.2159 71.292 65.5999 71.292C65.9866 71.292 66.2879 71.2373 66.5039 71.128C66.7199 71.0187 66.8279 70.8613 66.8279 70.656C66.8279 70.4507 66.7199 70.2933 66.5039 70.184C66.2879 70.072 65.9866 70.016 65.5999 70.016ZM65.5999 71.04C65.3172 71.04 65.0972 71.0067 64.9399 70.94C64.7826 70.8733 64.7039 70.7787 64.7039 70.656C64.7039 70.5333 64.7826 70.4387 64.9399 70.372C65.0972 70.3053 65.3172 70.272 65.5999 70.272C65.8826 70.272 66.1026 70.3053 66.2599 70.372C66.4172 70.4387 66.4959 70.5333 66.4959 70.656C66.4959 70.7787 66.4172 70.8733 66.2599 70.94C66.1026 71.0067 65.8826 71.04 65.5999 71.04ZM70.5236 69.636V67.712H70.1956V69.636H70.5236ZM68.5956 67.88C68.4596 67.88 68.3342 67.9 68.2196 67.94C68.1076 67.98 68.0102 68.036 67.9276 68.108C67.8449 68.18 67.7796 68.2667 67.7316 68.368C67.6862 68.4693 67.6636 68.5813 67.6636 68.704C67.6636 68.8267 67.6862 68.94 67.7316 69.044C67.7796 69.1453 67.8449 69.232 67.9276 69.304C68.0102 69.376 68.1076 69.432 68.2196 69.472C68.3342 69.512 68.4596 69.532 68.5956 69.532C68.7316 69.532 68.8569 69.512 68.9716 69.472C69.0862 69.432 69.1849 69.376 69.2676 69.304C69.3529 69.232 69.4182 69.1453 69.4636 69.044C69.5116 68.94 69.5356 68.8267 69.5356 68.704C69.5356 68.5813 69.5116 68.4693 69.4636 68.368C69.4182 68.2667 69.3529 68.18 69.2676 68.108C69.1849 68.036 69.0862 67.98 68.9716 67.94C68.8569 67.9 68.7316 67.88 68.5956 67.88ZM68.5956 68.152C68.6862 68.152 68.7689 68.1653 68.8436 68.192C68.9209 68.2187 68.9862 68.2573 69.0396 68.308C69.0956 68.356 69.1382 68.4147 69.1676 68.484C69.1996 68.5507 69.2156 68.624 69.2156 68.704C69.2156 68.872 69.1582 69.0067 69.0436 69.108C68.9289 69.2093 68.7796 69.26 68.5956 69.26C68.5076 69.26 68.4249 69.2467 68.3476 69.22C68.2729 69.1933 68.2089 69.156 68.1556 69.108C68.1022 69.0573 68.0596 68.9987 68.0276 68.932C67.9982 68.8627 67.9836 68.7867 67.9836 68.704C67.9836 68.624 67.9982 68.5507 68.0276 68.484C68.0596 68.4147 68.1022 68.356 68.1556 68.308C68.2089 68.2573 68.2729 68.2187 68.3476 68.192C68.4249 68.1653 68.5076 68.152 68.5956 68.152ZM68.5356 70.252V69.812H68.2116V71.248H70.5236V69.812H70.1996V70.252H68.5356ZM70.1996 70.984H68.5356V70.508H70.1996V70.984ZM74.1193 71.292V67.708H73.7913V71.292H74.1193ZM71.7313 70.088V68.056H71.4033V70.368H71.6993C71.9873 70.368 72.2739 70.356 72.5593 70.332C72.8446 70.308 73.1446 70.264 73.4593 70.2L73.4233 69.92C73.1246 69.9813 72.8366 70.0253 72.5593 70.052C72.2819 70.076 72.0059 70.088 71.7313 70.088ZM77.539 69.396H78.131V69.124H77.539V67.708H77.211V71.304H77.539V69.396ZM75.259 70.128V68.324H76.599V68.052H74.931V70.408H75.215C75.383 70.408 75.5403 70.4067 75.687 70.404C75.8336 70.4013 75.975 70.396 76.111 70.388C76.247 70.3773 76.3803 70.364 76.511 70.348C76.6416 70.3293 76.775 70.3067 76.911 70.28L76.875 70.008C76.747 70.032 76.6203 70.052 76.495 70.068C76.3696 70.084 76.2416 70.096 76.111 70.104C75.983 70.112 75.8483 70.1187 75.707 70.124C75.5683 70.1267 75.419 70.128 75.259 70.128ZM78.6986 70.68H78.3346V71.056H78.6986V70.68ZM55.383 77.292V73.708H55.067V75.168H54.559V73.788H54.251V77.112H54.559V75.44H55.067V77.292H55.383ZM52.843 76.08V74.144H52.515V76.364H52.743C52.9376 76.364 53.139 76.3573 53.347 76.344C53.5576 76.328 53.7843 76.2973 54.027 76.252L53.995 75.968C53.779 76.0107 53.5763 76.04 53.387 76.056C53.2003 76.0693 53.019 76.0773 52.843 76.08ZM59.1826 75.748V75.484H58.3826V74.976C58.5213 74.92 58.628 74.8467 58.7026 74.756C58.78 74.6653 58.8186 74.56 58.8186 74.44C58.8186 74.336 58.7893 74.2427 58.7306 74.16C58.672 74.0773 58.588 74.008 58.4786 73.952C58.372 73.8933 58.24 73.8493 58.0826 73.82C57.928 73.788 57.7533 73.772 57.5586 73.772C57.364 73.772 57.1893 73.788 57.0346 73.82C56.88 73.8493 56.748 73.8933 56.6386 73.952C56.5293 74.008 56.4453 74.0773 56.3866 74.16C56.328 74.2427 56.2986 74.336 56.2986 74.44C56.2986 74.6827 56.4453 74.8627 56.7386 74.98V75.484H55.9346V75.748H59.1826ZM56.6346 74.44C56.6346 74.3093 56.716 74.208 56.8786 74.136C57.0413 74.064 57.268 74.028 57.5586 74.028C57.8493 74.028 58.076 74.064 58.2386 74.136C58.4013 74.208 58.4826 74.3093 58.4826 74.44C58.4826 74.568 58.4013 74.6693 58.2386 74.744C58.076 74.816 57.8493 74.852 57.5586 74.852C57.268 74.852 57.0413 74.816 56.8786 74.744C56.716 74.6693 56.6346 74.568 56.6346 74.44ZM58.0586 75.484H57.0626V75.064C57.1373 75.0773 57.216 75.088 57.2986 75.096C57.3813 75.1013 57.468 75.104 57.5586 75.104C57.6546 75.104 57.744 75.1013 57.8266 75.096C57.912 75.088 57.9893 75.0773 58.0586 75.064V75.484ZM57.5586 76.016C57.1746 76.016 56.8733 76.072 56.6546 76.184C56.4386 76.2933 56.3306 76.4507 56.3306 76.656C56.3306 76.8613 56.4386 77.0187 56.6546 77.128C56.8733 77.2373 57.1746 77.292 57.5586 77.292C57.9453 77.292 58.2466 77.2373 58.4626 77.128C58.6786 77.0187 58.7866 76.8613 58.7866 76.656C58.7866 76.4507 58.6786 76.2933 58.4626 76.184C58.2466 76.072 57.9453 76.016 57.5586 76.016ZM57.5586 77.04C57.276 77.04 57.056 77.0067 56.8986 76.94C56.7413 76.8733 56.6626 76.7787 56.6626 76.656C56.6626 76.5333 56.7413 76.4387 56.8986 76.372C57.056 76.3053 57.276 76.272 57.5586 76.272C57.8413 76.272 58.0613 76.3053 58.2186 76.372C58.376 76.4387 58.4546 76.5333 58.4546 76.656C58.4546 76.7787 58.376 76.8733 58.2186 76.94C58.0613 77.0067 57.8413 77.04 57.5586 77.04ZM62.4823 75.636V73.712H62.1543V75.636H62.4823ZM60.5543 73.88C60.4183 73.88 60.293 73.9 60.1783 73.94C60.0663 73.98 59.969 74.036 59.8863 74.108C59.8037 74.18 59.7383 74.2667 59.6903 74.368C59.645 74.4693 59.6223 74.5813 59.6223 74.704C59.6223 74.8267 59.645 74.94 59.6903 75.044C59.7383 75.1453 59.8037 75.232 59.8863 75.304C59.969 75.376 60.0663 75.432 60.1783 75.472C60.293 75.512 60.4183 75.532 60.5543 75.532C60.6903 75.532 60.8157 75.512 60.9303 75.472C61.045 75.432 61.1437 75.376 61.2263 75.304C61.3117 75.232 61.377 75.1453 61.4223 75.044C61.4703 74.94 61.4943 74.8267 61.4943 74.704C61.4943 74.5813 61.4703 74.4693 61.4223 74.368C61.377 74.2667 61.3117 74.18 61.2263 74.108C61.1437 74.036 61.045 73.98 60.9303 73.94C60.8157 73.9 60.6903 73.88 60.5543 73.88ZM60.5543 74.152C60.645 74.152 60.7277 74.1653 60.8023 74.192C60.8797 74.2187 60.945 74.2573 60.9983 74.308C61.0543 74.356 61.097 74.4147 61.1263 74.484C61.1583 74.5507 61.1743 74.624 61.1743 74.704C61.1743 74.872 61.117 75.0067 61.0023 75.108C60.8877 75.2093 60.7383 75.26 60.5543 75.26C60.4663 75.26 60.3837 75.2467 60.3063 75.22C60.2317 75.1933 60.1677 75.156 60.1143 75.108C60.061 75.0573 60.0183 74.9987 59.9863 74.932C59.957 74.8627 59.9423 74.7867 59.9423 74.704C59.9423 74.624 59.957 74.5507 59.9863 74.484C60.0183 74.4147 60.061 74.356 60.1143 74.308C60.1677 74.2573 60.2317 74.2187 60.3063 74.192C60.3837 74.1653 60.4663 74.152 60.5543 74.152ZM60.4943 76.252V75.812H60.1703V77.248H62.4823V75.812H62.1583V76.252H60.4943ZM62.1583 76.984H60.4943V76.508H62.1583V76.984ZM66.078 77.292V73.708H65.75V77.292H66.078ZM63.69 76.088V74.056H63.362V76.368H63.658C63.946 76.368 64.2327 76.356 64.518 76.332C64.8033 76.308 65.1033 76.264 65.418 76.2L65.382 75.92C65.0833 75.9813 64.7953 76.0253 64.518 76.052C64.2407 76.076 63.9647 76.088 63.69 76.088ZM69.4977 75.396H70.0897V75.124H69.4977V73.708H69.1697V77.304H69.4977V75.396ZM67.2177 76.128V74.324H68.5577V74.052H66.8897V76.408H67.1737C67.3417 76.408 67.499 76.4067 67.6457 76.404C67.7924 76.4013 67.9337 76.396 68.0697 76.388C68.2057 76.3773 68.339 76.364 68.4697 76.348C68.6004 76.3293 68.7337 76.3067 68.8697 76.28L68.8337 76.008C68.7057 76.032 68.579 76.052 68.4537 76.068C68.3284 76.084 68.2004 76.096 68.0697 76.104C67.9417 76.112 67.807 76.1187 67.6657 76.124C67.527 76.1267 67.3777 76.128 67.2177 76.128ZM70.6574 76.68H70.2934V77.056H70.6574V76.68Z" fill="#121417"></path>
<path d="M15.383 53.292V49.708H15.067V51.168H14.559V49.788H14.251V53.112H14.559V51.44H15.067V53.292H15.383ZM12.843 52.08V50.144H12.515V52.364H12.743C12.9376 52.364 13.139 52.3573 13.347 52.344C13.5576 52.328 13.7843 52.2973 14.027 52.252L13.995 51.968C13.779 52.0107 13.5763 52.04 13.387 52.056C13.2003 52.0693 13.019 52.0773 12.843 52.08ZM19.1826 51.748V51.484H18.3826V50.976C18.5213 50.92 18.628 50.8467 18.7026 50.756C18.78 50.6653 18.8186 50.56 18.8186 50.44C18.8186 50.336 18.7893 50.2427 18.7306 50.16C18.672 50.0773 18.588 50.008 18.4786 49.952C18.372 49.8933 18.24 49.8493 18.0826 49.82C17.928 49.788 17.7533 49.772 17.5586 49.772C17.364 49.772 17.1893 49.788 17.0346 49.82C16.88 49.8493 16.748 49.8933 16.6386 49.952C16.5293 50.008 16.4453 50.0773 16.3866 50.16C16.328 50.2427 16.2986 50.336 16.2986 50.44C16.2986 50.6827 16.4453 50.8627 16.7386 50.98V51.484H15.9346V51.748H19.1826ZM16.6346 50.44C16.6346 50.3093 16.716 50.208 16.8786 50.136C17.0413 50.064 17.268 50.028 17.5586 50.028C17.8493 50.028 18.076 50.064 18.2386 50.136C18.4013 50.208 18.4826 50.3093 18.4826 50.44C18.4826 50.568 18.4013 50.6693 18.2386 50.744C18.076 50.816 17.8493 50.852 17.5586 50.852C17.268 50.852 17.0413 50.816 16.8786 50.744C16.716 50.6693 16.6346 50.568 16.6346 50.44ZM18.0586 51.484H17.0626V51.064C17.1373 51.0773 17.216 51.088 17.2986 51.096C17.3813 51.1013 17.468 51.104 17.5586 51.104C17.6546 51.104 17.744 51.1013 17.8266 51.096C17.912 51.088 17.9893 51.0773 18.0586 51.064V51.484ZM17.5586 52.016C17.1746 52.016 16.8733 52.072 16.6546 52.184C16.4386 52.2933 16.3306 52.4507 16.3306 52.656C16.3306 52.8613 16.4386 53.0187 16.6546 53.128C16.8733 53.2373 17.1746 53.292 17.5586 53.292C17.9453 53.292 18.2466 53.2373 18.4626 53.128C18.6786 53.0187 18.7866 52.8613 18.7866 52.656C18.7866 52.4507 18.6786 52.2933 18.4626 52.184C18.2466 52.072 17.9453 52.016 17.5586 52.016ZM17.5586 53.04C17.276 53.04 17.056 53.0067 16.8986 52.94C16.7413 52.8733 16.6626 52.7787 16.6626 52.656C16.6626 52.5333 16.7413 52.4387 16.8986 52.372C17.056 52.3053 17.276 52.272 17.5586 52.272C17.8413 52.272 18.0613 52.3053 18.2186 52.372C18.376 52.4387 18.4546 52.5333 18.4546 52.656C18.4546 52.7787 18.376 52.8733 18.2186 52.94C18.0613 53.0067 17.8413 53.04 17.5586 53.04ZM22.4823 51.636V49.712H22.1543V51.636H22.4823ZM20.5543 49.88C20.4183 49.88 20.293 49.9 20.1783 49.94C20.0663 49.98 19.969 50.036 19.8863 50.108C19.8037 50.18 19.7383 50.2667 19.6903 50.368C19.645 50.4693 19.6223 50.5813 19.6223 50.704C19.6223 50.8267 19.645 50.94 19.6903 51.044C19.7383 51.1453 19.8037 51.232 19.8863 51.304C19.969 51.376 20.0663 51.432 20.1783 51.472C20.293 51.512 20.4183 51.532 20.5543 51.532C20.6903 51.532 20.8157 51.512 20.9303 51.472C21.045 51.432 21.1437 51.376 21.2263 51.304C21.3117 51.232 21.377 51.1453 21.4223 51.044C21.4703 50.94 21.4943 50.8267 21.4943 50.704C21.4943 50.5813 21.4703 50.4693 21.4223 50.368C21.377 50.2667 21.3117 50.18 21.2263 50.108C21.1437 50.036 21.045 49.98 20.9303 49.94C20.8157 49.9 20.6903 49.88 20.5543 49.88ZM20.5543 50.152C20.645 50.152 20.7277 50.1653 20.8023 50.192C20.8797 50.2187 20.945 50.2573 20.9983 50.308C21.0543 50.356 21.097 50.4147 21.1263 50.484C21.1583 50.5507 21.1743 50.624 21.1743 50.704C21.1743 50.872 21.117 51.0067 21.0023 51.108C20.8877 51.2093 20.7383 51.26 20.5543 51.26C20.4663 51.26 20.3837 51.2467 20.3063 51.22C20.2317 51.1933 20.1677 51.156 20.1143 51.108C20.061 51.0573 20.0183 50.9987 19.9863 50.932C19.957 50.8627 19.9423 50.7867 19.9423 50.704C19.9423 50.624 19.957 50.5507 19.9863 50.484C20.0183 50.4147 20.061 50.356 20.1143 50.308C20.1677 50.2573 20.2317 50.2187 20.3063 50.192C20.3837 50.1653 20.4663 50.152 20.5543 50.152ZM20.4943 52.252V51.812H20.1703V53.248H22.4823V51.812H22.1583V52.252H20.4943ZM22.1583 52.984H20.4943V52.508H22.1583V52.984ZM26.078 53.292V49.708H25.75V53.292H26.078ZM23.69 52.088V50.056H23.362V52.368H23.658C23.946 52.368 24.2327 52.356 24.518 52.332C24.8033 52.308 25.1033 52.264 25.418 52.2L25.382 51.92C25.0833 51.9813 24.7953 52.0253 24.518 52.052C24.2407 52.076 23.9647 52.088 23.69 52.088ZM29.4977 51.396H30.0897V51.124H29.4977V49.708H29.1697V53.304H29.4977V51.396ZM27.2177 52.128V50.324H28.5577V50.052H26.8897V52.408H27.1737C27.3417 52.408 27.499 52.4067 27.6457 52.404C27.7924 52.4013 27.9337 52.396 28.0697 52.388C28.2057 52.3773 28.339 52.364 28.4697 52.348C28.6004 52.3293 28.7337 52.3067 28.8697 52.28L28.8337 52.008C28.7057 52.032 28.579 52.052 28.4537 52.068C28.3284 52.084 28.2004 52.096 28.0697 52.104C27.9417 52.112 27.807 52.1187 27.6657 52.124C27.527 52.1267 27.3777 52.128 27.2177 52.128ZM30.6574 52.68H30.2934V53.056H30.6574V52.68ZM34.2233 53.292V49.708H33.9073V51.168H33.3993V49.788H33.0913V53.112H33.3993V51.44H33.9073V53.292H34.2233ZM31.6833 52.08V50.144H31.3553V52.364H31.5833C31.7779 52.364 31.9793 52.3573 32.1873 52.344C32.3979 52.328 32.6246 52.2973 32.8673 52.252L32.8353 51.968C32.6193 52.0107 32.4166 52.04 32.2273 52.056C32.0406 52.0693 31.8593 52.0773 31.6833 52.08ZM38.023 51.748V51.484H37.223V50.976C37.3616 50.92 37.4683 50.8467 37.543 50.756C37.6203 50.6653 37.659 50.56 37.659 50.44C37.659 50.336 37.6296 50.2427 37.571 50.16C37.5123 50.0773 37.4283 50.008 37.319 49.952C37.2123 49.8933 37.0803 49.8493 36.923 49.82C36.7683 49.788 36.5936 49.772 36.399 49.772C36.2043 49.772 36.0296 49.788 35.875 49.82C35.7203 49.8493 35.5883 49.8933 35.479 49.952C35.3696 50.008 35.2856 50.0773 35.227 50.16C35.1683 50.2427 35.139 50.336 35.139 50.44C35.139 50.6827 35.2856 50.8627 35.579 50.98V51.484H34.775V51.748H38.023ZM35.475 50.44C35.475 50.3093 35.5563 50.208 35.719 50.136C35.8816 50.064 36.1083 50.028 36.399 50.028C36.6896 50.028 36.9163 50.064 37.079 50.136C37.2416 50.208 37.323 50.3093 37.323 50.44C37.323 50.568 37.2416 50.6693 37.079 50.744C36.9163 50.816 36.6896 50.852 36.399 50.852C36.1083 50.852 35.8816 50.816 35.719 50.744C35.5563 50.6693 35.475 50.568 35.475 50.44ZM36.899 51.484H35.903V51.064C35.9776 51.0773 36.0563 51.088 36.139 51.096C36.2216 51.1013 36.3083 51.104 36.399 51.104C36.495 51.104 36.5843 51.1013 36.667 51.096C36.7523 51.088 36.8296 51.0773 36.899 51.064V51.484ZM36.399 52.016C36.015 52.016 35.7136 52.072 35.495 52.184C35.279 52.2933 35.171 52.4507 35.171 52.656C35.171 52.8613 35.279 53.0187 35.495 53.128C35.7136 53.2373 36.015 53.292 36.399 53.292C36.7856 53.292 37.087 53.2373 37.303 53.128C37.519 53.0187 37.627 52.8613 37.627 52.656C37.627 52.4507 37.519 52.2933 37.303 52.184C37.087 52.072 36.7856 52.016 36.399 52.016ZM36.399 53.04C36.1163 53.04 35.8963 53.0067 35.739 52.94C35.5816 52.8733 35.503 52.7787 35.503 52.656C35.503 52.5333 35.5816 52.4387 35.739 52.372C35.8963 52.3053 36.1163 52.272 36.399 52.272C36.6816 52.272 36.9016 52.3053 37.059 52.372C37.2163 52.4387 37.295 52.5333 37.295 52.656C37.295 52.7787 37.2163 52.8733 37.059 52.94C36.9016 53.0067 36.6816 53.04 36.399 53.04ZM41.3226 51.636V49.712H40.9946V51.636H41.3226ZM39.3946 49.88C39.2586 49.88 39.1333 49.9 39.0186 49.94C38.9066 49.98 38.8093 50.036 38.7266 50.108C38.644 50.18 38.5786 50.2667 38.5306 50.368C38.4853 50.4693 38.4626 50.5813 38.4626 50.704C38.4626 50.8267 38.4853 50.94 38.5306 51.044C38.5786 51.1453 38.644 51.232 38.7266 51.304C38.8093 51.376 38.9066 51.432 39.0186 51.472C39.1333 51.512 39.2586 51.532 39.3946 51.532C39.5306 51.532 39.656 51.512 39.7706 51.472C39.8853 51.432 39.984 51.376 40.0666 51.304C40.152 51.232 40.2173 51.1453 40.2626 51.044C40.3106 50.94 40.3346 50.8267 40.3346 50.704C40.3346 50.5813 40.3106 50.4693 40.2626 50.368C40.2173 50.2667 40.152 50.18 40.0666 50.108C39.984 50.036 39.8853 49.98 39.7706 49.94C39.656 49.9 39.5306 49.88 39.3946 49.88ZM39.3946 50.152C39.4853 50.152 39.568 50.1653 39.6426 50.192C39.72 50.2187 39.7853 50.2573 39.8386 50.308C39.8946 50.356 39.9373 50.4147 39.9666 50.484C39.9986 50.5507 40.0146 50.624 40.0146 50.704C40.0146 50.872 39.9573 51.0067 39.8426 51.108C39.728 51.2093 39.5786 51.26 39.3946 51.26C39.3066 51.26 39.224 51.2467 39.1466 51.22C39.072 51.1933 39.008 51.156 38.9546 51.108C38.9013 51.0573 38.8586 50.9987 38.8266 50.932C38.7973 50.8627 38.7826 50.7867 38.7826 50.704C38.7826 50.624 38.7973 50.5507 38.8266 50.484C38.8586 50.4147 38.9013 50.356 38.9546 50.308C39.008 50.2573 39.072 50.2187 39.1466 50.192C39.224 50.1653 39.3066 50.152 39.3946 50.152ZM39.3346 52.252V51.812H39.0106V53.248H41.3226V51.812H40.9986V52.252H39.3346ZM40.9986 52.984H39.3346V52.508H40.9986V52.984ZM15.279 59.292V55.708H14.951V59.292H15.279ZM12.891 58.088V56.056H12.563V58.368H12.859C13.147 58.368 13.4336 58.356 13.719 58.332C14.0043 58.308 14.3043 58.264 14.619 58.2L14.583 57.92C14.2843 57.9813 13.9963 58.0253 13.719 58.052C13.4416 58.076 13.1656 58.088 12.891 58.088ZM18.6986 57.396H19.2906V57.124H18.6986V55.708H18.3706V59.304H18.6986V57.396ZM16.4186 58.128V56.324H17.7586V56.052H16.0906V58.408H16.3746C16.5426 58.408 16.7 58.4067 16.8466 58.404C16.9933 58.4013 17.1346 58.396 17.2706 58.388C17.4066 58.3773 17.54 58.364 17.6706 58.348C17.8013 58.3293 17.9346 58.3067 18.0706 58.28L18.0346 58.008C17.9066 58.032 17.78 58.052 17.6546 58.068C17.5293 58.084 17.4013 58.096 17.2706 58.104C17.1426 58.112 17.008 58.1187 16.8666 58.124C16.728 58.1267 16.5786 58.128 16.4186 58.128ZM19.8583 58.68H19.4943V59.056H19.8583V58.68ZM23.4242 59.292V55.708H23.1082V57.168H22.6002V55.788H22.2922V59.112H22.6002V57.44H23.1082V59.292H23.4242ZM20.8842 58.08V56.144H20.5562V58.364H20.7842C20.9789 58.364 21.1802 58.3573 21.3882 58.344C21.5989 58.328 21.8255 58.2973 22.0682 58.252L22.0362 57.968C21.8202 58.0107 21.6175 58.04 21.4282 58.056C21.2415 58.0693 21.0602 58.0773 20.8842 58.08ZM27.2239 57.748V57.484H26.4239V56.976C26.5626 56.92 26.6692 56.8467 26.7439 56.756C26.8212 56.6653 26.8599 56.56 26.8599 56.44C26.8599 56.336 26.8306 56.2427 26.7719 56.16C26.7132 56.0773 26.6292 56.008 26.5199 55.952C26.4132 55.8933 26.2812 55.8493 26.1239 55.82C25.9692 55.788 25.7946 55.772 25.5999 55.772C25.4052 55.772 25.2306 55.788 25.0759 55.82C24.9212 55.8493 24.7892 55.8933 24.6799 55.952C24.5706 56.008 24.4866 56.0773 24.4279 56.16C24.3692 56.2427 24.3399 56.336 24.3399 56.44C24.3399 56.6827 24.4866 56.8627 24.7799 56.98V57.484H23.9759V57.748H27.2239ZM24.6759 56.44C24.6759 56.3093 24.7572 56.208 24.9199 56.136C25.0826 56.064 25.3092 56.028 25.5999 56.028C25.8906 56.028 26.1172 56.064 26.2799 56.136C26.4426 56.208 26.5239 56.3093 26.5239 56.44C26.5239 56.568 26.4426 56.6693 26.2799 56.744C26.1172 56.816 25.8906 56.852 25.5999 56.852C25.3092 56.852 25.0826 56.816 24.9199 56.744C24.7572 56.6693 24.6759 56.568 24.6759 56.44ZM26.0999 57.484H25.1039V57.064C25.1786 57.0773 25.2572 57.088 25.3399 57.096C25.4226 57.1013 25.5092 57.104 25.5999 57.104C25.6959 57.104 25.7852 57.1013 25.8679 57.096C25.9532 57.088 26.0306 57.0773 26.0999 57.064V57.484ZM25.5999 58.016C25.2159 58.016 24.9146 58.072 24.6959 58.184C24.4799 58.2933 24.3719 58.4507 24.3719 58.656C24.3719 58.8613 24.4799 59.0187 24.6959 59.128C24.9146 59.2373 25.2159 59.292 25.5999 59.292C25.9866 59.292 26.2879 59.2373 26.5039 59.128C26.7199 59.0187 26.8279 58.8613 26.8279 58.656C26.8279 58.4507 26.7199 58.2933 26.5039 58.184C26.2879 58.072 25.9866 58.016 25.5999 58.016ZM25.5999 59.04C25.3172 59.04 25.0972 59.0067 24.9399 58.94C24.7826 58.8733 24.7039 58.7787 24.7039 58.656C24.7039 58.5333 24.7826 58.4387 24.9399 58.372C25.0972 58.3053 25.3172 58.272 25.5999 58.272C25.8826 58.272 26.1026 58.3053 26.2599 58.372C26.4172 58.4387 26.4959 58.5333 26.4959 58.656C26.4959 58.7787 26.4172 58.8733 26.2599 58.94C26.1026 59.0067 25.8826 59.04 25.5999 59.04ZM30.5236 57.636V55.712H30.1956V57.636H30.5236ZM28.5956 55.88C28.4596 55.88 28.3342 55.9 28.2196 55.94C28.1076 55.98 28.0102 56.036 27.9276 56.108C27.8449 56.18 27.7796 56.2667 27.7316 56.368C27.6862 56.4693 27.6636 56.5813 27.6636 56.704C27.6636 56.8267 27.6862 56.94 27.7316 57.044C27.7796 57.1453 27.8449 57.232 27.9276 57.304C28.0102 57.376 28.1076 57.432 28.2196 57.472C28.3342 57.512 28.4596 57.532 28.5956 57.532C28.7316 57.532 28.8569 57.512 28.9716 57.472C29.0862 57.432 29.1849 57.376 29.2676 57.304C29.3529 57.232 29.4182 57.1453 29.4636 57.044C29.5116 56.94 29.5356 56.8267 29.5356 56.704C29.5356 56.5813 29.5116 56.4693 29.4636 56.368C29.4182 56.2667 29.3529 56.18 29.2676 56.108C29.1849 56.036 29.0862 55.98 28.9716 55.94C28.8569 55.9 28.7316 55.88 28.5956 55.88ZM28.5956 56.152C28.6862 56.152 28.7689 56.1653 28.8436 56.192C28.9209 56.2187 28.9862 56.2573 29.0396 56.308C29.0956 56.356 29.1382 56.4147 29.1676 56.484C29.1996 56.5507 29.2156 56.624 29.2156 56.704C29.2156 56.872 29.1582 57.0067 29.0436 57.108C28.9289 57.2093 28.7796 57.26 28.5956 57.26C28.5076 57.26 28.4249 57.2467 28.3476 57.22C28.2729 57.1933 28.2089 57.156 28.1556 57.108C28.1022 57.0573 28.0596 56.9987 28.0276 56.932C27.9982 56.8627 27.9836 56.7867 27.9836 56.704C27.9836 56.624 27.9982 56.5507 28.0276 56.484C28.0596 56.4147 28.1022 56.356 28.1556 56.308C28.2089 56.2573 28.2729 56.2187 28.3476 56.192C28.4249 56.1653 28.5076 56.152 28.5956 56.152ZM28.5356 58.252V57.812H28.2116V59.248H30.5236V57.812H30.1996V58.252H28.5356ZM30.1996 58.984H28.5356V58.508H30.1996V58.984ZM34.1193 59.292V55.708H33.7913V59.292H34.1193ZM31.7313 58.088V56.056H31.4033V58.368H31.6993C31.9873 58.368 32.2739 58.356 32.5593 58.332C32.8446 58.308 33.1446 58.264 33.4593 58.2L33.4233 57.92C33.1246 57.9813 32.8366 58.0253 32.5593 58.052C32.2819 58.076 32.0059 58.088 31.7313 58.088ZM37.539 57.396H38.131V57.124H37.539V55.708H37.211V59.304H37.539V57.396ZM35.259 58.128V56.324H36.599V56.052H34.931V58.408H35.215C35.383 58.408 35.5403 58.4067 35.687 58.404C35.8336 58.4013 35.975 58.396 36.111 58.388C36.247 58.3773 36.3803 58.364 36.511 58.348C36.6416 58.3293 36.775 58.3067 36.911 58.28L36.875 58.008C36.747 58.032 36.6203 58.052 36.495 58.068C36.3696 58.084 36.2416 58.096 36.111 58.104C35.983 58.112 35.8483 58.1187 35.707 58.124C35.5683 58.1267 35.419 58.128 35.259 58.128ZM38.6986 58.68H38.3346V59.056H38.6986V58.68ZM15.383 65.292V61.708H15.067V63.168H14.559V61.788H14.251V65.112H14.559V63.44H15.067V65.292H15.383ZM12.843 64.08V62.144H12.515V64.364H12.743C12.9376 64.364 13.139 64.3573 13.347 64.344C13.5576 64.328 13.7843 64.2973 14.027 64.252L13.995 63.968C13.779 64.0107 13.5763 64.04 13.387 64.056C13.2003 64.0693 13.019 64.0773 12.843 64.08ZM19.1826 63.748V63.484H18.3826V62.976C18.5213 62.92 18.628 62.8467 18.7026 62.756C18.78 62.6653 18.8186 62.56 18.8186 62.44C18.8186 62.336 18.7893 62.2427 18.7306 62.16C18.672 62.0773 18.588 62.008 18.4786 61.952C18.372 61.8933 18.24 61.8493 18.0826 61.82C17.928 61.788 17.7533 61.772 17.5586 61.772C17.364 61.772 17.1893 61.788 17.0346 61.82C16.88 61.8493 16.748 61.8933 16.6386 61.952C16.5293 62.008 16.4453 62.0773 16.3866 62.16C16.328 62.2427 16.2986 62.336 16.2986 62.44C16.2986 62.6827 16.4453 62.8627 16.7386 62.98V63.484H15.9346V63.748H19.1826ZM16.6346 62.44C16.6346 62.3093 16.716 62.208 16.8786 62.136C17.0413 62.064 17.268 62.028 17.5586 62.028C17.8493 62.028 18.076 62.064 18.2386 62.136C18.4013 62.208 18.4826 62.3093 18.4826 62.44C18.4826 62.568 18.4013 62.6693 18.2386 62.744C18.076 62.816 17.8493 62.852 17.5586 62.852C17.268 62.852 17.0413 62.816 16.8786 62.744C16.716 62.6693 16.6346 62.568 16.6346 62.44ZM18.0586 63.484H17.0626V63.064C17.1373 63.0773 17.216 63.088 17.2986 63.096C17.3813 63.1013 17.468 63.104 17.5586 63.104C17.6546 63.104 17.744 63.1013 17.8266 63.096C17.912 63.088 17.9893 63.0773 18.0586 63.064V63.484ZM17.5586 64.016C17.1746 64.016 16.8733 64.072 16.6546 64.184C16.4386 64.2933 16.3306 64.4507 16.3306 64.656C16.3306 64.8613 16.4386 65.0187 16.6546 65.128C16.8733 65.2373 17.1746 65.292 17.5586 65.292C17.9453 65.292 18.2466 65.2373 18.4626 65.128C18.6786 65.0187 18.7866 64.8613 18.7866 64.656C18.7866 64.4507 18.6786 64.2933 18.4626 64.184C18.2466 64.072 17.9453 64.016 17.5586 64.016ZM17.5586 65.04C17.276 65.04 17.056 65.0067 16.8986 64.94C16.7413 64.8733 16.6626 64.7787 16.6626 64.656C16.6626 64.5333 16.7413 64.4387 16.8986 64.372C17.056 64.3053 17.276 64.272 17.5586 64.272C17.8413 64.272 18.0613 64.3053 18.2186 64.372C18.376 64.4387 18.4546 64.5333 18.4546 64.656C18.4546 64.7787 18.376 64.8733 18.2186 64.94C18.0613 65.0067 17.8413 65.04 17.5586 65.04ZM22.4823 63.636V61.712H22.1543V63.636H22.4823ZM20.5543 61.88C20.4183 61.88 20.293 61.9 20.1783 61.94C20.0663 61.98 19.969 62.036 19.8863 62.108C19.8037 62.18 19.7383 62.2667 19.6903 62.368C19.645 62.4693 19.6223 62.5813 19.6223 62.704C19.6223 62.8267 19.645 62.94 19.6903 63.044C19.7383 63.1453 19.8037 63.232 19.8863 63.304C19.969 63.376 20.0663 63.432 20.1783 63.472C20.293 63.512 20.4183 63.532 20.5543 63.532C20.6903 63.532 20.8157 63.512 20.9303 63.472C21.045 63.432 21.1437 63.376 21.2263 63.304C21.3117 63.232 21.377 63.1453 21.4223 63.044C21.4703 62.94 21.4943 62.8267 21.4943 62.704C21.4943 62.5813 21.4703 62.4693 21.4223 62.368C21.377 62.2667 21.3117 62.18 21.2263 62.108C21.1437 62.036 21.045 61.98 20.9303 61.94C20.8157 61.9 20.6903 61.88 20.5543 61.88ZM20.5543 62.152C20.645 62.152 20.7277 62.1653 20.8023 62.192C20.8797 62.2187 20.945 62.2573 20.9983 62.308C21.0543 62.356 21.097 62.4147 21.1263 62.484C21.1583 62.5507 21.1743 62.624 21.1743 62.704C21.1743 62.872 21.117 63.0067 21.0023 63.108C20.8877 63.2093 20.7383 63.26 20.5543 63.26C20.4663 63.26 20.3837 63.2467 20.3063 63.22C20.2317 63.1933 20.1677 63.156 20.1143 63.108C20.061 63.0573 20.0183 62.9987 19.9863 62.932C19.957 62.8627 19.9423 62.7867 19.9423 62.704C19.9423 62.624 19.957 62.5507 19.9863 62.484C20.0183 62.4147 20.061 62.356 20.1143 62.308C20.1677 62.2573 20.2317 62.2187 20.3063 62.192C20.3837 62.1653 20.4663 62.152 20.5543 62.152ZM20.4943 64.252V63.812H20.1703V65.248H22.4823V63.812H22.1583V64.252H20.4943ZM22.1583 64.984H20.4943V64.508H22.1583V64.984ZM26.078 65.292V61.708H25.75V65.292H26.078ZM23.69 64.088V62.056H23.362V64.368H23.658C23.946 64.368 24.2327 64.356 24.518 64.332C24.8033 64.308 25.1033 64.264 25.418 64.2L25.382 63.92C25.0833 63.9813 24.7953 64.0253 24.518 64.052C24.2407 64.076 23.9647 64.088 23.69 64.088ZM29.4977 63.396H30.0897V63.124H29.4977V61.708H29.1697V65.304H29.4977V63.396ZM27.2177 64.128V62.324H28.5577V62.052H26.8897V64.408H27.1737C27.3417 64.408 27.499 64.4067 27.6457 64.404C27.7924 64.4013 27.9337 64.396 28.0697 64.388C28.2057 64.3773 28.339 64.364 28.4697 64.348C28.6004 64.3293 28.7337 64.3067 28.8697 64.28L28.8337 64.008C28.7057 64.032 28.579 64.052 28.4537 64.068C28.3284 64.084 28.2004 64.096 28.0697 64.104C27.9417 64.112 27.807 64.1187 27.6657 64.124C27.527 64.1267 27.3777 64.128 27.2177 64.128ZM30.6574 64.68H30.2934V65.056H30.6574V64.68ZM34.2233 65.292V61.708H33.9073V63.168H33.3993V61.788H33.0913V65.112H33.3993V63.44H33.9073V65.292H34.2233ZM31.6833 64.08V62.144H31.3553V64.364H31.5833C31.7779 64.364 31.9793 64.3573 32.1873 64.344C32.3979 64.328 32.6246 64.2973 32.8673 64.252L32.8353 63.968C32.6193 64.0107 32.4166 64.04 32.2273 64.056C32.0406 64.0693 31.8593 64.0773 31.6833 64.08ZM38.023 63.748V63.484H37.223V62.976C37.3616 62.92 37.4683 62.8467 37.543 62.756C37.6203 62.6653 37.659 62.56 37.659 62.44C37.659 62.336 37.6296 62.2427 37.571 62.16C37.5123 62.0773 37.4283 62.008 37.319 61.952C37.2123 61.8933 37.0803 61.8493 36.923 61.82C36.7683 61.788 36.5936 61.772 36.399 61.772C36.2043 61.772 36.0296 61.788 35.875 61.82C35.7203 61.8493 35.5883 61.8933 35.479 61.952C35.3696 62.008 35.2856 62.0773 35.227 62.16C35.1683 62.2427 35.139 62.336 35.139 62.44C35.139 62.6827 35.2856 62.8627 35.579 62.98V63.484H34.775V63.748H38.023ZM35.475 62.44C35.475 62.3093 35.5563 62.208 35.719 62.136C35.8816 62.064 36.1083 62.028 36.399 62.028C36.6896 62.028 36.9163 62.064 37.079 62.136C37.2416 62.208 37.323 62.3093 37.323 62.44C37.323 62.568 37.2416 62.6693 37.079 62.744C36.9163 62.816 36.6896 62.852 36.399 62.852C36.1083 62.852 35.8816 62.816 35.719 62.744C35.5563 62.6693 35.475 62.568 35.475 62.44ZM36.899 63.484H35.903V63.064C35.9776 63.0773 36.0563 63.088 36.139 63.096C36.2216 63.1013 36.3083 63.104 36.399 63.104C36.495 63.104 36.5843 63.1013 36.667 63.096C36.7523 63.088 36.8296 63.0773 36.899 63.064V63.484ZM36.399 64.016C36.015 64.016 35.7136 64.072 35.495 64.184C35.279 64.2933 35.171 64.4507 35.171 64.656C35.171 64.8613 35.279 65.0187 35.495 65.128C35.7136 65.2373 36.015 65.292 36.399 65.292C36.7856 65.292 37.087 65.2373 37.303 65.128C37.519 65.0187 37.627 64.8613 37.627 64.656C37.627 64.4507 37.519 64.2933 37.303 64.184C37.087 64.072 36.7856 64.016 36.399 64.016ZM36.399 65.04C36.1163 65.04 35.8963 65.0067 35.739 64.94C35.5816 64.8733 35.503 64.7787 35.503 64.656C35.503 64.5333 35.5816 64.4387 35.739 64.372C35.8963 64.3053 36.1163 64.272 36.399 64.272C36.6816 64.272 36.9016 64.3053 37.059 64.372C37.2163 64.4387 37.295 64.5333 37.295 64.656C37.295 64.7787 37.2163 64.8733 37.059 64.94C36.9016 65.0067 36.6816 65.04 36.399 65.04ZM41.3226 63.636V61.712H40.9946V63.636H41.3226ZM39.3946 61.88C39.2586 61.88 39.1333 61.9 39.0186 61.94C38.9066 61.98 38.8093 62.036 38.7266 62.108C38.644 62.18 38.5786 62.2667 38.5306 62.368C38.4853 62.4693 38.4626 62.5813 38.4626 62.704C38.4626 62.8267 38.4853 62.94 38.5306 63.044C38.5786 63.1453 38.644 63.232 38.7266 63.304C38.8093 63.376 38.9066 63.432 39.0186 63.472C39.1333 63.512 39.2586 63.532 39.3946 63.532C39.5306 63.532 39.656 63.512 39.7706 63.472C39.8853 63.432 39.984 63.376 40.0666 63.304C40.152 63.232 40.2173 63.1453 40.2626 63.044C40.3106 62.94 40.3346 62.8267 40.3346 62.704C40.3346 62.5813 40.3106 62.4693 40.2626 62.368C40.2173 62.2667 40.152 62.18 40.0666 62.108C39.984 62.036 39.8853 61.98 39.7706 61.94C39.656 61.9 39.5306 61.88 39.3946 61.88ZM39.3946 62.152C39.4853 62.152 39.568 62.1653 39.6426 62.192C39.72 62.2187 39.7853 62.2573 39.8386 62.308C39.8946 62.356 39.9373 62.4147 39.9666 62.484C39.9986 62.5507 40.0146 62.624 40.0146 62.704C40.0146 62.872 39.9573 63.0067 39.8426 63.108C39.728 63.2093 39.5786 63.26 39.3946 63.26C39.3066 63.26 39.224 63.2467 39.1466 63.22C39.072 63.1933 39.008 63.156 38.9546 63.108C38.9013 63.0573 38.8586 62.9987 38.8266 62.932C38.7973 62.8627 38.7826 62.7867 38.7826 62.704C38.7826 62.624 38.7973 62.5507 38.8266 62.484C38.8586 62.4147 38.9013 62.356 38.9546 62.308C39.008 62.2573 39.072 62.2187 39.1466 62.192C39.224 62.1653 39.3066 62.152 39.3946 62.152ZM39.3346 64.252V63.812H39.0106V65.248H41.3226V63.812H40.9986V64.252H39.3346ZM40.9986 64.984H39.3346V64.508H40.9986V64.984ZM15.279 71.292V67.708H14.951V71.292H15.279ZM12.891 70.088V68.056H12.563V70.368H12.859C13.147 70.368 13.4336 70.356 13.719 70.332C14.0043 70.308 14.3043 70.264 14.619 70.2L14.583 69.92C14.2843 69.9813 13.9963 70.0253 13.719 70.052C13.4416 70.076 13.1656 70.088 12.891 70.088ZM18.6986 69.396H19.2906V69.124H18.6986V67.708H18.3706V71.304H18.6986V69.396ZM16.4186 70.128V68.324H17.7586V68.052H16.0906V70.408H16.3746C16.5426 70.408 16.7 70.4067 16.8466 70.404C16.9933 70.4013 17.1346 70.396 17.2706 70.388C17.4066 70.3773 17.54 70.364 17.6706 70.348C17.8013 70.3293 17.9346 70.3067 18.0706 70.28L18.0346 70.008C17.9066 70.032 17.78 70.052 17.6546 70.068C17.5293 70.084 17.4013 70.096 17.2706 70.104C17.1426 70.112 17.008 70.1187 16.8666 70.124C16.728 70.1267 16.5786 70.128 16.4186 70.128ZM19.8583 70.68H19.4943V71.056H19.8583V70.68ZM23.4242 71.292V67.708H23.1082V69.168H22.6002V67.788H22.2922V71.112H22.6002V69.44H23.1082V71.292H23.4242ZM20.8842 70.08V68.144H20.5562V70.364H20.7842C20.9789 70.364 21.1802 70.3573 21.3882 70.344C21.5989 70.328 21.8255 70.2973 22.0682 70.252L22.0362 69.968C21.8202 70.0107 21.6175 70.04 21.4282 70.056C21.2415 70.0693 21.0602 70.0773 20.8842 70.08ZM27.2239 69.748V69.484H26.4239V68.976C26.5626 68.92 26.6692 68.8467 26.7439 68.756C26.8212 68.6653 26.8599 68.56 26.8599 68.44C26.8599 68.336 26.8306 68.2427 26.7719 68.16C26.7132 68.0773 26.6292 68.008 26.5199 67.952C26.4132 67.8933 26.2812 67.8493 26.1239 67.82C25.9692 67.788 25.7946 67.772 25.5999 67.772C25.4052 67.772 25.2306 67.788 25.0759 67.82C24.9212 67.8493 24.7892 67.8933 24.6799 67.952C24.5706 68.008 24.4866 68.0773 24.4279 68.16C24.3692 68.2427 24.3399 68.336 24.3399 68.44C24.3399 68.6827 24.4866 68.8627 24.7799 68.98V69.484H23.9759V69.748H27.2239ZM24.6759 68.44C24.6759 68.3093 24.7572 68.208 24.9199 68.136C25.0826 68.064 25.3092 68.028 25.5999 68.028C25.8906 68.028 26.1172 68.064 26.2799 68.136C26.4426 68.208 26.5239 68.3093 26.5239 68.44C26.5239 68.568 26.4426 68.6693 26.2799 68.744C26.1172 68.816 25.8906 68.852 25.5999 68.852C25.3092 68.852 25.0826 68.816 24.9199 68.744C24.7572 68.6693 24.6759 68.568 24.6759 68.44ZM26.0999 69.484H25.1039V69.064C25.1786 69.0773 25.2572 69.088 25.3399 69.096C25.4226 69.1013 25.5092 69.104 25.5999 69.104C25.6959 69.104 25.7852 69.1013 25.8679 69.096C25.9532 69.088 26.0306 69.0773 26.0999 69.064V69.484ZM25.5999 70.016C25.2159 70.016 24.9146 70.072 24.6959 70.184C24.4799 70.2933 24.3719 70.4507 24.3719 70.656C24.3719 70.8613 24.4799 71.0187 24.6959 71.128C24.9146 71.2373 25.2159 71.292 25.5999 71.292C25.9866 71.292 26.2879 71.2373 26.5039 71.128C26.7199 71.0187 26.8279 70.8613 26.8279 70.656C26.8279 70.4507 26.7199 70.2933 26.5039 70.184C26.2879 70.072 25.9866 70.016 25.5999 70.016ZM25.5999 71.04C25.3172 71.04 25.0972 71.0067 24.9399 70.94C24.7826 70.8733 24.7039 70.7787 24.7039 70.656C24.7039 70.5333 24.7826 70.4387 24.9399 70.372C25.0972 70.3053 25.3172 70.272 25.5999 70.272C25.8826 70.272 26.1026 70.3053 26.2599 70.372C26.4172 70.4387 26.4959 70.5333 26.4959 70.656C26.4959 70.7787 26.4172 70.8733 26.2599 70.94C26.1026 71.0067 25.8826 71.04 25.5999 71.04ZM30.5236 69.636V67.712H30.1956V69.636H30.5236ZM28.5956 67.88C28.4596 67.88 28.3342 67.9 28.2196 67.94C28.1076 67.98 28.0102 68.036 27.9276 68.108C27.8449 68.18 27.7796 68.2667 27.7316 68.368C27.6862 68.4693 27.6636 68.5813 27.6636 68.704C27.6636 68.8267 27.6862 68.94 27.7316 69.044C27.7796 69.1453 27.8449 69.232 27.9276 69.304C28.0102 69.376 28.1076 69.432 28.2196 69.472C28.3342 69.512 28.4596 69.532 28.5956 69.532C28.7316 69.532 28.8569 69.512 28.9716 69.472C29.0862 69.432 29.1849 69.376 29.2676 69.304C29.3529 69.232 29.4182 69.1453 29.4636 69.044C29.5116 68.94 29.5356 68.8267 29.5356 68.704C29.5356 68.5813 29.5116 68.4693 29.4636 68.368C29.4182 68.2667 29.3529 68.18 29.2676 68.108C29.1849 68.036 29.0862 67.98 28.9716 67.94C28.8569 67.9 28.7316 67.88 28.5956 67.88ZM28.5956 68.152C28.6862 68.152 28.7689 68.1653 28.8436 68.192C28.9209 68.2187 28.9862 68.2573 29.0396 68.308C29.0956 68.356 29.1382 68.4147 29.1676 68.484C29.1996 68.5507 29.2156 68.624 29.2156 68.704C29.2156 68.872 29.1582 69.0067 29.0436 69.108C28.9289 69.2093 28.7796 69.26 28.5956 69.26C28.5076 69.26 28.4249 69.2467 28.3476 69.22C28.2729 69.1933 28.2089 69.156 28.1556 69.108C28.1022 69.0573 28.0596 68.9987 28.0276 68.932C27.9982 68.8627 27.9836 68.7867 27.9836 68.704C27.9836 68.624 27.9982 68.5507 28.0276 68.484C28.0596 68.4147 28.1022 68.356 28.1556 68.308C28.2089 68.2573 28.2729 68.2187 28.3476 68.192C28.4249 68.1653 28.5076 68.152 28.5956 68.152ZM28.5356 70.252V69.812H28.2116V71.248H30.5236V69.812H30.1996V70.252H28.5356ZM30.1996 70.984H28.5356V70.508H30.1996V70.984ZM34.1193 71.292V67.708H33.7913V71.292H34.1193ZM31.7313 70.088V68.056H31.4033V70.368H31.6993C31.9873 70.368 32.2739 70.356 32.5593 70.332C32.8446 70.308 33.1446 70.264 33.4593 70.2L33.4233 69.92C33.1246 69.9813 32.8366 70.0253 32.5593 70.052C32.2819 70.076 32.0059 70.088 31.7313 70.088ZM37.539 69.396H38.131V69.124H37.539V67.708H37.211V71.304H37.539V69.396ZM35.259 70.128V68.324H36.599V68.052H34.931V70.408H35.215C35.383 70.408 35.5403 70.4067 35.687 70.404C35.8336 70.4013 35.975 70.396 36.111 70.388C36.247 70.3773 36.3803 70.364 36.511 70.348C36.6416 70.3293 36.775 70.3067 36.911 70.28L36.875 70.008C36.747 70.032 36.6203 70.052 36.495 70.068C36.3696 70.084 36.2416 70.096 36.111 70.104C35.983 70.112 35.8483 70.1187 35.707 70.124C35.5683 70.1267 35.419 70.128 35.259 70.128ZM38.6986 70.68H38.3346V71.056H38.6986V70.68ZM15.383 77.292V73.708H15.067V75.168H14.559V73.788H14.251V77.112H14.559V75.44H15.067V77.292H15.383ZM12.843 76.08V74.144H12.515V76.364H12.743C12.9376 76.364 13.139 76.3573 13.347 76.344C13.5576 76.328 13.7843 76.2973 14.027 76.252L13.995 75.968C13.779 76.0107 13.5763 76.04 13.387 76.056C13.2003 76.0693 13.019 76.0773 12.843 76.08ZM19.1826 75.748V75.484H18.3826V74.976C18.5213 74.92 18.628 74.8467 18.7026 74.756C18.78 74.6653 18.8186 74.56 18.8186 74.44C18.8186 74.336 18.7893 74.2427 18.7306 74.16C18.672 74.0773 18.588 74.008 18.4786 73.952C18.372 73.8933 18.24 73.8493 18.0826 73.82C17.928 73.788 17.7533 73.772 17.5586 73.772C17.364 73.772 17.1893 73.788 17.0346 73.82C16.88 73.8493 16.748 73.8933 16.6386 73.952C16.5293 74.008 16.4453 74.0773 16.3866 74.16C16.328 74.2427 16.2986 74.336 16.2986 74.44C16.2986 74.6827 16.4453 74.8627 16.7386 74.98V75.484H15.9346V75.748H19.1826ZM16.6346 74.44C16.6346 74.3093 16.716 74.208 16.8786 74.136C17.0413 74.064 17.268 74.028 17.5586 74.028C17.8493 74.028 18.076 74.064 18.2386 74.136C18.4013 74.208 18.4826 74.3093 18.4826 74.44C18.4826 74.568 18.4013 74.6693 18.2386 74.744C18.076 74.816 17.8493 74.852 17.5586 74.852C17.268 74.852 17.0413 74.816 16.8786 74.744C16.716 74.6693 16.6346 74.568 16.6346 74.44ZM18.0586 75.484H17.0626V75.064C17.1373 75.0773 17.216 75.088 17.2986 75.096C17.3813 75.1013 17.468 75.104 17.5586 75.104C17.6546 75.104 17.744 75.1013 17.8266 75.096C17.912 75.088 17.9893 75.0773 18.0586 75.064V75.484ZM17.5586 76.016C17.1746 76.016 16.8733 76.072 16.6546 76.184C16.4386 76.2933 16.3306 76.4507 16.3306 76.656C16.3306 76.8613 16.4386 77.0187 16.6546 77.128C16.8733 77.2373 17.1746 77.292 17.5586 77.292C17.9453 77.292 18.2466 77.2373 18.4626 77.128C18.6786 77.0187 18.7866 76.8613 18.7866 76.656C18.7866 76.4507 18.6786 76.2933 18.4626 76.184C18.2466 76.072 17.9453 76.016 17.5586 76.016ZM17.5586 77.04C17.276 77.04 17.056 77.0067 16.8986 76.94C16.7413 76.8733 16.6626 76.7787 16.6626 76.656C16.6626 76.5333 16.7413 76.4387 16.8986 76.372C17.056 76.3053 17.276 76.272 17.5586 76.272C17.8413 76.272 18.0613 76.3053 18.2186 76.372C18.376 76.4387 18.4546 76.5333 18.4546 76.656C18.4546 76.7787 18.376 76.8733 18.2186 76.94C18.0613 77.0067 17.8413 77.04 17.5586 77.04ZM22.4823 75.636V73.712H22.1543V75.636H22.4823ZM20.5543 73.88C20.4183 73.88 20.293 73.9 20.1783 73.94C20.0663 73.98 19.969 74.036 19.8863 74.108C19.8037 74.18 19.7383 74.2667 19.6903 74.368C19.645 74.4693 19.6223 74.5813 19.6223 74.704C19.6223 74.8267 19.645 74.94 19.6903 75.044C19.7383 75.1453 19.8037 75.232 19.8863 75.304C19.969 75.376 20.0663 75.432 20.1783 75.472C20.293 75.512 20.4183 75.532 20.5543 75.532C20.6903 75.532 20.8157 75.512 20.9303 75.472C21.045 75.432 21.1437 75.376 21.2263 75.304C21.3117 75.232 21.377 75.1453 21.4223 75.044C21.4703 74.94 21.4943 74.8267 21.4943 74.704C21.4943 74.5813 21.4703 74.4693 21.4223 74.368C21.377 74.2667 21.3117 74.18 21.2263 74.108C21.1437 74.036 21.045 73.98 20.9303 73.94C20.8157 73.9 20.6903 73.88 20.5543 73.88ZM20.5543 74.152C20.645 74.152 20.7277 74.1653 20.8023 74.192C20.8797 74.2187 20.945 74.2573 20.9983 74.308C21.0543 74.356 21.097 74.4147 21.1263 74.484C21.1583 74.5507 21.1743 74.624 21.1743 74.704C21.1743 74.872 21.117 75.0067 21.0023 75.108C20.8877 75.2093 20.7383 75.26 20.5543 75.26C20.4663 75.26 20.3837 75.2467 20.3063 75.22C20.2317 75.1933 20.1677 75.156 20.1143 75.108C20.061 75.0573 20.0183 74.9987 19.9863 74.932C19.957 74.8627 19.9423 74.7867 19.9423 74.704C19.9423 74.624 19.957 74.5507 19.9863 74.484C20.0183 74.4147 20.061 74.356 20.1143 74.308C20.1677 74.2573 20.2317 74.2187 20.3063 74.192C20.3837 74.1653 20.4663 74.152 20.5543 74.152ZM20.4943 76.252V75.812H20.1703V77.248H22.4823V75.812H22.1583V76.252H20.4943ZM22.1583 76.984H20.4943V76.508H22.1583V76.984ZM26.078 77.292V73.708H25.75V77.292H26.078ZM23.69 76.088V74.056H23.362V76.368H23.658C23.946 76.368 24.2327 76.356 24.518 76.332C24.8033 76.308 25.1033 76.264 25.418 76.2L25.382 75.92C25.0833 75.9813 24.7953 76.0253 24.518 76.052C24.2407 76.076 23.9647 76.088 23.69 76.088ZM29.4977 75.396H30.0897V75.124H29.4977V73.708H29.1697V77.304H29.4977V75.396ZM27.2177 76.128V74.324H28.5577V74.052H26.8897V76.408H27.1737C27.3417 76.408 27.499 76.4067 27.6457 76.404C27.7924 76.4013 27.9337 76.396 28.0697 76.388C28.2057 76.3773 28.339 76.364 28.4697 76.348C28.6004 76.3293 28.7337 76.3067 28.8697 76.28L28.8337 76.008C28.7057 76.032 28.579 76.052 28.4537 76.068C28.3284 76.084 28.2004 76.096 28.0697 76.104C27.9417 76.112 27.807 76.1187 27.6657 76.124C27.527 76.1267 27.3777 76.128 27.2177 76.128ZM30.6574 76.68H30.2934V77.056H30.6574V76.68Z" fill="#121417"></path>
<path d="M16.897 43.164L17.221 42.51C16.905 42.458 16.627 42.372 16.387 42.252C16.147 42.128 15.945 41.984 15.781 41.82C15.617 41.656 15.493 41.476 15.409 41.28C15.325 41.084 15.283 40.888 15.283 40.692V40.296H14.437V40.692C14.437 40.884 14.395 41.078 14.311 41.274C14.227 41.466 14.103 41.646 13.939 41.814C13.775 41.978 13.573 42.122 13.333 42.246C13.093 42.37 12.817 42.458 12.505 42.51L12.829 43.164C13.313 43.076 13.727 42.91 14.071 42.666C14.415 42.422 14.677 42.13 14.857 41.79C15.037 42.142 15.293 42.438 15.625 42.678C15.961 42.914 16.385 43.076 16.897 43.164ZM17.389 44.862V44.226H15.259V42.99H14.467V44.226H12.385V44.862H17.389ZM22.5245 45.51V39.984H21.7745V45.51H22.5245ZM21.3965 40.08H20.6585V41.874H19.9565V42.516H20.6585V45.264H21.3965V40.08ZM19.5365 41.454V41.184H20.3405V40.542H17.8805V41.184H18.7685V41.454C18.7685 41.694 18.7485 41.932 18.7085 42.168C18.6725 42.404 18.6105 42.63 18.5225 42.846C18.4385 43.058 18.3265 43.256 18.1865 43.44C18.0465 43.62 17.8765 43.774 17.6765 43.902L18.1445 44.484C18.3965 44.328 18.6045 44.122 18.7685 43.866C18.9325 43.606 19.0625 43.318 19.1585 43.002C19.2505 43.294 19.3745 43.556 19.5305 43.788C19.6865 44.02 19.8905 44.208 20.1425 44.352L20.6045 43.776C20.4045 43.66 20.2365 43.518 20.1005 43.35C19.9645 43.178 19.8545 42.99 19.7705 42.786C19.6865 42.582 19.6265 42.368 19.5905 42.144C19.5545 41.916 19.5365 41.686 19.5365 41.454ZM28.176 43.308V42.678H26.07V42.162H27.546V40.206H23.796V42.162H25.278V42.678H23.184V43.308H28.176ZM26.766 41.538H24.576V40.824H26.766V41.538ZM27.576 43.704H23.736V44.334H26.784V45.522H27.576V43.704Z" fill="#121417"></path>
<path d="M114.246 60.7071C114.637 60.3166 114.637 59.6834 114.246 59.2929L107.883 52.9289C107.492 52.5384 106.859 52.5384 106.468 52.9289C106.078 53.3195 106.078 53.9526 106.468 54.3431L112.125 60L106.468 65.6569C106.078 66.0474 106.078 66.6805 106.468 67.0711C106.859 67.4616 107.492 67.4616 107.883 67.0711L114.246 60.7071ZM97.127 61H113.539V59H97.127V61Z" fill="#868E96"></path>
</svg>