<svg width="120" height="120" viewBox="0 0 120 120" fill="none" xmlns="http://www.w3.org/2000/svg">
<rect x="7.29395" y="35.5" width="39" height="49" fill="#F8F9FA" stroke="#868E96"></rect>
<rect x="47.2939" y="35.5" width="39" height="49" fill="#F8F9FA" stroke="#868E96"></rect>
<path d="M55.0499 53.292V49.708H54.7339V51.168H54.2259V49.788H53.9179V53.112H54.2259V51.44H54.7339V53.292H55.0499ZM52.5099 52.08V50.144H52.1819V52.364H52.4099C52.6046 52.364 52.8059 52.3573 53.0139 52.344C53.2246 52.328 53.4513 52.2973 53.6939 52.252L53.6619 51.968C53.4459 52.0107 53.2433 52.04 53.0539 52.056C52.8673 52.0693 52.6859 52.0773 52.5099 52.08ZM58.8496 51.748V51.484H58.0496V50.976C58.1883 50.92 58.295 50.8467 58.3696 50.756C58.447 50.6653 58.4856 50.56 58.4856 50.44C58.4856 50.336 58.4563 50.2427 58.3976 50.16C58.339 50.0773 58.255 50.008 58.1456 49.952C58.039 49.8933 57.907 49.8493 57.7496 49.82C57.595 49.788 57.4203 49.772 57.2256 49.772C57.031 49.772 56.8563 49.788 56.7016 49.82C56.547 49.8493 56.415 49.8933 56.3056 49.952C56.1963 50.008 56.1123 50.0773 56.0536 50.16C55.995 50.2427 55.9656 50.336 55.9656 50.44C55.9656 50.6827 56.1123 50.8627 56.4056 50.98V51.484H55.6016V51.748H58.8496ZM56.3016 50.44C56.3016 50.3093 56.383 50.208 56.5456 50.136C56.7083 50.064 56.935 50.028 57.2256 50.028C57.5163 50.028 57.743 50.064 57.9056 50.136C58.0683 50.208 58.1496 50.3093 58.1496 50.44C58.1496 50.568 58.0683 50.6693 57.9056 50.744C57.743 50.816 57.5163 50.852 57.2256 50.852C56.935 50.852 56.7083 50.816 56.5456 50.744C56.383 50.6693 56.3016 50.568 56.3016 50.44ZM57.7256 51.484H56.7296V51.064C56.8043 51.0773 56.883 51.088 56.9656 51.096C57.0483 51.1013 57.135 51.104 57.2256 51.104C57.3216 51.104 57.411 51.1013 57.4936 51.096C57.579 51.088 57.6563 51.0773 57.7256 51.064V51.484ZM57.2256 52.016C56.8416 52.016 56.5403 52.072 56.3216 52.184C56.1056 52.2933 55.9976 52.4507 55.9976 52.656C55.9976 52.8613 56.1056 53.0187 56.3216 53.128C56.5403 53.2373 56.8416 53.292 57.2256 53.292C57.6123 53.292 57.9136 53.2373 58.1296 53.128C58.3456 53.0187 58.4536 52.8613 58.4536 52.656C58.4536 52.4507 58.3456 52.2933 58.1296 52.184C57.9136 52.072 57.6123 52.016 57.2256 52.016ZM57.2256 53.04C56.943 53.04 56.723 53.0067 56.5656 52.94C56.4083 52.8733 56.3296 52.7787 56.3296 52.656C56.3296 52.5333 56.4083 52.4387 56.5656 52.372C56.723 52.3053 56.943 52.272 57.2256 52.272C57.5083 52.272 57.7283 52.3053 57.8856 52.372C58.043 52.4387 58.1216 52.5333 58.1216 52.656C58.1216 52.7787 58.043 52.8733 57.8856 52.94C57.7283 53.0067 57.5083 53.04 57.2256 53.04ZM62.1493 51.636V49.712H61.8213V51.636H62.1493ZM60.2213 49.88C60.0853 49.88 59.96 49.9 59.8453 49.94C59.7333 49.98 59.636 50.036 59.5533 50.108C59.4707 50.18 59.4053 50.2667 59.3573 50.368C59.312 50.4693 59.2893 50.5813 59.2893 50.704C59.2893 50.8267 59.312 50.94 59.3573 51.044C59.4053 51.1453 59.4707 51.232 59.5533 51.304C59.636 51.376 59.7333 51.432 59.8453 51.472C59.96 51.512 60.0853 51.532 60.2213 51.532C60.3573 51.532 60.4827 51.512 60.5973 51.472C60.712 51.432 60.8107 51.376 60.8933 51.304C60.9787 51.232 61.044 51.1453 61.0893 51.044C61.1373 50.94 61.1613 50.8267 61.1613 50.704C61.1613 50.5813 61.1373 50.4693 61.0893 50.368C61.044 50.2667 60.9787 50.18 60.8933 50.108C60.8107 50.036 60.712 49.98 60.5973 49.94C60.4827 49.9 60.3573 49.88 60.2213 49.88ZM60.2213 50.152C60.312 50.152 60.3947 50.1653 60.4693 50.192C60.5467 50.2187 60.612 50.2573 60.6653 50.308C60.7213 50.356 60.764 50.4147 60.7933 50.484C60.8253 50.5507 60.8413 50.624 60.8413 50.704C60.8413 50.872 60.784 51.0067 60.6693 51.108C60.5547 51.2093 60.4053 51.26 60.2213 51.26C60.1333 51.26 60.0507 51.2467 59.9733 51.22C59.8987 51.1933 59.8347 51.156 59.7813 51.108C59.728 51.0573 59.6853 50.9987 59.6533 50.932C59.624 50.8627 59.6093 50.7867 59.6093 50.704C59.6093 50.624 59.624 50.5507 59.6533 50.484C59.6853 50.4147 59.728 50.356 59.7813 50.308C59.8347 50.2573 59.8987 50.2187 59.9733 50.192C60.0507 50.1653 60.1333 50.152 60.2213 50.152ZM60.1613 52.252V51.812H59.8373V53.248H62.1493V51.812H61.8253V52.252H60.1613ZM61.8253 52.984H60.1613V52.508H61.8253V52.984ZM65.745 53.292V49.708H65.417V53.292H65.745ZM63.357 52.088V50.056H63.029V52.368H63.325C63.613 52.368 63.8997 52.356 64.185 52.332C64.4703 52.308 64.7703 52.264 65.085 52.2L65.049 51.92C64.7503 51.9813 64.4623 52.0253 64.185 52.052C63.9077 52.076 63.6317 52.088 63.357 52.088ZM69.1647 51.396H69.7567V51.124H69.1647V49.708H68.8367V53.304H69.1647V51.396ZM66.8847 52.128V50.324H68.2247V50.052H66.5567V52.408H66.8407C67.0087 52.408 67.166 52.4067 67.3127 52.404C67.4594 52.4013 67.6007 52.396 67.7367 52.388C67.8727 52.3773 68.006 52.364 68.1367 52.348C68.2674 52.3293 68.4007 52.3067 68.5367 52.28L68.5007 52.008C68.3727 52.032 68.246 52.052 68.1207 52.068C67.9954 52.084 67.8674 52.096 67.7367 52.104C67.6087 52.112 67.474 52.1187 67.3327 52.124C67.194 52.1267 67.0447 52.128 66.8847 52.128ZM70.3244 52.68H69.9604V53.056H70.3244V52.68ZM73.8903 53.292V49.708H73.5743V51.168H73.0663V49.788H72.7583V53.112H73.0663V51.44H73.5743V53.292H73.8903ZM71.3503 52.08V50.144H71.0223V52.364H71.2503C71.4449 52.364 71.6463 52.3573 71.8543 52.344C72.0649 52.328 72.2916 52.2973 72.5343 52.252L72.5023 51.968C72.2863 52.0107 72.0836 52.04 71.8943 52.056C71.7076 52.0693 71.5263 52.0773 71.3503 52.08ZM77.6899 51.748V51.484H76.8899V50.976C77.0286 50.92 77.1353 50.8467 77.2099 50.756C77.2873 50.6653 77.3259 50.56 77.3259 50.44C77.3259 50.336 77.2966 50.2427 77.2379 50.16C77.1793 50.0773 77.0953 50.008 76.9859 49.952C76.8793 49.8933 76.7473 49.8493 76.5899 49.82C76.4353 49.788 76.2606 49.772 76.0659 49.772C75.8713 49.772 75.6966 49.788 75.5419 49.82C75.3873 49.8493 75.2553 49.8933 75.1459 49.952C75.0366 50.008 74.9526 50.0773 74.8939 50.16C74.8353 50.2427 74.8059 50.336 74.8059 50.44C74.8059 50.6827 74.9526 50.8627 75.2459 50.98V51.484H74.4419V51.748H77.6899ZM75.1419 50.44C75.1419 50.3093 75.2233 50.208 75.3859 50.136C75.5486 50.064 75.7753 50.028 76.0659 50.028C76.3566 50.028 76.5833 50.064 76.7459 50.136C76.9086 50.208 76.9899 50.3093 76.9899 50.44C76.9899 50.568 76.9086 50.6693 76.7459 50.744C76.5833 50.816 76.3566 50.852 76.0659 50.852C75.7753 50.852 75.5486 50.816 75.3859 50.744C75.2233 50.6693 75.1419 50.568 75.1419 50.44ZM76.5659 51.484H75.5699V51.064C75.6446 51.0773 75.7233 51.088 75.8059 51.096C75.8886 51.1013 75.9753 51.104 76.0659 51.104C76.1619 51.104 76.2513 51.1013 76.3339 51.096C76.4193 51.088 76.4966 51.0773 76.5659 51.064V51.484ZM76.0659 52.016C75.6819 52.016 75.3806 52.072 75.1619 52.184C74.9459 52.2933 74.8379 52.4507 74.8379 52.656C74.8379 52.8613 74.9459 53.0187 75.1619 53.128C75.3806 53.2373 75.6819 53.292 76.0659 53.292C76.4526 53.292 76.7539 53.2373 76.9699 53.128C77.1859 53.0187 77.2939 52.8613 77.2939 52.656C77.2939 52.4507 77.1859 52.2933 76.9699 52.184C76.7539 52.072 76.4526 52.016 76.0659 52.016ZM76.0659 53.04C75.7833 53.04 75.5633 53.0067 75.4059 52.94C75.2486 52.8733 75.1699 52.7787 75.1699 52.656C75.1699 52.5333 75.2486 52.4387 75.4059 52.372C75.5633 52.3053 75.7833 52.272 76.0659 52.272C76.3486 52.272 76.5686 52.3053 76.7259 52.372C76.8833 52.4387 76.9619 52.5333 76.9619 52.656C76.9619 52.7787 76.8833 52.8733 76.7259 52.94C76.5686 53.0067 76.3486 53.04 76.0659 53.04ZM80.9896 51.636V49.712H80.6616V51.636H80.9896ZM79.0616 49.88C78.9256 49.88 78.8003 49.9 78.6856 49.94C78.5736 49.98 78.4763 50.036 78.3936 50.108C78.311 50.18 78.2456 50.2667 78.1976 50.368C78.1523 50.4693 78.1296 50.5813 78.1296 50.704C78.1296 50.8267 78.1523 50.94 78.1976 51.044C78.2456 51.1453 78.311 51.232 78.3936 51.304C78.4763 51.376 78.5736 51.432 78.6856 51.472C78.8003 51.512 78.9256 51.532 79.0616 51.532C79.1976 51.532 79.323 51.512 79.4376 51.472C79.5523 51.432 79.651 51.376 79.7336 51.304C79.819 51.232 79.8843 51.1453 79.9296 51.044C79.9776 50.94 80.0016 50.8267 80.0016 50.704C80.0016 50.5813 79.9776 50.4693 79.9296 50.368C79.8843 50.2667 79.819 50.18 79.7336 50.108C79.651 50.036 79.5523 49.98 79.4376 49.94C79.323 49.9 79.1976 49.88 79.0616 49.88ZM79.0616 50.152C79.1523 50.152 79.235 50.1653 79.3096 50.192C79.387 50.2187 79.4523 50.2573 79.5056 50.308C79.5616 50.356 79.6043 50.4147 79.6336 50.484C79.6656 50.5507 79.6816 50.624 79.6816 50.704C79.6816 50.872 79.6243 51.0067 79.5096 51.108C79.395 51.2093 79.2456 51.26 79.0616 51.26C78.9736 51.26 78.891 51.2467 78.8136 51.22C78.739 51.1933 78.675 51.156 78.6216 51.108C78.5683 51.0573 78.5256 50.9987 78.4936 50.932C78.4643 50.8627 78.4496 50.7867 78.4496 50.704C78.4496 50.624 78.4643 50.5507 78.4936 50.484C78.5256 50.4147 78.5683 50.356 78.6216 50.308C78.675 50.2573 78.739 50.2187 78.8136 50.192C78.891 50.1653 78.9736 50.152 79.0616 50.152ZM79.0016 52.252V51.812H78.6776V53.248H80.9896V51.812H80.6656V52.252H79.0016ZM80.6656 52.984H79.0016V52.508H80.6656V52.984ZM54.9459 59.292V55.708H54.6179V59.292H54.9459ZM52.5579 58.088V56.056H52.2299V58.368H52.5259C52.8139 58.368 53.1006 58.356 53.3859 58.332C53.6713 58.308 53.9713 58.264 54.2859 58.2L54.2499 57.92C53.9513 57.9813 53.6633 58.0253 53.3859 58.052C53.1086 58.076 52.8326 58.088 52.5579 58.088ZM58.3656 57.396H58.9576V57.124H58.3656V55.708H58.0376V59.304H58.3656V57.396ZM56.0856 58.128V56.324H57.4256V56.052H55.7576V58.408H56.0416C56.2096 58.408 56.367 58.4067 56.5136 58.404C56.6603 58.4013 56.8016 58.396 56.9376 58.388C57.0736 58.3773 57.207 58.364 57.3376 58.348C57.4683 58.3293 57.6016 58.3067 57.7376 58.28L57.7016 58.008C57.5736 58.032 57.447 58.052 57.3216 58.068C57.1963 58.084 57.0683 58.096 56.9376 58.104C56.8096 58.112 56.675 58.1187 56.5336 58.124C56.395 58.1267 56.2456 58.128 56.0856 58.128ZM59.5253 58.68H59.1613V59.056H59.5253V58.68ZM63.0912 59.292V55.708H62.7752V57.168H62.2672V55.788H61.9592V59.112H62.2672V57.44H62.7752V59.292H63.0912ZM60.5512 58.08V56.144H60.2232V58.364H60.4512C60.6459 58.364 60.8472 58.3573 61.0552 58.344C61.2659 58.328 61.4925 58.2973 61.7352 58.252L61.7032 57.968C61.4872 58.0107 61.2845 58.04 61.0952 58.056C60.9085 58.0693 60.7272 58.0773 60.5512 58.08ZM66.8909 57.748V57.484H66.0909V56.976C66.2295 56.92 66.3362 56.8467 66.4109 56.756C66.4882 56.6653 66.5269 56.56 66.5269 56.44C66.5269 56.336 66.4976 56.2427 66.4389 56.16C66.3802 56.0773 66.2962 56.008 66.1869 55.952C66.0802 55.8933 65.9482 55.8493 65.7909 55.82C65.6362 55.788 65.4615 55.772 65.2669 55.772C65.0722 55.772 64.8975 55.788 64.7429 55.82C64.5882 55.8493 64.4562 55.8933 64.3469 55.952C64.2375 56.008 64.1535 56.0773 64.0949 56.16C64.0362 56.2427 64.0069 56.336 64.0069 56.44C64.0069 56.6827 64.1535 56.8627 64.4469 56.98V57.484H63.6429V57.748H66.8909ZM64.3429 56.44C64.3429 56.3093 64.4242 56.208 64.5869 56.136C64.7495 56.064 64.9762 56.028 65.2669 56.028C65.5575 56.028 65.7842 56.064 65.9469 56.136C66.1095 56.208 66.1909 56.3093 66.1909 56.44C66.1909 56.568 66.1095 56.6693 65.9469 56.744C65.7842 56.816 65.5575 56.852 65.2669 56.852C64.9762 56.852 64.7495 56.816 64.5869 56.744C64.4242 56.6693 64.3429 56.568 64.3429 56.44ZM65.7669 57.484H64.7709V57.064C64.8455 57.0773 64.9242 57.088 65.0069 57.096C65.0895 57.1013 65.1762 57.104 65.2669 57.104C65.3629 57.104 65.4522 57.1013 65.5349 57.096C65.6202 57.088 65.6975 57.0773 65.7669 57.064V57.484ZM65.2669 58.016C64.8829 58.016 64.5815 58.072 64.3629 58.184C64.1469 58.2933 64.0389 58.4507 64.0389 58.656C64.0389 58.8613 64.1469 59.0187 64.3629 59.128C64.5815 59.2373 64.8829 59.292 65.2669 59.292C65.6535 59.292 65.9549 59.2373 66.1709 59.128C66.3869 59.0187 66.4949 58.8613 66.4949 58.656C66.4949 58.4507 66.3869 58.2933 66.1709 58.184C65.9549 58.072 65.6535 58.016 65.2669 58.016ZM65.2669 59.04C64.9842 59.04 64.7642 59.0067 64.6069 58.94C64.4495 58.8733 64.3709 58.7787 64.3709 58.656C64.3709 58.5333 64.4495 58.4387 64.6069 58.372C64.7642 58.3053 64.9842 58.272 65.2669 58.272C65.5495 58.272 65.7695 58.3053 65.9269 58.372C66.0842 58.4387 66.1629 58.5333 66.1629 58.656C66.1629 58.7787 66.0842 58.8733 65.9269 58.94C65.7695 59.0067 65.5495 59.04 65.2669 59.04ZM70.1906 57.636V55.712H69.8626V57.636H70.1906ZM68.2626 55.88C68.1266 55.88 68.0012 55.9 67.8866 55.94C67.7746 55.98 67.6772 56.036 67.5946 56.108C67.5119 56.18 67.4466 56.2667 67.3986 56.368C67.3532 56.4693 67.3306 56.5813 67.3306 56.704C67.3306 56.8267 67.3532 56.94 67.3986 57.044C67.4466 57.1453 67.5119 57.232 67.5946 57.304C67.6772 57.376 67.7746 57.432 67.8866 57.472C68.0012 57.512 68.1266 57.532 68.2626 57.532C68.3986 57.532 68.5239 57.512 68.6386 57.472C68.7532 57.432 68.8519 57.376 68.9346 57.304C69.0199 57.232 69.0852 57.1453 69.1306 57.044C69.1786 56.94 69.2026 56.8267 69.2026 56.704C69.2026 56.5813 69.1786 56.4693 69.1306 56.368C69.0852 56.2667 69.0199 56.18 68.9346 56.108C68.8519 56.036 68.7532 55.98 68.6386 55.94C68.5239 55.9 68.3986 55.88 68.2626 55.88ZM68.2626 56.152C68.3532 56.152 68.4359 56.1653 68.5106 56.192C68.5879 56.2187 68.6532 56.2573 68.7066 56.308C68.7626 56.356 68.8052 56.4147 68.8346 56.484C68.8666 56.5507 68.8826 56.624 68.8826 56.704C68.8826 56.872 68.8252 57.0067 68.7106 57.108C68.5959 57.2093 68.4466 57.26 68.2626 57.26C68.1746 57.26 68.0919 57.2467 68.0146 57.22C67.9399 57.1933 67.8759 57.156 67.8226 57.108C67.7692 57.0573 67.7266 56.9987 67.6946 56.932C67.6652 56.8627 67.6506 56.7867 67.6506 56.704C67.6506 56.624 67.6652 56.5507 67.6946 56.484C67.7266 56.4147 67.7692 56.356 67.8226 56.308C67.8759 56.2573 67.9399 56.2187 68.0146 56.192C68.0919 56.1653 68.1746 56.152 68.2626 56.152ZM68.2026 58.252V57.812H67.8786V59.248H70.1906V57.812H69.8666V58.252H68.2026ZM69.8666 58.984H68.2026V58.508H69.8666V58.984ZM73.7863 59.292V55.708H73.4583V59.292H73.7863ZM71.3983 58.088V56.056H71.0703V58.368H71.3663C71.6543 58.368 71.9409 58.356 72.2263 58.332C72.5116 58.308 72.8116 58.264 73.1263 58.2L73.0903 57.92C72.7916 57.9813 72.5036 58.0253 72.2263 58.052C71.9489 58.076 71.6729 58.088 71.3983 58.088ZM77.2059 57.396H77.7979V57.124H77.2059V55.708H76.8779V59.304H77.2059V57.396ZM74.9259 58.128V56.324H76.2659V56.052H74.5979V58.408H74.8819C75.0499 58.408 75.2073 58.4067 75.3539 58.404C75.5006 58.4013 75.6419 58.396 75.7779 58.388C75.9139 58.3773 76.0473 58.364 76.1779 58.348C76.3086 58.3293 76.4419 58.3067 76.5779 58.28L76.5419 58.008C76.4139 58.032 76.2873 58.052 76.1619 58.068C76.0366 58.084 75.9086 58.096 75.7779 58.104C75.6499 58.112 75.5153 58.1187 75.3739 58.124C75.2353 58.1267 75.0859 58.128 74.9259 58.128ZM78.3656 58.68H78.0016V59.056H78.3656V58.68ZM55.0499 65.292V61.708H54.7339V63.168H54.2259V61.788H53.9179V65.112H54.2259V63.44H54.7339V65.292H55.0499ZM52.5099 64.08V62.144H52.1819V64.364H52.4099C52.6046 64.364 52.8059 64.3573 53.0139 64.344C53.2246 64.328 53.4513 64.2973 53.6939 64.252L53.6619 63.968C53.4459 64.0107 53.2433 64.04 53.0539 64.056C52.8673 64.0693 52.6859 64.0773 52.5099 64.08ZM58.8496 63.748V63.484H58.0496V62.976C58.1883 62.92 58.295 62.8467 58.3696 62.756C58.447 62.6653 58.4856 62.56 58.4856 62.44C58.4856 62.336 58.4563 62.2427 58.3976 62.16C58.339 62.0773 58.255 62.008 58.1456 61.952C58.039 61.8933 57.907 61.8493 57.7496 61.82C57.595 61.788 57.4203 61.772 57.2256 61.772C57.031 61.772 56.8563 61.788 56.7016 61.82C56.547 61.8493 56.415 61.8933 56.3056 61.952C56.1963 62.008 56.1123 62.0773 56.0536 62.16C55.995 62.2427 55.9656 62.336 55.9656 62.44C55.9656 62.6827 56.1123 62.8627 56.4056 62.98V63.484H55.6016V63.748H58.8496ZM56.3016 62.44C56.3016 62.3093 56.383 62.208 56.5456 62.136C56.7083 62.064 56.935 62.028 57.2256 62.028C57.5163 62.028 57.743 62.064 57.9056 62.136C58.0683 62.208 58.1496 62.3093 58.1496 62.44C58.1496 62.568 58.0683 62.6693 57.9056 62.744C57.743 62.816 57.5163 62.852 57.2256 62.852C56.935 62.852 56.7083 62.816 56.5456 62.744C56.383 62.6693 56.3016 62.568 56.3016 62.44ZM57.7256 63.484H56.7296V63.064C56.8043 63.0773 56.883 63.088 56.9656 63.096C57.0483 63.1013 57.135 63.104 57.2256 63.104C57.3216 63.104 57.411 63.1013 57.4936 63.096C57.579 63.088 57.6563 63.0773 57.7256 63.064V63.484ZM57.2256 64.016C56.8416 64.016 56.5403 64.072 56.3216 64.184C56.1056 64.2933 55.9976 64.4507 55.9976 64.656C55.9976 64.8613 56.1056 65.0187 56.3216 65.128C56.5403 65.2373 56.8416 65.292 57.2256 65.292C57.6123 65.292 57.9136 65.2373 58.1296 65.128C58.3456 65.0187 58.4536 64.8613 58.4536 64.656C58.4536 64.4507 58.3456 64.2933 58.1296 64.184C57.9136 64.072 57.6123 64.016 57.2256 64.016ZM57.2256 65.04C56.943 65.04 56.723 65.0067 56.5656 64.94C56.4083 64.8733 56.3296 64.7787 56.3296 64.656C56.3296 64.5333 56.4083 64.4387 56.5656 64.372C56.723 64.3053 56.943 64.272 57.2256 64.272C57.5083 64.272 57.7283 64.3053 57.8856 64.372C58.043 64.4387 58.1216 64.5333 58.1216 64.656C58.1216 64.7787 58.043 64.8733 57.8856 64.94C57.7283 65.0067 57.5083 65.04 57.2256 65.04ZM62.1493 63.636V61.712H61.8213V63.636H62.1493ZM60.2213 61.88C60.0853 61.88 59.96 61.9 59.8453 61.94C59.7333 61.98 59.636 62.036 59.5533 62.108C59.4707 62.18 59.4053 62.2667 59.3573 62.368C59.312 62.4693 59.2893 62.5813 59.2893 62.704C59.2893 62.8267 59.312 62.94 59.3573 63.044C59.4053 63.1453 59.4707 63.232 59.5533 63.304C59.636 63.376 59.7333 63.432 59.8453 63.472C59.96 63.512 60.0853 63.532 60.2213 63.532C60.3573 63.532 60.4827 63.512 60.5973 63.472C60.712 63.432 60.8107 63.376 60.8933 63.304C60.9787 63.232 61.044 63.1453 61.0893 63.044C61.1373 62.94 61.1613 62.8267 61.1613 62.704C61.1613 62.5813 61.1373 62.4693 61.0893 62.368C61.044 62.2667 60.9787 62.18 60.8933 62.108C60.8107 62.036 60.712 61.98 60.5973 61.94C60.4827 61.9 60.3573 61.88 60.2213 61.88ZM60.2213 62.152C60.312 62.152 60.3947 62.1653 60.4693 62.192C60.5467 62.2187 60.612 62.2573 60.6653 62.308C60.7213 62.356 60.764 62.4147 60.7933 62.484C60.8253 62.5507 60.8413 62.624 60.8413 62.704C60.8413 62.872 60.784 63.0067 60.6693 63.108C60.5547 63.2093 60.4053 63.26 60.2213 63.26C60.1333 63.26 60.0507 63.2467 59.9733 63.22C59.8987 63.1933 59.8347 63.156 59.7813 63.108C59.728 63.0573 59.6853 62.9987 59.6533 62.932C59.624 62.8627 59.6093 62.7867 59.6093 62.704C59.6093 62.624 59.624 62.5507 59.6533 62.484C59.6853 62.4147 59.728 62.356 59.7813 62.308C59.8347 62.2573 59.8987 62.2187 59.9733 62.192C60.0507 62.1653 60.1333 62.152 60.2213 62.152ZM60.1613 64.252V63.812H59.8373V65.248H62.1493V63.812H61.8253V64.252H60.1613ZM61.8253 64.984H60.1613V64.508H61.8253V64.984ZM65.745 65.292V61.708H65.417V65.292H65.745ZM63.357 64.088V62.056H63.029V64.368H63.325C63.613 64.368 63.8997 64.356 64.185 64.332C64.4703 64.308 64.7703 64.264 65.085 64.2L65.049 63.92C64.7503 63.9813 64.4623 64.0253 64.185 64.052C63.9077 64.076 63.6317 64.088 63.357 64.088ZM69.1647 63.396H69.7567V63.124H69.1647V61.708H68.8367V65.304H69.1647V63.396ZM66.8847 64.128V62.324H68.2247V62.052H66.5567V64.408H66.8407C67.0087 64.408 67.166 64.4067 67.3127 64.404C67.4594 64.4013 67.6007 64.396 67.7367 64.388C67.8727 64.3773 68.006 64.364 68.1367 64.348C68.2674 64.3293 68.4007 64.3067 68.5367 64.28L68.5007 64.008C68.3727 64.032 68.246 64.052 68.1207 64.068C67.9954 64.084 67.8674 64.096 67.7367 64.104C67.6087 64.112 67.474 64.1187 67.3327 64.124C67.194 64.1267 67.0447 64.128 66.8847 64.128ZM70.3244 64.68H69.9604V65.056H70.3244V64.68ZM73.8903 65.292V61.708H73.5743V63.168H73.0663V61.788H72.7583V65.112H73.0663V63.44H73.5743V65.292H73.8903ZM71.3503 64.08V62.144H71.0223V64.364H71.2503C71.4449 64.364 71.6463 64.3573 71.8543 64.344C72.0649 64.328 72.2916 64.2973 72.5343 64.252L72.5023 63.968C72.2863 64.0107 72.0836 64.04 71.8943 64.056C71.7076 64.0693 71.5263 64.0773 71.3503 64.08ZM77.6899 63.748V63.484H76.8899V62.976C77.0286 62.92 77.1353 62.8467 77.2099 62.756C77.2873 62.6653 77.3259 62.56 77.3259 62.44C77.3259 62.336 77.2966 62.2427 77.2379 62.16C77.1793 62.0773 77.0953 62.008 76.9859 61.952C76.8793 61.8933 76.7473 61.8493 76.5899 61.82C76.4353 61.788 76.2606 61.772 76.0659 61.772C75.8713 61.772 75.6966 61.788 75.5419 61.82C75.3873 61.8493 75.2553 61.8933 75.1459 61.952C75.0366 62.008 74.9526 62.0773 74.8939 62.16C74.8353 62.2427 74.8059 62.336 74.8059 62.44C74.8059 62.6827 74.9526 62.8627 75.2459 62.98V63.484H74.4419V63.748H77.6899ZM75.1419 62.44C75.1419 62.3093 75.2233 62.208 75.3859 62.136C75.5486 62.064 75.7753 62.028 76.0659 62.028C76.3566 62.028 76.5833 62.064 76.7459 62.136C76.9086 62.208 76.9899 62.3093 76.9899 62.44C76.9899 62.568 76.9086 62.6693 76.7459 62.744C76.5833 62.816 76.3566 62.852 76.0659 62.852C75.7753 62.852 75.5486 62.816 75.3859 62.744C75.2233 62.6693 75.1419 62.568 75.1419 62.44ZM76.5659 63.484H75.5699V63.064C75.6446 63.0773 75.7233 63.088 75.8059 63.096C75.8886 63.1013 75.9753 63.104 76.0659 63.104C76.1619 63.104 76.2513 63.1013 76.3339 63.096C76.4193 63.088 76.4966 63.0773 76.5659 63.064V63.484ZM76.0659 64.016C75.6819 64.016 75.3806 64.072 75.1619 64.184C74.9459 64.2933 74.8379 64.4507 74.8379 64.656C74.8379 64.8613 74.9459 65.0187 75.1619 65.128C75.3806 65.2373 75.6819 65.292 76.0659 65.292C76.4526 65.292 76.7539 65.2373 76.9699 65.128C77.1859 65.0187 77.2939 64.8613 77.2939 64.656C77.2939 64.4507 77.1859 64.2933 76.9699 64.184C76.7539 64.072 76.4526 64.016 76.0659 64.016ZM76.0659 65.04C75.7833 65.04 75.5633 65.0067 75.4059 64.94C75.2486 64.8733 75.1699 64.7787 75.1699 64.656C75.1699 64.5333 75.2486 64.4387 75.4059 64.372C75.5633 64.3053 75.7833 64.272 76.0659 64.272C76.3486 64.272 76.5686 64.3053 76.7259 64.372C76.8833 64.4387 76.9619 64.5333 76.9619 64.656C76.9619 64.7787 76.8833 64.8733 76.7259 64.94C76.5686 65.0067 76.3486 65.04 76.0659 65.04ZM80.9896 63.636V61.712H80.6616V63.636H80.9896ZM79.0616 61.88C78.9256 61.88 78.8003 61.9 78.6856 61.94C78.5736 61.98 78.4763 62.036 78.3936 62.108C78.311 62.18 78.2456 62.2667 78.1976 62.368C78.1523 62.4693 78.1296 62.5813 78.1296 62.704C78.1296 62.8267 78.1523 62.94 78.1976 63.044C78.2456 63.1453 78.311 63.232 78.3936 63.304C78.4763 63.376 78.5736 63.432 78.6856 63.472C78.8003 63.512 78.9256 63.532 79.0616 63.532C79.1976 63.532 79.323 63.512 79.4376 63.472C79.5523 63.432 79.651 63.376 79.7336 63.304C79.819 63.232 79.8843 63.1453 79.9296 63.044C79.9776 62.94 80.0016 62.8267 80.0016 62.704C80.0016 62.5813 79.9776 62.4693 79.9296 62.368C79.8843 62.2667 79.819 62.18 79.7336 62.108C79.651 62.036 79.5523 61.98 79.4376 61.94C79.323 61.9 79.1976 61.88 79.0616 61.88ZM79.0616 62.152C79.1523 62.152 79.235 62.1653 79.3096 62.192C79.387 62.2187 79.4523 62.2573 79.5056 62.308C79.5616 62.356 79.6043 62.4147 79.6336 62.484C79.6656 62.5507 79.6816 62.624 79.6816 62.704C79.6816 62.872 79.6243 63.0067 79.5096 63.108C79.395 63.2093 79.2456 63.26 79.0616 63.26C78.9736 63.26 78.891 63.2467 78.8136 63.22C78.739 63.1933 78.675 63.156 78.6216 63.108C78.5683 63.0573 78.5256 62.9987 78.4936 62.932C78.4643 62.8627 78.4496 62.7867 78.4496 62.704C78.4496 62.624 78.4643 62.5507 78.4936 62.484C78.5256 62.4147 78.5683 62.356 78.6216 62.308C78.675 62.2573 78.739 62.2187 78.8136 62.192C78.891 62.1653 78.9736 62.152 79.0616 62.152ZM79.0016 64.252V63.812H78.6776V65.248H80.9896V63.812H80.6656V64.252H79.0016ZM80.6656 64.984H79.0016V64.508H80.6656V64.984ZM54.9459 71.292V67.708H54.6179V71.292H54.9459ZM52.5579 70.088V68.056H52.2299V70.368H52.5259C52.8139 70.368 53.1006 70.356 53.3859 70.332C53.6713 70.308 53.9713 70.264 54.2859 70.2L54.2499 69.92C53.9513 69.9813 53.6633 70.0253 53.3859 70.052C53.1086 70.076 52.8326 70.088 52.5579 70.088ZM58.3656 69.396H58.9576V69.124H58.3656V67.708H58.0376V71.304H58.3656V69.396ZM56.0856 70.128V68.324H57.4256V68.052H55.7576V70.408H56.0416C56.2096 70.408 56.367 70.4067 56.5136 70.404C56.6603 70.4013 56.8016 70.396 56.9376 70.388C57.0736 70.3773 57.207 70.364 57.3376 70.348C57.4683 70.3293 57.6016 70.3067 57.7376 70.28L57.7016 70.008C57.5736 70.032 57.447 70.052 57.3216 70.068C57.1963 70.084 57.0683 70.096 56.9376 70.104C56.8096 70.112 56.675 70.1187 56.5336 70.124C56.395 70.1267 56.2456 70.128 56.0856 70.128ZM59.5253 70.68H59.1613V71.056H59.5253V70.68ZM63.0912 71.292V67.708H62.7752V69.168H62.2672V67.788H61.9592V71.112H62.2672V69.44H62.7752V71.292H63.0912ZM60.5512 70.08V68.144H60.2232V70.364H60.4512C60.6459 70.364 60.8472 70.3573 61.0552 70.344C61.2659 70.328 61.4925 70.2973 61.7352 70.252L61.7032 69.968C61.4872 70.0107 61.2845 70.04 61.0952 70.056C60.9085 70.0693 60.7272 70.0773 60.5512 70.08ZM66.8909 69.748V69.484H66.0909V68.976C66.2295 68.92 66.3362 68.8467 66.4109 68.756C66.4882 68.6653 66.5269 68.56 66.5269 68.44C66.5269 68.336 66.4976 68.2427 66.4389 68.16C66.3802 68.0773 66.2962 68.008 66.1869 67.952C66.0802 67.8933 65.9482 67.8493 65.7909 67.82C65.6362 67.788 65.4615 67.772 65.2669 67.772C65.0722 67.772 64.8975 67.788 64.7429 67.82C64.5882 67.8493 64.4562 67.8933 64.3469 67.952C64.2375 68.008 64.1535 68.0773 64.0949 68.16C64.0362 68.2427 64.0069 68.336 64.0069 68.44C64.0069 68.6827 64.1535 68.8627 64.4469 68.98V69.484H63.6429V69.748H66.8909ZM64.3429 68.44C64.3429 68.3093 64.4242 68.208 64.5869 68.136C64.7495 68.064 64.9762 68.028 65.2669 68.028C65.5575 68.028 65.7842 68.064 65.9469 68.136C66.1095 68.208 66.1909 68.3093 66.1909 68.44C66.1909 68.568 66.1095 68.6693 65.9469 68.744C65.7842 68.816 65.5575 68.852 65.2669 68.852C64.9762 68.852 64.7495 68.816 64.5869 68.744C64.4242 68.6693 64.3429 68.568 64.3429 68.44ZM65.7669 69.484H64.7709V69.064C64.8455 69.0773 64.9242 69.088 65.0069 69.096C65.0895 69.1013 65.1762 69.104 65.2669 69.104C65.3629 69.104 65.4522 69.1013 65.5349 69.096C65.6202 69.088 65.6975 69.0773 65.7669 69.064V69.484ZM65.2669 70.016C64.8829 70.016 64.5815 70.072 64.3629 70.184C64.1469 70.2933 64.0389 70.4507 64.0389 70.656C64.0389 70.8613 64.1469 71.0187 64.3629 71.128C64.5815 71.2373 64.8829 71.292 65.2669 71.292C65.6535 71.292 65.9549 71.2373 66.1709 71.128C66.3869 71.0187 66.4949 70.8613 66.4949 70.656C66.4949 70.4507 66.3869 70.2933 66.1709 70.184C65.9549 70.072 65.6535 70.016 65.2669 70.016ZM65.2669 71.04C64.9842 71.04 64.7642 71.0067 64.6069 70.94C64.4495 70.8733 64.3709 70.7787 64.3709 70.656C64.3709 70.5333 64.4495 70.4387 64.6069 70.372C64.7642 70.3053 64.9842 70.272 65.2669 70.272C65.5495 70.272 65.7695 70.3053 65.9269 70.372C66.0842 70.4387 66.1629 70.5333 66.1629 70.656C66.1629 70.7787 66.0842 70.8733 65.9269 70.94C65.7695 71.0067 65.5495 71.04 65.2669 71.04ZM70.1906 69.636V67.712H69.8626V69.636H70.1906ZM68.2626 67.88C68.1266 67.88 68.0012 67.9 67.8866 67.94C67.7746 67.98 67.6772 68.036 67.5946 68.108C67.5119 68.18 67.4466 68.2667 67.3986 68.368C67.3532 68.4693 67.3306 68.5813 67.3306 68.704C67.3306 68.8267 67.3532 68.94 67.3986 69.044C67.4466 69.1453 67.5119 69.232 67.5946 69.304C67.6772 69.376 67.7746 69.432 67.8866 69.472C68.0012 69.512 68.1266 69.532 68.2626 69.532C68.3986 69.532 68.5239 69.512 68.6386 69.472C68.7532 69.432 68.8519 69.376 68.9346 69.304C69.0199 69.232 69.0852 69.1453 69.1306 69.044C69.1786 68.94 69.2026 68.8267 69.2026 68.704C69.2026 68.5813 69.1786 68.4693 69.1306 68.368C69.0852 68.2667 69.0199 68.18 68.9346 68.108C68.8519 68.036 68.7532 67.98 68.6386 67.94C68.5239 67.9 68.3986 67.88 68.2626 67.88ZM68.2626 68.152C68.3532 68.152 68.4359 68.1653 68.5106 68.192C68.5879 68.2187 68.6532 68.2573 68.7066 68.308C68.7626 68.356 68.8052 68.4147 68.8346 68.484C68.8666 68.5507 68.8826 68.624 68.8826 68.704C68.8826 68.872 68.8252 69.0067 68.7106 69.108C68.5959 69.2093 68.4466 69.26 68.2626 69.26C68.1746 69.26 68.0919 69.2467 68.0146 69.22C67.9399 69.1933 67.8759 69.156 67.8226 69.108C67.7692 69.0573 67.7266 68.9987 67.6946 68.932C67.6652 68.8627 67.6506 68.7867 67.6506 68.704C67.6506 68.624 67.6652 68.5507 67.6946 68.484C67.7266 68.4147 67.7692 68.356 67.8226 68.308C67.8759 68.2573 67.9399 68.2187 68.0146 68.192C68.0919 68.1653 68.1746 68.152 68.2626 68.152ZM68.2026 70.252V69.812H67.8786V71.248H70.1906V69.812H69.8666V70.252H68.2026ZM69.8666 70.984H68.2026V70.508H69.8666V70.984ZM73.7863 71.292V67.708H73.4583V71.292H73.7863ZM71.3983 70.088V68.056H71.0703V70.368H71.3663C71.6543 70.368 71.9409 70.356 72.2263 70.332C72.5116 70.308 72.8116 70.264 73.1263 70.2L73.0903 69.92C72.7916 69.9813 72.5036 70.0253 72.2263 70.052C71.9489 70.076 71.6729 70.088 71.3983 70.088ZM77.2059 69.396H77.7979V69.124H77.2059V67.708H76.8779V71.304H77.2059V69.396ZM74.9259 70.128V68.324H76.2659V68.052H74.5979V70.408H74.8819C75.0499 70.408 75.2073 70.4067 75.3539 70.404C75.5006 70.4013 75.6419 70.396 75.7779 70.388C75.9139 70.3773 76.0473 70.364 76.1779 70.348C76.3086 70.3293 76.4419 70.3067 76.5779 70.28L76.5419 70.008C76.4139 70.032 76.2873 70.052 76.1619 70.068C76.0366 70.084 75.9086 70.096 75.7779 70.104C75.6499 70.112 75.5153 70.1187 75.3739 70.124C75.2353 70.1267 75.0859 70.128 74.9259 70.128ZM78.3656 70.68H78.0016V71.056H78.3656V70.68ZM55.0499 77.292V73.708H54.7339V75.168H54.2259V73.788H53.9179V77.112H54.2259V75.44H54.7339V77.292H55.0499ZM52.5099 76.08V74.144H52.1819V76.364H52.4099C52.6046 76.364 52.8059 76.3573 53.0139 76.344C53.2246 76.328 53.4513 76.2973 53.6939 76.252L53.6619 75.968C53.4459 76.0107 53.2433 76.04 53.0539 76.056C52.8673 76.0693 52.6859 76.0773 52.5099 76.08ZM58.8496 75.748V75.484H58.0496V74.976C58.1883 74.92 58.295 74.8467 58.3696 74.756C58.447 74.6653 58.4856 74.56 58.4856 74.44C58.4856 74.336 58.4563 74.2427 58.3976 74.16C58.339 74.0773 58.255 74.008 58.1456 73.952C58.039 73.8933 57.907 73.8493 57.7496 73.82C57.595 73.788 57.4203 73.772 57.2256 73.772C57.031 73.772 56.8563 73.788 56.7016 73.82C56.547 73.8493 56.415 73.8933 56.3056 73.952C56.1963 74.008 56.1123 74.0773 56.0536 74.16C55.995 74.2427 55.9656 74.336 55.9656 74.44C55.9656 74.6827 56.1123 74.8627 56.4056 74.98V75.484H55.6016V75.748H58.8496ZM56.3016 74.44C56.3016 74.3093 56.383 74.208 56.5456 74.136C56.7083 74.064 56.935 74.028 57.2256 74.028C57.5163 74.028 57.743 74.064 57.9056 74.136C58.0683 74.208 58.1496 74.3093 58.1496 74.44C58.1496 74.568 58.0683 74.6693 57.9056 74.744C57.743 74.816 57.5163 74.852 57.2256 74.852C56.935 74.852 56.7083 74.816 56.5456 74.744C56.383 74.6693 56.3016 74.568 56.3016 74.44ZM57.7256 75.484H56.7296V75.064C56.8043 75.0773 56.883 75.088 56.9656 75.096C57.0483 75.1013 57.135 75.104 57.2256 75.104C57.3216 75.104 57.411 75.1013 57.4936 75.096C57.579 75.088 57.6563 75.0773 57.7256 75.064V75.484ZM57.2256 76.016C56.8416 76.016 56.5403 76.072 56.3216 76.184C56.1056 76.2933 55.9976 76.4507 55.9976 76.656C55.9976 76.8613 56.1056 77.0187 56.3216 77.128C56.5403 77.2373 56.8416 77.292 57.2256 77.292C57.6123 77.292 57.9136 77.2373 58.1296 77.128C58.3456 77.0187 58.4536 76.8613 58.4536 76.656C58.4536 76.4507 58.3456 76.2933 58.1296 76.184C57.9136 76.072 57.6123 76.016 57.2256 76.016ZM57.2256 77.04C56.943 77.04 56.723 77.0067 56.5656 76.94C56.4083 76.8733 56.3296 76.7787 56.3296 76.656C56.3296 76.5333 56.4083 76.4387 56.5656 76.372C56.723 76.3053 56.943 76.272 57.2256 76.272C57.5083 76.272 57.7283 76.3053 57.8856 76.372C58.043 76.4387 58.1216 76.5333 58.1216 76.656C58.1216 76.7787 58.043 76.8733 57.8856 76.94C57.7283 77.0067 57.5083 77.04 57.2256 77.04ZM62.1493 75.636V73.712H61.8213V75.636H62.1493ZM60.2213 73.88C60.0853 73.88 59.96 73.9 59.8453 73.94C59.7333 73.98 59.636 74.036 59.5533 74.108C59.4707 74.18 59.4053 74.2667 59.3573 74.368C59.312 74.4693 59.2893 74.5813 59.2893 74.704C59.2893 74.8267 59.312 74.94 59.3573 75.044C59.4053 75.1453 59.4707 75.232 59.5533 75.304C59.636 75.376 59.7333 75.432 59.8453 75.472C59.96 75.512 60.0853 75.532 60.2213 75.532C60.3573 75.532 60.4827 75.512 60.5973 75.472C60.712 75.432 60.8107 75.376 60.8933 75.304C60.9787 75.232 61.044 75.1453 61.0893 75.044C61.1373 74.94 61.1613 74.8267 61.1613 74.704C61.1613 74.5813 61.1373 74.4693 61.0893 74.368C61.044 74.2667 60.9787 74.18 60.8933 74.108C60.8107 74.036 60.712 73.98 60.5973 73.94C60.4827 73.9 60.3573 73.88 60.2213 73.88ZM60.2213 74.152C60.312 74.152 60.3947 74.1653 60.4693 74.192C60.5467 74.2187 60.612 74.2573 60.6653 74.308C60.7213 74.356 60.764 74.4147 60.7933 74.484C60.8253 74.5507 60.8413 74.624 60.8413 74.704C60.8413 74.872 60.784 75.0067 60.6693 75.108C60.5547 75.2093 60.4053 75.26 60.2213 75.26C60.1333 75.26 60.0507 75.2467 59.9733 75.22C59.8987 75.1933 59.8347 75.156 59.7813 75.108C59.728 75.0573 59.6853 74.9987 59.6533 74.932C59.624 74.8627 59.6093 74.7867 59.6093 74.704C59.6093 74.624 59.624 74.5507 59.6533 74.484C59.6853 74.4147 59.728 74.356 59.7813 74.308C59.8347 74.2573 59.8987 74.2187 59.9733 74.192C60.0507 74.1653 60.1333 74.152 60.2213 74.152ZM60.1613 76.252V75.812H59.8373V77.248H62.1493V75.812H61.8253V76.252H60.1613ZM61.8253 76.984H60.1613V76.508H61.8253V76.984ZM65.745 77.292V73.708H65.417V77.292H65.745ZM63.357 76.088V74.056H63.029V76.368H63.325C63.613 76.368 63.8997 76.356 64.185 76.332C64.4703 76.308 64.7703 76.264 65.085 76.2L65.049 75.92C64.7503 75.9813 64.4623 76.0253 64.185 76.052C63.9077 76.076 63.6317 76.088 63.357 76.088ZM69.1647 75.396H69.7567V75.124H69.1647V73.708H68.8367V77.304H69.1647V75.396ZM66.8847 76.128V74.324H68.2247V74.052H66.5567V76.408H66.8407C67.0087 76.408 67.166 76.4067 67.3127 76.404C67.4594 76.4013 67.6007 76.396 67.7367 76.388C67.8727 76.3773 68.006 76.364 68.1367 76.348C68.2674 76.3293 68.4007 76.3067 68.5367 76.28L68.5007 76.008C68.3727 76.032 68.246 76.052 68.1207 76.068C67.9954 76.084 67.8674 76.096 67.7367 76.104C67.6087 76.112 67.474 76.1187 67.3327 76.124C67.194 76.1267 67.0447 76.128 66.8847 76.128ZM70.3244 76.68H69.9604V77.056H70.3244V76.68Z" fill="#121417"></path>
<path d="M16.5639 53.164L16.8879 52.51C16.5719 52.458 16.2939 52.372 16.0539 52.252C15.8139 52.128 15.6119 51.984 15.4479 51.82C15.2839 51.656 15.1599 51.476 15.0759 51.28C14.9919 51.084 14.9499 50.888 14.9499 50.692V50.296H14.1039V50.692C14.1039 50.884 14.0619 51.078 13.9779 51.274C13.8939 51.466 13.7699 51.646 13.6059 51.814C13.4419 51.978 13.2399 52.122 12.9999 52.246C12.7599 52.37 12.4839 52.458 12.1719 52.51L12.4959 53.164C12.9799 53.076 13.3939 52.91 13.7379 52.666C14.0819 52.422 14.3439 52.13 14.5239 51.79C14.7039 52.142 14.9599 52.438 15.2919 52.678C15.6279 52.914 16.0519 53.076 16.5639 53.164ZM17.0559 54.862V54.226H14.9259V52.99H14.1339V54.226H12.0519V54.862H17.0559ZM22.1915 55.51V49.984H21.4415V55.51H22.1915ZM21.0635 50.08H20.3255V51.874H19.6235V52.516H20.3255V55.264H21.0635V50.08ZM19.2035 51.454V51.184H20.0075V50.542H17.5475V51.184H18.4355V51.454C18.4355 51.694 18.4155 51.932 18.3755 52.168C18.3395 52.404 18.2775 52.63 18.1895 52.846C18.1055 53.058 17.9935 53.256 17.8535 53.44C17.7135 53.62 17.5435 53.774 17.3435 53.902L17.8115 54.484C18.0635 54.328 18.2715 54.122 18.4355 53.866C18.5995 53.606 18.7295 53.318 18.8255 53.002C18.9175 53.294 19.0415 53.556 19.1975 53.788C19.3535 54.02 19.5575 54.208 19.8095 54.352L20.2715 53.776C20.0715 53.66 19.9035 53.518 19.7675 53.35C19.6315 53.178 19.5215 52.99 19.4375 52.786C19.3535 52.582 19.2935 52.368 19.2575 52.144C19.2215 51.916 19.2035 51.686 19.2035 51.454ZM27.843 53.308V52.678H25.737V52.162H27.213V50.206H23.463V52.162H24.945V52.678H22.851V53.308H27.843ZM26.433 51.538H24.243V50.824H26.433V51.538ZM27.243 53.704H23.403V54.334H26.451V55.522H27.243V53.704Z" fill="#121417"></path>
<path d="M113.913 60.7071C114.304 60.3166 114.304 59.6834 113.913 59.2929L107.55 52.9289C107.159 52.5384 106.526 52.5384 106.135 52.9289C105.745 53.3195 105.745 53.9526 106.135 54.3431L111.792 60L106.135 65.6569C105.745 66.0474 105.745 66.6805 106.135 67.0711C106.526 67.4616 107.159 67.4616 107.55 67.0711L113.913 60.7071ZM96.7939 61H113.206V59H96.7939V61Z" fill="#868E96"></path>
</svg>