<svg width="60" height="60" viewBox="0 0 80 80" fill="none" xmlns="http://www.w3.org/2000/svg">
<path d="M80 0H0V80H80V0Z" fill="#FEE500"/>
<path fill-rule="evenodd" clip-rule="evenodd" d="M39.9501 19.7C27.85 19.7 18.05 27.4 18.05 37C18.05 43.1 22.15 48.5 28.25 51.6L26.15 59.4C26.05 59.6 26.15 59.9 26.35 60.1C26.45 60.2 26.65 60.3 26.75 60.3C26.85 60.3 27.05 60.2 27.15 60.2L36.05 54.2C37.35 54.4 38.65 54.5 40.05 54.5C52.15 54.5 61.9501 46.7 61.9501 37.2C61.9501 27.7 52.1501 19.7 39.9501 19.7V19.7Z" fill="#181600"/>
</svg>
