<svg xmlns="http://www.w3.org/2000/svg" width="40" height="40" viewBox="0 0 40 40" fill="current">
    <path d="M23.7 18.95C23.5 18.35 23.1 17.85 22.6 17.35C22.1 16.85 21.6 16.55 21 16.25H20.9L19.4 17.75V17.85L19.5 17.95C20.2 17.95 20.8 18.25 21.2 18.75C21.7 19.25 21.9 19.85 22 20.45C22 20.85 21.9 21.25 21.8 21.65C21.7 21.95 21.5 22.25 21.3 22.45L18.7 25.05C17.7 26.05 16 26.05 15 25.05C14 24.05 14 22.35 15 21.35L15.6 20.75V20.65C15.5 20.25 15.4 19.95 15.4 19.55C15.4 19.15 15.4 18.65 15.5 18.15C15.5 18.15 15.5 18.05 15.4 18.05H15.3L13.4 19.95C12.5 20.85 12 21.95 12 23.25C12 24.55 12.5 25.65 13.4 26.55C14.3 27.45 15.5 27.95 16.7 27.95C17.9 27.95 19.1 27.45 20 26.55L22.6 23.95C22.8 23.75 23.1 23.45 23.2 23.15C23.8 22.15 24 21.05 23.9 19.95C23.9 19.65 23.8 19.25 23.7 18.95Z" fill="current"/>
    <path d="M26.5997 13.35C24.7997 11.55 21.7997 11.55 19.8997 13.35L17.3997 15.95C17.0997 16.15 16.8997 16.45 16.7997 16.65C16.0997 17.65 15.8997 18.85 15.9997 19.95C15.9997 20.35 16.0997 20.65 16.2997 21.05C16.4997 21.65 16.8997 22.15 17.3997 22.65C17.8997 23.15 18.3997 23.45 18.9997 23.75H19.0997L20.5997 22.25V22.15L20.4997 22.05C19.7997 22.05 19.1997 21.75 18.7997 21.25C18.2997 20.75 18.0997 20.15 17.9997 19.55C17.9997 19.15 18.0997 18.75 18.1997 18.35C18.2997 18.05 18.4997 17.75 18.6997 17.55L21.2997 14.95C21.7997 14.45 22.4997 14.15 23.1997 14.15C23.8997 14.15 24.5997 14.45 25.0997 14.95C25.5997 15.45 25.8997 16.15 25.8997 16.85C25.8997 17.55 25.5997 18.25 25.0997 18.75L24.4997 19.35V19.45C24.6997 20.25 24.6997 21.05 24.5997 21.95C24.5997 21.95 24.5997 22.05 24.6997 22.05H24.7997L26.6997 20.15C28.4997 18.15 28.4997 15.15 26.5997 13.35Z" fill="current"/>
    <path d="M4 1H36V-1H4V1ZM39 4V36H41V4H39ZM36 39H4V41H36V39ZM1 36V4H-1V36H1ZM4 39C2.34315 39 1 37.6569 1 36H-1C-1 38.7614 1.23858 41 4 41V39ZM39 36C39 37.6569 37.6569 39 36 39V41C38.7614 41 41 38.7614 41 36H39ZM36 1C37.6569 1 39 2.34315 39 4H41C41 1.23858 38.7614 -1 36 -1V1ZM4 -1C1.23858 -1 -1 1.23858 -1 4H1C1 2.34315 2.34315 1 4 1V-1Z" fill="current"/>
</svg>