<svg width="24" height="24" viewBox="0 0 24 24" fill="none" xmlns="http://www.w3.org/2000/svg">
<path fill-rule="evenodd" clip-rule="evenodd" d="M18.6708 8.90002V7.20001C18.6708 4.29999 16.3924 2 13.7341 2H11.2659C8.5126 2 6.23422 4.29999 6.23422 7.20001V8.90002H5V22H20V8.90002H18.6708ZM16.2025 8.90002H8.70243V7.20001C8.70243 5.79999 9.84185 4.5 11.1709 4.5H13.6393C14.9683 4.5 16.1075 5.70001 16.1075 7.20001L16.2025 8.90002ZM15 14.5C15 15.7095 14.1411 16.7184 13 16.95V19H12V16.95C10.8589 16.7184 10 15.7095 10 14.5C10 13.1193 11.1194 12 12.5 12C13.8806 12 15 13.1193 15 14.5Z" fill="#00BCD4"/>
</svg>
