<svg width="100" height="100" viewBox="0 0 100 100" fill="none" xmlns="http://www.w3.org/2000/svg">
<circle cx="50" cy="50" r="50" fill="#F8F9FA"/>
<path d="M25.6955 41.7043C26.5804 42.1751 27.2584 42.8066 27.7295 43.5759V41.2221H32.8203V57.7904C32.8203 59.3175 32.5215 60.6953 31.9124 61.9354C31.3034 63.1754 30.3841 64.1629 29.143 64.8977C27.9019 65.6325 26.3621 66 24.5119 66C22.0528 66 20.0532 65.4259 18.5249 64.2547C16.9965 63.0836 16.1232 61.522 15.9048 59.5357H20.9496C21.1105 60.1672 21.4897 60.6724 22.0757 61.0398C22.6733 61.4072 23.4087 61.5909 24.2821 61.5909C25.3278 61.5909 26.1667 61.2924 26.7987 60.6839C27.4193 60.0753 27.741 59.1108 27.741 57.7789V55.4252C27.2469 56.1944 26.5574 56.8259 25.6841 57.3197C24.8107 57.8019 23.788 58.043 22.6158 58.043C21.2484 58.043 20.0073 57.6871 18.8926 56.9867C17.7779 56.2863 16.9046 55.2874 16.2611 53.9784C15.6175 52.681 15.2958 51.1769 15.2958 49.4775C15.2958 47.7782 15.6175 46.2741 16.2611 44.9881C16.9046 43.7022 17.7779 42.7032 18.8926 42.0143C20.0073 41.3254 21.2484 40.9695 22.6158 40.9695C23.788 40.9695 24.8107 41.2106 25.6955 41.6814V41.7043ZM26.6723 46.5267C25.9713 45.7919 25.1095 45.4244 24.0982 45.4244C23.087 45.4244 22.2251 45.7919 21.5241 46.5152C20.8232 47.2386 20.4669 48.2375 20.4669 49.5005C20.4669 50.7635 20.8232 51.7739 21.5241 52.5202C22.2251 53.2666 23.087 53.634 24.0982 53.634C25.1095 53.634 25.9713 53.2666 26.6723 52.5317C27.3733 51.7969 27.7295 50.798 27.7295 49.5235C27.7295 48.249 27.3733 47.2501 26.6723 46.5152V46.5267Z" fill="#DEE2E6"/>
<path d="M40.1173 35.8142V57.825H35.0266V35.8142H40.1173Z" fill="#DEE2E6"/>
<path d="M42.6914 38.719C42.1284 38.1909 41.8411 37.5479 41.8411 36.7671C41.8411 35.9864 42.1284 35.3204 42.6914 34.7922C43.2545 34.2641 43.99 34 44.8748 34C45.7597 34 46.4606 34.2641 47.0352 34.7922C47.6098 35.3204 47.8856 35.9749 47.8856 36.7671C47.8856 37.5594 47.5983 38.1909 47.0352 38.719C46.4721 39.2472 45.7482 39.5113 44.8748 39.5113C44.0015 39.5113 43.2545 39.2472 42.6914 38.719V38.719ZM47.4144 41.2336V57.8249H42.3237V41.2221H47.4144V41.2336Z" fill="#DEE2E6"/>
<path d="M64.3872 42.933C65.5479 44.196 66.134 45.9182 66.134 48.1228V57.8135H61.0777V48.8002C61.0777 47.6865 60.7904 46.8253 60.2158 46.2168C59.6413 45.6082 58.8599 45.2982 57.8946 45.2982C56.9293 45.2982 56.1479 45.6082 55.5733 46.2168C54.9987 46.8368 54.7114 47.6979 54.7114 48.8002V57.8135H49.6207V41.2222H54.7114V43.4267C55.2286 42.6918 55.918 42.1177 56.7914 41.6814C57.6647 41.2566 58.6415 41.0385 59.7332 41.0385C61.6753 41.0385 63.2266 41.67 64.3872 42.933V42.933Z" fill="#DEE2E6"/>
<path d="M77.5795 41.7043C78.4643 42.1751 79.1423 42.8066 79.6135 43.5759V41.2221H84.7042V57.7904C84.7042 59.3175 84.4054 60.6953 83.7964 61.9354C83.1873 63.1754 82.268 64.1629 81.0269 64.8977C79.7858 65.6325 78.246 66 76.3959 66C73.9367 66 71.9372 65.4259 70.4088 64.2547C68.8804 63.0836 68.0071 61.522 67.7888 59.5357H72.822C72.9829 60.1672 73.3621 60.6724 73.9482 61.0398C74.5457 61.4072 75.2812 61.5909 76.1545 61.5909C77.2003 61.5909 78.0391 61.2924 78.6712 60.6839C79.2917 60.0753 79.6135 59.1108 79.6135 57.7789V55.4252C79.1193 56.1944 78.4298 56.8259 77.5565 57.3197C76.6831 57.8019 75.6604 58.043 74.4883 58.043C73.1208 58.043 71.8797 57.6871 70.765 56.9867C69.6504 56.2863 68.777 55.2874 68.1335 53.9784C67.49 52.681 67.1682 51.1769 67.1682 49.4775C67.1682 47.7782 67.49 46.2741 68.1335 44.9881C68.777 43.7022 69.6504 42.7032 70.765 42.0143C71.8797 41.3254 73.1208 40.9695 74.4883 40.9695C75.6604 40.9695 76.6831 41.2106 77.568 41.6814L77.5795 41.7043ZM78.5562 46.5267C77.8553 45.7919 76.9934 45.4244 75.9822 45.4244C74.9709 45.4244 74.1091 45.7919 73.4081 46.5152C72.7071 47.2386 72.3509 48.2375 72.3509 49.5005C72.3509 50.7635 72.7071 51.7739 73.4081 52.5202C74.1091 53.2666 74.9709 53.634 75.9822 53.634C76.9934 53.634 77.8553 53.2666 78.5562 52.5317C79.2572 51.7969 79.6135 50.798 79.6135 49.5235C79.6135 48.249 79.2572 47.2501 78.5562 46.5152V46.5267Z" fill="#DEE2E6"/>
</svg>
