<svg width="441" height="240" viewBox="0 0 441 240" fill="none" xmlns="http://www.w3.org/2000/svg">
<rect class="rect" x="1.47314" y="0.5" width="439" height="239" rx="3.5" fill="current"/>
<g clip-path="url(#clip0_1166_5426)">
<path d="M195.961 107.272C195.497 107.632 187.305 112.248 187.305 122.512C187.305 134.384 197.729 138.584 198.041 138.688C197.993 138.944 196.385 144.44 192.545 150.04C189.121 154.968 185.545 159.888 180.105 159.888C174.665 159.888 173.265 156.728 166.985 156.728C160.865 156.728 158.689 159.992 153.713 159.992C148.737 159.992 145.265 155.432 141.273 149.832C136.649 143.256 132.913 133.04 132.913 123.344C132.913 107.792 143.025 99.544 152.977 99.544C158.265 99.544 162.673 103.016 165.993 103.016C169.153 103.016 174.081 99.336 180.097 99.336C182.377 99.336 190.569 99.544 195.961 107.272ZM177.241 92.752C179.729 89.8 181.489 85.704 181.489 81.608C181.489 81.04 181.441 80.464 181.337 80C177.289 80.152 172.473 82.696 169.569 86.064C167.289 88.656 165.161 92.752 165.161 96.904C165.161 97.528 165.265 98.152 165.313 98.352C165.569 98.4 165.985 98.456 166.401 98.456C170.033 98.456 174.601 96.024 177.241 92.752Z" fill="current" class="icon"/>
</g>
<path d="M207.585 94.724V106.5H210.737C211.623 106.5 212.407 106.372 213.089 106.116C213.783 105.849 214.369 105.465 214.849 104.964C215.329 104.463 215.692 103.844 215.937 103.108C216.193 102.372 216.321 101.524 216.321 100.564C216.321 98.6013 215.836 97.14 214.865 96.18C213.905 95.2093 212.497 94.724 210.641 94.724H207.585ZM210.513 104.98H209.441V96.228H210.513C211.783 96.228 212.748 96.58 213.409 97.284C214.071 97.988 214.401 99.0813 214.401 100.564C214.401 102.079 214.076 103.193 213.425 103.908C212.775 104.623 211.804 104.98 210.513 104.98ZM222.133 106.708C222.677 106.708 223.199 106.607 223.701 106.404C224.202 106.191 224.639 105.892 225.013 105.508C225.397 105.113 225.701 104.633 225.925 104.068C226.159 103.492 226.277 102.841 226.277 102.116C226.277 101.38 226.159 100.724 225.925 100.148C225.701 99.572 225.397 99.0867 225.013 98.692C224.639 98.2973 224.202 97.9987 223.701 97.796C223.199 97.5827 222.677 97.476 222.133 97.476C221.589 97.476 221.066 97.5827 220.565 97.796C220.063 97.9987 219.621 98.2973 219.237 98.692C218.863 99.0867 218.559 99.572 218.325 100.148C218.101 100.724 217.989 101.38 217.989 102.116C217.989 102.841 218.101 103.492 218.325 104.068C218.559 104.633 218.863 105.113 219.237 105.508C219.621 105.892 220.063 106.191 220.565 106.404C221.066 106.607 221.589 106.708 222.133 106.708ZM222.133 105.204C221.791 105.204 221.482 105.129 221.205 104.98C220.927 104.831 220.693 104.623 220.501 104.356C220.309 104.089 220.159 103.764 220.053 103.38C219.946 102.996 219.893 102.575 219.893 102.116C219.893 101.177 220.09 100.425 220.485 99.86C220.879 99.284 221.429 98.996 222.133 98.996C222.837 98.996 223.386 99.284 223.781 99.86C224.186 100.425 224.389 101.177 224.389 102.116C224.389 102.575 224.335 102.996 224.229 103.38C224.122 103.764 223.973 104.089 223.781 104.356C223.589 104.623 223.354 104.831 223.077 104.98C222.799 105.129 222.485 105.204 222.133 105.204ZM227.387 97.7L229.771 106.5H231.899L232.971 102.164C233.088 101.748 233.19 101.332 233.275 100.916C233.36 100.5 233.446 100.063 233.531 99.604H233.611C233.707 100.063 233.798 100.5 233.883 100.916C233.968 101.321 234.064 101.732 234.171 102.148L235.291 106.5H237.499L239.771 97.7H238.043L236.907 102.468C236.811 102.895 236.72 103.316 236.635 103.732C236.56 104.137 236.48 104.548 236.395 104.964H236.331C236.224 104.548 236.123 104.137 236.027 103.732C235.942 103.316 235.846 102.895 235.739 102.468L234.475 97.7H232.763L231.531 102.468C231.424 102.884 231.323 103.3 231.227 103.716C231.142 104.132 231.051 104.548 230.955 104.964H230.891C230.806 104.548 230.726 104.137 230.651 103.732C230.576 103.316 230.496 102.895 230.411 102.468L229.243 97.7H227.387ZM241.581 97.7V106.5H243.405V100.26C243.8 99.8653 244.157 99.5667 244.477 99.364C244.797 99.1613 245.16 99.06 245.565 99.06C246.088 99.06 246.466 99.2253 246.701 99.556C246.936 99.876 247.053 100.42 247.053 101.188V106.5H248.893V100.964C248.893 99.8333 248.674 98.9693 248.237 98.372C247.81 97.7747 247.128 97.476 246.189 97.476C245.592 97.476 245.058 97.62 244.589 97.908C244.12 98.1853 243.682 98.5213 243.277 98.916H243.229L243.085 97.7H241.581ZM251.469 93.764V106.5H253.293V93.764H251.469ZM259.476 106.708C260.02 106.708 260.543 106.607 261.044 106.404C261.546 106.191 261.983 105.892 262.356 105.508C262.74 105.113 263.044 104.633 263.268 104.068C263.503 103.492 263.62 102.841 263.62 102.116C263.62 101.38 263.503 100.724 263.268 100.148C263.044 99.572 262.74 99.0867 262.356 98.692C261.983 98.2973 261.546 97.9987 261.044 97.796C260.543 97.5827 260.02 97.476 259.476 97.476C258.932 97.476 258.41 97.5827 257.908 97.796C257.407 97.9987 256.964 98.2973 256.58 98.692C256.207 99.0867 255.903 99.572 255.668 100.148C255.444 100.724 255.332 101.38 255.332 102.116C255.332 102.841 255.444 103.492 255.668 104.068C255.903 104.633 256.207 105.113 256.58 105.508C256.964 105.892 257.407 106.191 257.908 106.404C258.41 106.607 258.932 106.708 259.476 106.708ZM259.476 105.204C259.135 105.204 258.826 105.129 258.548 104.98C258.271 104.831 258.036 104.623 257.844 104.356C257.652 104.089 257.503 103.764 257.396 103.38C257.29 102.996 257.236 102.575 257.236 102.116C257.236 101.177 257.434 100.425 257.828 99.86C258.223 99.284 258.772 98.996 259.476 98.996C260.18 98.996 260.73 99.284 261.124 99.86C261.53 100.425 261.732 101.177 261.732 102.116C261.732 102.575 261.679 102.996 261.572 103.38C261.466 103.764 261.316 104.089 261.124 104.356C260.932 104.623 260.698 104.831 260.42 104.98C260.143 105.129 259.828 105.204 259.476 105.204ZM267.614 106.708C268.158 106.708 268.66 106.601 269.118 106.388C269.577 106.164 270.009 105.881 270.414 105.54H270.462L270.622 106.5H272.126V101.204C272.126 100.009 271.865 99.092 271.342 98.452C270.83 97.8013 270.025 97.476 268.926 97.476C268.222 97.476 267.572 97.588 266.974 97.812C266.388 98.0253 265.865 98.276 265.406 98.564L265.95 99.908C266.324 99.6627 266.74 99.4493 267.198 99.268C267.657 99.076 268.126 98.98 268.606 98.98C268.926 98.98 269.193 99.0333 269.406 99.14C269.63 99.236 269.806 99.3747 269.934 99.556C270.062 99.7267 270.153 99.9293 270.206 100.164C270.26 100.399 270.286 100.644 270.286 100.9C269.38 100.964 268.59 101.049 267.918 101.156C267.257 101.252 266.702 101.423 266.254 101.668C265.796 101.945 265.476 102.308 265.294 102.756C265.113 103.204 265.022 103.673 265.022 104.164C265.022 104.548 265.086 104.9 265.214 105.22C265.342 105.529 265.518 105.796 265.742 106.02C265.977 106.244 266.249 106.415 266.558 106.532C266.878 106.649 267.23 106.708 267.614 106.708ZM268.174 105.252C267.78 105.252 267.449 105.161 267.182 104.98C266.926 104.799 266.798 104.484 266.798 104.036C266.798 103.855 266.804 103.663 266.814 103.46C266.836 103.247 266.964 103.033 267.198 102.82C267.337 102.692 267.497 102.596 267.678 102.532C267.86 102.457 268.073 102.399 268.318 102.356C268.564 102.303 268.846 102.26 269.166 102.228C269.486 102.196 269.86 102.153 270.286 102.1V104.276C269.924 104.607 269.577 104.852 269.246 105.012C268.916 105.172 268.558 105.252 268.174 105.252ZM277.793 106.708C278.305 106.708 278.775 106.596 279.201 106.372C279.639 106.137 280.023 105.849 280.353 105.508H280.401L280.561 106.5H282.065V93.748H280.225V97.012L280.305 98.468C279.943 98.1587 279.585 97.9187 279.233 97.748C278.881 97.5667 278.449 97.476 277.937 97.476C277.447 97.476 276.972 97.5827 276.513 97.796C276.065 98.0093 275.665 98.3187 275.313 98.724C274.961 99.1187 274.679 99.604 274.465 100.18C274.263 100.745 274.161 101.391 274.161 102.116C274.161 103.609 274.481 104.751 275.121 105.54C275.772 106.319 276.663 106.708 277.793 106.708ZM278.225 105.188C277.521 105.188 276.983 104.921 276.609 104.388C276.247 103.855 276.065 103.087 276.065 102.084C276.065 101.604 276.124 101.177 276.241 100.804C276.359 100.42 276.513 100.1 276.705 99.844C276.908 99.5773 277.143 99.3747 277.409 99.236C277.687 99.0867 277.98 99.012 278.289 99.012C278.62 99.012 278.94 99.0707 279.249 99.188C279.569 99.3053 279.895 99.5133 280.225 99.812V104.116C279.607 104.831 278.94 105.188 278.225 105.188ZM292.682 95.22L293.05 93.844C292.847 93.7587 292.612 93.6893 292.346 93.636C292.079 93.572 291.796 93.54 291.498 93.54C291.007 93.54 290.586 93.6147 290.234 93.764C289.882 93.9133 289.594 94.1213 289.37 94.388C289.146 94.6547 288.98 94.98 288.874 95.364C288.767 95.7373 288.714 96.148 288.714 96.596V97.7L287.514 97.796V99.172H288.714V106.5H290.554V99.172H292.33V97.7H290.554V96.58C290.554 95.524 290.943 94.996 291.722 94.996C291.967 94.996 292.287 95.0707 292.682 95.22ZM297.273 106.708C297.817 106.708 298.34 106.607 298.841 106.404C299.343 106.191 299.78 105.892 300.153 105.508C300.537 105.113 300.841 104.633 301.065 104.068C301.3 103.492 301.417 102.841 301.417 102.116C301.417 101.38 301.3 100.724 301.065 100.148C300.841 99.572 300.537 99.0867 300.153 98.692C299.78 98.2973 299.343 97.9987 298.841 97.796C298.34 97.5827 297.817 97.476 297.273 97.476C296.729 97.476 296.207 97.5827 295.705 97.796C295.204 97.9987 294.761 98.2973 294.377 98.692C294.004 99.0867 293.7 99.572 293.465 100.148C293.241 100.724 293.129 101.38 293.129 102.116C293.129 102.841 293.241 103.492 293.465 104.068C293.7 104.633 294.004 105.113 294.377 105.508C294.761 105.892 295.204 106.191 295.705 106.404C296.207 106.607 296.729 106.708 297.273 106.708ZM297.273 105.204C296.932 105.204 296.623 105.129 296.345 104.98C296.068 104.831 295.833 104.623 295.641 104.356C295.449 104.089 295.3 103.764 295.193 103.38C295.087 102.996 295.033 102.575 295.033 102.116C295.033 101.177 295.231 100.425 295.625 99.86C296.02 99.284 296.569 98.996 297.273 98.996C297.977 98.996 298.527 99.284 298.921 99.86C299.327 100.425 299.529 101.177 299.529 102.116C299.529 102.575 299.476 102.996 299.369 103.38C299.263 103.764 299.113 104.089 298.921 104.356C298.729 104.623 298.495 104.831 298.217 104.98C297.94 105.129 297.625 105.204 297.273 105.204ZM303.565 97.7V106.5H305.389V101.012C305.667 100.319 306.003 99.8333 306.397 99.556C306.792 99.268 307.171 99.124 307.533 99.124C307.715 99.124 307.869 99.1347 307.997 99.156C308.125 99.1773 308.264 99.2147 308.413 99.268L308.749 97.668C308.611 97.604 308.461 97.556 308.301 97.524C308.152 97.492 307.971 97.476 307.757 97.476C307.277 97.476 306.819 97.636 306.381 97.956C305.944 98.2653 305.571 98.708 305.261 99.284H305.213L305.069 97.7H303.565ZM213.173 120.78H208.581V141.5H212.305V132.848C212.305 132.363 212.287 131.831 212.249 131.252C212.212 130.655 212.165 130.057 212.109 129.46C212.072 128.844 212.016 128.247 211.941 127.668C211.885 127.071 211.829 126.529 211.773 126.044H211.885L213.537 130.916L216.757 139.624H219.137L222.329 130.916L224.009 126.044H224.121C224.065 126.529 224.009 127.071 223.953 127.668C223.897 128.247 223.841 128.844 223.785 129.46C223.729 130.057 223.683 130.655 223.645 131.252C223.627 131.831 223.617 132.363 223.617 132.848V141.5H227.397V120.78H222.805L219.361 130.468C219.137 131.121 218.923 131.784 218.717 132.456C218.531 133.128 218.325 133.8 218.101 134.472H217.961L217.345 132.456C217.14 131.784 216.925 131.121 216.701 130.468L213.173 120.78ZM236.008 141.78C236.904 141.78 237.744 141.612 238.528 141.276C239.33 140.94 240.068 140.483 240.74 139.904H240.824L241.132 141.5H244.492V132.344C244.492 127.733 242.485 125.428 238.472 125.428C237.24 125.428 236.054 125.605 234.916 125.96C233.796 126.315 232.806 126.753 231.948 127.276L233.18 130.216C233.889 129.749 234.636 129.385 235.42 129.124C236.222 128.863 236.988 128.732 237.716 128.732C238.91 128.732 239.676 128.975 240.012 129.46C240.329 130.132 240.45 130.795 240.376 131.448C237.128 131.541 234.785 132.055 233.348 132.988C231.929 133.903 231.266 135.321 231.36 137.244C231.36 137.916 231.472 138.532 231.696 139.092C231.92 139.652 232.228 140.137 232.62 140.548C233.03 140.94 233.525 141.248 234.104 141.472C234.682 141.677 235.317 141.78 236.008 141.78ZM237.268 138.644C236.67 138.644 236.166 138.457 235.756 138.084C235.364 137.711 235.158 137.197 235.14 136.544C235.121 135.984 235.289 135.499 235.644 135.088C236.017 134.677 236.652 134.407 237.548 134.276C237.996 134.201 238.453 134.145 238.92 134.108C239.405 134.052 239.89 134.005 240.376 133.968V137.132C239.89 137.617 239.396 137.991 238.892 138.252C238.406 138.495 237.865 138.625 237.268 138.644ZM255.351 141.892C256.247 141.892 257.133 141.743 258.011 141.444C258.907 141.127 259.728 140.641 260.475 139.988L258.851 137.272C258.421 137.645 257.945 137.953 257.423 138.196C256.9 138.42 256.359 138.532 255.799 138.532C255.127 138.532 254.539 138.392 254.035 138.112C253.549 137.832 253.148 137.468 252.831 137.02C252.513 136.553 252.28 136.031 252.131 135.452C251.981 134.873 251.907 134.285 251.907 133.688C251.907 132.176 252.271 130.981 252.999 130.104C253.745 129.227 254.716 128.788 255.911 128.788C256.359 128.788 256.769 128.881 257.143 129.068C257.535 129.236 257.927 129.488 258.319 129.824L260.279 127.164C259.7 126.679 259.037 126.268 258.291 125.932C257.544 125.596 256.685 125.428 255.715 125.428C254.651 125.428 253.633 125.615 252.663 125.988C251.692 126.361 250.843 126.903 250.115 127.612C249.387 128.303 248.799 129.161 248.351 130.188C247.921 131.215 247.707 132.381 247.707 133.688C247.707 134.976 247.903 136.133 248.295 137.16C248.687 138.168 249.219 139.027 249.891 139.736C250.581 140.427 251.393 140.959 252.327 141.332C253.26 141.705 254.268 141.892 255.351 141.892Z" fill="current" class="osType"/>
<rect x="1.47314" y="0.5" width="439" height="239" rx="3.5" stroke="#DEE2E6"/>
<defs>
<clipPath id="clip0_1166_5426">
<rect width="65.12" height="80" fill="white" transform="translate(132.913 80)"/>
</clipPath>
</defs>
</svg>
