<svg width="121" height="120" viewBox="0 0 121 120" fill="none" xmlns="http://www.w3.org/2000/svg">
<rect x="7.96094" y="35.5" width="39" height="49" fill="#F8F9FA" stroke="#00BCD4"></rect>
<rect x="47.9609" y="35.5" width="39" height="49" fill="#F8F9FA" stroke="#00BCD4"></rect>
<path d="M23.7309 60.164L24.0549 59.51C23.7389 59.458 23.4609 59.372 23.2209 59.252C22.9809 59.128 22.7789 58.984 22.6149 58.82C22.4509 58.656 22.3269 58.476 22.2429 58.28C22.1589 58.084 22.1169 57.888 22.1169 57.692V57.296H21.2709V57.692C21.2709 57.884 21.2289 58.078 21.1449 58.274C21.0609 58.466 20.9369 58.646 20.7729 58.814C20.6089 58.978 20.4069 59.122 20.1669 59.246C19.9269 59.37 19.6509 59.458 19.3389 59.51L19.6629 60.164C20.1469 60.076 20.5609 59.91 20.9049 59.666C21.2489 59.422 21.5109 59.13 21.6909 58.79C21.8709 59.142 22.1269 59.438 22.4589 59.678C22.7949 59.914 23.2189 60.076 23.7309 60.164ZM24.2229 61.862V61.226H22.0929V59.99H21.3009V61.226H19.2189V61.862H24.2229ZM29.3585 62.51V56.984H28.6085V62.51H29.3585ZM28.2305 57.08H27.4925V58.874H26.7905V59.516H27.4925V62.264H28.2305V57.08ZM26.3705 58.454V58.184H27.1745V57.542H24.7145V58.184H25.6025V58.454C25.6025 58.694 25.5825 58.932 25.5425 59.168C25.5065 59.404 25.4445 59.63 25.3565 59.846C25.2725 60.058 25.1605 60.256 25.0205 60.44C24.8805 60.62 24.7105 60.774 24.5105 60.902L24.9785 61.484C25.2305 61.328 25.4385 61.122 25.6025 60.866C25.7665 60.606 25.8965 60.318 25.9925 60.002C26.0845 60.294 26.2085 60.556 26.3645 60.788C26.5205 61.02 26.7245 61.208 26.9765 61.352L27.4385 60.776C27.2385 60.66 27.0705 60.518 26.9345 60.35C26.7985 60.178 26.6885 59.99 26.6045 59.786C26.5205 59.582 26.4605 59.368 26.4245 59.144C26.3885 58.916 26.3705 58.686 26.3705 58.454ZM35.01 60.308V59.678H32.904V59.162H34.38V57.206H30.63V59.162H32.112V59.678H30.018V60.308H35.01ZM33.6 58.538H31.41V57.824H33.6V58.538ZM34.41 60.704H30.57V61.334H33.618V62.522H34.41V60.704Z" fill="#121417"></path>
<path d="M65.0089 60.194H65.7469V58.97H66.1789V60.368H66.9289V56.99H66.1789V58.334H65.7469V57.092H65.0089V60.194ZM64.5829 60.044L65.0029 59.444C64.8229 59.372 64.6669 59.282 64.5349 59.174C64.4069 59.066 64.3009 58.948 64.2169 58.82C64.1329 58.688 64.0709 58.55 64.0309 58.406C63.9949 58.258 63.9769 58.11 63.9769 57.962V57.32H63.2149V57.962C63.2149 58.118 63.1949 58.276 63.1549 58.436C63.1149 58.596 63.0509 58.748 62.9629 58.892C62.8789 59.036 62.7689 59.17 62.6329 59.294C62.4969 59.418 62.3329 59.522 62.1409 59.606L62.5609 60.218C62.8169 60.11 63.0309 59.964 63.2029 59.78C63.3749 59.592 63.5109 59.378 63.6109 59.138C63.7109 59.342 63.8409 59.522 64.0009 59.678C64.1609 59.83 64.3549 59.952 64.5829 60.044ZM65.0569 60.452C64.7649 60.452 64.5009 60.476 64.2649 60.524C64.0329 60.572 63.8329 60.64 63.6649 60.728C63.5009 60.816 63.3729 60.924 63.2809 61.052C63.1929 61.18 63.1489 61.324 63.1489 61.484C63.1489 61.644 63.1929 61.79 63.2809 61.922C63.3729 62.05 63.5009 62.158 63.6649 62.246C63.8329 62.334 64.0329 62.402 64.2649 62.45C64.5009 62.498 64.7649 62.522 65.0569 62.522C65.3449 62.522 65.6049 62.498 65.8369 62.45C66.0729 62.402 66.2729 62.334 66.4369 62.246C66.6049 62.158 66.7329 62.05 66.8209 61.922C66.9089 61.79 66.9529 61.644 66.9529 61.484C66.9529 61.324 66.9089 61.18 66.8209 61.052C66.7329 60.924 66.6049 60.816 66.4369 60.728C66.2729 60.64 66.0729 60.572 65.8369 60.524C65.6049 60.476 65.3449 60.452 65.0569 60.452ZM65.0569 61.922C64.6929 61.922 64.4149 61.886 64.2229 61.814C64.0349 61.742 63.9409 61.632 63.9409 61.484C63.9409 61.336 64.0349 61.226 64.2229 61.154C64.4149 61.082 64.6929 61.046 65.0569 61.046C65.7929 61.046 66.1609 61.192 66.1609 61.484C66.1609 61.776 65.7929 61.922 65.0569 61.922ZM70.4385 58.64H71.4465V60.23H72.2385V56.99H71.4465V57.998H70.4385V58.64ZM70.5285 60.056L70.9425 59.432C70.7225 59.36 70.5345 59.266 70.3785 59.15C70.2225 59.034 70.0945 58.902 69.9945 58.754C69.8945 58.606 69.8205 58.446 69.7725 58.274C69.7285 58.098 69.7065 57.918 69.7065 57.734V57.278H68.9025V57.77C68.9025 57.962 68.8765 58.15 68.8245 58.334C68.7765 58.518 68.6985 58.69 68.5905 58.85C68.4825 59.01 68.3445 59.154 68.1765 59.282C68.0085 59.406 67.8065 59.506 67.5705 59.582L67.9845 60.218C68.3125 60.106 68.5865 59.946 68.8065 59.738C69.0265 59.526 69.1985 59.276 69.3225 58.988C69.4385 59.24 69.5945 59.456 69.7905 59.636C69.9905 59.816 70.2365 59.956 70.5285 60.056ZM70.3725 60.368C70.0805 60.368 69.8165 60.392 69.5805 60.44C69.3445 60.488 69.1445 60.558 68.9805 60.65C68.8205 60.742 68.6965 60.856 68.6085 60.992C68.5205 61.124 68.4765 61.276 68.4765 61.448C68.4765 61.616 68.5205 61.766 68.6085 61.898C68.6965 62.03 68.8205 62.142 68.9805 62.234C69.1445 62.326 69.3445 62.396 69.5805 62.444C69.8165 62.492 70.0805 62.516 70.3725 62.516C70.6645 62.516 70.9265 62.492 71.1585 62.444C71.3945 62.396 71.5925 62.326 71.7525 62.234C71.9165 62.142 72.0425 62.03 72.1305 61.898C72.2185 61.766 72.2625 61.616 72.2625 61.448C72.2625 61.276 72.2185 61.124 72.1305 60.992C72.0425 60.856 71.9165 60.742 71.7525 60.65C71.5925 60.558 71.3945 60.488 71.1585 60.44C70.9265 60.392 70.6645 60.368 70.3725 60.368ZM70.3725 61.91C69.6365 61.91 69.2685 61.756 69.2685 61.448C69.2685 61.136 69.6365 60.98 70.3725 60.98C71.1045 60.98 71.4705 61.136 71.4705 61.448C71.4705 61.756 71.1045 61.91 70.3725 61.91Z" fill="#121417"></path>
<path d="M114.58 60.7071C114.971 60.3166 114.971 59.6834 114.58 59.2929L108.216 52.9289C107.826 52.5384 107.193 52.5384 106.802 52.9289C106.412 53.3195 106.412 53.9526 106.802 54.3431L112.459 60L106.802 65.6569C106.412 66.0474 106.412 66.6805 106.802 67.0711C107.193 67.4616 107.826 67.4616 108.216 67.0711L114.58 60.7071ZM97.4609 61H113.873V59H97.4609V61Z" fill="#00BCD4"></path>
</svg>