<svg xmlns="http://www.w3.org/2000/svg" width="120" height="120" viewBox="0 0 120 120" fill="none">
    <path d="M77.8038 63.709L79.1972 62.3156L80.5906 63.709L79.1972 65.1024L77.8038 63.709Z" fill="#F1F3F5" stroke="#00BCD4"/>
    <path d="M97.4094 63.709L98.8028 62.3156L100.196 63.709L98.8028 65.1024L97.4094 63.709Z" fill="#F1F3F5" stroke="#00BCD4"/>
    <path d="M78.955 74.3073V45.9395H91.91L99.0027 52.9762V74.3073H78.955Z" fill="#F1F3F5" stroke="#00BCD4"/>
    <path d="M92.8575 52.0288V46.8801L98.0472 52.0288H92.8575Z" fill="#868E96" stroke="#00BCD4"/>
    <rect x="77.5967" y="57.0586" width="22.7643" height="6.12929" fill="#868E96" stroke="#00BCD4"/>
    <path d="M19.5967 42.276V18.4072H30.4589L36.4199 24.3213V42.276H19.5967Z" fill="#B2EBF2" stroke="#00BCD4"/>
    <path d="M19.5967 71.9821V48.1133H30.4589L36.4199 54.0273V71.9821H19.5967Z" fill="#B2EBF2" stroke="#00BCD4"/>
    <path d="M31.3694 53.1163V49.0168L35.5015 53.1163H31.3694Z" fill="#00BCD4" stroke="#00BCD4"/>
    <path d="M19.5967 101.687V77.8184H30.4589L36.4199 83.7324V101.687H19.5967Z" fill="#B2EBF2" stroke="#00BCD4"/>
    <path d="M31.3694 82.8213V78.7219L35.5015 82.8213H31.3694Z" fill="#00BCD4" stroke="#00BCD4"/>
    <path d="M31.6664 23.1133V19.0139L35.7985 23.1133H31.6664Z" fill="#00BCD4" stroke="#00BCD4"/>
    <path d="M66.2162 59.0137C66.6068 58.6232 66.6068 57.9901 66.2162 57.5995L59.8523 51.2356C59.4617 50.845 58.8286 50.845 58.4381 51.2356C58.0475 51.6261 58.0475 52.2593 58.4381 52.6498L64.0949 58.3066L58.4381 63.9635C58.0475 64.354 58.0475 64.9872 58.4381 65.3777C58.8286 65.7682 59.4617 65.7682 59.8523 65.3777L66.2162 59.0137ZM49.0967 59.3066H65.5091V57.3066H49.0967V59.3066Z" fill="#00BCD4"/>
</svg>