<svg xmlns="http://www.w3.org/2000/svg" width="120" height="121" viewBox="0 0 120 121" fill="none">
    <path d="M77.8038 64.4033L79.1972 63.0099L80.5906 64.4033L79.1972 65.7967L77.8038 64.4033Z" fill="#F1F3F5" stroke="#868E96"/>
    <path d="M97.4094 64.4033L98.8028 63.0099L100.196 64.4033L98.8028 65.7967L97.4094 64.4033Z" fill="#F1F3F5" stroke="#868E96"/>
    <path d="M78.955 75.0016V46.6338H91.91L99.0027 53.6705V75.0016H78.955Z" fill="#F1F3F5" stroke="#868E96"/>
    <path d="M92.8575 52.7231V47.5744L98.0472 52.7231H92.8575Z" fill="#868E96" stroke="#868E96"/>
    <rect x="77.5967" y="57.7529" width="22.7643" height="6.12929" fill="#868E96" stroke="#868E96"/>
    <path d="M19.5967 42.9704V19.1016H30.4589L36.4199 25.0156V42.9704H19.5967Z" fill="#F8F9FA" stroke="#868E96"/>
    <path d="M19.5967 72.6764V48.8076H30.4589L36.4199 54.7217V72.6764H19.5967Z" fill="#F8F9FA" stroke="#868E96"/>
    <path d="M31.3694 53.8106V49.7111L35.5015 53.8106H31.3694Z" fill="#868E96" stroke="#868E96"/>
    <path d="M19.5967 102.382V78.5127H30.4589L36.4199 84.4267V102.382H19.5967Z" fill="#F8F9FA" stroke="#868E96"/>
    <path d="M31.3694 83.5157V79.4162L35.5015 83.5157H31.3694Z" fill="#868E96" stroke="#868E96"/>
    <path d="M31.6664 23.8077V19.7082L35.7985 23.8077H31.6664Z" fill="#868E96" stroke="#868E96"/>
    <path d="M66.2162 59.7081C66.6068 59.3176 66.6068 58.6844 66.2162 58.2939L59.8523 51.9299C59.4617 51.5394 58.8286 51.5394 58.4381 51.9299C58.0475 52.3204 58.0475 52.9536 58.4381 53.3441L64.0949 59.001L58.4381 64.6578C58.0475 65.0484 58.0475 65.6815 58.4381 66.072C58.8286 66.4626 59.4617 66.4626 59.8523 66.072L66.2162 59.7081ZM49.0967 60.001H65.5091V58.001H49.0967V60.001Z" fill="#868E96"/>
</svg>