<svg width="24" height="24" viewBox="0 0 24 24" fill="none" xmlns="http://www.w3.org/2000/svg">
<g clip-path="url(#clip0_667_5864)">
<path d="M8.81819 12.0001C8.81819 11.6854 8.72483 11.3779 8.55002 11.1162C8.37521 10.8546 8.12678 10.6507 7.83608 10.5303C7.54537 10.4098 7.22549 10.3784 6.91689 10.4398C6.60828 10.5011 6.32478 10.6527 6.10229 10.8752C5.8798 11.0977 5.72827 11.3811 5.66689 11.6897C5.6055 11.9983 5.63703 12.3182 5.75744 12.6089C5.87785 12.8996 6.08175 13.1481 6.34338 13.3229C6.605 13.4977 6.91263 13.591 7.22728 13.591C7.64921 13.591 8.05386 13.4234 8.35221 13.125C8.65056 12.8267 8.81819 12.422 8.81819 12.0001Z" fill="#00BCD4"/>
<path d="M13.5909 12.0001C13.5909 11.6854 13.4976 11.3779 13.3228 11.1162C13.1479 10.8546 12.8995 10.6507 12.6088 10.5303C12.3181 10.4098 11.9982 10.3784 11.6896 10.4398C11.381 10.5011 11.0975 10.6527 10.875 10.8752C10.6525 11.0977 10.501 11.3811 10.4396 11.6897C10.3782 11.9983 10.4098 12.3182 10.5302 12.6089C10.6506 12.8996 10.8545 13.1481 11.1161 13.3229C11.3777 13.4977 11.6854 13.591 12 13.591C12.4219 13.591 12.8266 13.4234 13.1249 13.125C13.4233 12.8267 13.5909 12.422 13.5909 12.0001Z" fill="#00BCD4"/>
<path d="M18.3637 12.0001C18.3637 11.6854 18.2703 11.3779 18.0955 11.1162C17.9207 10.8546 17.6722 10.6507 17.3815 10.5303C17.0908 10.4098 16.771 10.3784 16.4624 10.4398C16.1538 10.5011 15.8703 10.6527 15.6478 10.8752C15.4253 11.0977 15.2737 11.3811 15.2124 11.6897C15.151 11.9983 15.1825 12.3182 15.3029 12.6089C15.4233 12.8996 15.6272 13.1481 15.8888 13.3229C16.1505 13.4977 16.4581 13.591 16.7727 13.591C17.1947 13.591 17.5993 13.4234 17.8977 13.125C18.196 12.8267 18.3637 12.422 18.3637 12.0001Z" fill="#00BCD4"/>
<path d="M12 21.091C17.0208 21.091 21.0909 17.0209 21.0909 12.0001C21.0909 6.97932 17.0208 2.90918 12 2.90918C6.97923 2.90918 2.90909 6.97932 2.90909 12.0001C2.90909 17.0209 6.97923 21.091 12 21.091Z" stroke="#00BCD4" stroke-width="2" stroke-miterlimit="10"/>
</g>
<defs>
<clipPath id="clip0_667_5864">
<rect width="20" height="20" fill="white" transform="translate(2 2)"/>
</clipPath>
</defs>
</svg>
