<svg width="24" height="24" viewBox="0 0 24 24" fill="none" xmlns="http://www.w3.org/2000/svg">
<g clip-path="url(#clip0_1626_5767)">
<path d="M8.81858 12C8.81858 11.6854 8.72523 11.3778 8.55042 11.1162C8.37561 10.8545 8.12717 10.6506 7.83647 10.5302C7.54577 10.4098 7.22589 10.3783 6.91728 10.4397C6.60868 10.5011 6.32518 10.6526 6.10269 10.8751C5.88019 11.0976 5.72867 11.381 5.66728 11.6896C5.6059 11.9982 5.63742 12.3181 5.75784 12.6088C5.87825 12.8995 6.08215 13.148 6.34377 13.3228C6.6054 13.4976 6.91302 13.5909 7.22767 13.5909C7.64961 13.5909 8.05425 13.4233 8.35261 13.1249C8.65096 12.8266 8.81858 12.4219 8.81858 12V12Z" fill="#00BCD4"/>
<path d="M13.591 12C13.591 11.6854 13.4977 11.3778 13.3229 11.1162C13.1481 10.8545 12.8996 10.6506 12.6089 10.5302C12.3182 10.4098 11.9983 10.3783 11.6897 10.4397C11.3811 10.5011 11.0976 10.6526 10.8751 10.8751C10.6527 11.0976 10.5011 11.381 10.4397 11.6896C10.3784 11.9982 10.4099 12.3181 10.5303 12.6088C10.6507 12.8995 10.8546 13.148 11.1162 13.3228C11.3779 13.4976 11.6855 13.5909 12.0001 13.5909C12.4221 13.5909 12.8267 13.4233 13.1251 13.1249C13.4234 12.8266 13.591 12.4219 13.591 12V12Z" fill="#00BCD4"/>
<path d="M18.3635 12C18.3635 11.6854 18.2702 11.3778 18.0953 11.1162C17.9205 10.8545 17.6721 10.6506 17.3814 10.5302C17.0907 10.4098 16.7708 10.3783 16.4622 10.4397C16.1536 10.5011 15.8701 10.6526 15.6476 10.8751C15.4251 11.0976 15.2736 11.381 15.2122 11.6896C15.1508 11.9982 15.1823 12.3181 15.3028 12.6088C15.4232 12.8995 15.6271 13.148 15.8887 13.3228C16.1503 13.4976 16.4579 13.5909 16.7726 13.5909C17.1945 13.5909 17.5992 13.4233 17.8975 13.1249C18.1959 12.8266 18.3635 12.4219 18.3635 12V12Z" fill="#00BCD4"/>
<path d="M12.0001 21.0909C17.0209 21.0909 21.091 17.0208 21.091 12C21.091 6.97923 17.0209 2.90909 12.0001 2.90909C6.97932 2.90909 2.90918 6.97923 2.90918 12C2.90918 17.0208 6.97932 21.0909 12.0001 21.0909Z" stroke="#00BCD4" stroke-width="2" stroke-miterlimit="10"/>
</g>
<defs>
<clipPath id="clip0_1626_5767">
<rect width="20" height="20" fill="white" transform="translate(2 2)"/>
</clipPath>
</defs>
</svg>
