<svg width="278" height="217" viewBox="0 0 278 217" fill="none" xmlns="http://www.w3.org/2000/svg">
<mask id="mask0_446_396" style="mask-type:alpha" maskUnits="userSpaceOnUse" x="5" y="17" width="200" height="200">
<path opacity="0.5" d="M105.197 216.179C160.132 216.179 204.666 171.79 204.666 117.035C204.666 62.2793 160.132 17.8911 105.197 17.8911C50.2616 17.8911 5.72766 62.2793 5.72766 117.035C5.72766 171.79 50.2616 216.179 105.197 216.179Z" fill="white"/>
</mask>
<g mask="url(#mask0_446_396)">
<path d="M273.569 9.11273H-225.849V220.826H273.569V9.11273Z" fill="url(#paint0_linear_446_396)"/>
<path d="M-7.00134 79.8921L-8.75242 82.2157L-9.91807 83.3776L-12.2494 84.6582L-12.6017 85.7064C-12.6017 85.7064 -13.5342 86.6359 -13.4202 87.2194C-13.3011 87.8029 -13.3011 88.846 -13.3011 88.846C-13.3011 88.846 -14.933 90.359 -15.6324 90.8237C-16.3318 91.2884 -17.2643 92.3367 -17.2643 92.3367C-17.2643 92.3367 -17.8445 93.0338 -18.1968 93.2661C-18.5491 93.4985 -19.1293 94.1956 -19.5956 94.8927C-20.0619 95.5898 -20.5281 96.0546 -20.7613 96.4057C-20.9944 96.7568 -21.6938 97.5675 -22.0461 98.8481C-22.3983 100.129 -23.3309 101.637 -23.3309 101.637L-23.564 102.215C-23.4449 104.193 -23.4448 104.539 -23.2117 105.236C-22.9786 105.933 -22.7455 105.7 -22.9786 107.213C-23.2117 108.726 -23.2117 109.305 -23.4448 110.002C-23.678 110.699 -24.3774 111.974 -24.6105 112.558C-24.8436 113.141 -24.1442 114.184 -24.1442 114.184C-24.1442 114.184 -23.792 115.697 -24.0251 116.043C-24.2582 116.395 -23.9059 117.092 -23.9059 117.092C-23.9059 117.092 -22.5071 117.902 -22.0409 118.372C-21.5746 118.842 -20.7561 119.534 -20.6421 119.885C-20.5281 120.236 -19.5904 121.863 -19.4764 122.209C-19.3625 122.555 -18.4248 123.835 -18.1916 124.187C-17.9585 124.538 -16.7928 125.813 -16.7928 125.813C-16.7928 125.813 -15.2749 126.975 -14.9278 127.44C-14.5807 127.904 -13.529 128.137 -13.1767 128.483C-12.8244 128.834 -12.0111 128.715 -11.5448 129.066C-11.0785 129.417 -10.146 128.834 -9.67975 129.066C-9.21349 129.299 -7.92868 128.834 -7.58158 128.602C-7.23447 128.369 -6.41592 127.559 -5.8305 127.904C-5.24508 128.25 -4.89797 127.904 -4.43171 128.023C-3.96545 128.142 -3.26606 127.559 -2.7998 127.559C-2.33353 127.559 -1.16789 127.094 -0.815598 127.094C-0.463311 127.094 0.702353 126.397 1.16861 126.397C1.63488 126.397 2.21511 125.932 2.80053 126.164C3.38595 126.397 3.14763 125.7 4.19931 126.046C5.25099 126.391 5.59809 126.046 5.95038 126.391C6.30267 126.743 6.76893 126.392 7.11604 126.856C7.46314 127.321 8.04857 127.667 8.16255 128.137C8.27652 128.607 8.98109 129.066 8.98109 129.066L9.68048 129.18C9.68048 129.18 10.613 128.483 10.8461 128.948C11.0793 129.412 12.1309 129.299 12.1309 129.299L13.1774 130.461L13.5297 130.925C13.5297 130.925 14.2291 132.784 14.11 133.481C13.9908 134.178 13.9908 135.691 13.6437 136.037C13.2966 136.388 13.0635 137.896 13.0635 137.896C13.0635 137.896 12.5972 138.361 13.6437 139.291C14.6902 140.22 15.3948 141.036 15.7419 141.495C16.0942 141.96 17.0267 143.241 17.1407 144.051C17.2598 144.862 17.493 145.327 17.9592 146.375C18.4255 147.423 19.0057 147.537 19.1249 148.699C19.244 149.861 19.472 149.861 19.358 150.677C19.2389 151.492 18.8917 151.606 19.2388 152.19C19.586 152.773 20.0522 153.816 19.9382 154.167C19.8191 154.513 19.586 156.026 19.586 156.026L19.3528 156.723L18.3063 158.701L17.6069 159.744C17.3738 160.56 16.9075 161.371 17.0267 162.532C17.1407 163.694 16.4465 163.694 17.3738 164.856C18.3012 166.018 18.7726 167.299 19.358 168.342C19.9434 169.385 20.2905 170.433 20.4045 171.13C20.5237 171.827 20.9899 172.06 21.2231 172.989C21.4562 173.919 21.5702 174.383 21.5702 174.967C21.5702 175.55 21.451 177.058 21.6893 177.409C21.9276 177.76 22.0364 178.803 22.1556 179.268C22.2747 179.733 21.8033 179.852 22.5027 180.662C23.2021 181.478 23.6683 181.943 24.1346 182.521C24.6009 183.105 24.4817 182.867 24.834 183.683C25.1863 184.499 25.6525 184.964 25.7665 185.661C25.8857 186.358 25.9996 188.103 26.3468 188.914C26.699 189.73 27.1653 190.541 27.1653 190.541C27.1653 190.541 28.4501 191.356 28.9164 191.238C29.3826 191.119 30.3152 190.076 31.0146 190.422C31.714 190.768 32.2994 190.422 32.8796 190.422C33.4598 190.422 34.0453 189.725 34.6307 189.725C35.2161 189.725 36.0295 188.795 36.4957 189.028C36.962 189.26 37.5422 188.795 38.1277 188.212C38.7131 187.633 39.0602 187.169 40.1118 186.234C41.1583 185.305 41.0444 185.305 41.7438 184.721C42.4432 184.143 43.1426 182.862 43.9611 182.63C44.7796 182.397 45.0076 181.587 45.2459 181.003C45.4842 180.42 45.593 180.074 45.9453 179.609C46.2976 179.144 46.0645 179.728 46.6447 178.215C47.2249 176.702 47.9295 176.123 48.5098 175.772C49.09 175.421 49.4423 174.729 49.7946 174.61C50.1468 174.492 50.7271 174.956 50.4939 173.913C50.2608 172.87 50.494 171.357 50.2608 171.006C50.0277 170.655 49.6754 171.817 49.7946 170.077C49.9137 168.331 51.1934 166.591 51.1934 166.591C51.1934 166.591 52.9444 164.381 53.5247 164.035C54.1049 163.689 54.2241 163.338 55.0426 162.873C55.856 162.409 57.6071 161.247 57.6071 160.663C57.6071 160.08 58.3064 158.572 58.3064 158.221C58.3064 157.87 58.3064 157.524 58.0733 155.546C57.8402 153.568 58.3064 154.033 57.6071 152.174C56.9077 150.315 56.7885 147.991 56.3222 147.408C55.856 146.83 56.0891 145.317 56.0891 144.852C56.0891 144.387 56.9077 143.225 57.2548 142.761C57.6019 142.296 59.1198 140.437 59.1198 140.437C59.1198 140.437 61.4511 137.762 62.2697 136.487C63.0882 135.206 63.9016 134.044 64.487 133.579C65.0724 133.115 66.4712 132.066 67.2846 130.905C68.1031 129.743 69.735 127.533 69.849 127.187C69.963 126.841 70.8955 125.674 70.8955 125.674C70.8955 125.674 72.1803 124.161 72.4134 123.35C72.6466 122.534 73.8122 118.006 73.5791 118.238C73.346 118.47 71.9472 118.703 71.4809 118.816C71.0147 118.935 72.1803 119.395 68.7973 119.167C65.4143 118.94 63.6685 119.519 63.6685 119.519C62.6168 119.286 61.8034 120.448 61.4511 118.821C61.0988 117.195 60.8657 116.265 60.1663 115.104C59.4669 113.942 59.0006 113.477 57.949 111.964C56.9025 110.451 57.0165 111.148 56.0839 109.991C55.1514 108.83 54.9183 109.176 54.3329 107.668C53.7526 106.155 53.2863 106.738 52.5818 104.647C51.8824 102.556 51.4161 102.323 51.0638 101.161C50.7116 99.9996 50.2453 99.6485 50.0121 98.6054C49.779 97.5572 47.0954 92.2127 46.7483 91.8668C46.396 91.5208 45.8158 89.6567 45.9298 90.0078C46.0489 90.359 47.6808 91.5208 47.6808 91.5208C47.6808 91.5208 48.6134 91.1697 48.9657 91.1697C49.318 91.1697 50.7167 92.4503 50.7167 92.915C50.7167 93.3797 53.1672 95.5898 53.7474 97.2164C54.3277 98.843 55.0322 100.005 55.1462 100.47C55.2602 100.934 56.431 102.793 56.8973 103.49C57.3636 104.187 58.8815 105.582 59.1094 106.279C59.3374 106.976 61.5599 109.3 61.5599 110.813C61.5599 112.325 62.6064 114.298 62.7256 114.763C62.8447 115.228 64.9429 115.811 64.9429 115.811L67.7405 115.114C67.7405 115.114 71.9368 112.439 72.4031 112.439C72.8694 112.439 76.5994 110.694 76.5994 110.694C76.5994 110.694 78.1122 109.3 79.1639 108.489C80.2156 107.678 81.3812 106.165 81.6143 105.468C81.8475 104.771 82.3138 104.657 83.2463 103.609C84.1788 102.561 85.4636 101.518 84.6451 100.821C83.8317 100.124 83.3602 100.356 82.1946 99.1941C81.0289 98.0323 81.1429 98.2646 80.3295 96.7517C79.511 95.2387 80.4435 93.4985 78.6976 95.2387C76.9517 96.9789 77.6511 97.4488 75.9001 97.7947C74.149 98.1407 73.4496 99.3077 72.6362 98.1407C71.8229 96.9737 71.0043 97.676 70.538 95.9306C70.0718 94.1853 69.7195 94.0717 69.6055 93.3746C69.4915 92.6775 69.6055 92.6775 68.673 90.9321C67.7405 89.1868 68.4399 86.5171 69.0201 88.0249C69.6003 89.5328 70.5381 89.7703 72.0508 90.8134C73.5636 91.8564 74.2681 92.6723 75.6669 92.7911C77.0657 92.9047 78.2314 92.7911 78.4645 93.0234C78.6976 93.2558 78.9308 92.9098 79.5162 93.1422C80.1016 93.3746 80.3296 92.7962 80.5679 93.7205C80.8062 94.6449 82.0858 94.7688 82.666 95.3471C83.2463 95.9255 83.2515 95.6983 84.7642 95.9255C86.277 96.1527 88.3803 96.1578 88.3803 96.1578L90.5977 96.0391L93.1621 96.2714C93.1621 96.2714 95.0272 97.3197 95.4934 97.3197C95.9597 97.3197 96.0737 98.6003 97.2445 99.2974C98.4153 99.9945 98.6433 100.108 99.3427 100.924C100.042 101.74 99.9281 102.086 100.861 102.902C101.793 103.712 103.311 102.788 103.544 102.437C103.777 102.086 104.943 101.507 104.71 102.437C104.477 103.366 105.876 103.015 105.523 105.225C105.171 107.435 104.938 106.852 105.523 108.365C106.109 109.878 108.673 114.525 108.787 115.919C108.906 117.314 109.606 116.849 109.72 118.13C109.834 119.41 110.538 119.875 110.538 120.804C110.538 121.734 111.357 121.966 111.471 122.663C111.59 123.36 112.869 122.777 113.222 122.663C113.574 122.545 115.206 121.037 115.206 121.037C115.206 121.037 115.905 120.804 115.791 119.643C115.677 118.481 115.791 118.713 115.791 116.968C115.791 115.222 115.092 115.222 115.444 113.482C115.797 111.742 116.724 110.694 116.962 109.878C117.195 109.067 118.128 107.668 118.594 107.554C119.06 107.441 121.625 106.16 122.21 105.344C122.796 104.528 123.728 103.599 124.661 102.669C125.593 101.74 127.225 100.578 127.577 100.924C127.93 101.27 127.811 101.156 128.396 101.156C128.981 101.156 130.028 101.621 130.846 101.74C131.665 101.859 133.297 103.831 133.644 104.879C133.991 105.928 133.758 105.69 135.043 107.203C136.328 108.716 137.493 107.781 137.493 109.646C137.493 111.51 137.493 111.391 138.079 112.088C138.664 112.785 139.358 110.807 140.063 111.045C140.767 111.282 140.881 110.813 141.462 112.671C142.042 114.53 142.394 114.53 142.513 116.389C142.627 118.248 142.394 116.508 142.394 118.016C142.394 119.524 142.275 119.642 142.513 121.037C142.752 122.431 143.56 122.896 143.446 123.128C143.446 123.128 144.145 121.15 143.912 119.756C143.679 118.362 143.912 116.384 144.498 115.806C145.083 115.228 145.663 114.644 146.129 116.157C146.596 117.67 146.829 116.508 147.881 118.248C148.932 119.994 149.865 119.643 149.979 120.458C150.093 121.274 150.678 121.388 151.497 122.085C152.315 122.782 153.015 121.971 153.947 121.274C154.88 120.577 157.444 118.021 157.563 116.973C157.677 115.93 158.729 116.157 156.864 113.487C154.999 110.818 154.999 109.883 153.015 108.256C151.036 106.63 149.865 106.511 151.383 104.42C152.901 102.328 153.6 100.934 154.533 101.513C155.465 102.096 157.097 101.977 157.097 104.301C157.097 106.625 156.631 109.181 158.263 106.392C159.895 103.604 160.713 101.977 160.247 102.442C159.781 102.907 161.299 101.513 161.299 101.513C161.299 101.513 161.418 100.464 163.397 99.9996C165.376 99.5349 165.961 99.3025 166.661 98.9514C167.36 98.6003 169.344 96.2766 169.691 95.2335C170.038 94.1853 170.976 92.3263 170.743 91.5156C170.51 90.7049 169.344 86.7495 169.111 86.8683C168.878 86.987 168.997 86.987 167.479 85.3553C165.961 83.7287 164.915 82.5669 164.682 81.8698C164.448 81.1727 163.863 81.0539 164.562 80.1244C165.262 79.195 165.614 79.3137 165.728 78.4978C165.847 77.682 166.775 76.9849 165.029 77.5684C163.278 78.1519 164.562 77.8007 163.044 77.6871C161.526 77.5735 157.563 78.4978 159.547 76.0606C161.532 73.6181 162.112 72.1103 162.459 72.1103C162.806 72.1103 164.557 70.1326 164.676 71.9915C164.796 73.8505 165.495 73.3858 165.609 74.5476C165.728 75.7094 168.059 73.2722 168.059 73.2722C168.059 73.2722 168.878 73.5045 169.458 74.0829C170.038 74.6612 170.044 76.5253 170.044 76.5253C170.044 76.5253 169.577 75.9418 170.862 76.8764C172.147 77.8111 173.546 77.3412 173.546 79.3189C173.546 81.2966 173.546 81.4102 174.364 81.8749C175.183 82.3397 175.996 82.1073 176.696 81.5238C177.395 80.9403 178.561 78.849 178.561 78.849C178.561 78.849 178.675 78.0331 176.81 76.8713C174.944 75.7094 173.779 74.8987 173.079 74.3152C172.38 73.7317 172.613 71.9915 173.313 71.2944C174.012 70.5973 174.364 70.2462 174.131 69.3167C173.898 68.3873 174.483 67.6902 176.229 67.8038C177.975 67.9174 178.327 67.6902 178.327 67.6902C178.327 67.6902 178.68 67.9225 178.68 67.2254C178.68 66.5283 180.897 63.2752 180.312 63.2752C179.726 63.2752 180.431 62.4645 180.079 61.1838C179.726 59.9032 181.244 57.9307 179.965 57.0012C178.685 56.0717 178.333 55.607 177.514 54.2128C176.696 52.8186 176.815 52.5862 173.784 52.2351C170.753 51.884 169.355 52.9322 168.655 52.0027C167.956 51.0733 167.603 53.3969 167.142 50.6085C166.681 47.8201 167.842 45.9612 167.842 45.9612C167.842 45.9612 169.707 44.7993 170.173 43.9834C170.639 43.1676 172.504 42.8216 174.022 43.4051C175.54 43.9886 177.752 43.8698 179.617 44.221C181.483 44.5669 181.369 45.7339 182.301 44.221C183.234 42.708 182.301 42.0109 183 41.2002C183.7 40.3895 184.518 39.1089 185.099 39.9196C185.679 40.7355 186.85 41.5462 187.782 40.4979C188.715 39.4497 189.062 39.3361 189.062 39.3361L189.528 39.8008C189.528 39.8008 190.58 39.2173 190.58 40.2656C190.58 41.3138 191.631 42.4756 191.046 43.2863C190.461 44.097 189.647 43.9834 189.647 45.9612C189.647 47.9389 189.647 47.5877 190.927 49.2143C192.212 50.8409 193.025 49.4467 193.258 51.192C193.491 52.9374 193.724 52.5862 195.009 53.7481C196.294 54.9099 196.056 54.9099 196.993 55.607C197.931 56.3041 198.392 57.0012 198.392 55.8394C198.392 54.6775 198.506 54.094 198.392 53.051C198.273 52.0027 199.325 51.192 198.625 49.4467C197.926 47.7013 198.511 47.8201 197.113 46.5395C195.714 45.2589 194.781 46.7719 194.315 44.9129C193.849 43.054 196.532 42.2381 197.232 42.0057C197.931 41.7734 198.978 40.3792 199.211 41.3086C199.444 42.2381 197.46 45.61 200.843 42.0057C204.226 38.4014 202.708 39.9144 202.708 39.9144C202.708 39.9144 204.459 39.6821 204.806 39.9144C205.153 40.1468 206.091 38.8662 205.739 38.9849C205.386 39.1037 202.008 37.126 202.008 37.126L199.558 35.7318C199.558 35.7318 200.376 35.1483 200.957 35.2671C201.537 35.3858 201.656 34.1052 202.242 33.9864C202.827 33.8677 206.79 34.8023 207.604 35.2671C208.417 35.7318 211.334 35.8454 210.987 35.613C210.639 35.3807 208.769 33.9864 208.655 33.5217C208.541 33.057 204.459 32.1275 203.174 32.2411C201.889 32.3547 200.724 32.7058 199.677 32.3547C198.631 32.0036 197.113 31.0741 196.294 31.0741C195.476 31.0741 185.218 29.0964 184.752 29.2152C184.285 29.3339 183.586 31.5388 183.234 31.1929C182.881 30.8469 182.301 30.8417 180.669 30.377C179.037 29.9123 176.82 29.5611 173.908 29.3288C170.997 29.0964 169.013 29.5611 168.194 28.6317C167.375 27.7022 165.63 28.0533 163.645 27.9346C161.661 27.8209 159.33 27.9346 158.283 27.9346C157.237 27.9346 154.786 27.8209 154.201 27.7022C153.616 27.5834 152.916 26.7727 152.217 26.6591C151.517 26.5403 151.631 26.3131 150.233 26.0808C148.834 25.8484 148.948 24.3354 148.482 25.616C148.015 26.8966 148.248 26.5455 147.549 27.0102C146.85 27.475 146.15 28.4045 145.684 28.4045C145.218 28.4045 143.353 28.5232 143 28.2857C142.648 28.0482 142.068 27.8209 140.902 27.8209C139.737 27.8209 139.737 27.9346 138.219 27.7022C136.701 27.4698 135.535 27.5834 134.136 26.8863C132.737 26.1892 132.737 25.7245 131.572 25.8381C130.406 25.9517 130.406 25.6057 128.774 25.6057C127.142 25.6057 125.158 26.5352 124.112 26.6539C123.065 26.7727 120.729 26.5352 119.915 26.1892C119.102 25.8432 118.864 25.0274 115.833 25.3733C112.802 25.7245 111.051 25.7245 111.636 24.795C112.222 23.8655 112.921 22.9361 113.268 22.8173C113.621 22.6985 114.434 22.1202 113.849 21.8878C113.268 21.6554 112.683 21.3095 111.284 21.1907C109.885 21.0719 109.999 21.6554 107.901 21.4231C105.803 21.1907 109.067 20.6072 104.751 20.726C100.436 20.8447 99.3893 21.1907 98.9231 21.1907C98.4568 21.1907 97.8714 20.2612 96.7057 21.6554C95.54 23.0497 93.9081 23.8655 91.5768 23.9791C89.2455 24.0927 89.1264 23.7468 86.9142 24.5575C84.7021 25.3682 83.2981 24.3251 83.7643 26.184C84.2306 28.043 84.816 28.7401 84.816 29.0912C84.816 29.4424 83.7643 31.766 82.4847 30.3718C81.2051 28.9776 78.8686 23.5144 79.9203 27.2323C80.972 30.9502 83.3033 32.2308 81.0859 32.8091C78.8686 33.3875 79.1017 32.5767 78.7546 32.3444C78.4075 32.112 78.7546 30.4854 78.6355 29.556C78.5163 28.6265 78.2884 28.043 77.8169 27.5783C77.3455 27.1135 77.4646 26.4164 76.5321 26.184C75.5996 25.9517 76.413 25.4869 74.9002 25.4869C73.3874 25.4869 72.1026 24.5575 72.4497 26.6488C72.7968 28.7401 73.1491 27.3459 74.0816 29.3236C75.0142 31.3013 76.7652 29.9019 75.4804 31.3013C74.1956 32.6955 70.8178 32.2308 69.9993 31.6524C69.1807 31.0741 69.419 31.8848 67.9011 30.8366C66.3831 29.7883 66.8546 28.9776 65.1035 29.7883C63.3524 30.599 62.7722 32.112 62.0728 31.5337C61.3734 30.9502 59.7415 32.3495 59.1561 31.6524C58.5707 30.9553 56.2393 30.9553 55.7731 31.6524C55.3068 32.3495 53.908 32.2308 51.9238 33.1654C49.9396 34.1001 50.525 33.279 48.0746 35.2567C45.6241 37.2344 44.2253 38.861 43.4119 37.5804C42.5934 36.305 38.1639 34.0949 39.915 33.7438C41.6661 33.3926 42.4794 32.6955 43.4119 33.5114C44.3445 34.3273 45.8624 34.0949 46.0955 33.5114C46.3287 32.9279 47.3804 32.3495 45.9764 31.6524C44.5724 30.9553 44.4584 31.4201 42.2463 30.6042C40.029 29.7883 42.2463 30.0259 39.2156 29.556C36.1849 29.0861 34.9001 28.8589 34.0867 28.6265C33.2733 28.3941 32.1025 28.6265 30.9369 28.5077C29.7712 28.389 28.9526 28.1618 27.9061 28.2754C26.8596 28.3941 26.2742 28.1566 24.8754 29.2048C23.4767 30.2531 22.425 30.7178 21.4924 31.5285C20.5599 32.3444 18.1095 33.971 17.4101 34.5493C16.7107 35.1328 14.2602 36.9917 14.0271 37.6888C13.7939 38.386 14.2602 38.9695 13.3277 39.4342C12.3952 39.8989 11.4626 39.8989 10.7632 40.0125C10.0639 40.1261 10.7632 38.9643 10.0638 40.1261C9.36446 41.288 9.59759 45.4706 10.183 44.8923C10.7684 44.3139 10.4161 42.4498 12.9806 44.1952C15.545 45.9405 17.1769 45.7081 17.063 47.3347C16.9438 48.9613 18.814 48.8477 19.0472 49.1937C19.2803 49.5396 20.446 48.7289 20.446 48.7289C20.446 48.7289 23.0104 47.1023 23.0104 46.2865C23.0104 45.4706 24.6423 43.6117 24.6423 43.6117C24.6423 43.6117 23.4767 43.0333 23.4767 41.8663C23.4767 40.6993 23.829 40.3533 24.0621 39.1915C24.2952 38.0297 22.7773 39.1915 26.2794 36.9814C29.7816 34.7713 30.0095 36.2843 30.0095 36.2843C30.0095 36.2843 30.4758 36.749 29.8904 37.4462C29.3049 38.1433 28.2584 40.0022 28.0253 40.2346C27.7922 40.4669 29.077 42.3259 29.6572 42.3259C30.2375 42.3259 31.4083 41.8611 32.1077 41.9747C32.8071 42.0935 33.9727 41.6288 34.325 41.8611C34.6773 42.0935 35.4907 42.7906 34.9053 43.3741C34.3198 43.9576 33.0402 44.6496 32.1077 44.4224C31.1752 44.1952 29.7764 42.5634 30.5897 44.8871C31.4083 47.2108 30.4706 47.7943 29.7712 47.6755C29.0718 47.5619 27.5539 46.4001 27.787 48.1403C28.0201 49.8804 26.2742 51.0474 25.9219 51.0474C25.5697 51.0474 24.8754 50.9338 24.8754 50.9338C24.8754 50.9338 23.8238 50.8151 23.2435 50.8151C22.6633 50.8151 21.4925 51.3934 21.1454 51.8633C20.7931 52.328 20.3268 51.9821 19.7466 51.9821C19.1663 51.9821 19.7466 51.285 18.5809 51.0526C17.4152 50.8202 16.7158 50.5879 16.0165 51.0526C15.3171 51.5173 14.2654 51.7497 13.7991 51.4037C13.3329 51.0578 14.0323 50.2419 13.0997 50.7066C12.1672 51.1714 11.4678 52.452 11.1155 52.5656C10.7684 52.6792 12.1672 52.5656 10.7684 52.6792C9.36964 52.7979 8.78422 53.1439 8.08482 53.3763C7.38543 53.6086 8.31795 55.0029 7.03314 55.4676C5.74833 55.9323 6.68604 54.8893 5.40123 55.9323C4.11642 56.9806 3.88329 57.91 3.41703 58.0236C2.95077 58.1424 3.06992 58.3748 2.01824 58.4884C0.96656 58.602 1.08572 58.7207 0.500301 58.8395C-0.0851166 58.9583 0.619457 59.1906 -0.665354 58.9531C-1.95016 58.7156 -2.8827 59.1855 -2.64957 59.6502C-2.41644 60.115 1.89908 61.3956 -1.36475 61.2768C-4.62858 61.158 -3.58208 61.7415 -2.88269 62.2063C-2.1833 62.671 -1.8362 63.1357 -1.48391 63.2545C-1.13162 63.3733 -0.551378 64.7675 -0.551378 64.7675C-0.551378 64.7675 0.381142 64.6487 -0.199095 65.4646C-0.779332 66.2805 0.0340399 66.5128 -0.551378 67.5559C-1.1368 68.599 -1.13163 67.907 -1.59789 68.1342C-2.06415 68.3614 -2.76353 69.1825 -4.04834 68.4854C-5.33315 67.7883 -6.2605 67.4371 -7.77845 67.3235C-9.29639 67.2048 -8.24471 66.9724 -9.29639 67.7883C-10.3481 68.6041 -10.5812 69.5336 -10.462 70.5767C-10.3429 71.6249 -10.2289 73.0191 -10.5812 73.7162C-10.9335 74.4133 -10.9283 75.1104 -10.7003 76.1587C-10.4672 77.2069 -9.76783 77.6717 -9.76783 77.6717C-9.76783 77.6717 -8.1359 77.904 -7.78362 78.0228C-7.43133 78.1416 -6.73194 77.7904 -5.79942 78.3688C-4.8669 78.9523 -3.93437 79.1846 -3.34895 78.4875C-2.76353 77.7904 -0.432229 76.9746 0.267164 76.2774C0.966557 75.5803 1.43283 75.348 1.08572 74.6509C0.738616 73.9538 1.7851 72.2084 2.37052 71.8624C2.95594 71.5165 4.23557 71.1653 4.23557 71.1653L5.63437 69.074C5.63437 69.074 6.80002 67.7934 7.38544 67.9122C7.97086 68.031 11.2347 69.1928 11.0016 67.6798C10.7684 66.1669 11.2347 65.7021 11.5818 66.2856C11.9289 66.8691 12.8666 66.6368 12.8666 66.6368C12.8666 66.6368 13.3329 66.4044 13.6851 66.7555C14.0323 67.1015 14.5037 68.6145 15.2031 68.9656C15.9025 69.3167 16.4879 69.6627 16.9542 69.8951C17.4204 70.1274 17.8867 69.8951 18.8192 70.7109C19.7517 71.5268 20.6843 71.9915 20.8034 72.3375C20.9226 72.6887 21.7359 73.4994 21.7359 73.4994C21.7359 73.4994 22.5545 73.7317 22.3162 74.1965C22.0779 74.6612 20.9174 76.0554 20.332 76.2878C19.7466 76.5201 18.2338 76.0554 18.814 76.5201C19.3943 76.9849 20.2128 77.5684 20.5651 77.2172C20.9174 76.8661 23.1295 74.5424 23.1295 74.5424C23.1295 74.5424 23.0104 74.656 23.1295 73.9589C23.2487 73.2618 23.1296 72.446 23.715 72.7971C24.2952 73.1482 24.6475 73.613 24.8806 73.1482C25.1138 72.6835 25.3469 72.9159 24.7615 72.5699C24.176 72.2239 22.7773 70.2462 22.0779 70.1274C21.3785 70.0087 19.6274 68.8468 19.6274 68.8468C19.6274 68.8468 19.2803 68.4957 18.4617 67.5714C17.6432 66.6471 17.4153 66.8743 17.1769 66.0584C16.9386 65.2425 16.2444 64.1995 17.5292 64.4318C18.814 64.6642 19.6274 65.4801 20.7931 66.1772C21.9587 66.8743 21.7256 67.1067 22.7773 67.8038C23.8238 68.5009 23.9429 69.198 24.7615 69.0844C25.58 68.9708 26.5125 69.5491 26.5125 70.5973C26.5125 71.6456 26.7457 72.8074 26.9788 73.0398C27.2119 73.2722 27.9113 73.7369 28.1445 74.2016C28.3776 74.6664 28.8439 75.8282 29.191 76.2929C29.5432 76.7577 29.8904 77.1088 30.2426 77.6871C30.5897 78.2655 30.7089 77.5684 31.0612 77.8007C31.4135 78.0331 31.8797 77.9143 31.8797 77.4496C31.8797 76.9849 31.9937 76.169 31.9937 76.169C31.9937 76.169 33.6256 75.7043 33.1594 75.4719C32.6931 75.2395 31.2943 73.8453 31.4083 73.3806C31.5223 72.9159 31.4083 71.9864 31.9885 72.1051C32.5739 72.2187 33.1542 73.267 34.439 72.3375C35.7238 71.408 37.2366 70.9433 36.7703 72.3375C36.3041 73.7317 36.8895 73.9641 36.7703 75.4771C36.6563 76.99 37.2366 76.5253 38.0551 77.336C38.8737 78.1519 39.4539 78.2655 40.0393 78.4978C40.6247 78.7302 41.5573 78.6166 42.4898 78.7302C43.4223 78.8438 44.0077 78.3791 44.8211 78.6115C45.6345 78.8438 47.5047 78.4927 47.8518 78.7302C48.1989 78.9678 49.6029 78.2655 49.7168 79.0814C49.836 79.8972 50.3023 78.9626 49.95 80.8267C49.5977 82.6856 49.1315 83.9663 49.1315 83.9663C47.8466 86.4087 47.3804 86.987 46.8001 87.1058C46.2199 87.2246 45.8676 87.5705 44.8159 87.4569C43.7642 87.3382 42.4846 87.4569 40.9667 87.1058C39.4487 86.7547 36.6512 87.4569 35.4855 86.7547C34.3198 86.0524 32.6879 86.6359 31.9885 85.8252C31.2891 85.0145 30.1235 85.1281 29.6572 84.6634C29.191 84.1986 28.9578 82.918 28.9578 84.7821C28.9578 86.6462 27.9061 86.7598 27.673 87.6893C27.4399 88.6188 28.0201 88.154 26.7405 88.0404C25.4557 87.9217 25.1086 88.6188 23.2435 87.2297C21.3785 85.8355 20.4459 85.8355 19.5134 85.252C18.5809 84.6685 17.6484 86.2951 16.7159 84.4413C15.7833 82.5824 14.4985 84.0902 14.3845 82.5824C14.2654 81.0694 14.3845 81.1882 14.5037 80.2587C14.6229 79.3292 15.9025 78.5133 15.3222 78.1674C14.742 77.8214 15.2031 77.2379 14.3897 77.589C13.5764 77.9402 12.4055 78.0538 11.473 78.3997C10.5405 78.7509 13.5712 78.3997 9.02252 78.7509C4.47388 79.102 3.18908 79.5616 3.18908 79.5616C3.18908 79.5616 2.84196 79.3292 2.25655 79.794C1.67113 80.2587 0.857761 80.9558 0.0392124 80.6098C-0.779337 80.2587 -1.24559 80.3774 -1.94498 80.4911C-2.64438 80.6047 -3.11065 79.9127 -3.9292 80.4911C-4.74775 81.0694 -5.68026 81.3018 -6.02737 81.0694C-6.37966 80.8319 -6.95989 79.9024 -6.95989 79.9024L-7.00134 79.8921Z" fill="url(#paint1_linear_446_396)"/>
<path d="M71.0095 156.367C70.6624 157.648 69.3776 159.507 69.3776 159.507L67.0463 160.668C67.0463 160.668 66.2329 161.366 65.7615 161.484C65.2952 161.598 64.1296 162.181 64.1296 162.181C64.1296 162.181 63.0831 161.949 63.4302 162.992C63.7773 164.04 63.8964 165.316 63.7773 165.667C63.6633 166.018 63.6633 166.715 63.6633 167.645C63.6633 168.574 63.3162 169.736 62.7308 169.968C62.1454 170.201 61.5651 170.433 61.6791 171.249C61.7983 172.065 61.7983 174.502 61.7983 174.502L63.3162 176.826C63.3162 176.826 63.7825 176.48 64.715 176.48C65.6475 176.48 66.5801 175.669 66.5801 175.669C66.5801 175.669 67.6317 175.901 67.5126 174.621C67.3934 173.34 67.9788 171.832 67.8597 171.481C67.7457 171.135 68.9114 169.622 68.9114 169.271C68.9114 168.92 70.077 167.294 70.077 166.715C70.077 166.137 70.8956 165.202 71.0095 164.51C71.1235 163.813 71.2427 162.187 71.4758 161.722C71.7089 161.257 71.8281 160.792 71.8281 160.328V158.933L71.0095 156.377V156.367Z" fill="url(#paint2_linear_446_396)"/>
<path d="M162.314 172.06C161.967 172.524 161.734 177.523 161.495 178.101C161.257 178.679 160.796 181.705 161.029 182.402C161.262 183.1 161.609 185.656 161.376 186.472C161.143 187.287 161.49 189.843 160.91 189.725C160.33 189.606 160.097 189.843 160.097 190.189C160.097 190.535 160.91 191.232 160.91 191.232C160.91 191.232 162.309 191.232 162.894 191.114C163.48 190.995 164.645 190.417 165.578 190.417C166.51 190.417 167.096 189.72 167.909 189.72C168.722 189.72 170.474 189.141 170.94 189.374C171.406 189.606 172.105 187.979 172.924 188.33C173.742 188.682 175.488 187.515 176.307 187.515C177.126 187.515 177.473 186.234 178.405 186.472C179.338 186.709 181.089 186.007 181.902 186.353C182.715 186.704 184 185.191 184.586 186.353C185.171 187.515 186.917 187.979 186.917 188.563C186.917 189.146 186.798 190.422 186.798 190.422L188.197 190.303C188.197 190.303 190.414 188.909 190.761 188.909C191.108 188.909 191.927 187.747 191.927 188.33C191.927 188.914 191.227 190.189 190.994 190.773C190.761 191.356 191.227 192.054 191.227 192.054C191.227 192.054 192.393 192.632 191.927 193.68C191.46 194.728 192.041 194.496 191.927 195.307C191.808 196.123 191.927 195.771 192.393 196.236C192.859 196.701 193.678 197.517 194.377 197.398C195.077 197.279 195.31 196.582 195.895 196.933C196.475 197.279 197.646 197.052 197.993 197.517C198.346 197.981 195.776 199.143 200.211 197.171C204.645 195.198 205.106 194.728 205.692 194.031C206.277 193.334 206.977 192.637 207.443 192.172C207.909 191.708 207.562 191.826 208.961 190.778C210.36 189.735 210.36 190.2 211.644 188.222C212.929 186.244 213.862 185.547 214.095 185.201C214.328 184.855 214.794 184.736 214.913 183.342C215.027 181.948 215.965 180.667 215.965 180.203C215.965 179.738 216.312 179.041 216.198 178.225C216.084 177.409 216.665 176.247 215.965 175.085C215.266 173.924 216.312 173.459 215.266 172.994C214.219 172.529 213.515 172.762 213.282 171.951C213.048 171.14 212.116 171.254 211.764 169.044C211.416 166.834 210.013 166.601 210.013 166.601C210.013 166.601 208.614 166.023 208.961 165.791C209.308 165.558 209.427 163.932 209.313 163.467C209.194 163.002 209.194 161.954 208.847 161.262C208.5 160.565 208.261 159.636 207.914 158.82C207.562 158.004 206.982 157.771 206.749 156.842C206.516 155.913 206.163 155.561 206.049 155.329C205.93 155.097 205.697 153.935 205.464 155.21C205.231 156.491 204.764 158.928 204.764 158.928C204.764 158.928 203.832 160.906 203.48 161.484C203.133 162.063 202.78 163.576 202.2 163.462C201.62 163.348 201.268 164.045 200.801 163.927C200.335 163.808 199.636 164.045 199.283 163.694C198.931 163.343 197.998 162.414 197.532 162.3C197.066 162.186 196.714 161.257 196.367 161.257C196.019 161.257 195.434 160.441 195.548 159.976C195.662 159.512 195.781 158.469 195.895 157.999C196.009 157.534 196.714 156.486 196.714 156.486C196.714 156.486 196.714 155.789 196.128 155.789C195.543 155.789 195.429 155.789 194.144 155.67C192.859 155.551 192.512 155.437 192.046 155.437C191.58 155.437 192.512 155.205 191.227 155.556C189.943 155.907 189.362 156.837 188.544 157.648C187.73 158.463 188.43 158.226 187.73 158.463C187.031 158.701 187.145 157.88 186.679 159.161C186.212 160.441 186.912 160.787 186.56 161.019C186.207 161.252 183.762 160.204 183.762 160.204C183.762 160.204 184.342 160.085 183.876 159.506C183.41 158.928 182.943 158.112 182.244 158.463C181.545 158.815 180.959 159.047 180.493 159.625C180.027 160.204 180.027 160.668 179.674 161.133C179.322 161.598 178.395 161.598 178.276 162.063C178.156 162.527 178.162 163.689 177.809 163.808C177.462 163.927 177.343 163.343 176.991 163.23C176.644 163.111 176.758 162.181 176.525 162.765C176.291 163.348 176.058 163.23 175.706 164.159C175.354 165.088 175.24 165.904 174.887 166.018C174.535 166.132 174.887 166.25 173.836 166.834C172.789 167.412 172.556 167.412 171.038 168.114C169.525 168.812 169.873 168.812 168.821 168.93C167.769 169.049 167.536 169.395 166.837 169.514C166.137 169.633 165.671 169.746 164.972 170.443C164.272 171.14 163.692 171.373 163.221 171.492C162.749 171.61 162.288 172.075 162.288 172.075L162.314 172.06Z" fill="url(#paint3_linear_446_396)"/>
<path d="M169.194 126.149C168.728 126.846 167.21 128.937 166.629 129.056C166.044 129.17 165.464 129.753 164.997 129.634C164.531 129.516 163.48 129.634 163.132 131.147C162.785 132.66 162.2 133.471 161.848 133.357C161.495 133.244 162.428 135.567 160.449 134.638C158.47 133.709 159.169 135.454 158.931 135.919C158.693 136.383 159.278 137.664 159.397 138.129C159.516 138.593 159.863 139.409 160.33 140.101C160.796 140.793 161.148 141.614 161.962 141.382C162.775 141.149 165.345 141.382 165.345 141.382C165.345 141.382 166.277 141.733 166.863 141.733C167.448 141.733 167.562 141.501 167.914 141.501C168.266 141.501 168.966 140.339 168.847 140.22C168.733 140.101 168.38 139.755 169.08 139.058C169.779 138.361 170.598 138.129 170.712 137.313C170.831 136.497 170.479 136.502 170.826 136.032C171.173 135.562 171.991 135.686 171.758 135.221C171.525 134.757 171.991 134.87 171.525 133.941C171.059 133.011 170.473 132.66 170.94 131.498C171.406 130.337 171.872 130.104 171.758 129.407C171.644 128.71 172.339 128.478 171.525 127.662C170.712 126.851 170.36 126.619 169.774 126.381L169.194 126.149V126.149Z" fill="url(#paint4_linear_446_396)"/>
<path d="M192.051 137.772C192.518 137.654 194.149 136.492 194.269 138.588C194.388 140.68 194.502 140.101 195.201 141.263C195.9 142.425 196.367 142.776 197.18 142.193C197.993 141.609 198.931 141.609 199.164 140.566C199.32 139.867 199.631 139.518 200.097 139.518C200.796 139.518 201.029 139.399 201.382 139.869C201.729 140.334 201.962 139.869 203.48 140.68C204.998 141.495 206.277 141.258 207.21 142.074C208.142 142.89 208.609 142.771 209.894 143.236C211.178 143.7 210.593 143.003 211.759 144.284C212.924 145.564 212.458 145.91 213.043 146.494C213.624 147.072 214.095 146.029 213.862 147.423C213.629 148.818 211.997 147.423 214.447 149.401C216.898 151.379 217.245 151.725 218.063 152.308C218.882 152.892 219.462 153.589 218.763 153.589C218.063 153.589 215.846 153.589 215.613 153.238C215.38 152.887 214.328 152.654 213.629 151.844C212.929 151.033 211.411 150.449 211.064 149.752C210.712 149.055 210.246 148.823 209.666 148.823C209.085 148.823 208.5 149.52 207.681 150.336C206.863 151.152 207.215 149.871 206.163 150.217C205.112 150.568 203.946 150.098 203.366 149.634C202.786 149.169 202.9 148.472 201.967 148.818C201.035 149.164 200.449 148.936 200.801 148.239C201.154 147.542 200.915 146.613 200.915 146.613C200.915 146.613 201.268 145.451 200.449 145.219C199.631 144.986 199.631 144.175 198.817 143.938C198.004 143.7 196.719 143.127 196.719 143.127C196.719 143.127 196.605 143.127 196.253 143.008C195.9 142.89 195.906 142.89 194.968 142.657C194.03 142.425 193.336 142.657 192.87 142.074C192.404 141.495 192.637 140.68 192.637 140.68C192.637 140.68 194.502 140.912 192.637 139.518L190.772 138.124C190.772 138.124 191.005 138.005 190.886 137.772C190.766 137.54 192.051 137.772 192.051 137.772V137.772Z" fill="url(#paint5_linear_446_396)"/>
<path d="M139.576 128.121C139.576 128.121 140.156 128.705 141.094 128.586C142.032 128.467 142.726 130.445 143.311 131.142C143.892 131.839 144.244 132.19 145.529 133.001C146.808 133.812 146.694 132.304 148.445 134.746C150.196 137.189 149.378 135.676 150.196 137.189C151.015 138.702 151.481 139.513 151.947 139.864C152.414 140.215 152.766 141.139 152.88 141.49C152.994 141.841 153.813 142.884 153.813 143.236C153.813 143.587 154.046 144.516 153.346 145.327C152.647 146.138 152.061 146.256 152.061 146.256C152.061 146.256 150.663 145.559 150.196 144.862C149.73 144.165 149.145 143.582 148.331 142.187C147.518 140.793 146.58 139.28 146.114 138.583C145.648 137.886 144.948 137.189 144.596 136.492C144.244 135.795 143.311 133.703 142.845 133.471C142.379 133.239 142.26 132.541 141.446 131.726C140.633 130.91 140.747 130.213 140.395 129.748C140.042 129.283 139.229 128.235 139.229 128.235L139.576 128.121V128.121Z" fill="url(#paint6_linear_446_396)"/>
</g>
<path d="M219.526 127.592L213.806 133.312C212.619 134.499 212.619 136.424 213.806 137.611L264.838 188.643C266.025 189.83 267.95 189.83 269.137 188.643L274.857 182.923C276.045 181.736 276.045 179.811 274.857 178.624L223.825 127.592C222.638 126.404 220.713 126.404 219.526 127.592Z" fill="#00BCD4"/>
<path d="M207.746 114.963L201.212 121.496L213.41 133.694L219.943 127.16L207.746 114.963Z" fill="#00BCD4"/>
<path d="M218.169 124.579L210.765 131.983L212.943 134.161L220.347 126.757L218.169 124.579Z" fill="#00BCD4"/>
<path d="M207.279 113.69L199.876 121.093L202.054 123.271L209.457 115.868L207.279 113.69Z" fill="#00BCD4"/>
<path d="M210.355 116.709L202.952 124.113L205.13 126.291L212.533 118.887L210.355 116.709Z" fill="#00BCD4"/>
<path d="M209.485 115.84L202.082 123.243L202.52 123.681L209.924 116.278L209.485 115.84Z" fill="#E0F7FA"/>
<path d="M218.197 124.551L210.794 131.954L211.232 132.393L218.635 124.989L218.197 124.551Z" fill="#E0F7FA"/>
<path d="M210.355 116.709L202.952 124.113L203.39 124.551L210.794 117.148L210.355 116.709Z" fill="#E0F7FA"/>
<path opacity="0.3" d="M204.691 116.589C225.541 95.7389 225.541 61.9343 204.691 41.0842C183.841 20.2341 150.036 20.2341 129.186 41.0842C108.336 61.9343 108.336 95.7389 129.186 116.589C150.036 137.439 183.841 137.439 204.691 116.589Z" fill="white"/>
<path d="M205.95 117.848C184.439 139.358 149.438 139.358 127.927 117.848C106.417 96.3375 106.431 61.3357 127.935 39.8326C149.438 18.3295 184.447 18.3224 205.957 39.8326C227.467 61.3428 227.467 96.3446 205.957 117.855L205.95 117.848ZM130.452 42.3499C110.335 62.4671 110.335 95.2061 130.452 115.323C150.569 135.441 183.315 135.448 203.439 115.323C223.564 95.1991 223.564 62.46 203.439 42.3358C183.315 22.2115 150.576 22.2256 130.452 42.3499V42.3499Z" fill="#00BCD4"/>
<path d="M127.934 39.8326C135.529 32.2383 144.799 27.3239 154.564 25.0965C143.653 26.9279 133.195 32.0544 124.795 40.4549C103.278 61.9721 103.278 96.9598 124.795 118.477C138.718 132.4 158.291 137.307 176.187 133.213C159.16 136.07 141.044 130.95 127.934 117.841C106.424 96.3304 106.424 61.3428 127.934 39.8326Z" fill="#00BCD4"/>
<path d="M156.523 28.5826C172.426 25.945 189.325 30.7392 201.551 42.9651C221.669 63.0823 221.676 95.8284 201.551 115.953C194.473 123.031 185.847 127.613 176.746 129.713C186.978 128.009 196.807 123.215 204.698 115.323C224.815 95.2062 224.822 62.46 204.698 42.3358C191.659 29.2967 173.302 24.7005 156.523 28.5826Z" fill="#00BCD4"/>
<path d="M165.239 87.0111H170.663C170.439 85.1871 170.471 83.7311 170.759 82.6431C171.047 81.5231 171.479 80.5951 172.055 79.8591C172.663 79.1231 173.335 78.4831 174.071 77.9391C174.839 77.3631 175.559 76.7231 176.231 76.0191C176.903 75.3151 177.463 74.4351 177.911 73.3791C178.391 72.3231 178.631 70.9311 178.631 69.2031C178.631 67.7631 178.375 66.4831 177.863 65.3631C177.351 64.2431 176.647 63.2991 175.751 62.5311C174.855 61.7311 173.783 61.1231 172.535 60.7071C171.319 60.2591 170.007 60.0031 168.599 59.9391C167.415 59.8751 166.199 60.0191 164.951 60.3711C163.703 60.6911 162.551 61.2831 161.495 62.1471C160.471 63.0111 159.591 64.1631 158.855 65.6031C158.151 67.0431 157.735 68.8191 157.607 70.9311H163.607C163.735 69.0111 164.231 67.5871 165.095 66.6591C165.959 65.7311 167.063 65.2671 168.407 65.2671C169.751 65.2671 170.727 65.6991 171.335 66.5631C171.943 67.3951 172.247 68.4351 172.247 69.6831C172.247 70.7071 172.039 71.5711 171.623 72.2751C171.207 72.9471 170.695 73.5871 170.087 74.1951C169.479 74.7711 168.823 75.3791 168.119 76.0191C167.447 76.6271 166.855 77.4111 166.343 78.3711C165.831 79.2991 165.447 80.4511 165.191 81.8271C164.967 83.2031 164.983 84.9311 165.239 87.0111ZM164.423 97.7631H171.431V90.9471H164.423V97.7631Z" fill="#00BCD4"/>
<g clip-path="url(#clip0_446_396)">
<path d="M19.073 107.774C19.1964 105.563 18.7747 103.368 17.8442 101.379C17.8184 101.289 17.764 101.211 17.6891 101.155C17.6115 101.042 17.5395 100.938 17.462 100.825C16.3599 99.228 14.6525 98.1449 12.7156 97.8142C10.7786 97.4835 8.77058 97.9323 7.13335 99.062C5.49611 100.192 4.36373 101.909 3.98531 103.838C3.6069 105.766 4.01345 107.747 5.11552 109.344C5.19309 109.456 5.27066 109.569 5.37593 109.721C5.4033 109.769 5.43481 109.815 5.47012 109.858C7.00808 111.448 8.92257 112.633 11.0478 113.311L18.5243 115.501L19.073 107.774ZM12.7068 107.069C12.2998 107.35 11.8207 107.507 11.3301 107.52C10.8395 107.533 10.3595 107.401 9.95063 107.142C9.54178 106.882 9.22253 106.507 9.03324 106.063C8.84395 105.619 8.79312 105.126 8.88719 104.646C8.98125 104.167 9.21598 103.723 9.5617 103.37C9.90742 103.017 10.3486 102.771 10.8294 102.664C11.3103 102.556 11.8092 102.592 12.2631 102.766C12.717 102.94 13.1054 103.245 13.3794 103.642C13.7468 104.175 13.8823 104.835 13.7561 105.478C13.63 106.12 13.2525 106.693 12.7068 107.069V107.069Z" fill="#00BCD4"/>
</g>
<g clip-path="url(#clip1_446_396)">
<path d="M103.774 21.8423C105.131 20.0927 106.03 18.0466 106.394 15.8814C106.424 15.7926 106.424 15.6969 106.394 15.6082C106.394 15.4716 106.394 15.3448 106.394 15.2082C106.394 13.2676 105.604 11.4065 104.197 10.0342C102.791 8.66202 100.883 7.89111 98.8938 7.89111C96.9046 7.89111 94.997 8.66202 93.5905 10.0342C92.1839 11.4065 91.3938 13.2676 91.3938 15.2082C91.3938 15.3448 91.3938 15.4814 91.3938 15.6667C91.3889 15.7219 91.3889 15.7774 91.3938 15.8326C91.7568 18.0146 92.6595 20.0774 94.0238 21.8423L98.9338 27.8911L103.774 21.8423ZM98.9338 17.6472C98.4393 17.6472 97.956 17.5042 97.5448 17.2362C97.1337 16.9682 96.8133 16.5872 96.6241 16.1416C96.4348 15.6959 96.3853 15.2055 96.4818 14.7324C96.5783 14.2592 96.8164 13.8246 97.166 13.4835C97.5156 13.1424 97.9611 12.9101 98.446 12.816C98.931 12.7219 99.4336 12.7702 99.8905 12.9548C100.347 13.1394 100.738 13.452 101.012 13.8531C101.287 14.2542 101.434 14.7258 101.434 15.2082C101.434 15.8551 101.17 16.4754 100.702 16.9328C100.233 17.3902 99.5968 17.6472 98.9338 17.6472V17.6472Z" fill="#00BCD4"/>
</g>
<defs>
<linearGradient id="paint0_linear_446_396" x1="23.86" y1="9.11273" x2="23.86" y2="220.826" gradientUnits="userSpaceOnUse">
<stop stop-color="#4DCFE1"/>
<stop offset="1" stop-color="#00BCD4"/>
</linearGradient>
<linearGradient id="paint1_linear_446_396" x1="49.7331" y1="36.4502" x2="72.9202" y2="194.227" gradientUnits="userSpaceOnUse">
<stop stop-color="white"/>
<stop offset="0.989583" stop-color="#F1F3F5"/>
</linearGradient>
<linearGradient id="paint2_linear_446_396" x1="64.8728" y1="158.255" x2="71.6458" y2="174.823" gradientUnits="userSpaceOnUse">
<stop stop-color="white"/>
<stop offset="0.989583" stop-color="#F1F3F5"/>
</linearGradient>
<linearGradient id="paint3_linear_446_396" x1="177.843" y1="158.652" x2="184.193" y2="198.914" gradientUnits="userSpaceOnUse">
<stop stop-color="white"/>
<stop offset="0.989583" stop-color="#F1F3F5"/>
</linearGradient>
<linearGradient id="paint4_linear_446_396" x1="162.994" y1="127.587" x2="166.368" y2="141.498" gradientUnits="userSpaceOnUse">
<stop stop-color="white"/>
<stop offset="0.989583" stop-color="#F1F3F5"/>
</linearGradient>
<linearGradient id="paint5_linear_446_396" x1="199.706" y1="138.844" x2="201.471" y2="153.991" gradientUnits="userSpaceOnUse">
<stop stop-color="white"/>
<stop offset="0.989583" stop-color="#F1F3F5"/>
</linearGradient>
<linearGradient id="paint6_linear_446_396" x1="143.844" y1="129.795" x2="147.904" y2="145.913" gradientUnits="userSpaceOnUse">
<stop stop-color="white"/>
<stop offset="0.989583" stop-color="#F1F3F5"/>
</linearGradient>
<clipPath id="clip0_446_396">
<rect width="15" height="20" fill="white" transform="translate(0.993042 103.299) rotate(-34.6042)"/>
</clipPath>
<clipPath id="clip1_446_396">
<rect width="15" height="20" fill="white" transform="translate(91.4337 7.89111)"/>
</clipPath>
</defs>
</svg>
