<svg width="80" height="81" viewBox="0 0 80 81" fill="none" xmlns="http://www.w3.org/2000/svg">
<rect y="0.5" width="80" height="80" rx="40" fill="current"/>
<g clip-path="url(#clip0_561_2596)">
<path d="M40 22.0139C37.7898 22.0139 35.6702 22.8918 34.1074 24.4546C32.5446 26.0174 31.6666 28.1371 31.6666 30.3472C31.6659 31.0258 31.7518 31.7016 31.9222 32.3584C31.9108 32.4058 31.9108 32.4553 31.9222 32.5028C32.3962 34.2726 33.441 35.8365 34.8945 36.9519C36.3479 38.0674 38.1289 38.672 39.9611 38.672C41.7932 38.672 43.5742 38.0674 45.0277 36.9519C46.4812 35.8365 47.526 34.2726 48 32.5028C48.1134 32.1414 48.1879 31.7689 48.2222 31.3917C48.2791 31.0241 48.3051 30.6525 48.3 30.2806C48.2824 28.0878 47.4013 25.9902 45.8476 24.4428C44.2939 22.8953 42.1928 22.0226 40 22.0139ZM37.0111 26.2917L32.3777 31.8472C32.2791 31.3609 32.2307 30.8657 32.2333 30.3694C32.2333 28.3066 33.0527 26.3284 34.5114 24.8698C35.97 23.4111 37.9483 22.5916 40.0111 22.5916C42.0739 22.5916 44.0522 23.4111 45.5108 24.8698C46.9694 26.3284 47.7888 28.3066 47.7888 30.3694C47.8058 30.6432 47.8058 30.9178 47.7888 31.1916L37.0111 26.2917Z" fill="#4DCFE1"/>
<path d="M47.7777 30.3472C47.7946 30.6211 47.7946 30.8956 47.7777 31.1695L37.011 26.2917L32.3777 31.8472C32.2791 31.3609 32.2307 30.8657 32.2333 30.3694C32.2333 28.3066 33.0527 26.3284 34.5113 24.8697C35.9699 23.4111 37.9482 22.5916 40.011 22.5916C42.0738 22.5916 44.0521 23.4111 45.5108 24.8697C46.9694 26.3284 47.7888 28.3066 47.7888 30.3694L47.7777 30.3472Z" fill="#4DCFE1"/>
<path fill-rule="evenodd" clip-rule="evenodd" d="M57.7777 59.2361C57.7777 54.5212 55.9047 49.9993 52.5707 46.6653C49.2368 43.3314 44.7149 41.4584 39.9999 41.4584C35.285 41.4584 30.7631 43.3314 27.4292 46.6653C24.0952 49.9993 22.2222 54.5212 22.2222 59.2361H57.7777Z" fill="#4DCFE1"/>
</g>
<defs>
<clipPath id="clip0_561_2596">
<rect width="36.6667" height="38.3333" fill="white" transform="translate(21.6666 21.4583)"/>
</clipPath>
</defs>
</svg>
