<svg width="48" height="48" viewBox="0 0 48 48" fill="none" xmlns="http://www.w3.org/2000/svg">
<rect x="17" y="9.75" width="17" height="21" fill="white" stroke="#121417"/>
<line x1="21.5" y1="16.75" x2="29.5" y2="16.75" stroke="#00BCD4"/>
<line x1="21.5" y1="19.75" x2="29.5" y2="19.75" stroke="#00BCD4"/>
<line x1="21.5" y1="19.75" x2="29.5" y2="19.75" stroke="#00BCD4"/>
<line x1="21.5" y1="22.75" x2="29.5" y2="22.75" stroke="#00BCD4"/>
<rect x="14" y="12.75" width="17" height="21" fill="white" stroke="#121417"/>
<line x1="18.5" y1="19.75" x2="26.5" y2="19.75" stroke="#00BCD4"/>
<line x1="18.5" y1="22.75" x2="26.5" y2="22.75" stroke="#00BCD4"/>
<line x1="18.5" y1="22.75" x2="26.5" y2="22.75" stroke="#00BCD4"/>
<line x1="18.5" y1="25.75" x2="26.5" y2="25.75" stroke="#00BCD4"/>
<path d="M19.9281 22.4939L19.9282 22.4941L20.7232 23.9941L20.7232 23.9942L20.7246 23.9967L21.8034 26.0046L21.8046 26.0067L22.0584 26.4846L22.1994 26.75H22.5H37V39.25H11V22.25H19.799L19.9281 22.4939Z" fill="#00BCD4" stroke="#121417"/>
</svg>