<svg width="24" height="25" viewBox="0 0 24 25" fill="none" xmlns="http://www.w3.org/2000/svg">
<path d="M4 10.7L6.2 13.4L8.7 10.7H7.3C7.8 9.19998 8.9 8.09998 10.3 7.59998C12 6.99998 13.8 7.49998 15.2 8.59998L16.3 7.39998C14.5 5.89998 12.1 5.39998 9.8 6.09998C7.7 6.79998 6.2 8.39998 5.6 10.6L4 10.7Z" fill="current"/>
<path d="M20 13.4002L17.8 10.7002L15.3 13.4002H16.8C16.2 14.9002 15.2 16.0002 13.8 16.5002C12.1 17.1002 10.3 16.6002 8.90005 15.5002L7.80005 16.7002C9.60005 18.2002 12 18.8002 14.3 18.0002C16.4 17.3002 17.9 15.6002 18.5 13.4002H20Z" fill="current"/>
</svg>
