<svg width="120" height="120" viewBox="0 0 120 120" fill="none" xmlns="http://www.w3.org/2000/svg">
<g clip-path="url(#clip0_2435_21951)">
<path d="M69.9869 67.225L67.2213 69.9906C66.647 70.5649 66.647 71.4947 67.2213 72.069L91.8923 96.74C92.4666 97.3143 93.3964 97.3143 93.9707 96.74L96.7363 93.9744C97.3106 93.4001 97.3106 92.4703 96.7363 91.896L72.0653 67.225C71.491 66.6507 70.5612 66.6507 69.9869 67.225V67.225Z" fill="#00BCD4"/>
<path d="M64.2917 61.1197L61.1331 64.2783L67.0299 70.1751L70.1885 67.0165L64.2917 61.1197Z" fill="#B2EBF2"/>
<path d="M69.3306 65.7688L65.7515 69.3479L66.8043 70.4008L70.3835 66.8217L69.3306 65.7688Z" fill="#B2EBF2"/>
<path d="M64.0662 60.5044L60.4871 64.0835L61.5399 65.1364L65.1191 61.5573L64.0662 60.5044Z" fill="#B2EBF2"/>
<path d="M65.5532 61.9641L61.9741 65.5432L63.027 66.5961L66.6061 63.017L65.5532 61.9641Z" fill="#B2EBF2"/>
<path d="M65.1328 61.5434L61.5537 65.1226L61.7657 65.3345L65.3448 61.7554L65.1328 61.5434Z" fill="#E0F7FA"/>
<path d="M69.3443 65.7551L65.7651 69.3342L65.9771 69.5462L69.5562 65.967L69.3443 65.7551Z" fill="#E0F7FA"/>
<path d="M65.5532 61.9641L61.9741 65.5432L62.1861 65.7551L65.7652 62.176L65.5532 61.9641Z" fill="#E0F7FA"/>
<path d="M62.8151 61.9059C72.8961 51.8249 72.8961 35.4847 62.8151 25.4037C52.7341 15.3227 36.3939 15.3227 26.3129 25.4037C16.2319 35.4847 16.2319 51.8249 26.3129 61.9059C36.3939 71.9869 52.7341 71.9869 62.8151 61.9059Z" fill="#E0F7FA" fill-opacity="0.3"/>
<path d="M63.4235 62.5144C53.0246 72.9133 36.1033 72.9133 25.7043 62.5144C15.3054 52.1155 15.3122 35.1941 25.7077 24.7986C36.1033 14.4031 53.028 14.3997 63.4269 24.7986C73.8259 35.1975 73.8259 52.1189 63.4269 62.5178L63.4235 62.5144ZM26.9213 26.0122C17.1958 35.7376 17.1958 51.5651 26.9213 61.2906C36.6468 71.0161 52.4776 71.0195 62.2066 61.2906C71.9355 51.5617 71.9355 35.7342 62.2066 26.0053C52.4776 16.2764 36.6502 16.2832 26.9213 26.0122V26.0122Z" fill="#B2EBF2"/>
<path d="M25.7077 24.7986C29.3791 21.1271 33.8607 18.7513 38.5816 17.6745C33.3069 18.5599 28.251 21.0383 24.1899 25.0994C13.7876 35.5017 13.7876 52.4162 24.1899 62.8186C30.9209 69.5495 40.3831 71.9219 49.0352 69.9426C40.8036 71.3237 32.0455 68.8487 25.7077 62.5109C15.3088 52.112 15.3088 35.1975 25.7077 24.7986V24.7986Z" fill="#B2EBF2"/>
<path d="M39.5284 19.3598C47.2165 18.0847 55.3866 20.4024 61.2971 26.3129C71.0226 36.0384 71.026 51.8693 61.2971 61.5982C57.8752 65.02 53.7047 67.2352 49.3052 68.2505C54.2517 67.4266 59.0033 65.1089 62.8183 61.2939C72.5438 51.5684 72.5472 35.7376 62.8183 26.0087C56.5147 19.7051 47.6404 17.4831 39.5284 19.3598Z" fill="#00BCD4"/>
</g>
<g clip-path="url(#clip1_2435_21951)">
<path d="M39.0497 50.2175C39.8048 49.4623 39.8048 48.2379 39.0497 47.4827C38.2945 46.7275 37.0701 46.7275 36.3149 47.4827C35.5597 48.2379 35.5597 49.4623 36.3149 50.2175C37.0701 50.9727 38.2945 50.9727 39.0497 50.2175Z" fill="#00BCD4"/>
<path d="M51.127 38.1401C51.8822 37.3849 51.8822 36.1605 51.127 35.4053C50.3719 34.6501 49.1475 34.6501 48.3923 35.4053C47.6371 36.1605 47.6371 37.3849 48.3923 38.1401C49.1475 38.8953 50.3719 38.8953 51.127 38.1401Z" fill="#00BCD4"/>
<path d="M50.8638 43.114L44.0269 49.9509L44.7105 50.6346L51.5474 43.7977L50.8638 43.114Z" fill="#00BCD4"/>
</g>
<defs>
<clipPath id="clip0_2435_21951">
<rect width="54.629" height="100" fill="white" transform="translate(5.33032 43.959) rotate(-45)"/>
</clipPath>
<clipPath id="clip1_2435_21951">
<rect width="20.9475" height="8.16534" fill="white" transform="translate(34.9475 48.8501) rotate(-45)"/>
</clipPath>
</defs>
</svg>
