<svg width="24" height="24" viewBox="0 0 24 24" fill="none" xmlns="http://www.w3.org/2000/svg">
<path d="M17.4 15.9001C18.5 14.5001 19.1 12.7001 19.1 11.0001C19.1 8.9001 18.3 6.9001 16.8 5.3001C13.7 2.2001 8.6 2.2001 5.5 5.3001C3.9 6.7001 3 8.7001 3 10.9001C3 13.0001 3.8 15.0001 5.3 16.6001C6.9 18.1001 8.9 18.9001 11 18.9001C12.9 18.9001 14.6 18.3001 15.9 17.2001L19.7 21.0001L21.1 19.6001L17.4 15.9001ZM15.2 15.1001C14.1 16.2001 12.6 16.9001 11 16.9001C9.4 16.9001 7.9 16.2001 6.8 15.1001C5.7 14.0001 5 12.5001 5 10.9001C5 9.3001 5.7 7.8001 6.7 6.7001C7.9 5.6001 9.5 4.9001 11 4.9001C12.6 4.9001 14.1 5.5001 15.2 6.7001C16.4 7.9001 17 9.4001 17 11.0001C17 12.6001 16.4 14.0001 15.2 15.1001Z" fill="current"/>
</svg>
