<svg width="178" height="241" viewBox="0 0 178 241" fill="none" xmlns="http://www.w3.org/2000/svg">
<g clip-path="url(#clip0_1150_5941)">
<g opacity="0.5">
<path opacity="0.5" d="M96.6531 121.576C85.648 135.817 65.5877 139.21 51.9387 129.138C38.2921 119.069 36.145 99.2887 47.1501 85.0455C58.1577 70.8047 78.2181 67.4093 91.8621 77.4807C105.511 87.5496 107.658 107.333 96.6506 121.573L96.6531 121.576Z" fill="url(#paint0_linear_1150_5941)"/>
</g>
<path d="M94.6061 79.6902L97.5272 82.8609C96.3013 81.5302 94.9332 80.2994 93.4252 79.1859C79.7787 69.1171 59.7184 72.51 48.7133 86.7507C38.924 99.4185 39.5407 116.468 49.3998 127.168L46.4788 123.998C36.6196 113.297 36.0005 96.2478 45.7922 83.58C56.7998 69.3368 76.8601 65.9438 90.5042 76.0152C92.0121 77.1287 93.3803 78.3595 94.6061 79.6902Z" fill="url(#paint1_linear_1150_5941)"/>
<path d="M101.974 72.9044L104.895 76.0751C117.767 90.0437 118.571 112.299 105.791 128.834C91.4231 147.424 65.241 151.855 47.4252 138.708C45.4578 137.255 43.6702 135.647 42.0724 133.912L39.1514 130.741C40.7492 132.476 42.5368 134.084 44.5041 135.537C62.32 148.684 88.502 144.253 102.87 125.663C115.65 109.125 114.846 86.873 101.974 72.9044Z" fill="#005F64"/>
<path d="M38.18 78.0575C52.5505 59.4652 78.7326 55.0362 96.5459 68.1834C114.362 81.3306 117.166 107.148 102.797 125.74C88.4294 144.33 62.2474 148.762 44.4315 135.615C26.6181 122.467 23.8144 96.6449 38.18 78.0575ZM95.2402 120.163C106.248 105.92 104.101 86.1391 90.4517 76.0677C76.8052 65.9988 56.7448 69.3918 45.7397 83.6325C34.7346 97.8732 36.8817 117.654 50.5282 127.723C64.1748 137.794 84.2351 134.401 95.2427 120.161" fill="url(#paint2_linear_1150_5941)"/>
<path d="M127.521 151.783L127.514 151.775L127.506 151.768L127.499 151.76H127.496L104.053 129.625L104.048 129.62L104.041 129.613L104.036 129.608L104.028 129.6H104.026V129.595H104.023L104.016 129.588V129.583H104.013C103.988 129.558 103.961 129.533 103.936 129.515C103.936 129.515 103.923 129.505 103.916 129.5C103.893 129.483 103.871 129.465 103.851 129.453L103.843 129.448C103.828 129.438 103.813 129.428 103.796 129.415L103.789 129.41L103.794 129.415C103.794 129.415 103.776 129.405 103.769 129.4C103.764 129.398 103.756 129.393 103.751 129.39C103.741 129.383 103.731 129.378 103.721 129.373H103.716L103.706 129.365C103.606 129.308 103.486 129.253 103.344 129.208C102.675 128.931 101.861 129.118 101.097 129.53L101.087 129.535L101.077 129.54C101.077 129.54 101.057 129.55 101.047 129.555C101.032 129.563 101.017 129.57 101.005 129.578C100.985 129.59 100.962 129.6 100.942 129.613L100.9 129.635L100.892 129.64L100.885 129.645L100.843 129.67C100.803 129.693 100.76 129.717 100.72 129.742L100.735 129.732L100.703 129.752H100.7L100.685 129.765C100.61 129.81 100.515 129.872 100.403 129.952C100.356 129.985 100.311 130.017 100.273 130.045C100.231 130.077 100.188 130.109 100.143 130.144C99.9612 130.287 99.7789 130.442 99.6067 130.614C99.5917 130.629 99.5767 130.644 99.5642 130.656C99.5493 130.671 99.5368 130.684 99.5218 130.699C99.5118 130.709 99.5043 130.716 99.4968 130.724C99.4719 130.749 99.4444 130.779 99.4169 130.809C99.4244 130.801 99.4294 130.794 99.4369 130.786L99.4119 130.814L99.402 130.823C99.377 130.848 99.352 130.876 99.3271 130.903L99.3171 130.916L99.3071 130.926C99.2522 130.986 99.1947 131.051 99.1323 131.126C99.0849 131.181 99.0375 131.238 98.99 131.3C98.99 131.3 98.975 131.323 98.965 131.333L98.97 131.325L98.9626 131.335C98.9476 131.355 98.9301 131.378 98.9151 131.4L98.8852 131.44L98.8552 131.48L98.8402 131.503V131.51C98.7379 131.645 98.5781 131.882 98.4258 132.187C98.4158 132.207 98.4033 132.229 98.3908 132.257L98.3833 132.269C98.2136 132.611 98.1337 132.878 98.0987 133.031C98.0912 133.06 98.0837 133.088 98.0788 133.113V133.1C98.0788 133.118 98.0738 133.138 98.0688 133.158C98.0663 133.175 98.0613 133.19 98.0588 133.205V133.22L98.0538 133.235L98.0488 133.258C98.0463 133.273 98.0438 133.288 98.0413 133.303V133.32L98.0363 133.325C98.0338 133.345 98.0313 133.365 98.0288 133.383V133.39C98.0263 133.407 98.0238 133.425 98.0213 133.44C98.0188 133.47 98.0163 133.495 98.0138 133.517C98.0088 133.562 98.0063 133.605 98.0063 133.645C98.0063 133.675 98.0063 133.702 98.0063 133.732C98.0063 133.752 98.0063 133.772 98.0063 133.794C98.0063 133.932 98.0213 134.057 98.0438 134.171V134.176C98.0513 134.214 98.0613 134.249 98.0688 134.284C98.0713 134.294 98.0738 134.304 98.0763 134.314C98.0837 134.341 98.0912 134.369 98.1012 134.396V134.406L98.1062 134.414V134.424C98.1212 134.466 98.1412 134.518 98.1611 134.561C98.1686 134.581 98.1786 134.601 98.1861 134.618L98.1961 134.643L98.1911 134.633C98.2061 134.663 98.2211 134.693 98.2335 134.718C98.256 134.761 98.286 134.816 98.3134 134.856V134.861C98.3259 134.873 98.3334 134.888 98.3434 134.9C98.3434 134.9 98.3609 134.923 98.3684 134.933L98.3833 134.955L98.4233 135.003C98.4233 135.003 98.4358 135.018 98.4433 135.025V135.03C98.4557 135.048 98.4682 135.063 98.4832 135.078C105.766 143.009 113.048 150.941 120.331 158.873H120.334V158.878H120.341V158.883L120.391 158.935L120.344 158.885C120.366 158.91 120.394 158.938 120.416 158.958L120.426 158.968H120.428L120.433 158.975C120.461 158.998 120.491 159.025 120.518 159.045H120.521L120.526 159.05H120.528V159.055C120.556 159.073 120.591 159.1 120.641 159.13L120.651 159.135C120.676 159.15 120.696 159.163 120.721 159.175C120.743 159.188 120.761 159.195 120.771 159.2C120.83 159.23 120.898 159.257 120.973 159.28C120.98 159.282 120.988 159.285 120.995 159.287C121.043 159.302 121.093 159.315 121.148 159.325C121.16 159.327 121.175 159.33 121.185 159.332H121.19C121.222 159.337 121.255 159.342 121.29 159.347H121.305C121.335 159.355 121.382 159.357 121.435 159.36H121.427C121.427 159.36 121.435 159.36 121.437 159.36C121.445 159.36 121.452 159.36 121.462 159.36C121.467 159.36 121.472 159.36 121.477 159.36C121.734 159.365 122.104 159.33 122.64 159.08C122.858 158.985 123.11 158.841 123.384 158.661C123.487 158.593 123.594 158.521 123.707 158.439L123.717 158.431H123.722L123.727 158.424L123.754 158.404L123.774 158.389C124.226 158.067 124.678 157.687 125.102 157.28C125.195 157.193 125.289 157.103 125.379 157.013C125.417 156.976 125.457 156.938 125.494 156.901C125.567 156.828 125.669 156.726 125.786 156.604L125.791 156.599L125.799 156.589H125.801C125.906 156.476 126.031 156.344 126.168 156.189C126.183 156.172 126.198 156.154 126.213 156.139C126.228 156.124 126.241 156.109 126.256 156.092C126.75 155.54 127.134 155.033 127.414 154.569L127.422 154.556C127.439 154.526 127.459 154.494 127.476 154.464C127.496 154.432 127.514 154.399 127.534 154.364C127.539 154.354 127.544 154.347 127.549 154.337C127.554 154.327 127.561 154.317 127.566 154.307C127.651 154.149 127.719 154.007 127.769 153.882C127.784 153.847 127.794 153.822 127.806 153.787C127.813 153.77 127.818 153.752 127.826 153.735C127.833 153.717 127.841 153.693 127.851 153.663C127.861 153.635 127.868 153.61 127.876 153.585V153.58L127.881 153.563C127.896 153.51 127.903 153.483 127.916 153.428C127.923 153.4 127.928 153.373 127.933 153.345V153.331C127.933 153.331 127.941 153.311 127.941 153.298C127.981 153.083 127.988 152.869 127.956 152.659C127.956 152.651 127.956 152.644 127.953 152.636C127.951 152.616 127.946 152.594 127.941 152.574V152.567L127.936 152.544V152.529C127.936 152.529 127.931 152.519 127.928 152.514C127.928 152.509 127.928 152.507 127.926 152.502C127.926 152.497 127.926 152.494 127.923 152.489V152.477L127.918 152.469C127.918 152.469 127.913 152.454 127.911 152.447C127.908 152.437 127.906 152.427 127.903 152.417V152.409C127.898 152.397 127.893 152.384 127.891 152.369L127.886 152.357C127.881 152.342 127.876 152.327 127.871 152.314V152.307C127.858 152.279 127.846 152.252 127.836 152.227C127.833 152.22 127.828 152.212 127.826 152.205V152.2L127.821 152.192C127.821 152.192 127.816 152.18 127.811 152.175L127.801 152.152C127.801 152.152 127.794 152.14 127.791 152.135V152.127L127.784 152.122C127.784 152.122 127.771 152.1 127.764 152.087L127.759 152.077V152.082C127.749 152.062 127.736 152.042 127.724 152.022C127.716 152.01 127.706 151.997 127.699 151.985C127.691 151.975 127.684 151.965 127.676 151.952C127.671 151.947 127.669 151.94 127.664 151.935L127.659 151.927L127.654 151.92C127.644 151.905 127.631 151.89 127.619 151.875C127.616 151.87 127.611 151.867 127.609 151.863C127.601 151.853 127.594 151.845 127.584 151.835L127.576 151.825L127.564 151.813L127.546 151.795L127.541 151.79L127.536 151.785L127.529 151.775L127.521 151.783Z" fill="#EFEFEF"/>
<path d="M148.303 168.682L148.291 168.67L148.278 168.657C148.278 168.657 148.271 168.65 148.266 168.645L148.261 168.64L112.082 134.486L112.075 134.479L112.062 134.466L112.055 134.459L112.042 134.446H112.037V134.441H112.032L112.022 134.429H112.02L112.015 134.424C111.975 134.386 111.932 134.349 111.895 134.321C111.895 134.321 111.875 134.304 111.865 134.296C111.83 134.269 111.795 134.244 111.763 134.221L111.75 134.214C111.728 134.196 111.703 134.181 111.678 134.166L111.665 134.156L111.675 134.164C111.663 134.156 111.65 134.149 111.635 134.139C111.625 134.134 111.618 134.129 111.608 134.122C111.593 134.112 111.575 134.102 111.56 134.094L111.553 134.089L111.538 134.082C111.383 133.994 111.198 133.909 110.981 133.839C109.95 133.412 108.692 133.702 107.513 134.336C107.508 134.336 107.503 134.341 107.498 134.344L107.481 134.354C107.466 134.361 107.451 134.369 107.436 134.379C107.414 134.391 107.391 134.404 107.369 134.414C107.336 134.431 107.304 134.449 107.271 134.466L107.206 134.501L107.194 134.509L107.181 134.516L107.116 134.556C107.054 134.593 106.989 134.631 106.929 134.666L106.952 134.651L106.902 134.681H106.897C106.897 134.681 106.879 134.693 106.872 134.698C106.757 134.768 106.607 134.866 106.435 134.988C106.363 135.038 106.293 135.088 106.235 135.133C106.17 135.18 106.103 135.233 106.033 135.287C105.751 135.507 105.471 135.747 105.204 136.009C105.179 136.031 105.159 136.054 105.139 136.074C105.117 136.096 105.094 136.119 105.074 136.139C105.059 136.154 105.047 136.166 105.037 136.176C104.999 136.216 104.957 136.261 104.912 136.306C104.922 136.296 104.932 136.284 104.942 136.274L104.904 136.314C104.904 136.314 104.894 136.324 104.89 136.331C104.852 136.371 104.815 136.411 104.775 136.456L104.757 136.473L104.742 136.488C104.66 136.581 104.57 136.681 104.473 136.798C104.4 136.883 104.328 136.973 104.253 137.07H104.25C104.238 137.09 104.225 137.105 104.213 137.122L104.223 137.11L104.213 137.125C104.188 137.157 104.163 137.19 104.138 137.225C104.123 137.247 104.108 137.267 104.091 137.287C104.076 137.307 104.061 137.327 104.046 137.347L104.021 137.38V137.385L104.013 137.39C103.861 137.597 103.614 137.961 103.377 138.431C103.362 138.461 103.344 138.496 103.324 138.538C103.322 138.546 103.317 138.551 103.314 138.558C103.054 139.087 102.93 139.499 102.877 139.734C102.867 139.779 102.857 139.821 102.847 139.861V139.844C102.845 139.871 102.837 139.901 102.832 139.931C102.827 139.956 102.822 139.981 102.817 140.006L102.812 140.031V140.054C102.812 140.054 102.805 140.076 102.802 140.088C102.797 140.113 102.795 140.136 102.79 140.158C102.79 140.168 102.787 140.176 102.785 140.186V140.196C102.78 140.228 102.777 140.256 102.772 140.283V140.293C102.767 140.321 102.765 140.346 102.76 140.371C102.755 140.416 102.75 140.455 102.747 140.488C102.74 140.558 102.737 140.623 102.735 140.685C102.735 140.73 102.732 140.775 102.732 140.82C102.732 140.85 102.732 140.882 102.732 140.915C102.735 141.127 102.757 141.322 102.79 141.499V141.509C102.802 141.566 102.815 141.621 102.827 141.674C102.832 141.689 102.835 141.704 102.84 141.721C102.852 141.764 102.865 141.806 102.877 141.846L102.882 141.861L102.887 141.874V141.881L102.892 141.891C102.912 141.956 102.942 142.038 102.972 142.106C102.985 142.136 102.997 142.166 103.012 142.196L103.03 142.233L103.022 142.218C103.045 142.266 103.067 142.31 103.087 142.348C103.119 142.413 103.169 142.498 103.212 142.558L103.217 142.563C103.229 142.583 103.244 142.603 103.259 142.625C103.272 142.642 103.284 142.66 103.299 142.677L103.324 142.712L103.387 142.785C103.387 142.785 103.407 142.807 103.417 142.822V142.827H103.421C103.441 142.855 103.461 142.88 103.481 142.902C114.721 155.143 125.958 167.384 137.198 179.625V179.63H137.203L137.208 179.635L137.213 179.64V179.645L137.291 179.725L137.216 179.647C137.251 179.685 137.293 179.727 137.328 179.76C137.333 179.765 137.338 179.77 137.346 179.775L137.351 179.78L137.358 179.785C137.4 179.822 137.448 179.862 137.49 179.892H137.495L137.503 179.9L137.508 179.905H137.513C137.55 179.934 137.608 179.977 137.685 180.022C137.685 180.022 137.695 180.029 137.7 180.032C137.74 180.057 137.77 180.074 137.807 180.094C137.842 180.112 137.87 180.127 137.885 180.132C137.977 180.177 138.082 180.219 138.194 180.254C138.207 180.259 138.219 180.262 138.229 180.264C138.304 180.287 138.382 180.306 138.464 180.324C138.484 180.329 138.504 180.331 138.524 180.334H138.531C138.581 180.344 138.631 180.351 138.684 180.356H138.706C138.754 180.366 138.824 180.371 138.908 180.374H138.896C138.896 180.374 138.906 180.374 138.911 180.374C138.923 180.374 138.936 180.374 138.948 180.374C138.956 180.374 138.963 180.374 138.971 180.374C139.368 180.381 139.937 180.326 140.768 179.942C141.103 179.795 141.492 179.572 141.914 179.295C142.072 179.191 142.236 179.078 142.409 178.953L142.426 178.941H142.431V178.936L142.441 178.931L142.484 178.898C142.484 178.898 142.504 178.883 142.516 178.876C143.213 178.379 143.912 177.792 144.566 177.166C144.711 177.031 144.853 176.894 144.995 176.754C145.055 176.696 145.113 176.639 145.172 176.579C145.285 176.467 145.442 176.309 145.624 176.12L145.632 176.11L145.644 176.095L145.649 176.09C145.814 175.92 146.004 175.718 146.216 175.481C146.241 175.453 146.264 175.428 146.286 175.401C146.308 175.376 146.328 175.353 146.351 175.328C147.112 174.474 147.707 173.693 148.138 172.976L148.148 172.959C148.176 172.912 148.206 172.864 148.233 172.817C148.263 172.767 148.291 172.714 148.321 172.664C148.328 172.649 148.336 172.637 148.343 172.622C148.351 172.607 148.361 172.589 148.368 172.574C148.5 172.33 148.603 172.113 148.68 171.92C148.703 171.865 148.718 171.828 148.738 171.776C148.748 171.748 148.758 171.721 148.768 171.693C148.778 171.666 148.79 171.628 148.805 171.581C148.818 171.538 148.83 171.498 148.843 171.458V171.446L148.852 171.424C148.877 171.344 148.887 171.299 148.907 171.216C148.917 171.174 148.927 171.131 148.935 171.091C148.935 171.084 148.937 171.076 148.94 171.069C148.942 171.052 148.945 171.037 148.947 171.019C149.007 170.687 149.02 170.357 148.972 170.035C148.972 170.023 148.97 170.013 148.967 170C148.962 169.968 148.957 169.936 148.95 169.906V169.893L148.942 169.858L148.937 169.843V169.836C148.937 169.836 148.932 169.821 148.932 169.813C148.932 169.808 148.93 169.801 148.927 169.796C148.927 169.788 148.925 169.783 148.922 169.776L148.917 169.756V169.746C148.917 169.746 148.907 169.721 148.905 169.708C148.9 169.693 148.897 169.678 148.892 169.663V169.653C148.882 169.633 148.877 169.613 148.87 169.593C148.87 169.589 148.865 169.581 148.865 169.576C148.857 169.554 148.85 169.531 148.84 169.509L148.835 169.496C148.818 169.454 148.803 169.411 148.785 169.374C148.78 169.361 148.775 169.349 148.768 169.336V169.329L148.76 169.319C148.76 169.319 148.75 169.301 148.748 169.291C148.743 169.279 148.738 169.269 148.73 169.256C148.725 169.246 148.72 169.236 148.715 169.226C148.715 169.222 148.713 169.219 148.71 169.214L148.705 169.207C148.695 169.189 148.685 169.172 148.675 169.152L148.668 169.139L148.673 169.147C148.655 169.117 148.635 169.087 148.615 169.054C148.603 169.034 148.588 169.014 148.575 168.994C148.563 168.977 148.553 168.962 148.54 168.947C148.533 168.937 148.528 168.929 148.523 168.919L148.515 168.909L148.505 168.897C148.49 168.874 148.471 168.852 148.451 168.83C148.446 168.822 148.441 168.817 148.433 168.81C148.421 168.795 148.408 168.782 148.396 168.77L148.383 168.755H148.386C148.386 168.755 148.371 168.742 148.366 168.735L148.341 168.707L148.333 168.7L148.326 168.692H148.323L148.311 168.677L148.303 168.682Z" fill="url(#paint3_linear_1150_5941)"/>
<g opacity="0.2">
<path opacity="0.2" d="M96.5482 68.1809C78.7323 55.0361 52.5503 59.4652 38.1822 78.0575C36.2074 80.609 34.5596 83.3004 33.2314 86.0741C33.6983 85.4025 34.1877 84.7384 34.6945 84.0818C50.8201 63.2151 80.2078 58.2418 100.203 72.9968C102.183 74.4574 104.001 76.0602 105.646 77.7804C103.269 74.1553 100.228 70.8997 96.5482 68.1833V68.1809Z" fill="white"/>
</g>
<path d="M104.628 130.169L104.051 129.625L104.033 129.608C104.033 129.608 104.026 129.605 104.023 129.603H104.021V129.598L104.011 129.588H104.008C103.981 129.56 103.953 129.535 103.929 129.518C103.921 129.51 103.916 129.505 103.909 129.503C103.886 129.483 103.864 129.468 103.841 129.453C103.841 129.453 103.839 129.45 103.831 129.448C103.816 129.438 103.804 129.428 103.786 129.415C103.786 129.415 103.771 129.405 103.761 129.4C103.754 129.398 103.749 129.391 103.744 129.391C103.734 129.383 103.724 129.376 103.714 129.371H103.709C103.706 129.368 103.701 129.368 103.699 129.366C103.599 129.308 103.479 129.253 103.337 129.208C102.668 128.931 101.854 129.121 101.092 129.53C101.09 129.533 101.085 129.533 101.082 129.535C101.077 129.535 101.075 129.538 101.07 129.54C101.06 129.545 101.052 129.55 101.04 129.555L100.998 129.575C100.978 129.59 100.955 129.6 100.935 129.61L100.895 129.633C100.895 129.633 100.89 129.633 100.888 129.635C100.883 129.635 100.88 129.638 100.878 129.64L100.835 129.665C100.8 129.685 100.76 129.708 100.725 129.728C100.715 129.733 100.705 129.74 100.693 129.748C100.693 129.748 100.683 129.758 100.675 129.76C100.601 129.805 100.503 129.867 100.393 129.947C100.346 129.98 100.301 130.012 100.264 130.04C100.221 130.072 100.176 130.105 100.134 130.139C99.9514 130.282 99.7692 130.439 99.5969 130.609L99.4871 130.719C99.4621 130.744 99.4346 130.771 99.4072 130.801L99.3922 130.816C99.3672 130.841 99.3423 130.869 99.3173 130.898L99.2973 130.918C99.2449 130.978 99.185 131.043 99.1226 131.118C99.0776 131.176 99.0302 131.233 98.9802 131.295C98.9802 131.295 98.9678 131.313 98.9628 131.323L98.9528 131.333C98.9378 131.353 98.9203 131.375 98.9054 131.398C98.8954 131.41 98.8854 131.425 98.8754 131.438C98.8654 131.45 98.8554 131.465 98.8479 131.478L98.8329 131.5V131.505C98.7306 131.64 98.5708 131.877 98.416 132.179C98.406 132.199 98.3935 132.224 98.3811 132.249C98.3811 132.254 98.3786 132.257 98.3761 132.262C98.2063 132.604 98.1264 132.871 98.0915 133.023C98.084 133.051 98.079 133.076 98.074 133.098C98.0715 133.115 98.0665 133.133 98.0615 133.153C98.059 133.17 98.054 133.188 98.0515 133.203V133.218C98.0515 133.218 98.049 133.228 98.0465 133.233C98.0465 133.24 98.044 133.248 98.044 133.253C98.0415 133.27 98.039 133.283 98.0365 133.298C98.0365 133.303 98.034 133.308 98.034 133.315C98.034 133.315 98.034 133.318 98.034 133.32C98.0315 133.34 98.029 133.36 98.024 133.378C98.024 133.378 98.024 133.38 98.024 133.385C98.024 133.4 98.0191 133.418 98.0166 133.435C98.0166 133.465 98.0116 133.49 98.0091 133.512C98.0041 133.557 98.0016 133.597 97.9991 133.637C97.9991 133.667 97.9966 133.697 97.9966 133.725C97.9966 133.745 97.9966 133.765 97.9966 133.787C97.9966 133.924 98.0116 134.049 98.034 134.167C98.034 134.167 98.034 134.169 98.034 134.172C98.0415 134.206 98.049 134.241 98.059 134.276C98.059 134.286 98.0615 134.296 98.064 134.306C98.074 134.334 98.079 134.361 98.089 134.389C98.089 134.391 98.0915 134.396 98.0915 134.399C98.0915 134.401 98.0915 134.404 98.0915 134.409C98.0915 134.409 98.0915 134.41 98.0915 134.414C98.0915 134.414 98.094 134.416 98.0915 134.419C98.1064 134.461 98.1239 134.514 98.1439 134.559L98.1713 134.616C98.1713 134.616 98.1763 134.626 98.1788 134.631C98.1938 134.658 98.2088 134.688 98.2213 134.716C98.2413 134.758 98.2737 134.813 98.3012 134.851H98.3037C98.3137 134.866 98.3187 134.881 98.3311 134.896C98.3411 134.908 98.3486 134.916 98.3586 134.928C98.3636 134.938 98.3686 134.943 98.3736 134.95L98.4135 134.998C98.4135 134.998 98.426 135.013 98.431 135.023H98.4335V135.028C98.4485 135.043 98.461 135.058 98.4734 135.073C98.6632 135.28 98.8554 135.49 99.0477 135.697C99.0726 135.724 99.1001 135.754 99.1251 135.782L102.066 133.086C102.091 133.063 102.113 133.041 102.136 133.016L104.678 130.207L104.628 130.162V130.169Z" fill="#CCCCCC"/>
</g>
<defs>
<linearGradient id="paint0_linear_1150_5941" x1="48.7777" y1="126.435" x2="95.0288" y2="80.1843" gradientUnits="userSpaceOnUse">
<stop stop-color="#E6E6E6"/>
<stop offset="0.24" stop-color="#F3F3F3"/>
<stop offset="0.54" stop-color="#FCFCFC"/>
<stop offset="1" stop-color="white"/>
</linearGradient>
<linearGradient id="paint1_linear_1150_5941" x1="38.7593" y1="98.6945" x2="97.5272" y2="98.6945" gradientUnits="userSpaceOnUse">
<stop stop-color="#005F64"/>
<stop offset="0.11" stop-color="#006F77"/>
<stop offset="0.28" stop-color="#00808C"/>
<stop offset="0.46" stop-color="#008C9B"/>
<stop offset="0.67" stop-color="#0093A4"/>
<stop offset="1" stop-color="#0096A7"/>
</linearGradient>
<linearGradient id="paint2_linear_1150_5941" x1="96.6302" y1="159.211" x2="61.9211" y2="83.1114" gradientUnits="userSpaceOnUse">
<stop stop-color="#00BCD4"/>
<stop offset="0.04" stop-color="#0CBFD6"/>
<stop offset="0.17" stop-color="#30C8DC"/>
<stop offset="0.3" stop-color="#4DD0E1"/>
<stop offset="0.44" stop-color="#63D6E5"/>
<stop offset="0.59" stop-color="#73DAE7"/>
<stop offset="0.76" stop-color="#7DDDE9"/>
<stop offset="1" stop-color="#80DEEA"/>
</linearGradient>
<linearGradient id="paint3_linear_1150_5941" x1="102.727" y1="157.011" x2="149" y2="157.011" gradientUnits="userSpaceOnUse">
<stop stop-color="#005F64"/>
<stop offset="0.11" stop-color="#006F77"/>
<stop offset="0.28" stop-color="#00808C"/>
<stop offset="0.46" stop-color="#008C9B"/>
<stop offset="0.67" stop-color="#0093A4"/>
<stop offset="1" stop-color="#0096A7"/>
</linearGradient>
<clipPath id="clip0_1150_5941">
<rect width="120" height="119.763" fill="white" transform="translate(29 60.6185)"/>
</clipPath>
</defs>
</svg>
