<svg xmlns="http://www.w3.org/2000/svg" width="120" height="121" viewBox="0 0 120 121" fill="none">
    <path d="M20.5 103.179V78.8398H31.581L37.6604 84.8713V103.179H20.5Z" fill="#B2EBF2" stroke="#00BCD4"/>
    <path d="M32.7981 83.6537V79.4445L37.0408 83.6537H32.7981Z" fill="#4DCFE1" stroke="#00BCD4"/>
    <path d="M51.3727 103.083V78.7441H62.4536L68.533 84.7756V103.083H51.3727Z" fill="#F1F3F5" stroke="#00BCD4"/>
    <path d="M63.368 83.8608V79.6515L67.6107 83.8608H63.368Z" fill="#868E96" stroke="#00BCD4"/>
    <path d="M51.3727 72.8168V48.4775H62.4537L68.5331 54.509V72.8168H51.3727Z" fill="#B2EBF2" stroke="#00BCD4"/>
    <path d="M63.3681 53.5942V49.3849L67.6107 53.5942H63.3681Z" fill="#4DCFE1" stroke="#00BCD4"/>
    <path d="M82.2453 72.9115V48.5723H93.3263L99.4057 54.6037V72.9115H82.2453Z" fill="#F1F3F5" stroke="#00BCD4"/>
    <path d="M94.2407 53.6889V49.4797L98.4834 53.6889H94.2407Z" fill="#868E96" stroke="#00BCD4"/>
    <path d="M20.5 72.9125V48.5732H31.581L37.6604 54.6047V72.9125H20.5Z" fill="#F1F3F5" stroke="#00BCD4"/>
    <path d="M32.7981 53.3871V49.1779L37.0408 53.3871H32.7981Z" fill="#868E96" stroke="#00BCD4"/>
    <path d="M20.5 42.5492V18.21H31.581L37.6604 24.2414V42.5492H20.5Z" fill="#B2EBF2" stroke="#00BCD4"/>
    <path d="M32.4954 23.3266V19.1174L36.7381 23.3266H32.4954Z" fill="#4DCFE1" stroke="#00BCD4"/>
    <path d="M82.2453 42.6449V18.3057H93.3263L99.4057 24.3371V42.6449H82.2453Z" fill="#B2EBF2" stroke="#00BCD4"/>
    <path d="M94.5434 23.1195V18.9103L98.7861 23.1195H94.5434Z" fill="#4DCFE1" stroke="#00BCD4"/>
    <path d="M51.3727 42.6449V18.3057H62.4537L68.5331 24.3371V42.6449H51.3727Z" fill="#F1F3F5" stroke="#00BCD4"/>
    <path d="M63.6707 23.1195V18.9103L67.9134 23.1195H63.6707Z" fill="#868E96" stroke="#00BCD4"/>
</svg>