<svg xmlns="http://www.w3.org/2000/svg" width="120" height="121" viewBox="0 0 120 121" fill="none">
    <path d="M20.5 102.873V78.5342H31.581L37.6604 84.5656V102.873H20.5Z" fill="#F8F9FA" stroke="#868E96"/>
    <path d="M32.7981 83.3481V79.1389L37.0408 83.3481H32.7981Z" fill="#E9ECEF" stroke="#868E96"/>
    <path d="M51.3727 102.778V78.4385H62.4536L68.533 84.4699V102.778H51.3727Z" fill="#F1F3F5" stroke="#868E96"/>
    <path d="M63.368 83.5551V79.3459L67.6107 83.5551H63.368Z" fill="#868E96" stroke="#868E96"/>
    <path d="M51.3727 72.5111V48.1719H62.4537L68.5331 54.2033V72.5111H51.3727Z" fill="#F8F9FA" stroke="#868E96"/>
    <path d="M63.3681 53.2885V49.0793L67.6107 53.2885H63.3681Z" fill="#E9ECEF" stroke="#868E96"/>
    <path d="M82.2453 72.6059V48.2666H93.3263L99.4057 54.298V72.6059H82.2453Z" fill="#F1F3F5" stroke="#868E96"/>
    <path d="M94.2407 53.3832V49.174L98.4834 53.3832H94.2407Z" fill="#868E96" stroke="#868E96"/>
    <path d="M20.5 72.6068V48.2676H31.581L37.6604 54.299V72.6068H20.5Z" fill="#F1F3F5" stroke="#868E96"/>
    <path d="M32.7981 53.0815V48.8723L37.0408 53.0815H32.7981Z" fill="#868E96" stroke="#868E96"/>
    <path d="M20.5 42.2436V17.9043H31.581L37.6604 23.9357V42.2436H20.5Z" fill="#F8F9FA" stroke="#868E96"/>
    <path d="M32.4954 23.0209V18.8117L36.7381 23.0209H32.4954Z" fill="#E9ECEF" stroke="#868E96"/>
    <path d="M82.2453 42.3393V18H93.3263L99.4057 24.0314V42.3393H82.2453Z" fill="#F8F9FA" stroke="#868E96"/>
    <path d="M94.5434 22.8139V18.6047L98.7861 22.8139H94.5434Z" fill="#E9ECEF" stroke="#868E96"/>
    <path d="M51.3727 42.3393V18H62.4537L68.5331 24.0314V42.3393H51.3727Z" fill="#F1F3F5" stroke="#868E96"/>
    <path d="M63.6707 22.8139V18.6047L67.9134 22.8139H63.6707Z" fill="#868E96" stroke="#868E96"/>
</svg>