<svg width="40" height="40" viewBox="0 0 40 40" fill="none" xmlns="http://www.w3.org/2000/svg">
<path d="M0 4C0 1.79086 1.79086 0 4 0H36C38.2091 0 40 1.79086 40 4V36C40 38.2091 38.2091 40 36 40H4C1.79086 40 0 38.2091 0 36V4Z" fill="#F8F9FA"></path>
<path d="M12.824 14.16H10.456V26H12.824V20.88H17.304V26H19.656V14.16H17.304V18.816H12.824V14.16ZM25.0454 16H29.5414V14.032H23.4934C23.408 14.544 23.28 15.2853 23.1094 16.256C22.9494 17.216 22.7467 18.4693 22.5014 20.016L23.8454 20.416C24.1334 20.3093 24.4214 20.2293 24.7094 20.176C24.9974 20.112 25.2907 20.0693 25.5894 20.048C26.3254 20.0267 26.88 20.1973 27.2534 20.56C27.6267 20.9227 27.8134 21.424 27.8134 22.064C27.8134 22.768 27.6214 23.3333 27.2374 23.76C26.8534 24.176 26.2934 24.384 25.5574 24.384C25.0454 24.384 24.576 24.2667 24.1494 24.032C23.7227 23.7973 23.3227 23.5253 22.9494 23.216L21.8294 24.848C22.2347 25.232 22.752 25.568 23.3814 25.856C24.0107 26.144 24.6934 26.288 25.4294 26.288C26.0694 26.288 26.6667 26.1867 27.2214 25.984C27.776 25.7707 28.256 25.4773 28.6614 25.104C29.0667 24.72 29.3814 24.2613 29.6054 23.728C29.84 23.1947 29.9574 22.608 29.9574 21.968C29.9574 21.4347 29.872 20.944 29.7014 20.496C29.5307 20.0373 29.28 19.6427 28.9494 19.312C28.6187 18.9707 28.208 18.704 27.7174 18.512C27.2267 18.32 26.6614 18.224 26.0214 18.224C25.808 18.224 25.584 18.2347 25.3494 18.256C25.1254 18.2667 24.8907 18.2933 24.6454 18.336L25.0454 16Z" fill="#868E96"></path>
<path d="M4 1H36V-1H4V1ZM39 4V36H41V4H39ZM36 39H4V41H36V39ZM1 36V4H-1V36H1ZM4 39C2.34315 39 1 37.6569 1 36H-1C-1 38.7614 1.23858 41 4 41V39ZM39 36C39 37.6569 37.6569 39 36 39V41C38.7614 41 41 38.7614 41 36H39ZM36 1C37.6569 1 39 2.34315 39 4H41C41 1.23858 38.7614 -1 36 -1V1ZM4 -1C1.23858 -1 -1 1.23858 -1 4H1C1 2.34315 2.34315 1 4 1V-1Z" fill="#DEE2E6"></path>
</svg>