<svg xmlns="http://www.w3.org/2000/svg" width="40" height="40" viewBox="0 0 40 40" fill="none">
<path d="M12.824 14.16H10.456V26H12.824V20.88H17.304V26H19.656V14.16H17.304V18.816H12.824V14.16ZM26.2134 13.84C25.0827 13.84 24.1494 14.128 23.4134 14.704C22.688 15.28 22.208 16.1813 21.9734 17.408C22.3254 17.4613 22.672 17.5253 23.0134 17.6C23.3654 17.664 23.712 17.7227 24.0534 17.776C24.1067 17.488 24.176 17.2213 24.2614 16.976C24.3574 16.72 24.48 16.5013 24.6294 16.32C24.7894 16.1387 24.9867 15.9947 25.2214 15.888C25.456 15.7813 25.744 15.728 26.0854 15.728C26.608 15.728 27.0134 15.8667 27.3014 16.144C27.6 16.4107 27.744 16.8213 27.7334 17.376C27.7334 17.632 27.696 17.8667 27.6214 18.08C27.5467 18.2827 27.4134 18.464 27.2214 18.624C27.0294 18.7733 26.7627 18.8907 26.4214 18.976C26.0907 19.0613 25.6587 19.1093 25.1254 19.12V20.72C25.7547 20.72 26.2507 20.768 26.6134 20.864C26.9867 20.9493 27.2694 21.0773 27.4614 21.248C27.6534 21.408 27.776 21.6053 27.8294 21.84C27.8934 22.0747 27.9254 22.3307 27.9254 22.608C27.9254 22.832 27.8827 23.0507 27.7974 23.264C27.712 23.4773 27.5787 23.6693 27.3974 23.84C27.2267 24 27.008 24.1333 26.7414 24.24C26.4854 24.336 26.1814 24.384 25.8294 24.384C25.5414 24.384 25.2747 24.32 25.0294 24.192C24.784 24.064 24.56 23.8987 24.3574 23.696C24.1547 23.4827 23.984 23.248 23.8454 22.992C23.7067 22.736 23.6054 22.48 23.5414 22.224L21.5894 22.992C21.7494 23.5147 21.9467 23.984 22.1814 24.4C22.416 24.8053 22.704 25.152 23.0454 25.44C23.3974 25.7173 23.8027 25.9307 24.2614 26.08C24.72 26.2293 25.2534 26.304 25.8614 26.304C26.4267 26.304 26.96 26.224 27.4614 26.064C27.9734 25.904 28.4214 25.6693 28.8054 25.36C29.1894 25.04 29.4987 24.6453 29.7334 24.176C29.968 23.7067 30.0907 23.168 30.1014 22.56C30.1014 21.856 29.9414 21.2747 29.6214 20.816C29.312 20.3467 28.8054 19.9787 28.1014 19.712C28.6027 19.4667 29.024 19.136 29.3654 18.72C29.7174 18.2933 29.8934 17.7387 29.8934 17.056C29.904 16.608 29.824 16.192 29.6534 15.808C29.4827 15.424 29.232 15.088 28.9014 14.8C28.5814 14.512 28.192 14.2827 27.7334 14.112C27.2854 13.9413 26.7787 13.8507 26.2134 13.84Z" fill="#00ABC1"/>
<path d="M4 1H36V-1H4V1ZM39 4V36H41V4H39ZM36 39H4V41H36V39ZM1 36V4H-1V36H1ZM4 39C2.34315 39 1 37.6569 1 36H-1C-1 38.7614 1.23858 41 4 41V39ZM39 36C39 37.6569 37.6569 39 36 39V41C38.7614 41 41 38.7614 41 36H39ZM36 1C37.6569 1 39 2.34315 39 4H41C41 1.23858 38.7614 -1 36 -1V1ZM4 -1C1.23858 -1 -1 1.23858 -1 4H1C1 2.34315 2.34315 1 4 1V-1Z" fill="#00BCD4"/>
</svg>