<svg xmlns="http://www.w3.org/2000/svg" width="40" height="40" viewBox="0 0 40 40" fill="none">
<path d="M19.844 14.16H15.956V26H18.324V21.792H19.908C20.548 21.792 21.1453 21.7173 21.7 21.568C22.2547 21.408 22.7347 21.168 23.14 20.848C23.556 20.528 23.8813 20.1227 24.116 19.632C24.3613 19.1307 24.484 18.544 24.484 17.872C24.484 17.168 24.3613 16.5813 24.116 16.112C23.8813 15.632 23.556 15.248 23.14 14.96C22.724 14.672 22.2333 14.4693 21.668 14.352C21.1027 14.224 20.4947 14.16 19.844 14.16ZM19.748 19.92H18.324V16.032H19.668C20.4893 16.032 21.108 16.1653 21.524 16.432C21.9507 16.6987 22.164 17.1787 22.164 17.872C22.164 19.2373 21.3587 19.92 19.748 19.92Z" fill="#00ABC1"/>
<path d="M4 1H36V-1H4V1ZM39 4V36H41V4H39ZM36 39H4V41H36V39ZM1 36V4H-1V36H1ZM4 39C2.34315 39 1 37.6569 1 36H-1C-1 38.7614 1.23858 41 4 41V39ZM39 36C39 37.6569 37.6569 39 36 39V41C38.7614 41 41 38.7614 41 36H39ZM36 1C37.6569 1 39 2.34315 39 4H41C41 1.23858 38.7614 -1 36 -1V1ZM4 -1C1.23858 -1 -1 1.23858 -1 4H1C1 2.34315 2.34315 1 4 1V-1Z" fill="#00BCD4"/>
</svg>