<svg xmlns="http://www.w3.org/2000/svg" width="40" height="40" viewBox="0 0 40 40" fill="none">
<path d="M12.824 14.16H10.456V26H12.824V20.88H17.304V26H19.656V14.16H17.304V18.816H12.824V14.16ZM26.1334 13.84C25.0347 13.84 24.112 14.1333 23.3654 14.72C22.6294 15.3067 22.1654 16.2133 21.9734 17.44L24.0694 17.792C24.08 17.632 24.0907 17.488 24.1014 17.36C24.1227 17.232 24.1547 17.1093 24.1974 16.992C24.3254 16.64 24.544 16.336 24.8534 16.08C25.1627 15.8133 25.5414 15.68 25.9894 15.68C26.512 15.68 26.9227 15.824 27.2214 16.112C27.5307 16.3893 27.6854 16.8053 27.6854 17.36C27.6854 17.9787 27.5094 18.5493 27.1574 19.072C26.8054 19.5947 26.3254 20.16 25.7174 20.768L21.7014 24.72V26H30.0374V23.984H26.1974C26.016 23.984 25.824 23.9947 25.6214 24.016C25.4294 24.0267 25.2267 24.0587 25.0134 24.112L27.4934 21.616C27.792 21.3067 28.08 20.9867 28.3574 20.656C28.6454 20.3253 28.9014 19.984 29.1254 19.632C29.3494 19.28 29.5307 18.912 29.6694 18.528C29.8187 18.1333 29.8987 17.728 29.9094 17.312C29.9094 16.8 29.8134 16.3307 29.6214 15.904C29.44 15.4773 29.184 15.1147 28.8534 14.816C28.5227 14.5067 28.1227 14.2667 27.6534 14.096C27.1947 13.9253 26.688 13.84 26.1334 13.84Z" fill="#00ABC1"/>
<path d="M4 1H36V-1H4V1ZM39 4V36H41V4H39ZM36 39H4V41H36V39ZM1 36V4H-1V36H1ZM4 39C2.34315 39 1 37.6569 1 36H-1C-1 38.7614 1.23858 41 4 41V39ZM39 36C39 37.6569 37.6569 39 36 39V41C38.7614 41 41 38.7614 41 36H39ZM36 1C37.6569 1 39 2.34315 39 4H41C41 1.23858 38.7614 -1 36 -1V1ZM4 -1C1.23858 -1 -1 1.23858 -1 4H1C1 2.34315 2.34315 1 4 1V-1Z" fill="#00BCD4"/>
</svg>