<svg xmlns="http://www.w3.org/2000/svg" width="40" height="40" viewBox="0 0 40 40" fill="#00BCD4">
    <path d="M12.824 14.16H10.456V26H12.824V20.88H17.304V26H19.656V14.16H17.304V18.816H12.824V14.16ZM27.6374 24.224V14.032H25.7494L22.2934 17.008L23.5574 18.448L25.5094 16.672L25.4454 17.712V24.224H23.1094V26H29.7014V24.224H27.6374Z" fill="#00BCD4"/>
    <path d="M4 1H36V-1H4V1ZM39 4V36H41V4H39ZM36 39H4V41H36V39ZM1 36V4H-1V36H1ZM4 39C2.34315 39 1 37.6569 1 36H-1C-1 38.7614 1.23858 41 4 41V39ZM39 36C39 37.6569 37.6569 39 36 39V41C38.7614 41 41 38.7614 41 36H39ZM36 1C37.6569 1 39 2.34315 39 4H41C41 1.23858 38.7614 -1 36 -1V1ZM4 -1C1.23858 -1 -1 1.23858 -1 4H1C1 2.34315 2.34315 1 4 1V-1Z" fill="#00BCD4"/>
</svg>