<svg width="40" height="40" viewBox="0 0 40 40" fill="none" xmlns="http://www.w3.org/2000/svg">
<path d="M0 4C0 1.79086 1.79086 0 4 0H36C38.2091 0 40 1.79086 40 4V36C40 38.2091 38.2091 40 36 40H4C1.79086 40 0 38.2091 0 36V4Z" fill="#F8F9FA"></path>
<path d="M12.824 14.16H10.456V26H12.824V20.88H17.304V26H19.656V14.16H17.304V18.816H12.824V14.16ZM30.5334 21.296H29.0294V13.92H26.9654C26.0267 15.1467 25.104 16.3787 24.1974 17.616C23.2907 18.8533 22.368 20.0853 21.4294 21.312V23.104H27.0934V26H29.0294V23.104H30.5334V21.296ZM27.0934 17.6V21.328H23.6054L27.1254 16.592C27.1147 16.8053 27.104 17.008 27.0934 17.2C27.0934 17.392 27.0934 17.5253 27.0934 17.6Z" fill="#868E96"></path>
<path d="M4 1H36V-1H4V1ZM39 4V36H41V4H39ZM36 39H4V41H36V39ZM1 36V4H-1V36H1ZM4 39C2.34315 39 1 37.6569 1 36H-1C-1 38.7614 1.23858 41 4 41V39ZM39 36C39 37.6569 37.6569 39 36 39V41C38.7614 41 41 38.7614 41 36H39ZM36 1C37.6569 1 39 2.34315 39 4H41C41 1.23858 38.7614 -1 36 -1V1ZM4 -1C1.23858 -1 -1 1.23858 -1 4H1C1 2.34315 2.34315 1 4 1V-1Z" fill="#DEE2E6"></path>
</svg>