<svg xmlns="http://www.w3.org/2000/svg" width="40" height="40" viewBox="0 0 40 40" fill="none">
<path d="M12.824 14.16H10.456V26H12.824V20.88H17.304V26H19.656V14.16H17.304V18.816H12.824V14.16ZM26.5814 18.56C26.0907 18.56 25.6587 18.624 25.2854 18.752L25.1094 18.832L25.5094 18.448C26.096 17.7013 26.6774 16.9653 27.2534 16.24C27.8294 15.504 28.4214 14.7627 29.0294 14.016H26.3414L23.0934 18.4C22.6347 19.04 22.2827 19.664 22.0374 20.272C21.792 20.88 21.6694 21.456 21.6694 22C21.6694 22.64 21.7654 23.2267 21.9574 23.76C22.16 24.2933 22.4427 24.7467 22.8054 25.12C23.168 25.4933 23.6054 25.7867 24.1174 26C24.64 26.2027 25.2267 26.304 25.8774 26.304C26.5174 26.304 27.104 26.1973 27.6374 25.984C28.1707 25.7707 28.624 25.4773 28.9974 25.104C29.3707 24.7307 29.6587 24.2987 29.8614 23.808C30.0747 23.3067 30.1814 22.7733 30.1814 22.208C30.1814 21.6 30.08 21.0667 29.8774 20.608C29.6747 20.1493 29.408 19.7707 29.0774 19.472C28.7467 19.1627 28.3627 18.9333 27.9254 18.784C27.4987 18.6347 27.0507 18.56 26.5814 18.56ZM23.7814 22.32C23.7814 21.68 23.968 21.1733 24.3414 20.8C24.7147 20.416 25.2214 20.224 25.8614 20.224C26.512 20.224 27.0347 20.4 27.4294 20.752C27.8347 21.104 28.0374 21.632 28.0374 22.336C28.0374 22.656 27.9787 22.9493 27.8614 23.216C27.7547 23.4827 27.6 23.712 27.3974 23.904C27.1947 24.096 26.96 24.2453 26.6934 24.352C26.4374 24.448 26.1547 24.496 25.8454 24.496C25.2267 24.496 24.7254 24.304 24.3414 23.92C23.968 23.536 23.7814 23.0027 23.7814 22.32Z" fill="#00ABC1"/>
<path d="M4 1H36V-1H4V1ZM39 4V36H41V4H39ZM36 39H4V41H36V39ZM1 36V4H-1V36H1ZM4 39C2.34315 39 1 37.6569 1 36H-1C-1 38.7614 1.23858 41 4 41V39ZM39 36C39 37.6569 37.6569 39 36 39V41C38.7614 41 41 38.7614 41 36H39ZM36 1C37.6569 1 39 2.34315 39 4H41C41 1.23858 38.7614 -1 36 -1V1ZM4 -1C1.23858 -1 -1 1.23858 -1 4H1C1 2.34315 2.34315 1 4 1V-1Z" fill="#00BCD4"/>
</svg>