<svg xmlns="http://www.w3.org/2000/svg" width="120" height="121" viewBox="0 0 120 121" fill="none">
    <path d="M20.7071 64.4033L22.1005 63.0099L23.4939 64.4033L22.1005 65.7967L20.7071 64.4033Z" fill="#F1F3F5" stroke="#00BCD4"/>
    <path d="M40.3127 64.4033L41.7061 63.0099L43.0995 64.4033L41.7061 65.7967L40.3127 64.4033Z" fill="#F1F3F5" stroke="#00BCD4"/>
    <path d="M21.8583 75.0016V46.6338H34.8133L41.906 53.6705V75.0016H21.8583Z" fill="#F1F3F5" stroke="#00BCD4"/>
    <path d="M35.7609 52.7231V47.5744L40.9506 52.7231H35.7609Z" fill="#868E96" stroke="#00BCD4"/>
    <rect x="20.5" y="57.7529" width="22.7643" height="6.12929" fill="#868E96" stroke="#00BCD4"/>
    <path d="M82.5843 42.9704V19.1016H93.4464L99.4075 25.0156V42.9704H82.5843Z" fill="#B2EBF2" stroke="#00BCD4"/>
    <path d="M82.5843 72.6764V48.8076H93.4464L99.4075 54.7217V72.6764H82.5843Z" fill="#B2EBF2" stroke="#00BCD4"/>
    <path d="M94.357 53.8106V49.7111L98.4891 53.8106H94.357Z" fill="#00BCD4" stroke="#00BCD4"/>
    <path d="M82.5843 102.382V78.5127H93.4464L99.4075 84.4267V102.382H82.5843Z" fill="#B2EBF2" stroke="#00BCD4"/>
    <path d="M94.357 83.5157V79.4162L98.4891 83.5157H94.357Z" fill="#00BCD4" stroke="#00BCD4"/>
    <path d="M94.654 23.8077V19.7082L98.7861 23.8077H94.654Z" fill="#00BCD4" stroke="#00BCD4"/>
    <path d="M70.3546 59.7071C70.7452 59.3166 70.7452 58.6834 70.3546 58.2929L63.9907 51.9289C63.6001 51.5384 62.967 51.5384 62.5765 51.9289C62.1859 52.3195 62.1859 52.9526 62.5765 53.3431L68.2333 59L62.5765 64.6569C62.1859 65.0474 62.1859 65.6805 62.5765 66.0711C62.967 66.4616 63.6001 66.4616 63.9907 66.0711L70.3546 59.7071ZM53.2351 60H69.6475V58H53.2351V60Z" fill="#00BCD4"/>
</svg>