<svg xmlns="http://www.w3.org/2000/svg" width="120" height="121" viewBox="0 0 120 121" fill="none">
    <path d="M20.7071 64.0977L22.1005 62.7043L23.4939 64.0977L22.1005 65.491L20.7071 64.0977Z" fill="#F1F3F5" stroke="#868E96"/>
    <path d="M40.3127 64.0977L41.7061 62.7043L43.0995 64.0977L41.7061 65.491L40.3127 64.0977Z" fill="#F1F3F5" stroke="#868E96"/>
    <path d="M21.8583 74.696V46.3281H34.8133L41.906 53.3648V74.696H21.8583Z" fill="#F1F3F5" stroke="#868E96"/>
    <path d="M35.7609 52.4175V47.2687L40.9506 52.4175H35.7609Z" fill="#868E96" stroke="#868E96"/>
    <rect x="20.5" y="57.4473" width="22.7643" height="6.12929" fill="#868E96" stroke="#868E96"/>
    <path d="M82.5843 42.6647V18.7959H93.4464L99.4075 24.7099V42.6647H82.5843Z" fill="#F8F9FA" stroke="#868E96"/>
    <path d="M82.5843 72.3708V48.502H93.4464L99.4075 54.416V72.3708H82.5843Z" fill="#F8F9FA" stroke="#868E96"/>
    <path d="M94.357 53.5049V49.4055L98.4891 53.5049H94.357Z" fill="#868E96" stroke="#868E96"/>
    <path d="M82.5843 102.076V78.207H93.4464L99.4075 84.1211V102.076H82.5843Z" fill="#F8F9FA" stroke="#868E96"/>
    <path d="M94.357 83.21V79.1105L98.4891 83.21H94.357Z" fill="#868E96" stroke="#868E96"/>
    <path d="M94.654 23.502V19.4025L98.7861 23.502H94.654Z" fill="#868E96" stroke="#868E96"/>
    <path d="M70.3546 59.4014C70.7452 59.0109 70.7452 58.3778 70.3546 57.9872L63.9907 51.6233C63.6001 51.2327 62.967 51.2327 62.5765 51.6233C62.1859 52.0138 62.1859 52.647 62.5765 53.0375L68.2333 58.6943L62.5765 64.3512C62.1859 64.7417 62.1859 65.3749 62.5765 65.7654C62.967 66.1559 63.6001 66.1559 63.9907 65.7654L70.3546 59.4014ZM53.2351 59.6943H69.6475V57.6943H53.2351V59.6943Z" fill="#868E96"/>
</svg>