<svg width="520" height="270" viewBox="0 0 520 270" fill="none" xmlns="http://www.w3.org/2000/svg">
<g clip-path="url(#clip0_1150_6503)">
<path d="M483.932 72.2955L466.444 84.8364L483.932 97.3773L466.444 109.918L483.932 122.459L466.444 135L483.932 147.541L466.444 160.082L483.932 172.622L466.444 185.163L483.932 197.704L466.444 210.245L483.932 222.786L466.444 235.327H149.527C149.527 230.253 147.528 225.386 143.971 221.798C140.413 218.21 135.588 216.194 130.557 216.194V53.8052C133.049 53.8065 135.516 53.3126 137.818 52.3515C140.12 51.3905 142.212 49.9813 143.973 48.2044C145.735 46.4275 147.132 44.3179 148.085 41.9961C149.038 39.6742 149.528 37.1857 149.527 34.6729H466.444L483.932 47.2137L466.444 59.7546L483.932 72.2955Z" fill="white"/>
<path d="M130.537 53.8052V216.194C128.046 216.194 125.579 216.689 123.278 217.651C120.976 218.612 118.885 220.022 117.124 221.798C115.362 223.575 113.965 225.684 113.012 228.005C112.059 230.326 111.568 232.814 111.568 235.327H47.2891V34.6729H111.568C111.568 39.7471 113.566 44.6135 117.124 48.2015C120.681 51.7895 125.506 53.8052 130.537 53.8052Z" fill="#80DEEA"/>
<path d="M85.0783 180.057C84.8178 180.704 84.4207 181.286 83.9145 181.762C83.3705 182.255 82.7348 182.633 82.0444 182.876C81.2351 183.156 80.3835 183.292 79.5278 183.277C78.6651 183.289 77.8067 183.15 76.9912 182.866C76.2853 182.623 75.638 182.234 75.0913 181.722C74.5704 181.244 74.1625 180.654 73.8976 179.996C73.6241 179.314 73.4856 178.585 73.4898 177.849C73.487 177.125 73.6432 176.409 73.9474 175.753C74.0773 175.48 74.2339 175.221 74.4149 174.98C74.5783 174.766 74.7579 174.564 74.9521 174.378L76.1159 175.381C75.8232 175.678 75.5753 176.016 75.3798 176.385C75.1678 176.825 75.0654 177.31 75.0814 177.799C75.0728 178.308 75.1782 178.812 75.3897 179.274C75.5893 179.716 75.8851 180.107 76.2551 180.418C76.6622 180.748 77.1282 180.997 77.6279 181.15C78.2215 181.329 78.8385 181.417 79.4582 181.411C80.0864 181.42 80.7126 181.339 81.3183 181.17C81.8224 181.035 82.2931 180.796 82.7009 180.468C83.0839 180.161 83.3877 179.765 83.5862 179.314C83.7958 178.809 83.9007 178.266 83.8946 177.719C83.8947 177.379 83.8444 177.041 83.7454 176.716C83.6637 176.418 83.5214 176.142 83.3276 175.903H80.612V178.221H79.1199V174.208H84.0935C84.5264 174.645 84.8651 175.167 85.0883 175.743C85.6118 177.136 85.6118 178.674 85.0883 180.067L85.0783 180.057Z" fill="#00BCD4"/>
<path d="M73.709 158.417H83.7358V153.48H85.2776V160.242H73.709V158.417Z" fill="#00BCD4"/>
<path d="M73.709 134.077H85.2776V135.913H73.709V134.077Z" fill="#00BCD4"/>
<path d="M73.7087 115.517L80.5027 111.654L82.9496 110.43V110.34L81.0498 110.5C80.3733 110.551 79.7268 110.581 79.0603 110.581H73.6689V108.835H85.2375V110.721L78.4137 114.584L75.9966 115.808V115.888L77.8666 115.727C78.5132 115.727 79.1598 115.647 79.7864 115.647H85.2375V117.363H73.7087V115.517Z" fill="#00BCD4"/>
<path d="M85.0783 92.5716C84.8201 93.2169 84.4225 93.7961 83.9145 94.2671C83.3736 94.7663 82.7372 95.1486 82.0444 95.3908C81.2352 95.6715 80.3835 95.8073 79.5278 95.7921C78.6651 95.8042 77.8068 95.665 76.9913 95.3808C76.2854 95.1383 75.638 94.7486 75.0914 94.2371C74.5727 93.7572 74.1652 93.168 73.8977 92.5114C73.6234 91.8262 73.4849 91.0934 73.4899 90.3544C73.4901 89.9728 73.5335 89.5924 73.6192 89.2207C73.6919 88.8752 73.8019 88.5387 73.9474 88.2174C74.0773 87.9449 74.234 87.686 74.415 87.4449C74.5783 87.2306 74.7579 87.0293 74.9521 86.843L76.1159 87.8462C75.821 88.1406 75.5728 88.479 75.3798 88.8495C75.1678 89.2896 75.0654 89.7751 75.0814 90.2641C75.0729 90.7728 75.1783 91.277 75.3898 91.7389C75.5893 92.1809 75.8851 92.5718 76.2552 92.8826C76.6623 93.2127 77.1282 93.4614 77.6279 93.615C78.2215 93.7942 78.8386 93.8822 79.4582 93.8759C80.0864 93.8847 80.7127 93.8036 81.3183 93.6351C81.8224 93.5 82.2932 93.2609 82.7009 92.9328C83.0839 92.6258 83.3877 92.23 83.5863 91.779C83.7958 91.2741 83.9008 90.7312 83.8946 90.1838C83.8947 89.8438 83.8445 89.5056 83.7454 89.1805C83.6637 88.8833 83.5214 88.6065 83.3276 88.3679H80.612V90.6854H79.12V86.6724H84.0936C84.5264 87.1095 84.8651 87.6321 85.0883 88.2074C85.6118 89.6004 85.6118 91.1385 85.0883 92.5315L85.0783 92.5716Z" fill="#00BCD4"/>
<path d="M103.929 180.137C103.665 180.768 103.267 181.333 102.765 181.792C102.217 182.275 101.582 182.647 100.895 182.886C99.2476 183.414 97.4786 183.414 95.8315 182.886C95.1332 182.641 94.4882 182.263 93.9316 181.772C93.4247 181.304 93.0214 180.733 92.7479 180.097C92.4745 179.443 92.3357 178.74 92.34 178.03C92.3281 177.359 92.4783 176.694 92.7777 176.094C93.0312 175.583 93.3674 175.119 93.7724 174.719L94.9363 175.723C94.6394 176.018 94.3879 176.356 94.1902 176.726C93.9893 177.119 93.89 177.558 93.9017 178C93.8967 178.478 93.9988 178.952 94.2002 179.385C94.4113 179.802 94.7099 180.169 95.0755 180.458C95.4868 180.775 95.9521 181.013 96.4482 181.16C97.0438 181.328 97.6602 181.41 98.2785 181.401C98.9067 181.41 99.533 181.329 100.139 181.16C100.638 181.027 101.107 180.799 101.521 180.488C101.888 180.225 102.19 179.882 102.407 179.485C102.611 179.049 102.713 178.572 102.705 178.09C102.713 177.596 102.601 177.106 102.377 176.666C102.147 176.232 101.844 175.841 101.481 175.512L102.635 174.509C103.144 174.96 103.563 175.505 103.869 176.114C104.162 176.741 104.308 177.427 104.297 178.121C104.31 178.811 104.185 179.497 103.929 180.137Z" fill="#00BCD4"/>
<path d="M103.908 164.255C103.634 164.873 103.222 165.419 102.705 165.85C102.14 166.303 101.495 166.643 100.805 166.854C99.182 167.34 97.4539 167.34 95.8311 166.854C95.1498 166.643 94.5149 166.303 93.961 165.85C93.4579 165.412 93.0571 164.868 92.7873 164.255C92.5183 163.602 92.3799 162.901 92.3799 162.193C92.3799 161.486 92.5183 160.785 92.7873 160.132C93.0595 159.518 93.4598 158.97 93.961 158.527C94.51 158.067 95.1465 157.726 95.8311 157.523C97.4539 157.037 99.182 157.037 100.805 157.523C101.498 157.725 102.145 158.067 102.705 158.527C103.221 158.963 103.632 159.512 103.908 160.132C104.184 160.784 104.326 161.485 104.326 162.193C104.326 162.902 104.184 163.603 103.908 164.255ZM102.426 160.874C102.21 160.477 101.907 160.134 101.541 159.871C101.113 159.575 100.639 159.354 100.138 159.219C99.5378 159.059 98.9189 158.982 98.2981 158.988C97.6804 158.981 97.0647 159.059 96.4677 159.219C95.9746 159.35 95.5094 159.571 95.095 159.871C94.7273 160.131 94.4287 160.479 94.2257 160.883C94.0228 161.287 93.9216 161.735 93.9312 162.188C93.9216 162.641 94.0228 163.09 94.2257 163.494C94.4287 163.898 94.7273 164.246 95.095 164.506C95.51 164.803 95.9752 165.02 96.4677 165.148C97.0647 165.308 97.6804 165.386 98.2981 165.379C98.9189 165.385 99.5378 165.307 100.138 165.148C100.639 165.016 101.113 164.799 101.541 164.506C101.909 164.245 102.212 163.902 102.426 163.503C102.639 163.098 102.745 162.646 102.734 162.188C102.742 161.731 102.636 161.279 102.426 160.874Z" fill="#00BCD4"/>
<path d="M104.048 145.835C103.872 146.364 103.563 146.837 103.152 147.21C102.689 147.619 102.143 147.921 101.551 148.093C100.776 148.322 99.9709 148.431 99.1636 148.414H92.5586V146.578H99.2829C99.8359 146.586 100.388 146.522 100.924 146.387C101.315 146.288 101.682 146.107 101.998 145.855C102.252 145.649 102.447 145.379 102.565 145.073C102.683 144.752 102.741 144.412 102.735 144.069C102.739 143.727 102.682 143.387 102.565 143.066C102.45 142.753 102.255 142.476 101.998 142.264C101.684 142.008 101.317 141.826 100.924 141.732C100.388 141.592 99.8361 141.528 99.2829 141.541H92.5586V139.765H99.1436C99.9504 139.746 100.755 139.851 101.531 140.076C102.124 140.241 102.671 140.539 103.132 140.949C103.541 141.32 103.849 141.789 104.028 142.314C104.399 143.464 104.399 144.704 104.028 145.855L104.048 145.835Z" fill="#00BCD4"/>
<path d="M92.5589 126.883C92.5537 126.28 92.6138 125.678 92.7379 125.088C92.8429 124.584 93.0458 124.107 93.3348 123.683C93.6073 123.287 93.9776 122.968 94.4091 122.76C94.924 122.525 95.4854 122.412 96.0504 122.429C96.615 122.416 97.1753 122.529 97.6916 122.76C98.1401 122.972 98.5348 123.284 98.8455 123.673C99.1577 124.086 99.3874 124.556 99.5219 125.058C99.6742 125.633 99.7478 126.227 99.7408 126.823V128.579H104.118V130.405H92.5589V126.883ZM97.7414 124.877C97.5275 124.645 97.2642 124.465 96.9713 124.35C96.6784 124.235 96.3635 124.189 96.0504 124.215C95.7464 124.182 95.4393 124.231 95.16 124.356C94.8806 124.481 94.6387 124.678 94.4588 124.927C94.1305 125.578 93.9795 126.305 94.0211 127.034V128.559H98.2785V126.994C98.3416 126.254 98.1521 125.514 97.7414 124.897V124.877Z" fill="#00BCD4"/>
<path d="M103.909 111.433C103.635 112.054 103.223 112.603 102.705 113.038C102.141 113.491 101.496 113.832 100.805 114.041C99.1824 114.528 97.4543 114.528 95.8315 114.041C95.15 113.831 94.515 113.491 93.9615 113.038C93.4581 112.596 93.0574 112.048 92.7877 111.433C92.5185 110.781 92.3799 110.082 92.3799 109.376C92.3799 108.67 92.5185 107.971 92.7877 107.32C93.0598 106.703 93.46 106.152 93.9615 105.704C94.5153 105.252 95.1502 104.911 95.8315 104.701C97.4543 104.214 99.1824 104.214 100.805 104.701C101.496 104.911 102.14 105.252 102.705 105.704C103.221 106.145 103.633 106.697 103.909 107.32C104.184 107.97 104.327 108.669 104.327 109.376C104.327 110.083 104.184 110.783 103.909 111.433ZM102.427 108.062C102.21 107.665 101.907 107.322 101.541 107.059C101.116 106.759 100.641 106.538 100.139 106.407C99.5382 106.247 98.9193 106.17 98.2985 106.176C97.6808 106.169 97.0651 106.246 96.4682 106.407C95.9734 106.533 95.5073 106.754 95.0955 107.059C94.7299 107.322 94.4321 107.67 94.2266 108.073C94.0211 108.476 93.9139 108.923 93.9139 109.376C93.9139 109.829 94.0211 110.276 94.2266 110.679C94.4321 111.082 94.7299 111.43 95.0955 111.694C95.5127 111.986 95.9772 112.204 96.4682 112.336C97.0656 112.492 97.6813 112.567 98.2985 112.557C98.9184 112.569 99.5372 112.498 100.139 112.346C100.637 112.209 101.111 111.993 101.541 111.704C101.907 111.441 102.21 111.098 102.427 110.701C102.63 110.293 102.735 109.843 102.735 109.386C102.735 108.93 102.63 108.48 102.427 108.072V108.062Z" fill="#00BCD4"/>
<path d="M92.5588 93.6453L99.3428 89.7828L101.8 88.5588V88.4785L99.8998 88.639C99.2234 88.639 98.5769 88.7193 97.9104 88.7193H92.519V86.9736H104.117V88.8598L97.3036 92.7224L94.8864 93.9463V94.0266L96.7565 93.8661C97.4031 93.8159 98.0397 93.7858 98.6764 93.7858H104.117V95.5315H92.5588V93.6453Z" fill="#00BCD4"/>
<path d="M363.143 163.914H358.338L355.354 176.014H348.689L346.431 163.914H343.358L341.129 176.014H334.475L331.491 163.914H326.736V159.62H330.416L327.551 147.952H333.281L335.967 159.62H339.369L341.488 147.952H348.451L350.559 159.62H353.961L356.647 147.952H362.377L359.472 159.62H363.202L363.143 163.914ZM337.877 167.847L338.593 163.914H336.952L337.877 167.847ZM344.183 159.62H345.685L344.929 155.607L344.183 159.62ZM352.022 167.817L352.917 163.914H351.305L352.022 167.817Z" fill="#121417"/>
<path d="M251.336 133.977C251.257 128.057 252.045 122.158 253.673 116.47C255.034 111.662 257.334 107.176 260.437 103.277C263.351 99.6911 267.067 96.8544 271.28 94.9998C275.918 93.0207 280.917 92.0465 285.952 92.1405C290.922 92.0597 295.853 93.034 300.425 94.9998C304.665 96.8569 308.412 99.692 311.367 103.277C314.499 107.173 316.832 111.657 318.231 116.47C319.891 122.152 320.695 128.054 320.618 133.977C320.698 139.923 319.945 145.851 318.38 151.584C317.075 156.395 314.807 160.885 311.715 164.777C308.767 168.381 305.019 171.234 300.773 173.104C296.091 175.117 291.041 176.108 285.952 176.014C280.912 176.107 275.91 175.115 271.28 173.104C267.07 171.221 263.357 168.369 260.437 164.777C257.332 160.879 255.032 156.393 253.673 151.584C252.039 145.863 251.251 139.93 251.336 133.977ZM272.026 133.977C271.97 137.837 272.371 141.69 273.22 145.454C273.802 148.172 274.845 150.769 276.303 153.129C277.4 154.916 278.921 156.399 280.73 157.443C282.346 158.335 284.159 158.801 286.002 158.798C287.892 158.805 289.755 158.34 291.423 157.443C293.253 156.41 294.793 154.926 295.899 153.129C297.33 150.766 298.34 148.169 298.883 145.454C300.342 137.934 300.342 130.2 298.883 122.68C298.343 119.981 297.333 117.399 295.899 115.055C294.781 113.282 293.242 111.816 291.423 110.791C289.755 109.895 287.892 109.429 286.002 109.437C284.159 109.433 282.346 109.899 280.73 110.791C278.932 111.827 277.412 113.291 276.303 115.055C274.843 117.396 273.799 119.977 273.22 122.68C272.388 126.386 271.994 130.178 272.046 133.977H272.026Z" fill="#121417"/>
<path d="M41.5097 22.0518L19.8845 40.9132C18.8898 41.7861 19.785 49.3106 19.785 50.7252C19.785 53.0428 19.785 55.3603 19.785 57.6678C19.785 58.0892 20.0735 60.3566 19.8546 60.5472L41.4799 41.6858C42.4746 40.8129 41.5793 33.2884 41.5793 31.8738C41.5793 29.5562 41.5793 27.2387 41.5793 24.9311C41.4542 23.9766 41.4308 23.0113 41.5097 22.0518Z" fill="#FE8A8A"/>
<path d="M0.149053 197.624C6.36942 202.732 13.3263 206.853 20.7795 209.844C20.3618 209.674 20.8791 200.885 20.8791 200.022C20.8791 199.159 21.5355 190.511 20.7795 190.21C13.3283 187.215 6.3719 183.095 0.149053 177.99C0.181185 178.947 0.157928 179.905 0.0794148 180.86C0.0794148 183.177 0.0794148 185.495 0.0794148 187.802C0.0794148 190.11 0.0794148 192.437 0.0794148 194.745C0.0794148 195.206 -0.149364 197.373 0.149053 197.624Z" fill="#FE8A8A"/>
<path d="M509.755 127.395C506.195 134.426 501.574 140.857 496.057 146.457C495.928 147.411 495.905 148.377 495.987 149.337C495.987 151.654 495.987 153.962 495.987 156.279C495.987 158.597 495.987 160.904 495.987 163.222C495.987 163.673 496.296 165.85 496.057 166.101C501.57 160.497 506.19 154.067 509.755 147.039C509.905 146.087 509.928 145.118 509.824 144.16C509.824 141.842 509.824 139.535 509.824 137.217C509.824 134.899 509.824 132.592 509.824 130.274C509.824 129.612 509.486 127.937 509.755 127.395Z" fill="#FE8A8A"/>
<path d="M372.692 24.0583C385.095 30.5826 399.011 33.6184 412.978 32.847C413.456 32.847 412.779 13.223 412.978 13.213C399.011 13.9844 385.095 10.9486 372.692 4.42432C373.239 4.71526 372.593 13.2832 372.593 14.2463C372.593 15.2095 371.787 23.5868 372.692 24.0583Z" fill="#FE8A8A"/>
<path d="M163.094 21.2491C170.694 16.8247 181.149 21.9815 182.362 30.7501C181.477 24.3492 183.247 17.5571 182.362 11.1161C181.149 2.3475 170.704 -2.80931 163.094 1.61511C162.279 2.08665 162.995 10.3335 162.995 11.4271C162.995 13.7446 162.995 16.0622 162.995 18.3697C163.09 19.3264 163.113 20.2889 163.064 21.2491H163.094Z" fill="#47CBF1"/>
<path d="M191.842 263.73C194.141 263.405 196.483 263.84 198.517 264.971C200.551 266.101 202.166 267.866 203.122 270C203.042 269.041 203.065 268.075 203.192 267.121C203.192 264.803 203.192 262.496 203.192 260.178C203.192 257.861 203.192 255.553 203.192 253.236C203.319 252.278 203.295 251.306 203.122 250.356C202.164 248.224 200.547 246.461 198.515 245.331C196.482 244.201 194.141 243.764 191.842 244.086C191.543 244.136 191.742 253.115 191.752 253.908C191.762 254.7 191.971 263.71 191.842 263.73Z" fill="#47CBF1"/>
<path d="M359.482 83.4821C365.317 89.4549 371.994 94.5259 379.297 98.5312C378.71 98.2101 379.387 89.6924 379.387 88.7092C379.387 86.4017 379.387 84.0841 379.387 81.7666C379.387 81.3954 379.566 79.0276 379.327 78.8972C372.024 74.8919 365.347 69.8209 359.512 63.8481C359.554 64.8084 359.531 65.7705 359.443 66.7275C359.443 69.035 359.443 71.3526 359.443 73.6702C359.443 75.9877 359.443 78.2952 359.443 80.6128C359.443 81.1244 359.184 83.151 359.512 83.4821H359.482Z" fill="#47CBF1"/>
<path d="M483.514 242.38C478.594 246.517 472.607 249.154 466.255 249.985C465.36 250.105 466.902 267.753 466.255 267.843C472.606 267.007 478.591 264.37 483.514 260.238C483.62 259.369 483.64 258.492 483.573 257.62C483.573 255.513 483.573 253.416 483.573 251.309C483.573 249.202 483.573 247.105 483.573 244.998C483.461 244.13 483.441 243.252 483.514 242.38Z" fill="#47CBF1"/>
<path d="M30.5082 59.1727C37.7679 64.7051 45.4741 69.6148 53.5459 73.8506C53.0386 73.5797 53.6255 65.8244 53.6255 64.9215C53.6255 64.0186 54.3615 56.4338 53.5459 55.9924C45.4684 51.7511 37.7617 46.8276 30.5082 41.2744C31.2045 41.8061 30.4286 49.13 30.4286 50.2035C30.4286 51.4576 29.5035 58.3601 30.5082 59.1326V59.1727Z" fill="#F6DE5A"/>
<path d="M361.859 201.216C352.017 205.036 343.543 211.755 337.538 220.499C336.544 221.983 337.449 227.612 337.449 229.428C337.449 231.535 337.449 233.631 337.449 235.738C337.449 236.25 337.757 237.996 337.518 238.347C343.52 229.603 351.996 222.886 361.839 219.074C362.396 218.853 361.929 210.988 361.929 210.145C361.929 209.302 361.352 201.406 361.839 201.216H361.859Z" fill="#F6DE5A"/>
<path d="M213.606 137.428C217.05 145.389 221.146 153.047 225.851 160.323C225.787 159.45 225.807 158.573 225.911 157.704C225.911 155.607 225.911 153.5 225.911 151.394C225.911 149.287 225.911 147.19 225.911 145.083C225.911 144.491 226.15 142.946 225.851 142.474C221.148 135.195 217.052 127.533 213.606 119.57C213.674 120.442 213.654 121.32 213.546 122.188C213.546 124.295 213.546 126.392 213.546 128.499C213.546 130.927 212.651 135.161 213.636 137.428H213.606Z" fill="#F6DE5A"/>
<path d="M483.703 25.0617L483.892 29.3557V29.6767C492.347 31.3221 503.866 34.4222 504.154 45.117V27.5799C502.891 38.9369 488.845 39.5088 484.349 48.6486C481.962 53.4843 483.056 60.136 483.086 65.3028C482.975 67.5433 483.008 69.7886 483.185 72.0247C483.653 75.3957 484.956 75.5663 488.01 76.1281C487.095 75.9575 489.174 58.4906 488.01 58.2799C484.916 57.7081 483.772 57.6278 483.185 54.1766L483.235 55.3905V54.1565V70.7907C484.14 63.1558 490.745 60.2363 496.385 56.4239C502.453 52.3205 504.264 48.1369 504.343 41.0438C504.423 33.9506 505.975 24.861 500.911 19.1323C498.619 16.7165 495.753 14.9312 492.586 13.9455C490.735 13.2933 488.696 13.1027 486.876 12.4305C484.091 11.4272 483.892 10.7851 483.812 7.8857C483.762 6.73194 483.723 9.33039 483.752 8.77859C483.663 10.5443 483.752 12.3502 483.752 14.116C483.752 17.7679 483.653 21.4399 483.812 25.0918L483.703 25.0617Z" fill="#F6DE5A"/>
<path d="M499.897 176.606C505.121 170.051 511.956 164.99 519.721 161.928C520.298 161.697 519.811 153.841 519.811 152.999C519.811 152.156 519.234 144.27 519.721 144.08C511.956 147.142 505.121 152.203 499.897 158.757C499.767 159.621 499.744 160.497 499.827 161.366C499.827 163.473 499.827 165.58 499.827 167.687C499.827 169.793 499.827 171.89 499.827 173.997C499.827 174.459 500.125 176.315 499.897 176.606Z" fill="#6F45D7"/>
</g>
<defs>
<clipPath id="clip0_1150_6503">
<rect width="520" height="270" fill="white"/>
</clipPath>
</defs>
</svg>