<svg width="48" height="48" viewBox="0 0 48 48" fill="none" xmlns="http://www.w3.org/2000/svg">
<mask id="path-1-inside-1_1150_6333" fill="white">
<path fill-rule="evenodd" clip-rule="evenodd" d="M26.3396 23.9997L39.5 14.6413L26.3396 5.28279L26.3396 11.3994L8.50019 11.3994L8.50019 17.8832L26.3396 17.8832L26.3396 23.9997Z"/>
</mask>
<path fill-rule="evenodd" clip-rule="evenodd" d="M26.3396 23.9997L39.5 14.6413L26.3396 5.28279L26.3396 11.3994L8.50019 11.3994L8.50019 17.8832L26.3396 17.8832L26.3396 23.9997Z" fill="#00BCD4"/>
<path d="M39.5 14.6413L40.0795 15.4562L41.2256 14.6413L40.0795 13.8263L39.5 14.6413ZM26.3396 23.9997L25.3396 23.9997L25.3396 25.9379L26.9191 24.8147L26.3396 23.9997ZM26.3396 5.28279L26.9191 4.46783L25.3396 3.34462L25.3396 5.28279L26.3396 5.28279ZM26.3396 11.3994L26.3396 12.3994L27.3396 12.3994L27.3396 11.3994L26.3396 11.3994ZM8.50019 11.3994L8.50019 10.3994L7.50019 10.3994L7.50019 11.3994L8.50019 11.3994ZM8.50019 17.8832L7.50019 17.8832L7.50019 18.8832L8.50019 18.8832L8.50019 17.8832ZM26.3396 17.8832L27.3396 17.8832L27.3396 16.8832L26.3396 16.8832L26.3396 17.8832ZM38.9205 13.8263L25.7601 23.1848L26.9191 24.8147L40.0795 15.4562L38.9205 13.8263ZM25.7601 6.09775L38.9205 15.4562L40.0795 13.8263L26.9191 4.46783L25.7601 6.09775ZM27.3396 11.3994L27.3396 5.28279L25.3396 5.28279L25.3396 11.3994L27.3396 11.3994ZM8.50019 12.3994L26.3396 12.3994L26.3396 10.3994L8.50019 10.3994L8.50019 12.3994ZM9.50019 17.8832L9.50019 11.3994L7.50019 11.3994L7.50019 17.8832L9.50019 17.8832ZM26.3396 16.8832L8.50019 16.8832L8.50019 18.8832L26.3396 18.8832L26.3396 16.8832ZM27.3396 23.9997L27.3396 17.8832L25.3396 17.8832L25.3396 23.9997L27.3396 23.9997Z" fill="#121417" mask="url(#path-1-inside-1_1150_6333)"/>
<mask id="path-3-inside-2_1150_6333" fill="white">
<path fill-rule="evenodd" clip-rule="evenodd" d="M21.6604 23.9998L8.5 33.3583L21.6604 42.7168L21.6604 36.6002L39.4998 36.6002L39.4998 30.1164L21.6604 30.1164L21.6604 23.9998Z"/>
</mask>
<path fill-rule="evenodd" clip-rule="evenodd" d="M21.6604 23.9998L8.5 33.3583L21.6604 42.7168L21.6604 36.6002L39.4998 36.6002L39.4998 30.1164L21.6604 30.1164L21.6604 23.9998Z" fill="white"/>
<path d="M8.5 33.3583L7.92048 32.5434L6.77444 33.3583L7.92048 34.1733L8.5 33.3583ZM21.6604 23.9998L22.6604 23.9998L22.6604 22.0617L21.0809 23.1849L21.6604 23.9998ZM21.6604 42.7168L21.0809 43.5318L22.6604 44.655L22.6604 42.7168L21.6604 42.7168ZM21.6604 36.6002L21.6604 35.6002L20.6604 35.6002L20.6604 36.6002L21.6604 36.6002ZM39.4998 36.6002L39.4998 37.6002L40.4998 37.6002L40.4998 36.6002L39.4998 36.6002ZM39.4998 30.1164L40.4998 30.1164L40.4998 29.1164L39.4998 29.1164L39.4998 30.1164ZM21.6604 30.1164L20.6604 30.1164L20.6604 31.1164L21.6604 31.1164L21.6604 30.1164ZM9.07952 34.1733L22.2399 24.8148L21.0809 23.1849L7.92048 32.5434L9.07952 34.1733ZM22.2399 41.9018L9.07952 32.5434L7.92048 34.1733L21.0809 43.5318L22.2399 41.9018ZM20.6604 36.6002L20.6604 42.7168L22.6604 42.7168L22.6604 36.6002L20.6604 36.6002ZM39.4998 35.6002L21.6604 35.6002L21.6604 37.6002L39.4998 37.6002L39.4998 35.6002ZM38.4998 30.1164L38.4998 36.6002L40.4998 36.6002L40.4998 30.1164L38.4998 30.1164ZM21.6604 31.1164L39.4998 31.1164L39.4998 29.1164L21.6604 29.1164L21.6604 31.1164ZM20.6604 23.9998L20.6604 30.1164L22.6604 30.1164L22.6604 23.9998L20.6604 23.9998Z" fill="#121417" mask="url(#path-3-inside-2_1150_6333)"/>
</svg>