<svg xmlns="http://www.w3.org/2000/svg" width="40" height="40" viewBox="0 0 40 40" fill="current">
    <path d="M27 26H13V28H27V26Z" fill="current"/>
    <path d="M20 21.6945C20.3621 21.6945 20.6842 21.6348 20.9665 21.5153C21.254 21.3904 21.4963 21.2138 21.6933 20.9857C21.8903 20.7576 22.0394 20.4807 22.1406 20.1548C22.2471 19.8235 22.3003 19.4487 22.3003 19.0305V12H25V19.0305C25 19.7583 24.8829 20.4263 24.6486 21.0346C24.4196 21.6429 24.0895 22.167 23.6581 22.6069C23.2268 23.0468 22.7023 23.389 22.0847 23.6334C21.467 23.8778 20.7721 24 20 24C19.2226 24 18.525 23.8778 17.9073 23.6334C17.2897 23.389 16.7652 23.0468 16.3339 22.6069C15.9026 22.167 15.5724 21.6429 15.3435 21.0346C15.1145 20.4263 15 19.7583 15 19.0305V12H17.6997V19.0224C17.6997 19.4406 17.7503 19.8153 17.8514 20.1466C17.9579 20.4725 18.1097 20.7522 18.3067 20.9857C18.5037 21.2138 18.7433 21.3904 19.0256 21.5153C19.3131 21.6348 19.6379 21.6945 20 21.6945Z" fill="current"/>
    <path d="M4 1H36V-1H4V1ZM39 4V36H41V4H39ZM36 39H4V41H36V39ZM1 36V4H-1V36H1ZM4 39C2.34315 39 1 37.6569 1 36H-1C-1 38.7614 1.23858 41 4 41V39ZM39 36C39 37.6569 37.6569 39 36 39V41C38.7614 41 41 38.7614 41 36H39ZM36 1C37.6569 1 39 2.34315 39 4H41C41 1.23858 38.7614 -1 36 -1V1ZM4 -1C1.23858 -1 -1 1.23858 -1 4H1C1 2.34315 2.34315 1 4 1V-1Z" fill="current"/>
</svg>