<svg width="24" height="24" viewBox="0 0 24 24" fill="none" xmlns="http://www.w3.org/2000/svg">
<path d="M13.5 14.6001C13 14.8001 12.5 15.0001 12 15.0001C10.2 15.0001 8.7 13.5001 8.7 11.7001C8.7 11.2001 8.8 10.6001 9.1 10.2001L7.4 8.50015C5.4 9.90015 4 11.6001 4 11.6001C4 11.6001 7.6 16.3001 12 16.3001C13 16.3001 13.9 16.1001 14.7 15.7001L13.5 14.6001ZM12 6.90015C11 6.90015 10.1 7.10015 9.3 7.50015L10.5 8.70015C11 8.50015 11.5 8.30015 12 8.30015C13.8 8.30015 15.3 9.80015 15.3 11.6001C15.3 12.1001 15.2 12.7001 14.9 13.1001L16.5 14.7001C18.6 13.3001 19.9 11.6001 19.9 11.6001C19.9 11.6001 16.4 6.90015 12 6.90015Z" fill="current"/>
<path d="M12.5 13.6002C12.3 13.6002 12.2 13.7002 12 13.7002C10.9 13.7002 10 12.8002 10 11.7002C10 11.5002 10 11.4002 10.1 11.2002L12.5 13.6002Z" fill="current"/>
<path d="M14 11.6001C14 11.8001 14 11.9001 13.9 12.1001L11.5 9.7001C11.7 9.7001 11.8 9.6001 12 9.6001C13.1 9.6001 14 10.5001 14 11.6001Z" fill="current"/>
<path d="M19.1 18.7001L18.4 19.4001L14.7 15.8001L13.5 14.6001L7.39995 8.5001L4.19995 5.3001L4.89995 4.6001L8.29995 8.0001L9.69995 9.3001L10.6 10.2001L13.4 13.1001L19.1 18.7001Z" fill="current"/>
</svg>
