<svg width="24" height="24" viewBox="0 0 24 24" fill="none" xmlns="http://www.w3.org/2000/svg">
<path d="M12 7.30005C7.6 7.30005 4 12 4 12C4 12 7.6 16.7 12 16.7C16.4 16.7 20 12 20 12C20 12 16.4 7.30005 12 7.30005ZM12 15.3C10.2 15.3 8.7 13.8 8.7 12C8.7 10.2 10.2 8.70005 12 8.70005C13.8 8.70005 15.3 10.2 15.3 12C15.3 13.8 13.8 15.3 12 15.3Z" fill="current"/>
<path d="M12 14C13.1046 14 14 13.1046 14 12C14 10.8954 13.1046 10 12 10C10.8954 10 10 10.8954 10 12C10 13.1046 10.8954 14 12 14Z" fill="current"/>
</svg>
