<svg width="40" height="40" viewBox="0 0 40 40" fill="none" xmlns="http://www.w3.org/2000/svg">
    <path d="M40 0H0V40H40V0Z" fill="#0077FF"></path>
    <path d="M20 15.2998C15.6 15.2998 12 19.9998 12 19.9998C12 19.9998 15.6 24.6998 20 24.6998C24.4 24.6998 28 19.9998 28 19.9998C28 19.9998 24.4 15.2998 20 15.2998ZM20 23.2998C19.3473 23.2998 18.7093 23.1063 18.1666 22.7437C17.6239 22.381 17.201 21.8657 16.9512 21.2627C16.7014 20.6597 16.6361 19.9961 16.7634 19.356C16.8907 18.7159 17.205 18.1279 17.6665 17.6664C18.1281 17.2048 18.7161 16.8905 19.3562 16.7632C19.9963 16.6359 20.6599 16.7012 21.2629 16.951C21.8659 17.2008 22.3812 17.6237 22.7438 18.1664C23.1065 18.7091 23.3 19.3471 23.3 19.9998C23.2924 20.8727 22.9423 21.7077 22.3251 22.3249C21.7078 22.9421 20.8729 23.2922 20 23.2998Z" fill="white"></path>
    <path d="M20 22C21.1046 22 22 21.1046 22 20C22 18.8954 21.1046 18 20 18C18.8954 18 18 18.8954 18 20C18 21.1046 18.8954 22 20 22Z" fill="white"></path>
</svg>