<svg width="441" height="240" viewBox="0 0 441 240" fill="none" xmlns="http://www.w3.org/2000/svg">
<rect class="rect" x="1.47314" y="0.5" width="439" height="239" rx="3.5" fill="current"/>
<g clip-path="url(#clip0_1166_5421)">
<path d="M110.473 88.402L146.16 83.5418L146.176 117.965L110.506 118.168L110.473 88.402ZM146.143 121.931L146.171 156.384L110.501 151.48L110.499 121.7L146.143 121.931ZM150.469 82.906L197.787 76V117.527L150.469 117.903V82.906ZM197.798 122.255L197.787 163.595L150.469 156.917L150.403 122.178L197.798 122.255Z" fill="current" class="icon"/>
</g>
<path d="M208.025 94.724V106.5H211.177C212.062 106.5 212.846 106.372 213.529 106.116C214.222 105.849 214.809 105.465 215.289 104.964C215.769 104.463 216.132 103.844 216.377 103.108C216.633 102.372 216.761 101.524 216.761 100.564C216.761 98.6013 216.276 97.14 215.305 96.18C214.345 95.2093 212.937 94.724 211.081 94.724H208.025ZM210.953 104.98H209.881V96.228H210.953C212.222 96.228 213.188 96.58 213.849 97.284C214.51 97.988 214.841 99.0813 214.841 100.564C214.841 102.079 214.516 103.193 213.865 103.908C213.214 104.623 212.244 104.98 210.953 104.98ZM222.573 106.708C223.117 106.708 223.639 106.607 224.141 106.404C224.642 106.191 225.079 105.892 225.453 105.508C225.837 105.113 226.141 104.633 226.365 104.068C226.599 103.492 226.717 102.841 226.717 102.116C226.717 101.38 226.599 100.724 226.365 100.148C226.141 99.572 225.837 99.0867 225.453 98.692C225.079 98.2973 224.642 97.9987 224.141 97.796C223.639 97.5827 223.117 97.476 222.573 97.476C222.029 97.476 221.506 97.5827 221.005 97.796C220.503 97.9987 220.061 98.2973 219.677 98.692C219.303 99.0867 218.999 99.572 218.765 100.148C218.541 100.724 218.429 101.38 218.429 102.116C218.429 102.841 218.541 103.492 218.765 104.068C218.999 104.633 219.303 105.113 219.677 105.508C220.061 105.892 220.503 106.191 221.005 106.404C221.506 106.607 222.029 106.708 222.573 106.708ZM222.573 105.204C222.231 105.204 221.922 105.129 221.645 104.98C221.367 104.831 221.133 104.623 220.941 104.356C220.749 104.089 220.599 103.764 220.493 103.38C220.386 102.996 220.333 102.575 220.333 102.116C220.333 101.177 220.53 100.425 220.925 99.86C221.319 99.284 221.869 98.996 222.573 98.996C223.277 98.996 223.826 99.284 224.221 99.86C224.626 100.425 224.829 101.177 224.829 102.116C224.829 102.575 224.775 102.996 224.669 103.38C224.562 103.764 224.413 104.089 224.221 104.356C224.029 104.623 223.794 104.831 223.517 104.98C223.239 105.129 222.925 105.204 222.573 105.204ZM227.827 97.7L230.211 106.5H232.339L233.411 102.164C233.528 101.748 233.63 101.332 233.715 100.916C233.8 100.5 233.886 100.063 233.971 99.604H234.051C234.147 100.063 234.238 100.5 234.323 100.916C234.408 101.321 234.504 101.732 234.611 102.148L235.731 106.5H237.939L240.211 97.7H238.483L237.347 102.468C237.251 102.895 237.16 103.316 237.075 103.732C237 104.137 236.92 104.548 236.835 104.964H236.771C236.664 104.548 236.563 104.137 236.467 103.732C236.382 103.316 236.286 102.895 236.179 102.468L234.915 97.7H233.203L231.971 102.468C231.864 102.884 231.763 103.3 231.667 103.716C231.582 104.132 231.491 104.548 231.395 104.964H231.331C231.246 104.548 231.166 104.137 231.091 103.732C231.016 103.316 230.936 102.895 230.851 102.468L229.683 97.7H227.827ZM242.021 97.7V106.5H243.845V100.26C244.24 99.8653 244.597 99.5667 244.917 99.364C245.237 99.1613 245.6 99.06 246.005 99.06C246.528 99.06 246.906 99.2253 247.141 99.556C247.376 99.876 247.493 100.42 247.493 101.188V106.5H249.333V100.964C249.333 99.8333 249.114 98.9693 248.677 98.372C248.25 97.7747 247.568 97.476 246.629 97.476C246.032 97.476 245.498 97.62 245.029 97.908C244.56 98.1853 244.122 98.5213 243.717 98.916H243.669L243.525 97.7H242.021ZM251.909 93.764V106.5H253.733V93.764H251.909ZM259.916 106.708C260.46 106.708 260.983 106.607 261.484 106.404C261.986 106.191 262.423 105.892 262.796 105.508C263.18 105.113 263.484 104.633 263.708 104.068C263.943 103.492 264.06 102.841 264.06 102.116C264.06 101.38 263.943 100.724 263.708 100.148C263.484 99.572 263.18 99.0867 262.796 98.692C262.423 98.2973 261.986 97.9987 261.484 97.796C260.983 97.5827 260.46 97.476 259.916 97.476C259.372 97.476 258.85 97.5827 258.348 97.796C257.847 97.9987 257.404 98.2973 257.02 98.692C256.647 99.0867 256.343 99.572 256.108 100.148C255.884 100.724 255.772 101.38 255.772 102.116C255.772 102.841 255.884 103.492 256.108 104.068C256.343 104.633 256.647 105.113 257.02 105.508C257.404 105.892 257.847 106.191 258.348 106.404C258.85 106.607 259.372 106.708 259.916 106.708ZM259.916 105.204C259.575 105.204 259.266 105.129 258.988 104.98C258.711 104.831 258.476 104.623 258.284 104.356C258.092 104.089 257.943 103.764 257.836 103.38C257.73 102.996 257.676 102.575 257.676 102.116C257.676 101.177 257.874 100.425 258.268 99.86C258.663 99.284 259.212 98.996 259.916 98.996C260.62 98.996 261.17 99.284 261.564 99.86C261.97 100.425 262.172 101.177 262.172 102.116C262.172 102.575 262.119 102.996 262.012 103.38C261.906 103.764 261.756 104.089 261.564 104.356C261.372 104.623 261.138 104.831 260.86 104.98C260.583 105.129 260.268 105.204 259.916 105.204ZM268.054 106.708C268.598 106.708 269.099 106.601 269.558 106.388C270.017 106.164 270.449 105.881 270.854 105.54H270.902L271.062 106.5H272.566V101.204C272.566 100.009 272.305 99.092 271.782 98.452C271.27 97.8013 270.465 97.476 269.366 97.476C268.662 97.476 268.011 97.588 267.414 97.812C266.827 98.0253 266.305 98.276 265.846 98.564L266.39 99.908C266.763 99.6627 267.179 99.4493 267.638 99.268C268.097 99.076 268.566 98.98 269.046 98.98C269.366 98.98 269.633 99.0333 269.846 99.14C270.07 99.236 270.246 99.3747 270.374 99.556C270.502 99.7267 270.593 99.9293 270.646 100.164C270.699 100.399 270.726 100.644 270.726 100.9C269.819 100.964 269.03 101.049 268.358 101.156C267.697 101.252 267.142 101.423 266.694 101.668C266.235 101.945 265.915 102.308 265.734 102.756C265.553 103.204 265.462 103.673 265.462 104.164C265.462 104.548 265.526 104.9 265.654 105.22C265.782 105.529 265.958 105.796 266.182 106.02C266.417 106.244 266.689 106.415 266.998 106.532C267.318 106.649 267.67 106.708 268.054 106.708ZM268.614 105.252C268.219 105.252 267.889 105.161 267.622 104.98C267.366 104.799 267.238 104.484 267.238 104.036C267.238 103.855 267.243 103.663 267.254 103.46C267.275 103.247 267.403 103.033 267.638 102.82C267.777 102.692 267.937 102.596 268.118 102.532C268.299 102.457 268.513 102.399 268.758 102.356C269.003 102.303 269.286 102.26 269.606 102.228C269.926 102.196 270.299 102.153 270.726 102.1V104.276C270.363 104.607 270.017 104.852 269.686 105.012C269.355 105.172 268.998 105.252 268.614 105.252ZM278.233 106.708C278.745 106.708 279.215 106.596 279.641 106.372C280.079 106.137 280.463 105.849 280.793 105.508H280.841L281.001 106.5H282.505V93.748H280.665V97.012L280.745 98.468C280.383 98.1587 280.025 97.9187 279.673 97.748C279.321 97.5667 278.889 97.476 278.377 97.476C277.887 97.476 277.412 97.5827 276.953 97.796C276.505 98.0093 276.105 98.3187 275.753 98.724C275.401 99.1187 275.119 99.604 274.905 100.18C274.703 100.745 274.601 101.391 274.601 102.116C274.601 103.609 274.921 104.751 275.561 105.54C276.212 106.319 277.103 106.708 278.233 106.708ZM278.665 105.188C277.961 105.188 277.423 104.921 277.049 104.388C276.687 103.855 276.505 103.087 276.505 102.084C276.505 101.604 276.564 101.177 276.681 100.804C276.799 100.42 276.953 100.1 277.145 99.844C277.348 99.5773 277.583 99.3747 277.849 99.236C278.127 99.0867 278.42 99.012 278.729 99.012C279.06 99.012 279.38 99.0707 279.689 99.188C280.009 99.3053 280.335 99.5133 280.665 99.812V104.116C280.047 104.831 279.38 105.188 278.665 105.188ZM293.122 95.22L293.49 93.844C293.287 93.7587 293.052 93.6893 292.786 93.636C292.519 93.572 292.236 93.54 291.938 93.54C291.447 93.54 291.026 93.6147 290.674 93.764C290.322 93.9133 290.034 94.1213 289.81 94.388C289.586 94.6547 289.42 94.98 289.314 95.364C289.207 95.7373 289.154 96.148 289.154 96.596V97.7L287.954 97.796V99.172H289.154V106.5H290.994V99.172H292.77V97.7H290.994V96.58C290.994 95.524 291.383 94.996 292.162 94.996C292.407 94.996 292.727 95.0707 293.122 95.22ZM297.713 106.708C298.257 106.708 298.78 106.607 299.281 106.404C299.783 106.191 300.22 105.892 300.593 105.508C300.977 105.113 301.281 104.633 301.505 104.068C301.74 103.492 301.857 102.841 301.857 102.116C301.857 101.38 301.74 100.724 301.505 100.148C301.281 99.572 300.977 99.0867 300.593 98.692C300.22 98.2973 299.783 97.9987 299.281 97.796C298.78 97.5827 298.257 97.476 297.713 97.476C297.169 97.476 296.647 97.5827 296.145 97.796C295.644 97.9987 295.201 98.2973 294.817 98.692C294.444 99.0867 294.14 99.572 293.905 100.148C293.681 100.724 293.569 101.38 293.569 102.116C293.569 102.841 293.681 103.492 293.905 104.068C294.14 104.633 294.444 105.113 294.817 105.508C295.201 105.892 295.644 106.191 296.145 106.404C296.647 106.607 297.169 106.708 297.713 106.708ZM297.713 105.204C297.372 105.204 297.063 105.129 296.785 104.98C296.508 104.831 296.273 104.623 296.081 104.356C295.889 104.089 295.74 103.764 295.633 103.38C295.527 102.996 295.473 102.575 295.473 102.116C295.473 101.177 295.671 100.425 296.065 99.86C296.46 99.284 297.009 98.996 297.713 98.996C298.417 98.996 298.967 99.284 299.361 99.86C299.767 100.425 299.969 101.177 299.969 102.116C299.969 102.575 299.916 102.996 299.809 103.38C299.703 103.764 299.553 104.089 299.361 104.356C299.169 104.623 298.935 104.831 298.657 104.98C298.38 105.129 298.065 105.204 297.713 105.204ZM304.005 97.7V106.5H305.829V101.012C306.107 100.319 306.443 99.8333 306.837 99.556C307.232 99.268 307.611 99.124 307.973 99.124C308.155 99.124 308.309 99.1347 308.437 99.156C308.565 99.1773 308.704 99.2147 308.853 99.268L309.189 97.668C309.051 97.604 308.901 97.556 308.741 97.524C308.592 97.492 308.411 97.476 308.197 97.476C307.717 97.476 307.259 97.636 306.821 97.956C306.384 98.2653 306.011 98.708 305.701 99.284H305.653L305.509 97.7H304.005ZM211.205 120.78H206.977L210.981 141.5H216.049L218.317 131.252C218.485 130.412 218.634 129.6 218.765 128.816C218.914 128.032 219.064 127.248 219.213 126.464H219.325C219.456 127.248 219.596 128.032 219.745 128.816C219.894 129.6 220.053 130.412 220.221 131.252L222.545 141.5H227.697L231.533 120.78H227.585L225.961 130.888C225.812 131.971 225.653 133.063 225.485 134.164C225.336 135.265 225.186 136.376 225.037 137.496H224.897C224.673 136.376 224.449 135.265 224.225 134.164C224.02 133.044 223.805 131.952 223.581 130.888L221.173 120.78H217.645L215.237 130.888C215.013 131.971 214.789 133.063 214.565 134.164C214.341 135.265 214.126 136.376 213.921 137.496H213.809C213.66 136.376 213.501 135.275 213.333 134.192C213.165 133.109 213.006 132.008 212.857 130.888L211.205 120.78ZM233.942 123.3H238.03V119.324H233.942V123.3ZM233.914 125.82V141.5H238.002V125.82H233.914ZM245.405 125.82H242.045V141.5H246.133V130.72C246.73 130.141 247.262 129.703 247.729 129.404C248.195 129.105 248.755 128.956 249.409 128.956C250.193 128.956 250.753 129.199 251.089 129.684C251.443 130.169 251.621 131.019 251.621 132.232V141.5H255.737V131.728C255.737 129.749 255.354 128.209 254.589 127.108C253.823 125.988 252.591 125.428 250.893 125.428C249.829 125.428 248.886 125.671 248.065 126.156C247.243 126.641 246.487 127.22 245.797 127.892H245.685L245.405 125.82ZM265.498 141.892C266.338 141.892 267.122 141.696 267.85 141.304C268.597 140.912 269.259 140.436 269.838 139.876H269.922L270.258 141.5H273.59V119.156H269.474V124.672L269.642 127.136C269.082 126.613 268.503 126.203 267.906 125.904C267.309 125.587 266.562 125.428 265.666 125.428C264.826 125.428 264.005 125.624 263.202 126.016C262.418 126.389 261.718 126.931 261.102 127.64C260.486 128.349 259.991 129.217 259.618 130.244C259.263 131.252 259.086 132.4 259.086 133.688C259.086 134.976 259.235 136.124 259.534 137.132C259.833 138.14 260.262 138.999 260.822 139.708C261.382 140.417 262.054 140.959 262.838 141.332C263.641 141.705 264.527 141.892 265.498 141.892ZM266.562 138.504C264.397 138.504 263.314 136.88 263.314 133.632C263.314 132.848 263.398 132.157 263.566 131.56C263.753 130.963 263.986 130.459 264.266 130.048C264.565 129.637 264.91 129.329 265.302 129.124C265.694 128.919 266.114 128.816 266.562 128.816C267.047 128.816 267.533 128.909 268.018 129.096C268.503 129.264 268.989 129.563 269.474 129.992V136.88C269.026 137.477 268.559 137.897 268.074 138.14C267.607 138.383 267.103 138.504 266.562 138.504ZM284.554 141.892C285.543 141.892 286.486 141.705 287.382 141.332C288.296 140.959 289.099 140.427 289.79 139.736C290.48 139.027 291.031 138.168 291.442 137.16C291.871 136.133 292.086 134.976 292.086 133.688C292.086 132.381 291.871 131.215 291.442 130.188C291.031 129.161 290.48 128.303 289.79 127.612C289.099 126.903 288.296 126.361 287.382 125.988C286.486 125.615 285.543 125.428 284.554 125.428C283.583 125.428 282.64 125.615 281.726 125.988C280.811 126.361 280.008 126.903 279.318 127.612C278.627 128.303 278.067 129.161 277.638 130.188C277.227 131.215 277.022 132.381 277.022 133.688C277.022 134.976 277.227 136.133 277.638 137.16C278.067 138.168 278.627 139.027 279.318 139.736C280.008 140.427 280.811 140.959 281.726 141.332C282.64 141.705 283.583 141.892 284.554 141.892ZM284.554 138.532C283.49 138.532 282.668 138.093 282.09 137.216C281.511 136.339 281.222 135.163 281.222 133.688C281.222 132.176 281.511 130.981 282.09 130.104C282.668 129.227 283.49 128.788 284.554 128.788C285.618 128.788 286.439 129.227 287.018 130.104C287.596 130.981 287.886 132.176 287.886 133.688C287.886 135.163 287.596 136.339 287.018 137.216C286.439 138.093 285.618 138.532 284.554 138.532ZM298.189 125.82H294.073L298.133 141.5H302.837L304.433 134.668C304.601 133.94 304.75 133.212 304.881 132.484C305.012 131.737 305.152 130.944 305.301 130.104H305.441C305.59 130.944 305.73 131.728 305.861 132.456C306.01 133.184 306.169 133.921 306.337 134.668L307.989 141.5H312.833L316.697 125.82H312.889L311.181 133.576C311.032 134.36 310.901 135.125 310.789 135.872C310.677 136.6 310.546 137.356 310.397 138.14H310.257C310.089 137.356 309.93 136.6 309.781 135.872C309.632 135.125 309.464 134.36 309.277 133.576L307.317 125.82H303.649L301.773 133.576C301.568 134.323 301.39 135.079 301.241 135.844C301.092 136.591 300.942 137.356 300.793 138.14H300.681C300.532 137.356 300.401 136.6 300.289 135.872C300.177 135.125 300.046 134.36 299.897 133.576L298.189 125.82ZM324.181 141.892C325.207 141.892 326.103 141.761 326.869 141.5C327.653 141.239 328.306 140.884 328.829 140.436C329.351 139.988 329.743 139.465 330.005 138.868C330.285 138.271 330.425 137.627 330.425 136.936C330.425 136.208 330.294 135.592 330.033 135.088C329.771 134.565 329.426 134.127 328.997 133.772C328.586 133.417 328.119 133.119 327.597 132.876C327.093 132.633 326.579 132.409 326.057 132.204C325.646 132.055 325.245 131.915 324.853 131.784C324.479 131.635 324.143 131.476 323.845 131.308C323.546 131.14 323.303 130.953 323.117 130.748C322.949 130.543 322.865 130.3 322.865 130.02C322.865 129.572 323.033 129.208 323.369 128.928C323.705 128.648 324.227 128.508 324.937 128.508C325.534 128.508 326.103 128.639 326.645 128.9C327.205 129.143 327.765 129.46 328.325 129.852L330.173 127.36C329.519 126.875 328.754 126.436 327.877 126.044C327.018 125.633 326.001 125.428 324.825 125.428C323.947 125.428 323.145 125.549 322.417 125.792C321.707 126.016 321.101 126.343 320.597 126.772C320.093 127.201 319.701 127.715 319.421 128.312C319.141 128.891 319.001 129.535 319.001 130.244C319.001 130.897 319.131 131.467 319.393 131.952C319.654 132.437 319.99 132.867 320.401 133.24C320.811 133.595 321.269 133.903 321.773 134.164C322.277 134.407 322.781 134.621 323.285 134.808C323.695 134.976 324.097 135.144 324.489 135.312C324.881 135.461 325.226 135.629 325.525 135.816C325.842 135.984 326.094 136.18 326.281 136.404C326.467 136.609 326.561 136.861 326.561 137.16C326.561 137.645 326.374 138.047 326.001 138.364C325.646 138.663 325.077 138.812 324.293 138.812C323.565 138.812 322.855 138.663 322.165 138.364C321.493 138.065 320.802 137.645 320.093 137.104L318.217 139.68C319.001 140.333 319.925 140.865 320.989 141.276C322.053 141.687 323.117 141.892 324.181 141.892Z" fill="current" class="osType"/>
<rect x="1.47314" y="0.5" width="439" height="239" rx="3.5" stroke="#DEE2E6"/>
<defs>
<clipPath id="clip0_1166_5421">
<rect width="88" height="88" fill="white" transform="translate(110.473 76)"/>
</clipPath>
</defs>
</svg>
