<svg width="24" height="24" viewBox="0 0 24 24" fill="none" xmlns="http://www.w3.org/2000/svg">
<path d="M17.4 16C18.5 14.6 19.1 12.8 19.1 11.1C19.1 9.00001 18.3 7.00001 16.8 5.40001C13.7 2.30001 8.6 2.30001 5.5 5.40001C3.9 6.80001 3 8.80001 3 11C3 13.1 3.8 15.1 5.3 16.7C6.9 18.2 8.9 19 11 19C12.9 19 14.6 18.4 15.9 17.3L19.7 21.1L21.1 19.7L17.4 16ZM15.2 15.2C14.1 16.3 12.6 17 11 17C9.4 17 7.9 16.3 6.8 15.2C5.7 14.1 5 12.6 5 11C5 9.40001 5.7 7.90001 6.7 6.80001C7.9 5.70001 9.5 5.00001 11 5.00001C12.6 5.00001 14.1 5.60001 15.2 6.80001C16.4 8.00001 17 9.50001 17 11.1C17 12.7 16.4 14.1 15.2 15.2Z" fill="#868E96"/>
<path d="M15 9.79999H12V6.79999H10V9.79999H7V11.8H10V14.8H12V11.8H15V9.79999Z" fill="#868E96"/>
</svg>
